<svg width="33" height="33" viewBox="0 0 33 33" fill="none" xmlns="http://www.w3.org/2000/svg"><path d="M16.25.05C7.276.05 0 7.327 0 16.3c0 8.975 7.276 16.25 16.25 16.25 8.975 0 16.25-7.275 16.25-16.25C32.5 7.326 25.225.05 16.25.05zm0 31.688C7.724 31.738.813 24.826.813 16.3.813 7.775 7.724.863 16.25.863S31.687 7.775 31.687 16.3c0 8.526-6.91 15.438-15.437 15.438z" fill="url(#paint0_linear_1322_22500)"/><path d="M31.804 16.3c0 8.59-6.964 15.554-15.554 15.554S.697 24.89.697 16.3 7.661.747 16.25.747c8.59 0 15.554 6.963 15.554 15.553z" fill="#333"/><path d="M31.689 16.3c0 8.526-6.911 15.438-15.438 15.438C7.726 31.738.816 24.826.816 16.3.815 7.775 7.725.863 16.252.863c8.526 0 15.437 6.912 15.437 15.437z" fill="url(#paint1_radial_1322_22500)"/><path d="M26.6 16.3c0 5.716-4.633 10.35-10.35 10.35-5.715 0-10.349-4.634-10.349-10.35 0-5.716 4.634-10.35 10.35-10.35 5.716 0 10.35 4.635 10.35 10.35z" fill="url(#paint2_linear_1322_22500)"/><path d="m16.664 5.671 1.075-2.85v2.85h.817v-4.08h-1.227l-1.117 2.921h.011L15.107 1.59H13.88v4.081h.816v-2.85l1.075 2.85h.893zm11.206 1.83-1.395 2.034 2.191-1.078.594.713-3.448 1.732-.697-.844 1.337-2.015-.008-.01-2.224.951-.705-.838 2.326-3.079.594.713-1.456 1.961 2.254-1.005.637.765z" fill="#000"/><path d="M9.022 6.721c-.328-.319-.836-.415-1.312-.12a.907.907 0 0 0 .006-.609c-.206-.374-.278-.421-.446-.563-.548-.46-1.125-.067-1.537.424L3.742 8.226l3.13 2.627 2.1-2.502c.48-.572.555-1.14.05-1.63zm-4.05 1.145 1.196-1.425c.14-.165.453-.159.654.01.221.186.222.45.073.627L5.712 8.487l-.74-.621zm3.3.237L7.025 9.59l-.78-.656L7.5 7.435c.142-.169.459-.218.672-.04.24.203.265.511.1.708z" fill="#333"/><path d="m16.674 5.513 1.075-2.849v2.85h.816V1.432h-1.227l-1.116 2.921h.01l-1.115-2.921h-1.228v4.08h.817V2.664l1.075 2.85h.893z" fill="url(#paint3_radial_1322_22500)"/><path d="m27.878 7.227-1.395 2.034 2.191-1.078.594.713-3.448 1.732-.697-.844L26.46 7.77l-.008-.01-2.224.952-.704-.839 2.325-3.079.595.713-1.456 1.961 2.252-1.005.638.765z" fill="url(#paint4_radial_1322_22500)"/><path d="M8.875 6.641c-.328-.319-.836-.415-1.312-.12a.909.909 0 0 0 .006-.609c-.206-.374-.277-.421-.447-.563-.548-.46-1.124-.067-1.535.424L3.595 8.146l3.13 2.627 2.1-2.503c.48-.572.555-1.139.05-1.629zm-4.05 1.145L6.021 6.36c.139-.165.452-.158.654.01.221.187.222.45.072.627l-1.182 1.41-.74-.621zm3.301.237L6.879 9.509l-.782-.657 1.257-1.498c.142-.168.458-.218.671-.039.242.203.266.51.101.708z" fill="url(#paint5_radial_1322_22500)"/><path d="M6.245 16.3c0-5.525 4.48-10.005 10.005-10.005 5.526 0 10.005 4.48 10.005 10.006S21.776 26.306 16.25 26.306c-5.526 0-10.005-4.48-10.005-10.005z" fill="url(#paint6_radial_1322_22500)"/><path d="M6.533 16.3c0-5.366 4.35-9.717 9.717-9.717 5.367 0 9.718 4.35 9.718 9.718 0 5.367-4.35 9.717-9.718 9.717-5.367 0-9.717-4.35-9.717-9.717z" fill="url(#paint7_radial_1322_22500)"/><path d="M6.517 16.3h9.733V6.568c-5.376 0-9.733 4.357-9.733 9.732z" fill="url(#paint8_radial_1322_22500)"/><path d="M16.25 16.3v9.733c5.375 0 9.733-4.358 9.733-9.733H16.25z" fill="url(#paint9_radial_1322_22500)"/><path d="M26.063 16.128h-9.64V6.487h-.346v9.64h-9.64v.346h9.64v9.64h.345v-9.64h9.641v-.345z" fill="url(#paint10_radial_1322_22500)"/><path d="M16.422 6.76a9.542 9.542 0 0 1 9.37 9.368h.171a9.714 9.714 0 0 0-9.54-9.54v.172z" fill="url(#paint11_linear_1322_22500)"/><path d="M6.691 16.126a9.555 9.555 0 0 1 9.381-9.38v-.173a9.727 9.727 0 0 0-9.553 9.553h.172z" fill="#C2D7E8"/><path d="M16.077 25.841a9.541 9.541 0 0 1-9.369-9.368h-.172a9.715 9.715 0 0 0 9.54 9.54v-.172z" fill="url(#paint12_linear_1322_22500)"/><path d="M25.791 16.473a9.542 9.542 0 0 1-9.369 9.368v.173a9.714 9.714 0 0 0 9.541-9.541h-.172z" fill="#12404F"/><path d="M15.893 6.573v9.365H6.528v.185h9.55v-9.55h-.185z" fill="url(#paint13_linear_1322_22500)"/><path d="M15.877 25.923v-9.252H6.606v-.183h9.454v9.435h-.182z" fill="url(#paint14_linear_1322_22500)"/><path d="M16.62 25.923v-9.252h9.253v-.183H16.44v9.435h.182z" fill="url(#paint15_linear_1322_22500)"/><path d="M16.62 6.656v9.252h9.253v.183H16.44V6.656h.182z" fill="url(#paint16_linear_1322_22500)"/><defs><radialGradient id="paint1_radial_1322_22500" cx="0" cy="0" r="1" gradientUnits="userSpaceOnUse" gradientTransform="translate(-.201 1.126) scale(23.0868)"><stop stop-color="#fff"/><stop offset=".306" stop-color="#A8A8A8"/><stop offset=".646" stop-color="#4F4F4F"/><stop offset=".885" stop-color="#161616"/><stop offset="1"/></radialGradient><radialGradient id="paint3_radial_1322_22500" cx="0" cy="0" r="1" gradientUnits="userSpaceOnUse" gradientTransform="translate(-4.348 -1.226) scale(55.4742)"><stop stop-color="#fff"/><stop offset=".31" stop-color="#FDFDFD"/><stop offset=".451" stop-color="#F6F6F6"/><stop offset=".557" stop-color="#E9E9E9"/><stop offset=".646" stop-color="#D7D7D7"/><stop offset=".724" stop-color="#BFBFBF"/><stop offset=".794" stop-color="#A2A2A2"/><stop offset=".859" stop-color="gray"/><stop offset=".92" stop-color="#575757"/><stop offset=".975" stop-color="#2B2B2B"/><stop offset="1" stop-color="#141414"/></radialGradient><radialGradient id="paint4_radial_1322_22500" cx="0" cy="0" r="1" gradientUnits="userSpaceOnUse" gradientTransform="translate(-4.352 -1.226) scale(55.479)"><stop stop-color="#fff"/><stop offset=".31" stop-color="#FDFDFD"/><stop offset=".451" stop-color="#F6F6F6"/><stop offset=".557" stop-color="#E9E9E9"/><stop offset=".646" stop-color="#D7D7D7"/><stop offset=".724" stop-color="#BFBFBF"/><stop offset=".794" stop-color="#A2A2A2"/><stop offset=".859" stop-color="gray"/><stop offset=".92" stop-color="#575757"/><stop offset=".975" stop-color="#2B2B2B"/><stop offset="1" stop-color="#141414"/></radialGradient><radialGradient id="paint5_radial_1322_22500" cx="0" cy="0" r="1" gradientUnits="userSpaceOnUse" gradientTransform="translate(-4.356 -1.242) scale(55.5214)"><stop stop-color="#fff"/><stop offset=".31" stop-color="#FDFDFD"/><stop offset=".451" stop-color="#F6F6F6"/><stop offset=".557" stop-color="#E9E9E9"/><stop offset=".646" stop-color="#D7D7D7"/><stop offset=".724" stop-color="#BFBFBF"/><stop offset=".794" stop-color="#A2A2A2"/><stop offset=".859" stop-color="gray"/><stop offset=".92" stop-color="#575757"/><stop offset=".975" stop-color="#2B2B2B"/><stop offset="1" stop-color="#141414"/></radialGradient><radialGradient id="paint6_radial_1322_22500" cx="0" cy="0" r="1" gradientUnits="userSpaceOnUse" gradientTransform="translate(5.587 6.465) scale(14.9631)"><stop stop-color="#E6E6E6"/><stop offset=".104" stop-color="#D6D6D6"/><stop offset=".307" stop-color="#ADADAD"/><stop offset=".588" stop-color="#6C6C6C"/><stop offset=".933" stop-color="#121212"/><stop offset="1"/></radialGradient><radialGradient id="paint7_radial_1322_22500" cx="0" cy="0" r="1" gradientUnits="userSpaceOnUse" gradientTransform="translate(9.68 8.478) scale(21.7606)"><stop stop-color="#fff"/><stop offset=".344" stop-color="#FDFDFD"/><stop offset=".481" stop-color="#F6F6F6"/><stop offset=".582" stop-color="#EAEAEA"/><stop offset=".665" stop-color="#D8D8D8"/><stop offset=".737" stop-color="#C2C2C2"/><stop offset=".802" stop-color="#A6A6A6"/><stop offset=".86" stop-color="#848484"/><stop offset=".913" stop-color="#5F5F5F"/><stop offset=".949" stop-color="#404040"/><stop offset=".957" stop-color="#404040"/><stop offset="1"/></radialGradient><radialGradient id="paint8_radial_1322_22500" cx="0" cy="0" r="1" gradientUnits="userSpaceOnUse" gradientTransform="translate(3.29 .229) scale(38.5383)"><stop offset=".169" stop-color="#fff"/><stop offset=".196" stop-color="#E0EFF7"/><stop offset=".241" stop-color="#B2D9EC"/><stop offset=".287" stop-color="#8BC5E2"/><stop offset=".335" stop-color="#6BB5DA"/><stop offset=".384" stop-color="#52A9D4"/><stop offset=".436" stop-color="#41A0CF"/><stop offset=".491" stop-color="#369BCD"/><stop offset=".556" stop-color="#39C"/><stop offset=".606" stop-color="#3396C8"/><stop offset=".655" stop-color="#328EBC"/><stop offset=".705" stop-color="#3180A8"/><stop offset=".754" stop-color="#2F6D8C"/><stop offset=".803" stop-color="#2D5468"/><stop offset=".851" stop-color="#2A373D"/><stop offset=".871" stop-color="#292929"/></radialGradient><radialGradient id="paint9_radial_1322_22500" cx="0" cy="0" r="1" gradientUnits="userSpaceOnUse" gradientTransform="translate(3.29 .229) scale(38.5376)"><stop offset=".169" stop-color="#fff"/><stop offset=".196" stop-color="#E0EFF7"/><stop offset=".241" stop-color="#B2D9EC"/><stop offset=".287" stop-color="#8BC5E2"/><stop offset=".335" stop-color="#6BB5DA"/><stop offset=".384" stop-color="#52A9D4"/><stop offset=".436" stop-color="#41A0CF"/><stop offset=".491" stop-color="#369BCD"/><stop offset=".556" stop-color="#39C"/><stop offset=".606" stop-color="#3396C8"/><stop offset=".655" stop-color="#328EBC"/><stop offset=".705" stop-color="#3180A8"/><stop offset=".754" stop-color="#2F6D8C"/><stop offset=".803" stop-color="#2D5468"/><stop offset=".851" stop-color="#2A373D"/><stop offset=".871" stop-color="#292929"/></radialGradient><radialGradient id="paint10_radial_1322_22500" cx="0" cy="0" r="1" gradientUnits="userSpaceOnUse" gradientTransform="translate(5.79 6.654) scale(14.6763)"><stop stop-color="#E6E6E6"/><stop offset=".104" stop-color="#D6D6D6"/><stop offset=".307" stop-color="#ADADAD"/><stop offset=".588" stop-color="#6C6C6C"/><stop offset=".933" stop-color="#121212"/><stop offset="1"/></radialGradient><linearGradient id="paint0_linear_1322_22500" x1="-2.379" y1="-1.701" x2="32.1" y2="31.617" gradientUnits="userSpaceOnUse"><stop stop-color="#DFF4FF"/><stop offset=".098" stop-color="#D6EAF5"/><stop offset=".268" stop-color="#BFD0D9"/><stop offset=".488" stop-color="#98A5AC"/><stop offset=".747" stop-color="#646B6E"/><stop offset="1" stop-color="#2B2B2B"/></linearGradient><linearGradient id="paint2_linear_1322_22500" x1="28.115" y1="27.765" x2="6.156" y2="6.545" gradientUnits="userSpaceOnUse"><stop stop-color="#DFF4FF"/><stop offset=".086" stop-color="#D6EAF5"/><stop offset=".233" stop-color="#BED0D9"/><stop offset=".424" stop-color="#96A4AC"/><stop offset=".652" stop-color="#5F686D"/><stop offset=".907" stop-color="#1A1D1E"/><stop offset="1"/></linearGradient><linearGradient id="paint11_linear_1322_22500" x1="14.325" y1="2.989" x2="28.637" y2="16.82" gradientUnits="userSpaceOnUse"><stop stop-color="#F0F4FF"/><stop offset=".109" stop-color="#EBEFF9"/><stop offset=".247" stop-color="#DCE0EA"/><stop offset=".403" stop-color="#C4C7CF"/><stop offset=".57" stop-color="#A2A4AB"/><stop offset=".747" stop-color="#76777C"/><stop offset=".929" stop-color="#414243"/><stop offset="1" stop-color="#2B2B2B"/></linearGradient><linearGradient id="paint12_linear_1322_22500" x1="2.708" y1="14.666" x2="17.021" y2="28.497" gradientUnits="userSpaceOnUse"><stop stop-color="#F0F4FF"/><stop offset=".109" stop-color="#EBEFF9"/><stop offset=".247" stop-color="#DCE0EA"/><stop offset=".403" stop-color="#C4C7CF"/><stop offset=".57" stop-color="#A2A4AB"/><stop offset=".747" stop-color="#76777C"/><stop offset=".929" stop-color="#414243"/><stop offset="1" stop-color="#2B2B2B"/></linearGradient><linearGradient id="paint13_linear_1322_22500" x1="9.633" y1="9.734" x2="17.055" y2="16.906" gradientUnits="userSpaceOnUse"><stop stop-color="#C2D7E8"/><stop offset=".134" stop-color="#BACFE1"/><stop offset=".343" stop-color="#A4BACD"/><stop offset=".6" stop-color="#8098AC"/><stop offset=".894" stop-color="#4E697F"/><stop offset="1" stop-color="#3A566D"/></linearGradient><linearGradient id="paint14_linear_1322_22500" x1="5.916" y1="11.492" x2="20.085" y2="25.183" gradientUnits="userSpaceOnUse"><stop stop-color="#F0F4FF"/><stop offset=".097" stop-color="#E8EBF6"/><stop offset=".257" stop-color="#D1D4DD"/><stop offset=".459" stop-color="#ABAEB5"/><stop offset=".695" stop-color="#78797D"/><stop offset=".958" stop-color="#363637"/><stop offset="1" stop-color="#2B2B2B"/></linearGradient><linearGradient id="paint15_linear_1322_22500" x1="16.359" y1="16.57" x2="21.329" y2="21.373" gradientUnits="userSpaceOnUse"><stop stop-color="#D9DEF0"/><stop offset=".123" stop-color="#D4DAEC"/><stop offset=".263" stop-color="#C7CFE2"/><stop offset=".411" stop-color="#B0BCD1"/><stop offset=".566" stop-color="#90A1B8"/><stop offset=".725" stop-color="#677F99"/><stop offset=".885" stop-color="#355674"/><stop offset=".972" stop-color="#173D5D"/></linearGradient><linearGradient id="paint16_linear_1322_22500" x1="11.275" y1="6.296" x2="25.428" y2="19.972" gradientUnits="userSpaceOnUse"><stop stop-color="#F0F4FF"/><stop offset=".109" stop-color="#EBEFF9"/><stop offset=".247" stop-color="#DCE0EA"/><stop offset=".403" stop-color="#C4C7CF"/><stop offset=".57" stop-color="#A2A4AB"/><stop offset=".747" stop-color="#76777C"/><stop offset=".929" stop-color="#414243"/><stop offset="1" stop-color="#2B2B2B"/></linearGradient></defs></svg>