<svg width="78" height="17" viewBox="0 0 78 17" fill="none" xmlns="http://www.w3.org/2000/svg"><rect y=".5" width="78" height="16" rx="4" fill="#FF4C00"/><path d="M4.35 8.5c0-.687.153-1.3.46-1.84a3.32 3.32 0 0 1 1.27-1.27 3.6 3.6 0 0 1 1.81-.46c.78 0 1.463.2 2.05.6.587.4.997.953 1.23 1.66H9.56a1.66 1.66 0 0 0-.68-.75 1.953 1.953 0 0 0-1-.25c-.407 0-.77.097-1.09.29-.313.187-.56.453-.74.8-.173.347-.26.753-.26 1.22 0 .46.087.867.26 1.22.18.347.427.617.74.81.32.187.683.28 1.09.28.38 0 .713-.083 1-.25a1.72 1.72 0 0 0 .68-.76h1.61c-.233.713-.643 1.27-1.23 1.67-.58.393-1.263.59-2.05.59-.667 0-1.27-.15-1.81-.45a3.415 3.415 0 0 1-1.27-1.27c-.307-.54-.46-1.153-.46-1.84zm7.318.71c0-.56.11-1.057.33-1.49.226-.433.53-.767.91-1 .386-.233.816-.35 1.29-.35.413 0 .773.083 1.08.25.313.167.563.377.75.63v-.79h1.41V12h-1.41v-.81c-.18.26-.43.477-.75.65-.314.167-.677.25-1.09.25a2.38 2.38 0 0 1-1.28-.36 2.577 2.577 0 0 1-.91-1.01c-.22-.44-.33-.943-.33-1.51zm4.36.02c0-.34-.067-.63-.2-.87a1.368 1.368 0 0 0-.54-.56c-.227-.133-.47-.2-.73-.2s-.5.063-.72.19c-.22.127-.4.313-.54.56-.134.24-.2.527-.2.86 0 .333.066.627.2.88.14.247.32.437.54.57.226.133.466.2.72.2.26 0 .503-.063.73-.19.226-.133.406-.32.54-.56.133-.247.2-.54.2-.88zm3.839-1.91c.18-.293.413-.523.7-.69.293-.167.626-.25 1-.25v1.47h-.37c-.44 0-.774.103-1 .31-.22.207-.33.567-.33 1.08V12h-1.4V6.46h1.4v.86zm3.704 0c.18-.293.414-.523.7-.69.294-.167.627-.25 1-.25v1.47h-.37c-.44 0-.773.103-1 .31-.22.207-.33.567-.33 1.08V12h-1.4V6.46h1.4v.86zm4.765 4.77a2.952 2.952 0 0 1-1.44-.35 2.626 2.626 0 0 1-1.01-1.01c-.24-.433-.36-.933-.36-1.5s.123-1.067.37-1.5a2.606 2.606 0 0 1 1.03-1c.434-.24.917-.36 1.45-.36.534 0 1.017.12 1.45.36.433.233.773.567 1.02 1 .253.433.38.933.38 1.5s-.13 1.067-.39 1.5c-.253.433-.6.77-1.04 1.01a3.03 3.03 0 0 1-1.46.35zm0-1.22c.254 0 .49-.06.71-.18.227-.127.407-.313.54-.56.134-.247.2-.547.2-.9 0-.527-.14-.93-.42-1.21a1.34 1.34 0 0 0-1.01-.43c-.4 0-.737.143-1.01.43-.267.28-.4.683-.4 1.21 0 .527.13.933.39 1.22.267.28.6.42 1 .42zM33.7 8.51c0-.68.154-1.29.46-1.83a3.344 3.344 0 0 1 1.25-1.28 3.488 3.488 0 0 1 1.77-.46c.76 0 1.424.183 1.99.55.567.367.98.887 1.24 1.56h-1.09a2.178 2.178 0 0 0-.84-.97c-.36-.227-.793-.34-1.3-.34-.486 0-.923.113-1.31.34a2.37 2.37 0 0 0-.91.97c-.22.413-.33.9-.33 1.46 0 .553.11 1.04.33 1.46.22.413.524.733.91.96.387.227.824.34 1.31.34.507 0 .94-.11 1.3-.33.367-.227.647-.55.84-.97h1.09c-.26.667-.673 1.183-1.24 1.55-.566.36-1.23.54-1.99.54-.646 0-1.236-.15-1.77-.45a3.364 3.364 0 0 1-1.25-1.27c-.306-.54-.46-1.15-.46-1.83zm12.727.54c0 .173-.01.357-.03.55h-4.38c.033.54.217.963.55 1.27.34.3.75.45 1.23.45.393 0 .72-.09.98-.27.266-.187.453-.433.56-.74h.98a2.38 2.38 0 0 1-.88 1.29c-.44.327-.987.49-1.64.49-.52 0-.987-.117-1.4-.35a2.495 2.495 0 0 1-.96-.99c-.233-.433-.35-.933-.35-1.5s.113-1.063.34-1.49c.227-.427.543-.753.95-.98.413-.233.887-.35 1.42-.35.52 0 .98.113 1.38.34.4.227.706.54.92.94.22.393.33.84.33 1.34zm-.94-.19c0-.347-.077-.643-.23-.89a1.447 1.447 0 0 0-.63-.57c-.26-.133-.55-.2-.87-.2-.46 0-.853.147-1.18.44-.32.293-.504.7-.55 1.22h3.46zm2.713-1.45c.16-.313.386-.557.68-.73.3-.173.663-.26 1.09-.26v.94h-.24c-1.02 0-1.53.553-1.53 1.66V12h-.91V6.52h.91v.89zm3.592-.14v3.23c0 .267.057.457.17.57.113.107.31.16.59.16h.67V12h-.82c-.507 0-.887-.117-1.14-.35-.253-.233-.38-.617-.38-1.15V7.27h-.71v-.75h.71V5.14h.91v1.38h1.43v.75h-1.43zm2.664-1.64a.599.599 0 0 1-.44-.18.599.599 0 0 1-.18-.44c0-.173.06-.32.18-.44s.267-.18.44-.18c.167 0 .307.06.42.18.12.12.18.267.18.44s-.06.32-.18.44a.555.555 0 0 1-.42.18zm.44.89V12h-.91V6.52h.91zm3.443.75h-1.15V12h-.91V7.27h-.71v-.75h.71v-.39c0-.613.157-1.06.47-1.34.32-.287.83-.43 1.53-.43v.76c-.4 0-.683.08-.85.24-.16.153-.24.41-.24.77v.39h1.15v.75zm1.193-1.64a.599.599 0 0 1-.44-.18.599.599 0 0 1-.18-.44c0-.173.06-.32.18-.44s.267-.18.44-.18c.166 0 .306.06.42.18.12.12.18.267.18.44s-.06.32-.18.44a.555.555 0 0 1-.42.18zm.44.89V12h-.91V6.52h.91zm6.212 2.53c0 .173-.01.357-.03.55h-4.38c.034.54.217.963.55 1.27.34.3.75.45 1.23.45.394 0 .72-.09.98-.27.267-.187.454-.433.56-.74h.98a2.38 2.38 0 0 1-.88 1.29c-.44.327-.986.49-1.64.49-.52 0-.986-.117-1.4-.35a2.495 2.495 0 0 1-.96-.99c-.233-.433-.35-.933-.35-1.5s.114-1.063.34-1.49c.227-.427.544-.753.95-.98.414-.233.887-.35 1.42-.35.52 0 .98.113 1.38.34.4.227.707.54.92.94.22.393.33.84.33 1.34zm-.94-.19c0-.347-.076-.643-.23-.89a1.447 1.447 0 0 0-.63-.57c-.26-.133-.55-.2-.87-.2-.46 0-.853.147-1.18.44-.32.293-.503.7-.55 1.22h3.46zm1.463.38c0-.56.114-1.05.34-1.47a2.47 2.47 0 0 1 .93-.99c.4-.233.847-.35 1.34-.35.427 0 .824.1 1.19.3.367.193.647.45.84.77V4.6h.92V12h-.92v-1.03c-.18.327-.446.597-.8.81-.353.207-.766.31-1.24.31-.486 0-.93-.12-1.33-.36a2.526 2.526 0 0 1-.93-1.01c-.226-.433-.34-.927-.34-1.48zm4.64.01c0-.413-.083-.773-.25-1.08a1.72 1.72 0 0 0-.68-.7c-.28-.167-.59-.25-.93-.25-.34 0-.65.08-.93.24-.28.16-.503.393-.67.7-.166.307-.25.667-.25 1.08 0 .42.084.787.25 1.1.167.307.39.543.67.71.28.16.59.24.93.24.34 0 .65-.08.93-.24a1.79 1.79 0 0 0 .68-.71c.167-.313.25-.677.25-1.09z" fill="#fff"/></svg>