<svg width="31" height="32" viewBox="0 0 31 32" xmlns="http://www.w3.org/2000/svg"><g id="New-Car" stroke="none" stroke-width="1" fill="none" fill-rule="evenodd"><g id="Web-Financing" transform="translate(-271 -2890)" fill="#FFF"><g id="Group-2" transform="translate(0 2827)"><g id="ic_headerlogo" transform="translate(142 63)"><path d="M151.96 13.003a.639.639 0 0 1-.345.365l-1.657.713a.622.622 0 0 1-.802-.294c-.886-1.781-2.728-2.828-4.69-2.665-2.424.2-4.362 2.297-4.413 4.775a4.904 4.904 0 0 0 1.375 3.526 4.735 4.735 0 0 0 3.435 1.472c1.682 0 3.213-.87 4.096-2.325a.603.603 0 0 1 .8-.224l1.623.872a.627.627 0 0 1 .242.87c-1.41 2.413-4 3.912-6.76 3.912a7.742 7.742 0 0 1-5.572-2.36A8.016 8.016 0 0 1 137 15.96c.02-4.15 3.218-7.638 7.282-7.938 3.238-.24 6.241 1.52 7.655 4.48a.638.638 0 0 1 .022.5m5.244-2.433c-.741-1.845-.396-4.492-1.743-5.883-1.347-1.39-3.911-1.034-5.699-1.799C148.037 2.15 146.483 0 144.5 0s-3.537 2.15-5.261 2.887c-1.787.765-4.352.409-5.699 1.8-1.347 1.39-1.001 4.037-1.742 5.882C131.083 12.35 129 13.954 129 16c0 2.047 2.083 3.651 2.797 5.43.742 1.846.396 4.494 1.743 5.884 1.347 1.39 3.912 1.034 5.699 1.799 1.724.738 3.278 2.887 5.261 2.887s3.537-2.15 5.261-2.887c1.788-.765 4.352-.409 5.7-1.799 1.346-1.39 1-4.038 1.742-5.883.715-1.78 2.797-3.384 2.797-5.43 0-2.047-2.082-3.652-2.797-5.432" id="Fill-11"/></g></g></g></g></svg>