<svg width="52" height="30" viewBox="0 0 52 30" fill="none" xmlns="http://www.w3.org/2000/svg"><path d="M44.162 6.063c3.44 1.882 7.333 5.192 6.927 9.603-.472 4.09-4.284 6.944-7.69 8.663-9.944 4.754-23.91 4.9-34.178.746-3.47-1.444-7.364-3.926-8.823-7.657-1.118-3.066.243-6.26 2.531-8.385 4.786-4.348 10.885-5.84 17.162-6.7 6.813-.827 13.983-.096 20.083 1.995 1.362.504 2.707 1.056 3.988 1.735z" fill="#397DB7"/><path d="M30.91 18.036c.392 2.01-.664 3.68-1.54 5.304-.974 1.509-2.579 2.806-4.51 2.613a45.846 45.846 0 0 1-12.49-1.914.78.78 0 0 1-.454-.325c-.081-.226.034-.438.196-.583 3.585-2.904 7.851-4.25 12.069-5.662 1.572-.455 3.245-.942 5.012-.713.729.096 1.46.598 1.718 1.28zm14.778-8.597c2.01 1.653 3.829 3.91 3.211 6.633-1.006 4.023-5.386 6.166-8.872 7.527-1.897.632-3.812 1.282-5.888 1.476-.13-.015-.342.017-.374-.177l.05-.227c2.95-3.326 5.189-7.056 7.152-10.836a88.843 88.843 0 0 0 2.53-5.174.862.862 0 0 1 .356-.244c.733.065 1.252.631 1.835 1.022zM17.383 5.155l-.066.244c-4.267 4.85-7.072 10.479-9.732 16.074-.519.487-1.023-.162-1.493-.371-2.367-1.558-4.508-4.073-3.89-7.057.988-3.893 4.994-5.971 8.338-7.381a31.256 31.256 0 0 1 6.212-1.688c.225.002.518-.03.63.18zm21.168.78c.243.128.536.177.681.421.13.276-.13.455-.276.632-3.358 2.628-7.202 4.087-11.128 5.37-1.995.484-4.008 1.362-6.23.875a2.07 2.07 0 0 1-1.282-.974c-.55-1.525.195-3.115.844-4.444.861-1.67 2.384-3.634 4.493-3.666 4.544-.03 8.828.65 12.898 1.786z" fill="#fff"/></svg>