<svg width="17" height="21" viewBox="0 0 17 21" fill="none" xmlns="http://www.w3.org/2000/svg"><path d="M8.5 11.5a3.5 3.5 0 1 1 0-7 3.5 3.5 0 0 1 0 7zm0-5.6a2.1 2.1 0 1 0 0 4.2 2.1 2.1 0 0 0 0-4.2z" fill="#FF4C00"/><path d="m8.5 20.5-6.519-7.106c-.09-.107-.18-.214-.269-.323C.6 11.716-.003 10.06 0 8.357c0-2.084.896-4.082 2.49-5.556C4.084 1.328 6.246.5 8.5.5s4.416.828 6.01 2.301C16.105 4.275 17 6.273 17 8.357c.003 1.702-.599 3.357-1.712 4.712v.002s-.232.282-.267.32L8.5 20.5zm-5.554-8.29s.18.22.221.268L8.5 18.29l5.34-5.821.215-.261a6.05 6.05 0 0 0 1.4-3.852c0-1.705-.733-3.34-2.037-4.546C12.113 2.606 10.345 1.93 8.5 1.93c-1.844 0-3.613.677-4.918 1.882-1.304 1.206-2.037 2.841-2.037 4.546a6.052 6.052 0 0 0 1.4 3.854z" fill="#FF4C00"/></svg>