<svg width="34" height="34" viewBox="0 0 34 34" fill="none" xmlns="http://www.w3.org/2000/svg"><path d="M33.628 17c0 9.19-7.437 16.628-16.628 16.628C7.81 33.628.372 26.191.372 17 .372 7.81 7.809.372 17 .372 26.19.372 33.628 7.809 33.628 17zM17 1.381C8.34 1.381 1.381 8.341 1.381 17c0 8.66 7.013 15.619 15.619 15.619 8.66 0 15.619-7.013 15.619-15.619 0-8.66-6.96-15.619-15.619-15.619z" fill="url(#paint0_linear_1322_23255)"/><path d="M17 1.381c-8.66 0-15.619 6.96-15.619 15.62 0 8.659 7.013 15.618 15.62 15.618 8.659 0 15.618-7.013 15.618-15.619 0-8.66-6.96-15.619-15.619-15.619zm0 30.229C8.925 31.61 2.39 25.075 2.39 17S8.926 2.39 17 2.39 31.61 8.926 31.61 17 25.075 31.61 17 31.61z" fill="url(#paint1_linear_1322_23255)"/><path opacity=".4" d="M17 33.628c9.19 0 16.628-7.437 16.628-16.628C33.628 7.81 26.191.372 17 .372 7.81.372.372 7.809.372 17c0 9.19 7.437 16.628 16.628 16.628zM17 0c9.35 0 17 7.65 17 17s-7.65 17-17 17S0 26.35 0 17 7.65 0 17 0z" fill="url(#paint2_linear_1322_23255)"/><path d="M1.169 17.053C1.169 8.341 8.234 1.17 17 1.17c8.766 0 15.831 7.118 15.831 15.884 0 8.713-7.065 15.778-15.831 15.778-8.766 0-15.831-7.065-15.831-15.778zM6.109 6.11c-2.815 2.816-4.568 6.694-4.568 10.944 0 4.25 1.753 8.128 4.515 10.89C8.872 30.707 12.75 32.46 17 32.46c4.25 0 8.128-1.7 10.89-4.515 2.816-2.763 4.516-6.64 4.516-10.89 0-4.25-1.753-8.129-4.515-10.945A15.248 15.248 0 0 0 17 1.541c-4.25 0-8.128 1.753-10.89 4.568z" fill="#fff"/><path opacity=".4" d="M17 31.662c-3.931 0-7.597-1.54-10.36-4.303C3.879 24.597 2.338 20.931 2.338 17c0-3.93 1.541-7.596 4.304-10.358C9.403 3.878 13.069 2.337 17 2.337s7.597 1.541 10.36 4.304c2.762 2.762 4.302 6.428 4.302 10.359s-1.54 7.597-4.303 10.36c-2.762 2.762-6.428 4.302-10.36 4.302zm0-.425c3.772 0 7.384-1.487 10.04-4.143 2.71-2.71 4.144-6.27 4.144-10.041 0-3.772-1.487-7.384-4.143-10.04C24.33 4.302 20.77 2.868 17 2.868A14.191 14.191 0 0 0 6.96 7.012C4.25 9.616 2.761 13.228 2.761 17c0 3.772 1.488 7.384 4.144 10.04A14.235 14.235 0 0 0 17 31.238z" fill="url(#paint3_linear_1322_23255)"/><path d="M29.91 23.906a42099.7 42099.7 0 0 0-10.52-8.34L17 1.913a.908.908 0 0 0-.478.425l-1.7 13.28L4.25 23.748s-.212.266-.319.425c-.053.106-.053.266-.053.425l13.069-5.366 13.069 5.366c.106-.266 0-.531-.106-.69z" fill="#fff"/><path d="M17.106 17.425 17 19.869l12.006 4.834c.425.213.744.106 1.063-.106l-12.803-7.225c-.053-.053-.16 0-.16.053z" fill="#565F64"/><path d="M17.106 17.425s.69 1.222 1.488 2.072c1.115 1.222 2.603 2.072 2.603 2.072l7.81 3.134c.424.213.743.106 1.062-.106l-12.803-7.225c-.053-.053-.16 0-.16.053z" fill="url(#paint4_linear_1322_23255)"/><path d="M30.015 24.119c0-.053-.053-.107-.106-.213l-10.944-8.022-1.487.956s.106.054.16 0a1.33 1.33 0 0 1 .796 0c.266.107 11.581 7.332 11.581 7.279 0 .053 0 .053 0 0z" fill="#A4AAAE" fill-opacity=".6"/><path d="m29.644 23.64-10.2-8.074-.478.318 10.943 8.075c-.053-.106-.16-.212-.265-.318z" fill="#333E46"/><path d="m17.265 16.628-.053.053s0 .107.107.053c.053-.053 1.593-.85 2.125-1.168l-1.86-12.75c-.053-.479-.265-.691-.637-.85l.212 14.768.107-.106z" fill="#565F64"/><path d="M16.362 2.816v.69l-1.168 11.74c0 .16.053.32.212.426l.69.531.479-12.962.053-1.01c-.16.106-.212.319-.266.585zm-.637 13.6-.638-.532-10.784 7.81s-.319.212-.372.425l.372-.213 11.316-7.119c.212-.106.265-.212.106-.371z" fill="#A4AAAE" fill-opacity=".6"/><path d="M16.84 17.425c0-.053-.052-.106-.106-.053L3.878 24.65c.319.213.638.266 1.063.106l12.006-4.834-.106-2.497z" fill="#565F64"/><path d="m17.212 16.681.053-.053-.053.053s0 .053.053.053h.054c.053-.053 1.593-.85 2.125-1.169l-.213-1.54-1.647-11.21c0-.212-.053-.371-.16-.478 0 0 .798 10.732.798 11.9 0 1.541-1.01 2.444-1.01 2.444z" fill="url(#paint5_linear_1322_23255)"/><path d="M16.84 17.425c0-.053-.052-.106-.106-.053L3.878 24.65c.319.213.638.266 1.063.106l12.006-4.834-.106-2.497z" fill="url(#paint6_linear_1322_23255)" fill-opacity=".8"/><path opacity=".8" d="m4.94 24.703 12.007-4.834-.106-2.338c-.213.638-.585 1.328-1.594 1.86-.744.425-7.863 3.93-10.413 5.153-.159.106-.372.16-.478.212.213.107.372.053.585-.053z" fill="url(#paint7_linear_1322_23255)"/><path d="m17.265 16.628-.053.053s0 .107.107.053c.053-.053 1.593-.85 2.125-1.168l-1.86-12.75c-.053-.479-.265-.691-.637-.85l.212 14.768.107-.106z" fill="url(#paint8_linear_1322_23255)"/><path d="m17.265 16.628-.053.053s0 .107.107.053c.053-.053 1.593-.85 2.125-1.168l-1.86-12.75c-.053-.479-.265-.691-.637-.85l.212 14.768.107-.106z" fill="url(#paint9_linear_1322_23255)"/><path d="M2.71 23.587c-.373-.85-2.498-4.993-.16-12.962h-.903c-.478 1.594-.85 2.55-1.063 3.984 0 0-.106.532-.159 1.116-.053.584-.053.903-.053 1.275 0 3.188.797 5.047.797 5.047.85 2.656 2.337 5.047 4.356 6.853 1.753 1.54 4.462 2.71 6.694 3.134-.372-.053-6.747-2.762-9.51-8.447z" fill="url(#paint10_linear_1322_23255)"/><path d="M17.212 17.319h-.478c.053 0 .107 0 .107.053l.106 2.444H17l.106-2.444c0-.053.053-.107.106-.053z" fill="url(#paint11_linear_1322_23255)"/><path d="M22.313 1.222C27.89 3.347 33.15 9.19 33.15 16.575c0 8.925-7.119 16.203-16.15 16.203v.85c9.031 0 16.628-7.437 16.628-16.628 0-7.331-4.675-13.494-11.316-15.778z" fill="url(#paint12_linear_1322_23255)"/><path d="M31.238 10.731c-3.72-8.553-12.113-9.03-12.591-9.084h-.053c6.428 1.169 10.518 5.366 11.953 9.775v.053c.637 1.7.956 3.506 1.01 5.472.052 1.86-.373 3.931-1.17 5.844-.053.265-.106.584-.159.584h.85c2.55-4.781 1.435-9.616.16-12.644z" fill="url(#paint13_linear_1322_23255)"/><path d="M1.169 17.053C1.169 8.341 8.234 1.17 17 1.17c8.766 0 15.831 7.118 15.831 15.884 0 8.713-7.065 15.778-15.831 15.778-8.766 0-15.831-7.065-15.831-15.778zM6.109 6.11c-2.815 2.816-4.568 6.694-4.568 10.944 0 4.25 1.753 8.128 4.515 10.89C8.872 30.707 12.75 32.46 17 32.46c4.25 0 8.128-1.7 10.89-4.515 2.816-2.763 4.516-6.64 4.516-10.89 0-4.25-1.753-8.129-4.515-10.945A15.248 15.248 0 0 0 17 1.541c-4.25 0-8.128 1.753-10.89 4.568z" fill="#FBFBFB"/><path d="m4.197 23.8 10.837-7.81c.585.32 1.54.744 1.647.744.106.053.106-.053.106-.053l-1.328-1.116a.483.483 0 0 1-.212-.425l1.275-12.803c-.053.054-.053.16-.106.213-.054.106-.054.16-.054.266l-1.859 12.803-10.2 8.021c-.053.054-.106.107-.106.16z" fill="#333F47"/><defs><linearGradient id="paint0_linear_1322_23255" x1="4.249" y1="6.321" x2="29.751" y2="27.679" gradientUnits="userSpaceOnUse"><stop stop-color="#fff"/><stop offset=".1" stop-color="#CDD0D0"/><stop offset=".2" stop-color="#A5ACAF"/><stop offset=".3" stop-color="#98A0A4"/><stop offset=".4" stop-color="#828A8F"/><stop offset=".5" stop-color="#667075"/><stop offset=".6" stop-color="#535C63"/><stop offset=".7" stop-color="#475158"/><stop offset=".8" stop-color="#434D54"/><stop offset="1" stop-color="#475157"/></linearGradient><linearGradient id="paint1_linear_1322_23255" x1="5.032" y1="6.938" x2="28.938" y2="27.019" gradientUnits="userSpaceOnUse"><stop stop-color="#0B1F2A"/><stop offset=".2" stop-color="#333F47"/><stop offset=".5" stop-color="#81898D"/><stop offset=".7" stop-color="#B3B8B8"/><stop offset=".8" stop-color="#DEE0DD"/><stop offset="1" stop-color="#FBFBFB"/></linearGradient><linearGradient id="paint2_linear_1322_23255" x1="22.81" y1="32.971" x2="11.176" y2=".99" gradientUnits="userSpaceOnUse"><stop stop-color="#E1E3E1"/><stop offset=".1" stop-color="#C1C5C4"/><stop offset=".3" stop-color="#9BA1A2"/><stop offset=".5" stop-color="#7D8487"/><stop offset=".7" stop-color="#687074" stop-opacity="0"/><stop offset=".8" stop-color="#5B6469" stop-opacity="0"/><stop offset="1" stop-color="#576065" stop-opacity="0"/></linearGradient><linearGradient id="paint3_linear_1322_23255" x1="9.669" y1="4.304" x2="24.331" y2="29.696" gradientUnits="userSpaceOnUse"><stop stop-color="#E1E3E1"/><stop offset=".1" stop-color="#C1C5C4"/><stop offset=".3" stop-color="#9BA1A2"/><stop offset=".5" stop-color="#7D8487"/><stop offset=".7" stop-color="#687074" stop-opacity="0"/><stop offset=".8" stop-color="#5B6469" stop-opacity="0"/><stop offset="1" stop-color="#576065" stop-opacity="0"/></linearGradient><linearGradient id="paint4_linear_1322_23255" x1="23.634" y1="20.927" x2="22.731" y2="22.415" gradientUnits="userSpaceOnUse"><stop stop-color="#27343C"/><stop offset="1" stop-color="#00111E" stop-opacity="0"/></linearGradient><linearGradient id="paint5_linear_1322_23255" x1="21.027" y1="15.466" x2="19.539" y2="13.075" gradientUnits="userSpaceOnUse"><stop offset=".1" stop-color="#02131F"/><stop offset=".9" stop-color="#02131F" stop-opacity="0"/></linearGradient><linearGradient id="paint6_linear_1322_23255" x1="16.991" y1="19.303" x2="14.759" y2="19.941" gradientUnits="userSpaceOnUse"><stop offset=".2" stop-color="#02131F"/><stop offset=".9" stop-color="#02131F" stop-opacity="0"/></linearGradient><linearGradient id="paint7_linear_1322_23255" x1="11.045" y1="22.262" x2="10.726" y2="21.465" gradientUnits="userSpaceOnUse"><stop stop-color="#02131F"/><stop offset=".1" stop-color="#02131F"/><stop offset="1" stop-color="#02131F" stop-opacity="0"/></linearGradient><linearGradient id="paint8_linear_1322_23255" x1="18.913" y1="9.145" x2="17.107" y2="9.357" gradientUnits="userSpaceOnUse"><stop offset=".3" stop-color="#02131F"/><stop offset=".8" stop-color="#02131F" stop-opacity="0"/></linearGradient><linearGradient id="paint9_linear_1322_23255" x1="18.97" y1="9.115" x2="17.747" y2="9.274" gradientUnits="userSpaceOnUse"><stop offset=".4" stop-color="#27343C"/><stop offset="1" stop-color="#3B474E" stop-opacity="0"/></linearGradient><linearGradient id="paint10_linear_1322_23255" x1="-.191" y1="17.442" x2="14.631" y2="25.995" gradientUnits="userSpaceOnUse"><stop stop-color="#25323B" stop-opacity="0"/><stop offset=".1" stop-color="#27343C"/></linearGradient><linearGradient id="paint11_linear_1322_23255" x1="16.973" y1="19.869" x2="16.973" y2="17.319" gradientUnits="userSpaceOnUse"><stop offset=".3" stop-color="#A5ABAF"/><stop offset="1" stop-color="#A5ABAF" stop-opacity="0"/></linearGradient><linearGradient id="paint12_linear_1322_23255" x1="25.314" y1="1.222" x2="25.314" y2="33.628" gradientUnits="userSpaceOnUse"><stop stop-color="#6B7378"/><stop offset=".2" stop-color="#333F47"/><stop offset=".5" stop-color="#27343C"/><stop offset=".8" stop-color="#333F47"/><stop offset="1" stop-color="#434D54"/></linearGradient><linearGradient id="paint13_linear_1322_23255" x1="30.435" y1="4.3" x2="23.263" y2="14.818" gradientUnits="userSpaceOnUse"><stop offset=".7" stop-color="#49545B"/><stop offset=".8" stop-color="#fff" stop-opacity="0"/></linearGradient></defs></svg>