<svg width="38" height="33" viewBox="0 0 38 33" fill="none" xmlns="http://www.w3.org/2000/svg"><path d="M36.178 12.905c-.346-.097-.732-.142-1.544-.242-3.361-.138-11.668-.461-15.9-.461-4.233 0-12.54.322-15.9.46-.813.1-1.199.146-1.545.243C.232 13.155 0 13.534 0 14.29v5.188c0 .756.811 1.267 1.37 1.37.56.103.913.145 1.502.2 3.006.187 9.98.575 15.861.581 5.882-.006 12.856-.394 15.862-.58a15.08 15.08 0 0 0 1.502-.201c.559-.104 1.37-.613 1.37-1.37V14.29c0-.756-.233-1.136-1.29-1.385z" fill="url(#paint0_linear_1322_23239)"/><path d="M5.255 13.11c1.654-5.754 7.088-9.975 13.538-9.975 6.432 0 11.855 4.198 13.525 9.928l.015.05a17.307 17.307 0 0 0 2.424-.436c-.01-.037-.014-.044-.023-.08C32.836 5.77 26.418.747 18.794.747c-7.652 0-14.086 5.055-15.96 11.915.843.23 1.46.327 2.421.446z" fill="url(#paint1_radial_1322_23239)"/><path d="M32.279 20.65c-.017.05-.036.107-.044.135-1.759 5.592-7.11 9.66-13.441 9.66-6.381 0-11.767-4.13-13.483-9.79-1.048.185-1.403.256-2.439.394 1.92 6.792 8.32 11.782 15.922 11.782 7.604 0 14.006-4.995 15.923-11.793a31.153 31.153 0 0 1-2.438-.389z" fill="url(#paint2_radial_1322_23239)"/><path d="M5.592 13.097c.398-.165.783-.427 1.384-.596 1.79-4.65 6.404-7.962 11.816-7.962 5.396 0 10 3.291 11.8 7.92.007.015.013.034.018.046.31.107 1.223.477 1.507.601l.215.007a1.302 1.302 0 0 1-.014-.05c-1.671-5.729-7.094-9.925-13.525-9.925-6.45 0-11.883 4.219-13.538 9.97.096.001.278-.007.337-.011z" fill="url(#paint3_radial_1322_23239)"/><path d="M18.69 3.527c6.035 0 11.384 3.598 13.41 9.53l.017.05.215.006c-.005-.021-.011-.034-.014-.05-1.671-5.728-7.094-9.925-13.525-9.925-6.45 0-11.883 4.22-13.538 9.971.13-.002.191-.002.337-.012 1.812-5.63 7.108-9.57 13.098-9.57z" fill="#fff"/><path d="M31.936 20.666a8.133 8.133 0 0 1-1.405.611l-.035.09c-1.867 4.5-6.403 7.677-11.703 7.677-5.334 0-9.894-3.216-11.738-7.76-.496-.138-1.238-.476-1.52-.618l-.225-.011c1.715 5.659 7.102 9.79 13.483 9.79 6.352 0 11.718-4.093 13.458-9.712.004-.011.023-.073.028-.084-.101.004-.255.017-.343.017z" fill="url(#paint4_radial_1322_23239)"/><path d="M35.877 13.28c-.89-.107-1.497-.096-3.665-.17l-.3-.01c-3.933-.136-9.84-.316-13.179-.316-3.338 0-9.245.18-13.178.315l-.3.01c-2.168.075-2.775.063-3.665.172C.7 13.39 0 13.78 0 14.443v4.81c0 .663.842 1.2 1.59 1.2 0 0 9.506.587 17.143.594 7.638-.007 17.144-.594 17.144-.594.747 0 1.59-.537 1.59-1.2v-4.81c0-.663-.7-1.053-1.59-1.162z" fill="url(#paint5_radial_1322_23239)"/><path d="M31.937 20.666c-1.866 5.534-7.113 9.39-13.04 9.39-5.986 0-11.299-3.543-13.36-9.39-.076-.004-.151-.007-.225-.012 1.715 5.66 7.103 9.79 13.484 9.79 6.383 0 11.77-4.133 13.485-9.795l-.344.017z" fill="#fff"/><path d="M31.947 20.665h-.012a8.12 8.12 0 0 1-1.404.612l-.036.09a12.215 12.215 0 0 1-2.514 3.816c1.668-1.22 3.03-2.76 3.966-4.518z" fill="#8C8C8C"/><path d="M9.964 25.54a12.249 12.249 0 0 1-2.909-4.257c-.496-.138-1.238-.476-1.519-.617.3.622.654 1.217 1.058 1.778a13.89 13.89 0 0 0 2.967 2.846c.132.087.267.17.403.25z" fill="#4D4D4D"/><path d="M5.31 20.655h-.004c-1.045.186-1.4.257-2.435.394.083.296.176.588.276.876l2.163-1.27z" fill="#252525"/><path d="M26.346 15.411c-.312-.698-.201-.625-.882-.643-.055-.019-.202-.019-.404-.019s-.24 0-.405.019c-.643 0-.532-.037-.753.422 0 0-1.103 2.481-1.58 3.51l-.019.037c-.092.183-.037.183.11.183h.993c.074 0 .11-.036.128-.073 0 0 .147-.313.331-.753h2.426c.184.422.312.734.312.753.019.055.074.073.129.073h1.03c.146 0 .183.02.128-.11-.184-.44-1.379-3.014-1.544-3.399zm-2.114 1.8c.313-.734.626-1.45.626-1.47.018-.036.055-.055.11-.055.018-.018.074-.018.129-.018.037 0 .091 0 .11.018.036 0 .074.019.091.074.075.202.35.827.607 1.452h-1.673zm-13.231-2.499c.091 0 .11.037.11.11v3.934c0 .091-.019.128-.129.128h-.955c-.11 0-.129-.018-.129-.128v-3.933c0-.074.019-.11.092-.11H11zm-2.04.037c.11 0 .129.037.129.129v3.914c0 .11-.02.13-.13.13H7.84c-.662 0-.717 0-.937-.368-.46-.716-1.838-2.83-1.838-2.83v3.069c0 .11-.019.128-.129.128H4.11c-.11 0-.129-.018-.129-.128v-3.915c0-.092.019-.13.129-.13h.956c.716 0 .808-.017 1.066.35.202.331 1.874 2.904 1.874 2.904v-3.124c0-.092.018-.13.129-.13h.827zm24.534 0c.11 0 .129.037.129.129v3.914c0 .11-.019.13-.13.13h-1.12c-.662 0-.717 0-.937-.368-.46-.717-1.838-2.83-1.838-2.83v3.069c0 .11-.019.128-.13.128h-.826c-.11 0-.129-.018-.129-.128v-3.915c0-.092.02-.13.13-.13h.955c.716 0 .809-.017 1.066.35.22.331 1.874 2.904 1.874 2.904v-3.124c0-.092.019-.13.13-.13h.826zm-18.286 1.6c.736.073 1.269.201 1.416.9 0 .054.018.238.018.44 0 .13 0 .294-.037.442-.128.661-.625.79-1.396.79h-3.088c-.11 0-.13-.018-.13-.129v-.661c0-.11.02-.13.13-.13h3.124c.128 0 .165-.036.183-.128v-.276c-.018-.074-.036-.184-.202-.202-.349-.018-1.378-.11-2.077-.183-.9-.092-1.12-.478-1.157-.809-.019-.11-.019-.257-.019-.386 0-.11 0-.276.019-.404.129-.589.57-.864 1.341-.864h2.996c.11 0 .147.019.147.11v.68c0 .092-.037.129-.147.11h-2.94c-.13 0-.184.056-.203.184v.165c0 .092.055.166.184.184.35.037 1.434.13 1.838.166zm5.31 0c.737.073 1.27.201 1.417.9 0 .054.018.238.018.44 0 .13 0 .294-.037.442-.128.661-.624.79-1.396.79h-3.088c-.11 0-.129-.018-.129-.129v-.661c0-.11.019-.13.129-.13h3.124c.129 0 .165-.036.184-.128v-.276c-.02-.074-.056-.184-.203-.202a59.642 59.642 0 0 1-2.076-.183c-.9-.092-1.103-.478-1.158-.809-.018-.11-.018-.257-.018-.386 0-.11 0-.276.018-.404.129-.589.57-.864 1.341-.864h2.997c.11 0 .147.019.147.11v.68c0 .092-.038.129-.148.11h-2.94c-.129 0-.184.056-.202.184v.165c0 .092.037.166.184.184.349.037 1.433.13 1.837.166z" fill="url(#paint6_radial_1322_23239)"/><defs><radialGradient id="paint1_radial_1322_23239" cx="0" cy="0" r="1" gradientUnits="userSpaceOnUse" gradientTransform="translate(8.216 -5.702) scale(26.1262)"><stop offset=".202" stop-color="#fff"/><stop offset=".382" stop-color="#FDFDFD"/><stop offset=".487" stop-color="#F4F4F4"/><stop offset=".573" stop-color="#E6E6E6"/><stop offset=".648" stop-color="#D2D2D2"/><stop offset=".689" stop-color="#C4C4C4"/><stop offset="1" stop-color="#333"/></radialGradient><radialGradient id="paint2_radial_1322_23239" cx="0" cy="0" r="1" gradientUnits="userSpaceOnUse" gradientTransform="translate(71.443 36.146) scale(54.4112)"><stop offset=".202" stop-color="#fff"/><stop offset=".368" stop-color="#E4E4E4"/><stop offset=".594" stop-color="#C4C4C4"/><stop offset="1" stop-color="#333"/></radialGradient><radialGradient id="paint3_radial_1322_23239" cx="0" cy="0" r="1" gradientUnits="userSpaceOnUse" gradientTransform="translate(14.49 24.139) scale(16.7044)"><stop offset=".202" stop-color="#fff"/><stop offset=".368" stop-color="#E4E4E4"/><stop offset=".594" stop-color="#C4C4C4"/><stop offset="1" stop-color="#333"/></radialGradient><radialGradient id="paint4_radial_1322_23239" cx="0" cy="0" r="1" gradientUnits="userSpaceOnUse" gradientTransform="translate(27.97 41.22) scale(31.6958)"><stop offset=".202" stop-color="#fff"/><stop offset=".368" stop-color="#E4E4E4"/><stop offset=".594" stop-color="#C4C4C4"/><stop offset="1" stop-color="#333"/></radialGradient><radialGradient id="paint5_radial_1322_23239" cx="0" cy="0" r="1" gradientUnits="userSpaceOnUse" gradientTransform="translate(18.482 4.053) scale(25.1874)"><stop offset=".202" stop-color="#fff"/><stop offset=".397" stop-color="#FDFDFD"/><stop offset=".51" stop-color="#F4F4F4"/><stop offset=".603" stop-color="#E6E6E6"/><stop offset=".684" stop-color="#D2D2D2"/><stop offset=".728" stop-color="#C4C4C4"/><stop offset="1" stop-color="#4D4D4D"/></radialGradient><radialGradient id="paint6_radial_1322_23239" cx="0" cy="0" r="1" gradientUnits="userSpaceOnUse" gradientTransform="translate(19.066 6.575) scale(16.9652)"><stop offset=".111" stop-color="#4D4D4D"/><stop offset=".248" stop-color="#494949"/><stop offset=".355" stop-color="#404040"/><stop offset=".451" stop-color="#2F2F2F"/><stop offset=".541" stop-color="#181818"/><stop offset=".611"/></radialGradient><linearGradient id="paint0_linear_1322_23239" x1="18.733" y1="1.222" x2="18.733" y2="27.336" gradientUnits="userSpaceOnUse"><stop offset=".194" stop-color="#fff"/><stop offset=".208" stop-color="#F8F8F8"/><stop offset=".366" stop-color="#AEAEAE"/><stop offset=".513" stop-color="#707070"/><stop offset=".647" stop-color="#404040"/><stop offset=".764" stop-color="#1D1D1D"/><stop offset=".86" stop-color="#080808"/><stop offset=".922"/></linearGradient></defs></svg>