<svg width="15" height="14" viewBox="0 0 15 14" fill="none" xmlns="http://www.w3.org/2000/svg"><path d="M7.676 7.59A1.773 1.773 0 0 1 9.45 9.363l-.001.884c.121 2.17-1.55 3.253-4.65 3.253C1.708 13.5 0 12.432 0 10.278v-.915A1.773 1.773 0 0 1 1.773 7.59h5.903zm4.727 0a1.772 1.772 0 0 1 1.773 1.773v.622c.106 1.947-1.371 2.923-4.07 2.923-.367 0-.711-.018-1.033-.053.34-.311.602-.7.762-1.132l.27.003c2.11 0 2.952-.557 2.89-1.709v-.654a.59.59 0 0 0-.591-.591H9.965A2.363 2.363 0 0 0 9.24 7.59h3.165zM7.676 8.772H1.773a.59.59 0 0 0-.591.59v.917c0 1.353 1.096 2.04 3.616 2.04 2.51 0 3.545-.671 3.47-2.04v-.916a.59.59 0 0 0-.592-.591zM4.726.5a2.955 2.955 0 1 1 0 5.91 2.955 2.955 0 0 1 0-5.91zm5.91 1.182a2.363 2.363 0 1 1 0 4.727 2.363 2.363 0 0 1 0-4.727zm-5.91 0a1.773 1.773 0 1 0 0 3.546 1.773 1.773 0 0 0 0-3.546zm5.91 1.181a1.182 1.182 0 1 0 0 2.364 1.182 1.182 0 0 0 0-2.364z" fill="#545454"/></svg>