<svg width="52" height="28" viewBox="0 0 52 28" fill="none" xmlns="http://www.w3.org/2000/svg"><path d="M49.27 14.026c0 6.61-10.372 11.97-23.168 11.97-12.795 0-23.167-5.36-23.167-11.97s10.372-11.97 23.167-11.97c12.796 0 23.168 5.36 23.168 11.97z" fill="#004489"/><path d="M38.27 10.55c.08 2.853-7.251 9.748-18.07 9.748-10.817 0-17.848-2.061-17.848-8.052 0-5.99 8.777-10.429 19.588-10.847C35.338.882 38.102 4.521 38.27 10.55z" fill="#004489"/><path d="M38.142 10.541c.078 2.84-7.212 9.694-17.969 9.694-10.757 0-17.75-2.053-17.75-8.01C2.423 6.27 11.15 1.856 21.9 1.44c13.32-.514 16.074 3.106 16.24 9.101z" fill="#004489"/><path d="M38.015 10.532c.078 2.827-7.173 9.64-17.869 9.64s-17.65-2.044-17.65-7.966c0-5.924 8.678-10.313 19.367-10.725 13.242-.51 15.986 3.09 16.152 9.05z" fill="#004589"/><path d="M37.886 10.522c.078 2.814-7.133 9.586-17.767 9.586-10.636 0-17.553-2.034-17.553-7.923 0-5.89 8.63-10.254 19.257-10.663 13.164-.508 15.899 3.073 16.063 9z" fill="#00468A"/><path d="M37.758 10.513c.077 2.801-7.094 9.532-17.667 9.532-10.574 0-17.453-2.026-17.453-7.88 0-5.856 8.58-10.196 19.146-10.603 13.086-.504 15.81 3.058 15.974 8.951z" fill="#00468A"/><path d="M37.631 10.504c.077 2.788-7.054 9.478-17.567 9.478S2.71 17.965 2.71 12.144c0-5.822 8.53-10.137 19.036-10.541 13.008-.5 15.723 3.042 15.885 8.9z" fill="#00468A"/><path d="M37.503 10.495c.076 2.774-7.015 9.424-17.466 9.424-10.453 0-17.256-2.008-17.256-7.796s8.48-10.078 18.926-10.48c12.929-.496 15.634 3.027 15.796 8.851z" fill="#00478B"/><path d="M37.374 10.485c.076 2.762-6.975 9.37-17.365 9.37-10.391 0-17.156-1.998-17.156-7.752s8.43-10.02 18.814-10.418c12.852-.494 15.547 3.01 15.707 8.8z" fill="#00488C"/><path d="M37.246 10.476c.075 2.749-6.936 9.316-17.265 9.316-10.33 0-17.057-1.99-17.057-7.71s8.381-9.961 18.704-10.357c12.773-.49 15.46 2.994 15.618 8.75z" fill="#00488C"/><path d="M37.12 10.467c.074 2.735-6.897 9.262-17.165 9.262-10.269 0-16.958-1.981-16.958-7.667 0-5.687 8.332-9.903 18.594-10.296 12.695-.487 15.37 2.978 15.529 8.7z" fill="#00498C"/><path d="M36.992 10.457c.074 2.723-6.857 9.209-17.065 9.209-10.207 0-16.859-1.973-16.859-7.625s8.283-9.844 18.484-10.235c12.616-.483 15.283 2.963 15.44 8.651z" fill="#00498C"/><path d="M36.864 10.448c.073 2.71-6.818 9.155-16.964 9.155-10.147 0-16.76-1.964-16.76-7.582 0-5.619 8.232-9.786 18.372-10.174 12.54-.48 15.196 2.947 15.352 8.601z" fill="#00498D"/><path d="M36.736 10.439c.074 2.697-6.778 9.1-16.863 9.1S3.213 17.585 3.213 12s8.182-9.728 18.261-10.112c12.46-.476 15.108 2.93 15.262 8.551z" fill="#004A8D"/><path d="M36.608 10.43c.072 2.684-6.739 9.046-16.763 9.046-10.025 0-16.562-1.945-16.562-7.496s8.134-9.67 18.152-10.051c12.382-.473 15.02 2.915 15.173 8.5z" fill="#004A8D"/><path d="M36.48 10.42c.072 2.671-6.7 8.993-16.662 8.993-9.964 0-16.464-1.937-16.464-7.454 0-5.517 8.085-9.61 18.042-9.99C33.7 1.5 36.328 4.87 36.48 10.421z" fill="#004B8E"/><path d="M36.353 10.411c.071 2.658-6.66 8.94-16.562 8.94-9.903 0-16.364-1.929-16.364-7.412s8.035-9.552 17.93-9.929c12.227-.466 14.845 2.883 14.996 8.401z" fill="#004B8E"/><path d="M36.225 10.402c.07 2.645-6.62 8.885-16.462 8.885-9.841 0-16.265-1.92-16.265-7.369 0-5.45 7.985-9.493 17.82-9.867 12.148-.463 14.757 2.867 14.907 8.351z" fill="#004C8E"/><path d="M36.097 10.393c.07 2.631-6.58 8.83-16.36 8.83-9.781 0-16.166-1.91-16.166-7.325 0-5.416 7.935-9.436 17.709-9.806 12.07-.46 14.668 2.85 14.817 8.3z" fill="#004D8F"/><path d="M35.97 10.384c.069 2.618-6.542 8.776-16.261 8.776-9.72 0-16.067-1.9-16.067-7.283 0-5.382 7.886-9.377 17.599-9.745 11.991-.455 14.58 2.836 14.728 8.252z" fill="#004D90"/><path d="M35.842 10.374c.07 2.606-6.502 8.723-16.16 8.723-9.658 0-15.968-1.892-15.968-7.24 0-5.348 7.836-9.319 17.489-9.684 11.913-.452 14.492 2.82 14.64 8.201z" fill="#004E90"/><path d="M35.714 10.365c.069 2.592-6.463 8.669-16.06 8.669-9.597 0-15.869-1.883-15.869-7.198 0-5.314 7.787-9.26 17.378-9.622 11.836-.45 14.405 2.803 14.55 8.15z" fill="#004E90"/><path d="M35.586 10.356c.068 2.579-6.424 8.615-15.96 8.615-9.536 0-15.77-1.875-15.77-7.155s7.738-9.202 17.268-9.562c11.757-.445 14.317 2.788 14.462 8.102z" fill="#014F90"/><path d="M35.458 10.347c.068 2.566-6.384 8.56-15.858 8.56-9.476 0-15.671-1.865-15.671-7.111 0-5.247 7.688-9.144 17.157-9.5 11.679-.443 14.229 2.77 14.372 8.05z" fill="#044F91"/><path d="M35.33 10.337c.067 2.553-6.344 8.507-15.758 8.507C10.158 18.844 4 16.988 4 11.774c0-5.212 7.638-9.084 17.047-9.438 11.6-.439 14.14 2.755 14.283 8.001z" fill="#085091"/><path d="M35.202 10.328c.067 2.54-6.305 8.453-15.657 8.453-9.354 0-15.473-1.848-15.473-7.027 0-5.18 7.588-9.026 16.935-9.377 11.523-.436 14.054 2.74 14.195 7.95z" fill="#0B5092"/><path d="M35.074 10.319c.066 2.527-6.266 8.399-15.557 8.399-9.292 0-15.374-1.839-15.374-6.984s7.54-8.968 16.825-9.316c11.445-.432 13.965 2.723 14.106 7.9z" fill="#0E5192"/><path d="M34.947 10.31c.066 2.513-6.226 8.344-15.456 8.344-9.231 0-15.275-1.83-15.275-6.94 0-5.112 7.49-8.91 16.715-9.256 11.366-.429 13.878 2.708 14.016 7.851z" fill="#145292"/><path d="M34.82 10.3c.065 2.502-6.188 8.292-15.357 8.292-9.17 0-15.176-1.821-15.176-6.899s7.44-8.851 16.605-9.194c11.288-.425 13.79 2.692 13.927 7.801z" fill="#165293"/><path d="M34.691 10.29c.065 2.489-6.147 8.238-15.256 8.238S4.36 16.716 4.36 11.672s7.39-8.792 16.493-9.133c11.21-.421 13.702 2.677 13.84 7.752z" fill="#185394"/><path d="M34.564 10.281c.064 2.476-6.108 8.184-15.155 8.184-9.048 0-14.978-1.803-14.978-6.813s7.341-8.734 16.383-9.072c11.132-.418 13.614 2.66 13.75 7.701z" fill="#1B5394"/><path d="M34.436 10.272c.063 2.463-6.069 8.13-15.055 8.13-8.987 0-14.879-1.794-14.879-6.77 0-4.977 7.292-8.676 16.273-9.01 11.053-.416 13.526 2.643 13.66 7.65z" fill="#1C5494"/><path d="M34.307 10.263c.063 2.45-6.029 8.076-14.954 8.076-8.926 0-14.78-1.785-14.78-6.728 0-4.942 7.242-8.617 16.163-8.95 10.975-.41 13.438 2.629 13.571 7.602z" fill="#1E5495"/><path d="M34.18 10.254c.063 2.436-5.99 8.021-14.854 8.021-8.864 0-14.68-1.776-14.68-6.685 0-4.908 7.192-8.558 16.051-8.887 10.898-.408 13.35 2.612 13.483 7.55z" fill="#1F5595"/><path d="M34.052 10.245c.062 2.423-5.95 7.967-14.753 7.967-8.804 0-14.582-1.767-14.582-6.642s7.143-8.5 15.94-8.827c10.82-.404 13.264 2.597 13.395 7.502z" fill="#225595"/><path d="M33.925 10.235c.061 2.41-5.911 7.914-14.653 7.914-8.743 0-14.483-1.759-14.483-6.6 0-4.84 7.094-8.441 15.83-8.765 10.742-.401 13.175 2.58 13.306 7.451z" fill="#235696"/><path d="M33.797 10.226c.06 2.397-5.872 7.86-14.553 7.86-8.681 0-14.383-1.75-14.383-6.557s7.043-8.383 15.72-8.704c10.663-.398 13.087 2.564 13.216 7.4z" fill="#255796"/><path d="M33.668 10.217c.06 2.384-5.832 7.806-14.452 7.806-8.62 0-14.284-1.741-14.284-6.515 0-4.773 6.994-8.325 15.61-8.643 10.584-.394 12.998 2.549 13.126 7.352z" fill="#285897"/><path d="M33.541 10.207c.06 2.371-5.792 7.752-14.351 7.752-8.56 0-14.186-1.732-14.186-6.471 0-4.74 6.945-8.267 15.499-8.582 10.507-.39 12.911 2.533 13.038 7.301z" fill="#295897"/><path d="M33.413 10.198c.06 2.358-5.753 7.698-14.251 7.698-8.499 0-14.087-1.723-14.087-6.428 0-4.706 6.896-8.208 15.389-8.521 10.428-.387 12.823 2.517 12.949 7.251z" fill="#2A5998"/><path d="M33.285 10.19c.059 2.344-5.714 7.643-14.15 7.643-8.438 0-13.988-1.714-13.988-6.386 0-4.672 6.845-8.15 15.277-8.46 10.351-.383 12.736 2.501 12.86 7.202z" fill="#2C5998"/><path d="M33.158 10.18c.058 2.331-5.675 7.59-14.05 7.59-8.377 0-13.889-1.706-13.889-6.343 0-4.639 6.796-8.092 15.167-8.399 10.273-.38 12.648 2.485 12.772 7.152z" fill="#2D5A99"/><path d="M33.03 10.17c.057 2.32-5.635 7.536-13.95 7.536s-13.79-1.696-13.79-6.3 6.747-8.033 15.057-8.337c10.194-.377 12.56 2.469 12.683 7.101z" fill="#2E5B99"/><path d="M32.901 10.161c.057 2.306-5.595 7.482-13.849 7.482-8.254 0-13.69-1.687-13.69-6.258 0-4.57 6.697-7.974 14.946-8.275C30.424 2.736 32.78 5.563 32.9 10.16z" fill="#2F5B99"/><path d="M32.773 10.152c.056 2.293-5.556 7.428-13.749 7.428-8.193 0-13.591-1.678-13.591-6.215S12.08 3.45 20.268 3.151c10.038-.37 12.385 2.437 12.505 7.001z" fill="#315C9A"/><path d="M32.646 10.143c.056 2.28-5.517 7.374-13.648 7.374-8.133 0-13.493-1.67-13.493-6.172 0-4.503 6.598-7.858 14.725-8.154 9.96-.367 12.297 2.421 12.416 6.952z" fill="#325C9A"/><path d="M32.518 10.133c.055 2.267-5.478 7.321-13.548 7.321-8.071 0-13.393-1.66-13.393-6.13 0-4.469 6.548-7.798 14.614-8.092 9.882-.363 12.209 2.405 12.327 6.901z" fill="#335D9B"/><path d="M32.39 10.124c.056 2.254-5.437 7.267-13.447 7.267-8.01 0-13.294-1.652-13.294-6.087 0-4.436 6.499-7.74 14.504-8.031 9.804-.36 12.12 2.39 12.238 6.851z" fill="#355D9B"/><path d="M32.262 10.115c.055 2.24-5.398 7.212-13.346 7.212-7.95 0-13.196-1.643-13.196-6.044 0-4.402 6.45-7.682 14.393-7.97 9.726-.356 12.034 2.374 12.15 6.802z" fill="#375F9C"/><path d="M32.135 10.106c.054 2.227-5.359 7.158-13.246 7.158-7.888 0-13.097-1.634-13.097-6.002 0-4.367 6.4-7.623 14.283-7.908 9.648-.353 11.945 2.358 12.06 6.752z" fill="#38609D"/><path d="M32.007 10.096c.053 2.215-5.32 7.105-13.146 7.105-7.827 0-12.997-1.625-12.997-5.96 0-4.333 6.35-7.564 14.172-7.846 9.57-.35 11.857 2.341 11.97 6.701z" fill="#3A609D"/><path d="M31.878 10.087c.053 2.202-5.28 7.05-13.045 7.05-7.766 0-12.898-1.615-12.898-5.915s6.3-7.507 14.062-7.786c9.49-.347 11.77 2.325 11.881 6.651z" fill="#3B609D"/><path d="M31.752 10.078c.052 2.188-5.241 6.997-12.945 6.997-7.705 0-12.8-1.608-12.8-5.874s6.251-7.448 13.951-7.725c9.414-.343 11.682 2.31 11.794 6.602z" fill="#3C619D"/><path d="M31.623 10.069c.052 2.175-5.201 6.943-12.844 6.943-7.644 0-12.7-1.599-12.7-5.831 0-4.233 6.201-7.39 13.84-7.664 9.335-.34 11.594 2.294 11.704 6.552z" fill="#3D619D"/><path d="M31.495 10.06c.051 2.162-5.162 6.888-12.744 6.888-7.583 0-12.601-1.59-12.601-5.788 0-4.199 6.152-7.331 13.73-7.602 9.257-.336 11.506 2.278 11.615 6.501z" fill="#3E629E"/><path d="M31.368 10.05c.05 2.15-5.123 6.835-12.644 6.835S6.222 15.305 6.222 11.14s6.103-7.273 13.62-7.541C29.02 3.266 31.26 5.86 31.368 10.05z" fill="#3F639F"/><path d="M31.241 10.04c.05 2.137-5.082 6.782-12.543 6.782-7.46 0-12.403-1.572-12.403-5.703s6.053-7.214 13.51-7.48c9.1-.329 11.33 2.246 11.436 6.402z" fill="#40649F"/><path d="M31.113 10.031c.05 2.124-5.043 6.728-12.442 6.728-7.4 0-12.304-1.563-12.304-5.66 0-4.098 6.003-7.157 13.398-7.42 9.023-.325 11.243 2.231 11.348 6.352z" fill="#41649F"/><path d="M30.985 10.022c.05 2.11-5.004 6.673-12.342 6.673-7.339 0-12.205-1.554-12.205-5.617s5.954-7.097 13.288-7.357c8.944-.323 11.154 2.214 11.259 6.301z" fill="#4365A0"/><path d="M30.856 10.013c.049 2.097-4.965 6.62-12.242 6.62-7.277 0-12.106-1.546-12.106-5.575 0-4.03 5.905-7.04 13.178-7.297 8.866-.319 11.066 2.199 11.17 6.252z" fill="#4566A1"/><path d="M30.728 10.004c.048 2.084-4.926 6.565-12.141 6.565-7.217 0-12.007-1.536-12.007-5.532s5.854-6.98 13.066-7.235c8.788-.315 10.98 2.183 11.082 6.202z" fill="#4666A1"/><path d="M30.6 9.994c.047 2.072-4.886 6.512-12.041 6.512-7.156 0-11.908-1.528-11.908-5.49s5.805-6.922 12.956-7.173c8.71-.312 10.891 2.166 10.993 6.151z" fill="#4767A2"/><path d="M30.473 9.985c.047 2.058-4.846 6.457-11.94 6.457-7.094 0-11.809-1.518-11.809-5.446S12.48 4.132 19.57 3.883c8.631-.308 10.803 2.151 10.903 6.102z" fill="#4868A2"/><path d="M30.345 9.976c.047 2.045-4.807 6.403-11.84 6.403-7.033 0-11.71-1.51-11.71-5.403 0-3.895 5.707-6.805 12.736-7.052 8.553-.305 10.715 2.135 10.814 6.052z" fill="#4968A2"/><path d="M30.218 9.967c.046 2.032-4.768 6.35-11.74 6.35s-11.61-1.501-11.61-5.362c0-3.86 5.656-6.747 12.624-6.99 8.475-.302 10.628 2.119 10.726 6.002z" fill="#4A69A3"/><path d="M30.09 9.957c.045 2.02-4.729 6.296-11.64 6.296-6.91 0-11.511-1.492-11.511-5.318 0-3.827 5.607-6.689 12.514-6.93 8.397-.297 10.54 2.104 10.637 5.952z" fill="#4B6AA4"/><path d="M29.963 9.948c.045 2.006-4.689 6.242-11.539 6.242S7.011 14.707 7.011 10.914c0-3.793 5.558-6.63 12.404-6.868 8.32-.294 10.452 2.087 10.548 5.902z" fill="#4C6BA4"/><path d="M29.834 9.939c.045 1.993-4.65 6.188-11.438 6.188-6.789 0-11.313-1.474-11.313-5.233 0-3.76 5.508-6.572 12.292-6.807 8.242-.291 10.364 2.071 10.46 5.852z" fill="#4D6BA4"/><path d="M29.706 9.93c.044 1.98-4.61 6.133-11.337 6.133-6.729 0-11.215-1.465-11.215-5.19 0-3.725 5.458-6.513 12.182-6.745C27.5 3.84 29.612 6.183 29.706 9.93z" fill="#4F6CA5"/><path d="M29.578 9.92C29.62 11.887 25.008 16 18.34 16S7.225 14.544 7.225 10.852c0-3.691 5.409-6.454 12.072-6.684 8.085-.284 10.188 2.04 10.28 5.752z" fill="#506DA6"/><path d="M29.45 9.911c.044 1.954-4.53 6.026-11.136 6.026-6.606 0-11.016-1.447-11.016-5.105 0-3.658 5.359-6.396 11.96-6.623 8.008-.28 10.101 2.024 10.193 5.702z" fill="#516EA6"/><path d="M29.322 9.902c.043 1.94-4.491 5.972-11.035 5.972-6.545 0-10.918-1.438-10.918-5.062 0-3.624 5.31-6.338 11.85-6.562 7.93-.278 10.013 2.007 10.103 5.652z" fill="#526EA7"/><path d="M29.195 9.893c.042 1.928-4.452 5.918-10.935 5.918-6.484 0-10.819-1.43-10.819-5.02s5.26-6.279 11.74-6.5c7.85-.274 9.925 1.991 10.014 5.602z" fill="#536FA7"/><path d="M29.067 9.883c.042 1.915-4.413 5.864-10.835 5.864-6.423 0-10.72-1.42-10.72-4.976 0-3.557 5.211-6.221 11.63-6.44 7.772-.27 9.837 1.976 9.925 5.552z" fill="#546FA7"/><path d="M28.94 9.874c.042 1.902-4.373 5.81-10.734 5.81s-10.62-1.411-10.62-4.934c0-3.522 5.161-6.162 11.519-6.378 7.694-.267 9.75 1.96 9.836 5.502z" fill="#5570A8"/><path d="M28.813 9.865c.04 1.889-4.334 5.756-10.634 5.756-6.3 0-10.522-1.402-10.522-4.891s5.112-6.104 11.409-6.317c7.616-.264 9.661 1.944 9.747 5.452z" fill="#5671A9"/><path d="M28.684 9.855c.04 1.876-4.294 5.703-10.533 5.703-6.24 0-10.423-1.394-10.423-4.849s5.062-6.045 11.298-6.255c7.538-.26 9.574 1.927 9.659 5.401z" fill="#5771A9"/><path d="M28.556 9.846c.04 1.863-4.255 5.649-10.433 5.649-6.179 0-10.323-1.385-10.323-4.806 0-3.421 5.012-5.987 11.187-6.194 7.46-.258 9.486 1.911 9.57 5.351z" fill="#5872A9"/><path d="M28.427 9.837c.039 1.85-4.216 5.594-10.333 5.594S7.87 14.055 7.87 10.668s4.963-5.928 11.077-6.133c7.381-.254 9.398 1.896 9.48 5.302z" fill="#5A74AA"/><path d="M28.3 9.828c.04 1.837-4.175 5.54-10.231 5.54-6.057 0-10.126-1.367-10.126-4.72 0-3.354 4.914-5.87 10.967-6.072 7.303-.25 9.31 1.88 9.39 5.252z" fill="#5B74AB"/><path d="M28.173 9.818c.037 1.824-4.137 5.487-10.132 5.487S8.014 13.947 8.014 10.627s4.865-5.811 10.856-6.01c7.226-.247 9.223 1.864 9.303 5.201z" fill="#5C75AB"/><path d="M28.045 9.81c.037 1.81-4.097 5.432-10.03 5.432-5.935 0-9.928-1.35-9.928-4.635 0-3.286 4.814-5.753 10.745-5.95 7.147-.243 9.134 1.848 9.213 5.152z" fill="#5D76AC"/><path d="M27.917 9.8c.037 1.797-4.058 5.378-9.93 5.378-5.874 0-9.829-1.34-9.829-4.592s4.765-5.694 10.635-5.888c7.069-.24 9.046 1.832 9.124 5.102z" fill="#5E76AC"/><path d="M27.79 9.79c.036 1.785-4.019 5.325-9.83 5.325-5.813 0-9.73-1.331-9.73-4.55 0-3.217 4.716-5.635 10.524-5.826 6.991-.237 8.959 1.816 9.036 5.052z" fill="#5F77AC"/><path d="M27.662 9.781c.035 1.772-3.98 5.271-9.73 5.271-5.751 0-9.63-1.322-9.63-4.507 0-3.184 4.665-5.577 10.413-5.766 6.913-.233 8.87 1.8 8.947 5.002z" fill="#6078AD"/><path d="M27.533 9.772c.035 1.759-3.94 5.217-9.629 5.217-5.69 0-9.531-1.314-9.531-4.464 0-3.15 4.616-5.52 10.303-5.705 6.834-.23 8.783 1.785 8.857 4.952z" fill="#6179AE"/><path d="M27.405 9.763c.035 1.745-3.9 5.163-9.529 5.163s-9.432-1.305-9.432-4.422c0-3.116 4.567-5.46 10.193-5.643 6.756-.226 8.695 1.768 8.768 4.902z" fill="#6279AE"/><path d="M27.278 9.754c.034 1.732-3.86 5.109-9.428 5.109-5.569 0-9.334-1.296-9.334-4.38 0-3.082 4.518-5.402 10.082-5.581 6.679-.223 8.608 1.752 8.68 4.852z" fill="#637AAE"/><path d="M27.15 9.744c.033 1.72-3.821 5.055-9.328 5.055s-9.234-1.287-9.234-4.336c0-3.049 4.467-5.344 9.971-5.52 6.6-.22 8.52 1.736 8.59 4.801z" fill="#647BAF"/><path d="M27.023 9.735c.032 1.707-3.782 5.001-9.228 5.001S8.66 13.458 8.66 10.443c0-3.016 4.418-5.286 9.86-5.46 6.523-.216 8.432 1.721 8.503 4.752z" fill="#667CB0"/><path d="M26.894 9.726c.033 1.693-3.742 4.947-9.126 4.947-5.385 0-9.037-1.27-9.037-4.25 0-2.982 4.369-5.228 9.75-5.4 6.445-.212 8.345 1.706 8.413 4.703z" fill="#677DB0"/><path d="M26.768 9.716c.032 1.68-3.703 4.893-9.026 4.893-5.324 0-8.937-1.26-8.937-4.207 0-2.948 4.319-5.17 9.64-5.338 6.365-.209 8.255 1.69 8.323 4.652z" fill="#687EB1"/><path d="M26.64 9.707c.032 1.668-3.663 4.84-8.926 4.84s-8.838-1.252-8.838-4.166c0-2.914 4.27-5.11 9.53-5.276 6.287-.206 8.167 1.673 8.234 4.602z" fill="#697EB1"/><path d="M26.512 9.698c.031 1.654-3.624 4.785-8.826 4.785-5.201 0-8.739-1.242-8.739-4.122s4.22-5.052 9.419-5.215c6.21-.202 8.08 1.657 8.146 4.552z" fill="#6A7FB1"/><path d="M26.384 9.689c.03 1.641-3.585 4.731-8.725 4.731s-8.64-1.233-8.64-4.08c0-2.846 4.17-4.993 9.308-5.153 6.131-.2 7.992 1.64 8.057 4.502z" fill="#6B80B2"/><path d="M26.256 9.68c.033 1.628-3.546 4.677-8.625 4.677-5.08 0-8.541-1.225-8.541-4.037s4.12-4.935 9.198-5.093c6.053-.195 7.91 1.626 7.968 4.453z" fill="#6C81B3"/><path d="M26.127 9.67c.033 1.615-3.506 4.624-8.524 4.624-5.019 0-8.442-1.216-8.442-3.995 0-2.778 4.071-4.876 9.087-5.03 5.975-.193 7.823 1.608 7.88 4.401z" fill="#6D81B3"/><path d="M26 9.661c.032 1.602-3.467 4.57-8.424 4.57-4.957 0-8.343-1.207-8.343-3.952s4.022-4.818 8.977-4.97C24.107 5.12 25.945 6.902 26 9.66z" fill="#6E82B4"/><path d="M25.872 9.652c.032 1.589-3.427 4.515-8.323 4.515-4.897 0-8.244-1.198-8.244-3.909 0-2.71 3.972-4.76 8.866-4.908 5.819-.186 7.647 1.577 7.7 4.302z" fill="#6F83B4"/><path d="M25.745 9.642c.03 1.576-3.388 4.462-8.223 4.462-4.836 0-8.145-1.189-8.145-3.866 0-2.678 3.922-4.701 8.755-4.848 5.74-.182 7.56 1.562 7.613 4.252z" fill="#7184B5"/><path d="M25.616 9.633c.031 1.563-3.348 4.408-8.122 4.408s-8.046-1.18-8.046-3.824c0-2.643 3.873-4.642 8.645-4.786 5.663-.178 7.471 1.546 7.523 4.202z" fill="#7285B6"/><path d="M25.49 9.624c.03 1.55-3.31 4.354-8.022 4.354-4.714 0-7.947-1.172-7.947-3.781 0-2.61 3.823-4.584 8.534-4.725 5.585-.175 7.383 1.53 7.434 4.152z" fill="#7386B6"/><path d="M25.361 9.615c.03 1.537-3.27 4.3-7.921 4.3-4.652 0-7.848-1.163-7.848-3.739 0-2.575 3.774-4.525 8.424-4.664 5.506-.17 7.295 1.514 7.345 4.103z" fill="#7486B6"/><path d="M25.233 9.606c.029 1.524-3.23 4.245-7.82 4.245-4.592 0-7.75-1.153-7.75-3.695s3.724-4.467 8.314-4.603c5.428-.168 7.207 1.498 7.256 4.053z" fill="#7587B7"/><path d="M25.106 9.596c.028 1.511-3.19 4.192-7.72 4.192-4.53 0-7.65-1.145-7.65-3.653s3.674-4.408 8.202-4.541c5.35-.165 7.12 1.482 7.168 4.002z" fill="#7688B7"/><path d="M24.977 9.587c.029 1.498-3.15 4.138-7.62 4.138-4.468 0-7.55-1.136-7.55-3.61s3.625-4.35 8.092-4.48c5.272-.161 7.032 1.466 7.078 3.952z" fill="#7788B8"/><path d="M24.85 9.578c.028 1.484-3.111 4.084-7.519 4.084-4.408 0-7.452-1.127-7.452-3.568 0-2.44 3.576-4.292 7.982-4.419 5.193-.158 6.944 1.45 6.99 3.903z" fill="#7889B8"/><path d="M24.722 9.568c.027 1.472-3.072 4.03-7.419 4.03-4.347 0-7.353-1.117-7.353-3.524s3.527-4.233 7.872-4.358c5.115-.154 6.855 1.434 6.9 3.852z" fill="#798AB9"/><path d="M24.595 9.56c.026 1.458-3.033 3.975-7.319 3.975-4.285 0-7.253-1.109-7.253-3.482s3.476-4.174 7.76-4.296c5.038-.151 6.768 1.418 6.812 3.802z" fill="#7A8BB9"/><path d="M24.466 9.55c.026 1.445-2.993 3.922-7.217 3.922-4.225 0-7.155-1.1-7.155-3.44 0-2.338 3.427-4.116 7.65-4.235 4.96-.147 6.68 1.403 6.723 3.753z" fill="#7C8CBA"/><path d="M24.34 9.54c.025 1.433-2.955 3.869-7.118 3.869-4.164 0-7.056-1.091-7.056-3.397 0-2.305 3.378-4.058 7.54-4.174 4.88-.144 6.592 1.387 6.633 3.703z" fill="#7D8DBB"/><path d="M24.211 9.531c.025 1.42-2.914 3.814-7.017 3.814s-6.957-1.082-6.957-3.353c0-2.272 3.329-4 7.43-4.113 4.802-.14 6.504 1.37 6.544 3.652z" fill="#7E8EBB"/><path d="M24.083 9.522c.024 1.407-2.875 3.76-6.917 3.76-4.041 0-6.857-1.073-6.857-3.31 0-2.238 3.278-3.942 7.318-4.052 4.725-.137 6.417 1.354 6.456 3.602z" fill="#7F8EBC"/><path d="M23.955 9.513c.024 1.393-2.836 3.706-6.816 3.706-3.981 0-6.76-1.064-6.76-3.268 0-2.204 3.23-3.883 7.209-3.99 4.647-.134 6.329 1.338 6.367 3.552z" fill="#808FBC"/><path d="M23.827 9.504c.024 1.38-2.796 3.652-6.715 3.652-3.92 0-6.66-1.055-6.66-3.226 0-2.17 3.18-3.824 7.098-3.929 4.568-.13 6.24 1.323 6.277 3.503z" fill="#8090BD"/><path d="M23.7 9.494c.022 1.368-2.758 3.599-6.616 3.599-3.859 0-6.56-1.047-6.56-3.183s3.13-3.766 6.987-3.868c4.49-.127 6.152 1.307 6.188 3.452z" fill="#8291BD"/><path d="M23.572 9.485c.022 1.354-2.717 3.545-6.515 3.545-3.797 0-6.461-1.038-6.461-3.14 0-2.103 3.08-3.708 6.876-3.807 4.412-.124 6.065 1.29 6.1 3.402z" fill="#8392BE"/><path d="M23.444 9.476c.021 1.341-2.678 3.49-6.414 3.49-3.737 0-6.363-1.028-6.363-3.097 0-2.068 3.03-3.649 6.766-3.746 4.334-.12 5.977 1.275 6.01 3.353z" fill="#8492BE"/><path d="M23.316 9.466c.02 1.329-2.639 3.437-6.314 3.437-3.676 0-6.264-1.02-6.264-3.055s2.982-3.59 6.655-3.684c4.256-.117 5.89 1.259 5.922 3.302z" fill="#8493BF"/><path d="M23.189 9.457c.02 1.316-2.6 3.383-6.213 3.383-3.615 0-6.165-1.011-6.165-3.012 0-2.001 2.932-3.532 6.545-3.623 4.178-.114 5.801 1.243 5.833 3.252z" fill="#8795C0"/><path d="M23.06 9.448c.02 1.302-2.56 3.329-6.113 3.329-3.553 0-6.065-1.002-6.065-2.97 0-1.967 2.882-3.473 6.434-3.561 4.1-.11 5.713 1.227 5.744 3.202z" fill="#8896C0"/><path d="M22.932 9.439c.02 1.289-2.52 3.274-6.012 3.274-3.493 0-5.967-.993-5.967-2.926 0-1.933 2.833-3.415 6.324-3.501 4.022-.106 5.625 1.211 5.655 3.153z" fill="#8896C1"/><path d="M22.805 9.43c.019 1.276-2.48 3.22-5.912 3.22-3.431 0-5.867-.984-5.867-2.884 0-1.899 2.783-3.356 6.213-3.439 3.943-.103 5.537 1.195 5.566 3.102z" fill="#8997C1"/><path d="M22.677 9.42c.018 1.264-2.442 3.167-5.811 3.167-3.37 0-5.77-.975-5.77-2.841s2.735-3.298 6.103-3.378c3.866-.1 5.45 1.18 5.478 3.052z" fill="#8A98C2"/><path d="M22.548 9.41c.019 1.251-2.401 3.114-5.71 3.114-3.31 0-5.67-.967-5.67-2.799 0-1.832 2.684-3.24 5.992-3.317 3.788-.096 5.362 1.164 5.388 3.003z" fill="#8B99C2"/><path d="M22.421 9.402c.018 1.237-2.362 3.06-5.61 3.06s-5.57-.958-5.57-2.757c0-1.798 2.634-3.181 5.881-3.256 3.709-.092 5.274 1.148 5.3 2.953z" fill="#8C99C3"/><path d="M22.293 9.392c.017 1.225-2.323 3.006-5.51 3.006s-5.471-.949-5.471-2.714c0-1.764 2.585-3.122 5.77-3.194 3.631-.09 5.187 1.131 5.211 2.902z" fill="#8D9AC3"/><path d="M22.166 9.383c.016 1.211-2.284 2.951-5.41 2.951-3.126 0-5.372-.94-5.372-2.67S13.92 6.6 17.044 6.53c3.553-.085 5.099 1.116 5.122 2.853z" fill="#8E9BC4"/><path d="M22.038 9.374c.015 1.198-2.244 2.897-5.31 2.897-3.064 0-5.273-.93-5.273-2.627 0-1.697 2.486-3.006 5.55-3.073 3.475-.082 5.01 1.1 5.033 2.803z" fill="#8F9BC4"/><path d="M21.91 9.365c.015 1.185-2.205 2.843-5.209 2.843-3.004 0-5.174-.922-5.174-2.585 0-1.663 2.436-2.947 5.439-3.011 3.396-.079 4.922 1.084 4.944 2.753z" fill="#919DC5"/><path d="M21.782 9.355c.015 1.173-2.165 2.79-5.108 2.79-2.943 0-5.075-.913-5.075-2.543 0-1.628 2.387-2.888 5.329-2.95 3.318-.075 4.834 1.069 4.854 2.703z" fill="#929EC6"/><path d="M21.654 9.346c.014 1.16-2.126 2.735-5.008 2.735s-4.976-.904-4.976-2.5c0-1.594 2.338-2.83 5.219-2.888 3.24-.072 4.746 1.052 4.765 2.653z" fill="#939FC6"/><path d="M21.526 9.337c.013 1.146-2.087 2.681-4.907 2.681-2.821 0-4.877-.895-4.877-2.457 0-1.561 2.287-2.772 5.107-2.827 3.162-.068 4.658 1.036 4.677 2.603z" fill="#94A0C7"/><path d="M21.399 9.328c.012 1.133-2.048 2.627-4.807 2.627-2.76 0-4.778-.886-4.778-2.414 0-1.527 2.238-2.713 4.997-2.766 3.084-.065 4.57 1.02 4.588 2.553z" fill="#95A0C7"/><path d="M21.27 9.318c.012 1.12-2.007 2.574-4.706 2.574-2.699 0-4.679-.877-4.679-2.371s2.189-2.655 4.887-2.705c3.006-.062 4.482 1.004 4.498 2.502z" fill="#96A1C8"/><path d="M21.142 9.31c.012 1.106-1.968 2.519-4.605 2.519-2.638 0-4.58-.869-4.58-2.329 0-1.46 2.138-2.597 4.775-2.644 2.928-.058 4.395.989 4.41 2.453z" fill="#97A2C8"/><path d="M21.015 9.3c.01 1.094-1.929 2.465-4.505 2.465-2.577 0-4.481-.86-4.481-2.286 0-1.426 2.09-2.538 4.665-2.582 2.85-.055 4.306.972 4.32 2.403z" fill="#98A3C9"/><path d="M20.887 9.29c.01 1.082-1.89 2.413-4.405 2.413-2.516 0-4.382-.851-4.382-2.244 0-1.392 2.04-2.48 4.555-2.521 2.771-.052 4.218.956 4.232 2.353z" fill="#99A4C9"/><path d="M20.76 9.281c.01 1.068-1.85 2.358-4.305 2.358-2.454 0-4.283-.842-4.283-2.2 0-1.36 1.99-2.422 4.445-2.46 2.693-.049 4.13.94 4.142 2.302z" fill="#9AA4C9"/><path d="M20.631 9.272c.01 1.055-1.81 2.304-4.204 2.304-2.393 0-4.184-.833-4.184-2.158s1.941-2.363 4.334-2.399c2.615-.045 4.042.925 4.054 2.253z" fill="#9AA5CA"/><path d="M20.503 9.263c.009 1.042-1.771 2.25-4.103 2.25s-4.085-.824-4.085-2.115c0-1.291 1.891-2.305 4.223-2.338 2.537-.041 3.955.909 3.965 2.203z" fill="#9DA7CC"/><path d="M20.376 9.254c.006 1.028-1.732 2.196-4.003 2.196s-3.986-.816-3.986-2.073c0-1.257 1.842-2.246 4.113-2.276 2.459-.038 3.864.893 3.876 2.153z" fill="#9EA8CC"/><path d="M20.248 9.244c.007 1.016-1.693 2.142-3.903 2.142s-3.887-.806-3.887-2.03c0-1.223 1.793-2.187 4.002-2.215 2.381-.034 3.779.877 3.788 2.103z" fill="#9EA8CC"/><path d="M20.12 9.235c.004 1.003-1.653 2.088-3.802 2.088-2.15 0-3.789-.797-3.789-1.987s1.744-2.13 3.893-2.154c2.302-.03 3.687.861 3.697 2.053z" fill="#9FA9CD"/><path d="M19.991 9.226c.004.99-1.613 2.034-3.701 2.034-2.089 0-3.69-.788-3.69-1.944s1.694-2.07 3.782-2.093c2.225-.028 3.6.845 3.61 2.003z" fill="#A0AACD"/><path d="M19.865 9.216c.004.977-1.574 1.98-3.6 1.98-2.028 0-3.59-.779-3.59-1.901 0-1.122 1.643-2.012 3.67-2.032 2.146-.024 3.512.83 3.52 1.953z" fill="#A2ABCE"/><path d="M19.737 9.207c.003.964-1.535 1.927-3.5 1.927-1.967 0-3.492-.771-3.492-1.86 0-1.087 1.595-1.953 3.56-1.97 2.069-.02 3.425.814 3.432 1.903z" fill="#A2ACCE"/><path d="M19.61 9.198c.002.95-1.495 1.873-3.4 1.873-1.905 0-3.392-.762-3.392-1.817 0-1.054 1.545-1.895 3.45-1.909 1.99-.017 3.336.798 3.342 1.853z" fill="#A3ADCF"/><path d="M19.482 9.189c.002.937-1.456 1.818-3.3 1.818-1.844 0-3.293-.752-3.293-1.773 0-1.02 1.495-1.837 3.34-1.848 1.911-.014 3.248.781 3.253 1.803z" fill="#A4ADCF"/><path d="M19.353 9.18c.002.924-1.416 1.764-3.199 1.764s-3.194-.744-3.194-1.73c0-.988 1.446-1.78 3.229-1.788 1.834-.01 3.16.766 3.164 1.753z" fill="#A5AECF"/><path d="M19.226 9.17c.001.912-1.377 1.71-3.098 1.71-1.723 0-3.095-.734-3.095-1.687 0-.953 1.396-1.72 3.118-1.726 1.755-.007 3.073.75 3.075 1.703z" fill="#A7B0D1"/><path d="M19.098 9.16c0 .9-1.337 1.657-2.998 1.657-1.661 0-2.996-.726-2.996-1.645s1.347-1.662 3.008-1.664c1.677-.003 2.985.734 2.986 1.653z" fill="#A8B1D1"/><path d="M18.97 9.152c0 .885-1.297 1.602-2.897 1.602-1.6 0-2.897-.717-2.897-1.602 0-.886 1.297-1.603 2.897-1.603 1.6 0 2.898.718 2.898 1.603z" fill="#A9B1D2"/><path d="M32.036 2.454c3.53 1.834 5.716 4.376 5.716 7.186 0 5.588-8.645 10.119-19.31 10.119-6.193 0-11.704-1.528-15.238-3.903 1.704 5.742 11.307 10.14 22.899 10.14 12.795 0 23.167-5.36 23.167-11.97 0-5.55-7.314-10.218-17.234-11.572z" fill="url(#paint0_linear_1322_23283)"/><path d="M26.049.475C12.189.475.954 6.53.954 14c0 7.47 11.236 13.525 25.095 13.525 13.86 0 25.097-6.055 25.097-13.525C51.146 6.53 39.91.475 26.049.475zm.027 26.47c-13.612 0-24.646-5.855-24.646-13.077C1.43 6.646 12.464.79 26.076.79c13.611 0 24.647 5.855 24.647 13.077 0 7.221-11.035 13.076-24.647 13.076z" fill="url(#paint1_linear_1322_23283)"/><path d="M26.049.475C12.189.475.954 6.53.954 14c0 7.47 11.236 13.525 25.095 13.525 13.86 0 25.097-6.055 25.097-13.525C51.146 6.53 39.91.475 26.049.475zm.027 25.36c-12.707 0-23.01-5.323-23.01-11.888 0-6.566 10.303-11.888 23.01-11.888 12.708 0 23.01 5.322 23.01 11.888s-10.302 11.888-23.01 11.888z" fill="url(#paint2_linear_1322_23283)"/><path d="M25.97 1.03C12.547 1.03 1.666 6.8 1.666 13.92c0 7.12 10.88 12.892 24.302 12.892 13.424 0 24.304-5.771 24.304-12.891S39.393 1.03 25.969 1.03zm.105 24.805c-12.707 0-23.009-5.322-23.009-11.888 0-6.565 10.302-11.888 23.01-11.888 12.707 0 23.009 5.323 23.009 11.888 0 6.566-10.302 11.888-23.01 11.888z" fill="url(#paint3_linear_1322_23283)"/><path d="M26.076 1.869c-12.91 0-23.378 5.407-23.378 12.078 0 6.671 10.467 12.08 23.378 12.08 12.912 0 23.379-5.409 23.379-12.08 0-6.67-10.467-12.078-23.379-12.078zm0 23.966c-12.706 0-23.009-5.323-23.009-11.888 0-6.566 10.303-11.888 23.01-11.888s23.009 5.322 23.009 11.888-10.301 11.888-23.01 11.888z" fill="url(#paint4_linear_1322_23283)"/><path d="M36.367 22.691c-.026.119-.08.33-.198.33-.12 0-.16-.131-.212-.303-.053-.172-.105-.621-.303-1.097-.199-.475-1.057-.528-1.664-.58-.608-.053-3.07-.168-3.58-.12-.07.007-.195.01-.356.02l-.08.214c.39-.046.756-.075 1.083-.075.886 0 1.057.013 1.598.079.543.066 1.704.212 2.166.357.463.145.622.475.74.78.12.303.384 1.108.384 1.108s.066.33.224.33.224-.343.224-.343l-.026-.7z" fill="url(#paint5_linear_1322_23283)"/><path d="M37.171 20.287c.503.198 1.746.283 1.944.283.198 0 .54-.019.54.153s-.198.185-.436.198l1.704.04c.41-.027.7-.08.7-.211 0-.133-.159-.185-.74-.265-.58-.079-2.31-.264-3.223-.462l-.489.264z" fill="url(#paint6_linear_1322_23283)"/><path d="M36.365 18.993c-.04-.225-.132-.423-.238-.423-.105 0-.198.251-.238.436-.039.185-.025.832-.448 1.11-.423.277-.886.39-2.353.47-1.466.079-2.693.031-3.142.018l-.015-.177c.499.05 1.005.075 1.706.058 1.096-.026 2.258-.277 2.88-.396.62-.119.739-.396.898-.647.158-.251.369-1.004.408-1.123.04-.119.092-.502.304-.502s.304.568.435.925l-.197.25z" fill="url(#paint7_linear_1322_23283)"/><path d="M26.63 19.81c.059.042.12.079.186.107.595.265 1.387.304 2.245.41.859.105 1.48.184 2.576.158l.01.13a38.667 38.667 0 0 1-1.7-.01c-.45-.014-2.788-.08-3.527-.331a1.033 1.033 0 0 1-.197-.105l.408-.359z" fill="url(#paint8_linear_1322_23283)"/><path d="M30.409 20.921c-.436.013-2.867.225-3.514.264-.646.04-.871.45-.963.635-.094.184-.357 1.466-.384 1.571-.027.106-.066.317-.132.317v.845c.145 0 .317-.713.317-.713s.357-1.519.62-1.796c.265-.278.304-.383 1.48-.568.91-.143 1.813-.302 2.586-.367l-.01-.188z" fill="url(#paint9_linear_1322_23283)"/><path d="M23.13 21.106s.793.04 1.11.185c.316.145.594.304.673.621.08.317.344 1.453.37 1.558.026.106.066.239.132.239s.105-.212.132-.317l.185.448s-.172.713-.317.713c-.145 0-.317-.673-.317-.673s-.357-1.215-.502-1.624c-.145-.41-.396-.515-.766-.648-.141-.05-.417-.103-.722-.15l.022-.352z" fill="url(#paint10_linear_1322_23283)"/><path d="M25.283 23.47c.026.106.066.238.132.238.05 0 .085-.118.11-.223l.034.89c-.047.102-.096.178-.144.178-.047 0-.098-.072-.145-.17l.013-.913z" fill="url(#paint11_linear_1322_23283)"/><path d="M23.83 21.608c-.37-.132-1.664-.277-1.994-.317-.33-.04-2.311-.238-2.324-.502-.013-.264 2.403-.449 2.403-.449l.067.25c-.397.054-.727.04-.727.173 0 .132.25.224.74.25.488.027 1.135.093 1.135.093s.793.04 1.11.185l-.41.317z" fill="url(#paint12_linear_1322_23283)"/><path d="M19.512 20.789c-.013-.264 2.403-.449 2.403-.449 1.228-.12 1.916-.264 2.325-.515.409-.25.687-1.268.792-1.612.106-.343.277-.74.37-.74.093 0 .198.252.356.78l-.132.555c-.079-.476-.118-.595-.237-.595-.12 0-.198.357-.265.674-.066.317-.164 1.194-.791 1.387-.688.211-1.07.277-2.352.317-.396.053-.727.04-.727.172l-1.742.026z" fill="url(#paint13_linear_1322_23283)"/><path d="M26.418 20.274c-.423-.172-.647-.541-.793-1.467-.079-.475-.118-.594-.237-.594l.013-.74c.093 0 .198.252.356.78.16.528.463 1.4 1.058 1.663l-.397.358z" fill="url(#paint14_linear_1322_23283)"/><path d="M25.32 18.256c.021-.027.044-.043.07-.043.034 0 .063.01.086.038l.01-.714c-.029-.042-.057-.063-.084-.063-.026 0-.058.03-.092.083l.01.7z" fill="url(#paint15_linear_1322_23283)"/><path d="M21.385 20.906c-.087-.04-.13-.088-.13-.143 0-.05.046-.079.125-.099l-1.507-.055c-.22.054-.365.115-.361.18.003.068.133.13.332.188l1.541-.071z" fill="url(#paint16_linear_1322_23283)"/><path d="M36.167 23.735c.158 0 .224-.344.224-.344s.423-1.347.66-1.558c.239-.212.41-.41 1.586-.555 1.176-.146 1.875-.291 2.285-.317.409-.027.7-.08.7-.212l-1.969-.026c0 .172-.197.185-.435.198-.238.013-1.307.106-1.994.237-.688.133-.833 1.414-.86 1.533-.025.119-.078.33-.197.33v.714z" fill="url(#paint17_linear_1322_23283)"/><path d="M38.089 20.473c-.35-.042-.704-.102-.918-.186-.501-.198-.686-.541-.805-1.294-.04-.225-.132-.423-.238-.423-.105 0-.198.251-.238.436l-.066-.687c.04-.119.092-.502.304-.502s.304.568.435.925c.134.357.186 1.083 1.097 1.28.167.037.36.072.567.108l-.138.343z" fill="url(#paint18_linear_1322_23283)"/><path d="M35.95 17.946c.04-.074.098-.129.177-.129.058 0 .108.043.15.113l.036.865-.005-.014c-.047-.124-.11-.211-.181-.211-.072 0-.137.115-.184.247l.006-.871z" fill="url(#paint19_linear_1322_23283)"/><path d="M41.322 20.917c.186-.034.3-.085.3-.167 0-.088-.07-.141-.288-.19l-1.858.013c.102.021.177.064.177.15a.145.145 0 0 1-.043.111l1.712.083z" fill="url(#paint20_linear_1322_23283)"/><path d="M36.365 22.691c-.026.12-.079.33-.197.33-.12 0-.16-.131-.212-.303l-.013.686s.066.326.225.33c.197.007.296-.58.296-.58l-.099-.463z" fill="url(#paint21_linear_1322_23283)"/><path d="M37.356 15.707c-.45-.013-2.799-.08-3.542-.335a1.004 1.004 0 0 1-.198-.107l.41-.364c.058.043.12.08.186.109.597.268 1.393.308 2.256.416" fill="url(#paint22_linear_1322_23283)"/><path d="M37.82 16.03c-.438.013-2.879.228-3.53.268-.648.04-.875.456-.968.644-.093.187-.357 1.489-.384 1.596-.027.107-.067.322-.133.322v.858c.146 0 .319-.724.319-.724s.357-1.543.623-1.824c.266-.282.305-.389 1.486-.577.915-.146 1.822-.307 2.597-.372l-.01-.192z" fill="url(#paint23_linear_1322_23283)"/><path d="M30.511 16.217s.796.04 1.114.188c.32.147.597.308.676.63.08.322.346 1.476.372 1.583.026.107.066.242.133.242.066 0 .106-.215.133-.322l.186.456s-.173.724-.32.724c-.145 0-.317-.684-.317-.684s-.359-1.234-.504-1.65c-.147-.416-.399-.523-.77-.658-.141-.05-.418-.104-.725-.152l.022-.357z" fill="url(#paint24_linear_1322_23283)"/><path d="M32.672 18.618c.026.107.066.241.133.241.05 0 .085-.12.11-.225l.035.902c-.047.104-.097.182-.145.182-.048 0-.098-.073-.146-.173l.013-.927z" fill="url(#paint25_linear_1322_23283)"/><path d="M31.213 16.727c-.371-.134-1.672-.282-2.003-.322-.332-.04-2.321-.241-2.335-.51-.014-.268 2.415-.456 2.415-.456l.066.255c-.399.054-.73.04-.73.174 0 .135.252.229.743.256.491.027 1.142.094 1.142.094s.795.04 1.113.187l-.41.322z" fill="url(#paint26_linear_1322_23283)"/><path d="M26.875 15.895c-.014-.268 2.415-.456 2.415-.456 1.233-.12 1.923-.268 2.334-.523.413-.255.69-1.288.797-1.637.106-.348.278-.751.371-.751.093 0 .2.255.358.792l-.132.563c-.08-.483-.12-.604-.239-.604-.12 0-.2.363-.265.684-.067.322-.166 1.212-.796 1.409-.69.214-1.075.281-2.362.321-.399.054-.73.041-.73.175l-1.751.027z" fill="url(#paint27_linear_1322_23283)"/><path d="M33.815 15.372c-.425-.175-.65-.55-.796-1.489-.08-.483-.12-.604-.239-.604l.013-.75c.093 0 .2.254.358.79.159.537.464 1.422 1.062 1.69l-.398.363z" fill="url(#paint28_linear_1322_23283)"/><path d="M43.285 17.139c.124-.624.405-.728.727-.873.322-.146 1.237-.177 1.413-.177.177 0 .592-.093.592-.24l1.456.027c0 .158-.778.237-.778.237s-2.1.238-2.523.502c-.317.198-.538.352-.762 1.018l-.125-.494z" fill="url(#paint29_linear_1322_23283)"/><path d="M43.783 15.351c.52.187 1.31.25 1.632.27.322.021.602.084.602.229 0 .146-.415.239-.592.239l1.27.024s.779-.08.779-.237c0-.159-.185-.211-.766-.291-.58-.079-1.704-.343-2.417-.502l-.508.268z" fill="url(#paint30_linear_1322_23283)"/><path d="M44.397 15.505a3.897 3.897 0 0 1-.614-.154c-.519-.187-.629-1.1-.629-1.1-.026-.106-.105-.515-.25-.515-.146 0-.265.541-.344 1.017l-.357-.225c.252-.58.502-1.426.688-1.44.184-.012.474.925.474.925s.212.912.926 1.07c.117.026.248.055.384.087l-.278.335z" fill="url(#paint31_linear_1322_23283)"/><path d="M42.89 13.089c-.185.013-.436.858-.687 1.44-.25.58-1.043.713-1.465.779-.423.066-1.097.25-2.18.277-1.083.027-2.107-.171-2.107-.171l-.151.252c.488.025.894.036 1.057.041 0 0 1.4.023 2.125-.017.727-.04 2.009-.171 2.299-.237.29-.066.7-.225.78-.7.078-.476.197-1.017.343-1.017l-.013-.647z" fill="url(#paint32_linear_1322_23283)"/><path d="M42.782 13.86c.038-.078.078-.124.12-.124.05 0 .092.047.126.114v-.644c-.048-.074-.096-.12-.138-.117-.043.003-.087.048-.135.123l.027.648z" fill="url(#paint33_linear_1322_23283)"/><path d="M43.502 17.39c-.106.251-.208.6-.321 1.1-.119.371-.145.542-.264.542-.064 0-.15-.171-.253-.456l.039-.68s.041.334.208.334c.166 0 .186-.26.186-.26s.063-.208.188-.831c.026-.134.06-.244.1-.335l.117.585z" fill="url(#paint34_linear_1322_23283)"/><path d="M42.567 17.302c-.062-.248-.136-.501-.197-.6-.135-.218-.291-.53-1.57-.571-1.278-.042-1.844-.13-2.98-.102-.151.004-.544.032-1.019.07l.027.228c.592-.086 1.144-.148 1.617-.147.628.002 1.128.052 2.305.224 1.176.172 1.374.396 1.611 1.215l.206-.317z" fill="url(#paint35_linear_1322_23283)"/><path d="M42.434 16.843c.125.346.268 1.054.268 1.054s.041.332.209.332l.005.803c-.118 0-.317-.594-.554-1.413a3.381 3.381 0 0 0-.159-.453l.23-.323z" fill="url(#paint36_linear_1322_23283)"/><path d="M27.246 16.096c-.22-.061-.367-.129-.371-.201-.003-.07.157-.134.398-.19l1.581.044c-.14.02-.227.05-.227.119 0 .047.03.089.09.124l-1.471.104z" fill="url(#paint37_linear_1322_23283)"/><path d="M32.71 13.323c.02-.028.044-.044.069-.044a.11.11 0 0 1 .088.039l.01-.725c-.03-.043-.058-.065-.085-.065-.026 0-.058.032-.093.085l.01.71z" fill="url(#paint38_linear_1322_23283)"/><path d="M17.19 12.52c-.396-.283-.838-.384-1.244-.461-.93-.179-4.478-.535-4.478-.535l-3.506-.297s-.675-.06-.675-.218c0-.159.675-.179.675-.179l-2.378-.02s-.516.02-.516.219c0 .198.437.198.595.217.159.02 3.25.436 3.25.436s4.933.674 5.408.753c.476.08 1.803.258 2.378.773l.49-.687z" fill="url(#paint39_linear_1322_23283)"/><path d="M19.407 3.816s-.067-.462-.292-.462c-.223 0-.29.515-.29.515s-.898 2.92-1.321 3.79c-.423.872-.726 1.691-4.253 2.087-3.13.41-4.775.668-4.775.668l-2.892.396s-.516.02-.516.218l2.22-.02c0-.158.674-.178.674-.178l2.654-.238s3.012-.248 4.458-.396c1.446-.149 2.516-.961 2.912-1.783.396-.823.843-3.338.843-3.338s.078-.813.286-.813c.209 0 .268.792.268.792l.024-1.238z" fill="url(#paint40_linear_1322_23283)"/><path d="M25.214 9.742c-.72-.091-1.906-.257-2.388-.418-.713-.238-1.757-.278-2.562-2.8a223.468 223.468 0 0 1-.858-2.708s-.067-.462-.293-.462c-.222 0-.288.515-.288.515l.003 1.205s.078-.812.285-.812c.14 0 .212.346.246.58l.025.198s.01.063.03.149c.106.476.474 2.083.642 2.738.197.773.743 1.565 1.624 1.932.882.367 2.992.495 3.369.505l.165-.622z" fill="url(#paint41_linear_1322_23283)"/><path d="M18.94 4.502c.043-.134.102-.24.175-.24.079 0 .135.109.176.246l.016-1.008c-.044-.081-.106-.146-.192-.146-.078 0-.137.064-.18.146l.004 1.002z" fill="url(#paint42_linear_1322_23283)"/><path d="M40.282 9c-.053-.277-.086-.521-.218-.521-.133 0-.193.323-.231.529-.04.204-.165 1.076-.509 1.307-.344.231-1.004.402-1.783.443-.78.04-2.424.105-2.866.105l.132-.165c.529-.013 1.228-.158 2.562-.29 1.335-.133 1.638-.49 1.889-.846.25-.357.568-1.453.568-1.453s.079-.383.238-.383c.158 0 .21.317.21.317l.008.958z" fill="url(#paint43_linear_1322_23283)"/><path d="M41.402 10.59c.284.064.582.083.801.101.41.033 1.262.126 1.262.126s.476.04.476.178c0 .139-.456.192-.456.192l1.453.053s.594-.014.594-.239c0-.224-.634-.237-.634-.237l-2.695-.436s-.119-.008-.29-.047l-.51.31z" fill="url(#paint44_linear_1322_23283)"/><path d="M40.784 11.721c-.297.258-.395 1.084-.423 1.242-.026.159-.144.687-.144.687s-.047.258-.145.258l-.034.845c.145 0 .238-.357.238-.357s.435-1.506.594-1.889c.052-.125.121-.245.232-.355l-.318-.43z" fill="url(#paint45_linear_1322_23283)"/><path d="M19.115 18.914c.239 0 .259-.536.259-.536s.516-3.15.594-3.526c.079-.376.336-1.645.89-2.12l.6.64c-.561.543-.736 1.202-.876 1.599-.238.673-1.208 4.537-1.208 4.537s-.06.515-.26.515v-1.11z" fill="url(#paint46_linear_1322_23283)"/><path d="M19.373 18.378s-.02.536-.26.536c-.236 0-.236-.536-.236-.536s-.218-1.168-.554-3.506c-.338-2.338-1.447-2.635-2.378-2.813l-.139.695c.348.11.674.258.892.454.574.515 1.07 1.624 1.426 3.269a72.8 72.8 0 0 0 .733 3.05s.06.496.257.496c.2 0 .259-.515.259-.515v-1.13z" fill="url(#paint47_linear_1322_23283)"/><path d="M18.911 19.774c.04.124.104.248.203.248.09 0 .153-.106.193-.223l.008-1.09c-.038.109-.1.204-.201.204-.106 0-.166-.109-.197-.228l-.006 1.089z" fill="url(#paint48_linear_1322_23283)"/><path d="M7.962 11.226s-.675-.06-.675-.218.675-.178.675-.178l-2.378-.02s-.516.02-.516.218.437.198.595.218l2.299-.02z" fill="url(#paint49_linear_1322_23283)"/><path d="M21.392 13.437c.392-.406.986-.757 1.923-.903 2.16-.337 6.181-.792 6.181-.792s2.042-.248 3.686-.356l.02-.239c-.773 0-6.202.476-8.778.654-2.575.178-3.01.456-3.567.931l.535.705z" fill="url(#paint50_linear_1322_23283)"/><path d="M39.036 12.123c-.303-.343-.743-.394-1.04-.441a41.43 41.43 0 0 0-3.229-.337c-.458-.027-1.21.01-2.008.07l-.026-.249c.215-.012.376-.019.469-.019.772 0 1.922 0 2.991.08 1.07.079 2.318.098 2.893.356.131.06.236.164.32.288l-.37.252z" fill="url(#paint51_linear_1322_23283)"/><path d="M38.96 12.044c.113.104.212.241.285.424.264.66.554 1.902.554 1.902s.093.383.238.383.238-.357.238-.357l-.06-.746s-.046.258-.144.258c-.1 0-.12-.14-.16-.258-.04-.119-.112-.502-.151-.68-.034-.149-.108-.844-.44-1.212l-.36.287z" fill="url(#paint52_linear_1322_23283)"/><path d="M39.8 14.37s.092.383.237.383.238-.357.238-.357l-.06-.746s-.046.258-.144.258c-.1 0-.12-.139-.16-.258l-.112.72z" fill="url(#paint53_linear_1322_23283)"/><path d="M41.036 12.223a.859.859 0 0 1 .075-.08c.228-.22.629-.397 1.41-.494a33.004 33.004 0 0 0 2.416-.41s.595-.013.595-.237l-1.591-.007c0 .139-.457.192-.457.192s-.415.106-1.195.158c-.779.053-1.209.12-1.506.377a.461.461 0 0 0-.048.049l.3.452z" fill="url(#paint54_linear_1322_23283)"/><path d="M43.727 10.86c.11.027.214.07.214.135 0 .045-.048.08-.112.108l1.597.037c.062-.033.106-.078.106-.139 0-.13-.216-.19-.396-.216l-1.41.075z" fill="url(#paint55_linear_1322_23283)"/><path d="M40.064 8.479c.132 0 .165.244.218.522.053.277.132.984.482 1.3.186.169.464.258.746.311l.52-.307c-.318-.056-.979-.235-1.187-.77-.277-.713-.568-1.492-.568-1.492s-.053-.317-.211-.317v.753z" fill="url(#paint56_linear_1322_23283)"/><path d="M39.95 7.798c.032-.043.07-.072.114-.072.052 0 .092.034.123.08l-.004.778c-.029-.066-.066-.105-.12-.105-.049 0-.089.045-.12.113l.008-.794z" fill="url(#paint57_linear_1322_23283)"/><path d="M35.898 10.582c-.465.063-.803.109-1.09.116-.53.013-1.626.013-2.498-.092l-6.51-.793s-.343-.038-.803-.098l-.017.66c.376.01 5.653.383 6.492.422.838.04 2.76.066 3.203.066.215 0 .715-.015 1.262-.036l-.04-.245z" fill="url(#paint58_linear_1322_23283)"/><path d="M42.703 17.897s.041.332.208.332c.166 0 .186-.26.186-.26l.084.522c-.119.37-.145.541-.264.541-.064 0-.15-.171-.253-.457l.039-.678z" fill="url(#paint59_linear_1322_23283)"/><path d="m10.616 10.592-2.654.238s-.675.02-.675.179c0 .158.675.218.675.218l3.506.297s3.547.356 4.478.535c.93.178 2.04.475 2.377 2.813.337 2.338.555 3.506.555 3.506s0 .536.237.536c.239 0 .258-.536.258-.536s.516-3.15.595-3.526c.079-.376.336-1.644.89-2.12.557-.475.992-.753 3.567-.931 2.576-.178 8.005-.654 8.778-.654.772 0 1.922 0 2.991.08 1.07.079 2.319.099 2.893.356.535.244.633 1.209.674 1.387.039.178.111.561.152.68.04.12.059.258.159.258.098 0 .145-.258.145-.258s.118-.528.144-.686c.028-.16.126-.985.423-1.242.297-.258.727-.324 1.506-.377.78-.052 1.195-.158 1.195-.158s.457-.053.457-.192c0-.138-.476-.178-.476-.178s-.853-.092-1.263-.126c-.408-.032-1.088-.072-1.439-.39-.35-.316-.429-1.023-.481-1.3-.054-.277-.086-.522-.219-.522s-.192.324-.23.529c-.04.204-.165 1.076-.51 1.307-.343.232-1.003.403-1.782.443-.78.04-2.424.105-2.867.105-.442 0-2.364-.025-3.202-.066-.84-.04-6.047-.422-6.423-.432-.377-.01-2.487-.139-3.369-.505-.881-.367-1.426-1.16-1.623-1.932-.2-.773-.659-2.886-.659-2.886s-.105-.786-.284-.78c-.207.01-.286.813-.286.813s-.446 2.516-.843 3.338c-.396.823-1.466 1.635-2.912 1.784-1.446.147-4.458.395-4.458.395z" fill="url(#paint60_radial_1322_23283)"/><path d="M37.82 16.03c-.438.01-2.879.228-3.53.268-.648.04-.875.456-.968.644-.093.187-.357 1.489-.384 1.596-.027.107-.067.322-.133.322s-.106-.134-.133-.241c-.026-.108-.291-1.262-.372-1.583-.079-.322-.357-.484-.676-.631-.318-.148-1.114-.188-1.114-.188s-.65-.066-1.141-.093c-.491-.028-.742-.121-.742-.256 0-.133.33-.12.729-.174 1.287-.04 1.671-.108 2.361-.322.63-.196.73-1.086.797-1.408.065-.322.145-.685.265-.685.12 0 .159.121.238.604.147.94.372 1.315.797 1.49.743.254 3.092.32 3.542.335 0 0 1.4.022 2.125-.017.727-.04 2.01-.172 2.299-.238.29-.066.7-.225.78-.7.079-.475.197-1.017.343-1.017.145 0 .224.41.25.515 0 0 .11.913.63 1.1.52.187 1.308.25 1.63.27.323.021.603.084.603.229 0 .146-.415.239-.592.239-.175 0-1.09.031-1.413.177-.322.146-.603.25-.727.873-.125.623-.188.831-.188.831s-.02.26-.186.26c-.167 0-.208-.333-.208-.333s-.197-.977-.332-1.195c-.135-.218-.291-.53-1.57-.571-1.279-.042-1.844-.13-2.98-.102z" fill="url(#paint61_linear_1322_23283)"/><path d="M23.13 21.106s.794.04 1.11.185c.317.145.595.304.674.62.079.318.344 1.453.37 1.56.026.105.066.237.132.237s.105-.211.132-.317c.027-.105.29-1.387.383-1.571.093-.186.317-.595.964-.635.647-.04 3.078-.251 3.514-.264.435-.013 2.972.066 3.58.12.607.052 1.465.105 1.663.58.199.476.251.925.304 1.097.052.172.092.303.212.303.118 0 .171-.211.197-.33.027-.119.172-1.4.86-1.532.686-.132 1.755-.224 1.994-.238.238-.013.435-.026.435-.198 0-.172-.304-.172-.502-.172s-1.479-.066-1.981-.264c-.502-.197-.687-.541-.806-1.294-.04-.225-.132-.423-.237-.423-.106 0-.198.251-.238.436-.04.185-.026.832-.449 1.11-.422.277-.872.37-2.338.449-1.466.08-2.708.052-3.156.04-.45-.014-2.787-.08-3.527-.331-.423-.172-.647-.541-.793-1.466-.079-.476-.119-.595-.237-.595-.12 0-.199.357-.265.674-.066.317-.164 1.194-.792 1.387-.687.211-1.07.277-2.35.317-.397.053-.728.04-.728.172 0 .132.252.224.74.25.489.027 1.136.093 1.136.093z" fill="url(#paint62_linear_1322_23283)"/><path d="M45.956 15.746c.04.029.06.063.06.104 0 .061-.073.114-.173.154l1.208.057c.205-.04.422-.102.422-.185 0-.116-.096-.174-.37-.229l-1.147.1z" fill="url(#paint63_linear_1322_23283)"/><defs><linearGradient id="paint0_linear_1322_23283" x1="28.08" y1="27.057" x2="23.334" y2="-4.747" gradientUnits="userSpaceOnUse"><stop offset=".005"/><stop offset=".006" stop-color="#040404"/><stop offset=".052" stop-color="#444550"/><stop offset=".099" stop-color="#4C536A"/><stop offset=".146" stop-color="#455378"/><stop offset=".194" stop-color="#344F80"/><stop offset=".241" stop-color="#1D4B84"/><stop offset=".289" stop-color="#004787"/><stop offset=".336" stop-color="#004588"/><stop offset=".385" stop-color="#004489"/><stop offset="1" stop-color="#004489"/></linearGradient><linearGradient id="paint1_linear_1322_23283" x1=".954" y1="14" x2="51.146" y2="14" gradientUnits="userSpaceOnUse"><stop offset=".005" stop-color="gray"/><stop offset=".154" stop-color="#fff"/><stop offset=".194" stop-color="#F4F4F4"/><stop offset=".3" stop-color="#DDD"/><stop offset=".399" stop-color="#CECECE"/><stop offset=".483" stop-color="#C9C9C9"/><stop offset=".488" stop-color="silver"/><stop offset=".514" stop-color="#979797"/><stop offset=".539" stop-color="#757575"/><stop offset=".565" stop-color="#5A5A5A"/><stop offset=".592" stop-color="#474747"/><stop offset=".619" stop-color="#3C3C3C"/><stop offset=".648" stop-color="#383838"/><stop offset=".835" stop-color="#383838"/><stop offset="1" stop-color="#7A7A7A"/></linearGradient><linearGradient id="paint2_linear_1322_23283" x1=".954" y1="14" x2="51.146" y2="14" gradientUnits="userSpaceOnUse"><stop offset=".005" stop-color="#D1D1D1"/><stop offset=".456" stop-color="#4D4D4D"/><stop offset="1" stop-color="#A6A6A6"/></linearGradient><linearGradient id="paint3_linear_1322_23283" x1="15.455" y1="3.041" x2="35.981" y2="24.28" gradientUnits="userSpaceOnUse"><stop offset=".005" stop-color="#E6E6E6"/><stop offset=".456" stop-color="#595959"/><stop offset=".835" stop-color="gray"/><stop offset="1" stop-color="#D9D9D9"/></linearGradient><linearGradient id="paint4_linear_1322_23283" x1="16.713" y1="8.491" x2="43.553" y2="24.131" gradientUnits="userSpaceOnUse"><stop offset=".005" stop-color="#F2F2F2"/><stop offset=".346" stop-color="#1A1A1A"/><stop offset=".588" stop-color="#3D3D3D"/><stop offset=".696" stop-color="#484848"/><stop offset=".769" stop-color="#525252"/><stop offset="1" stop-color="#BDBDBD"/></linearGradient><linearGradient id="paint5_linear_1322_23283" x1="29.974" y1="22.322" x2="36.393" y2="22.322" gradientUnits="userSpaceOnUse"><stop offset=".082" stop-color="#999"/><stop offset=".175" stop-color="#7C7C7C"/><stop offset=".324" stop-color="#525252"/><stop offset=".637" stop-color="#4A4A4A"/><stop offset=".786" stop-color="#B0B0B0"/><stop offset=".89" stop-color="#7A7A7A"/><stop offset="1" stop-color="#9E9E9E"/></linearGradient><linearGradient id="paint6_linear_1322_23283" x1="39.397" y1="20.551" x2="39.397" y2="20.875" gradientUnits="userSpaceOnUse"><stop offset=".137" stop-color="#E6E6E6"/><stop offset=".505" stop-color="#CCC"/><stop offset=".912" stop-color="#E0E0E0"/></linearGradient><linearGradient id="paint7_linear_1322_23283" x1="32.18" y1="19.361" x2="35.812" y2="19.123" gradientUnits="userSpaceOnUse"><stop offset=".082" stop-color="#999"/><stop offset=".128" stop-color="#A4A4A4"/><stop offset=".324" stop-color="#CFCFCF"/><stop offset=".56" stop-color="#D9D9D9"/><stop offset=".758" stop-color="#E0E0E0"/></linearGradient><linearGradient id="paint8_linear_1322_23283" x1="27.67" y1="19.086" x2="29.616" y2="21.003" gradientUnits="userSpaceOnUse"><stop offset=".082" stop-color="#EDEDED"/><stop offset=".205" stop-color="#BCBCBC"/><stop offset=".324" stop-color="#919191"/><stop offset=".56" stop-color="#8C8C8C"/><stop offset=".758" stop-color="#999"/></linearGradient><linearGradient id="paint9_linear_1322_23283" x1="25.828" y1="23.317" x2="29.691" y2="20.147" gradientUnits="userSpaceOnUse"><stop offset=".082" stop-color="#949494"/><stop offset=".164" stop-color="#7C7C7C"/><stop offset=".324" stop-color="#525252"/><stop offset=".56" stop-color="#4A4A4A"/><stop offset=".758" stop-color="#999"/></linearGradient><linearGradient id="paint10_linear_1322_23283" x1="24.265" y1="22.101" x2="26.113" y2="25.305" gradientUnits="userSpaceOnUse"><stop stop-color="#D9D9D9"/><stop offset=".203" stop-color="#6B6B6B"/><stop offset=".206" stop-color="#6C6C6C"/><stop offset=".445" stop-color="#969696"/><stop offset=".56" stop-color="#969696"/><stop offset=".758" stop-color="#A8A8A8"/></linearGradient><linearGradient id="paint11_linear_1322_23283" x1="25.224" y1="24.012" x2="25.618" y2="24.012" gradientUnits="userSpaceOnUse"><stop offset=".214" stop-color="#969696"/><stop offset=".363" stop-color="#ADADAD"/><stop offset=".505" stop-color="#C9C9C9"/><stop offset=".742" stop-color="#A3A3A3"/><stop offset=".885" stop-color="#9E9E9E"/></linearGradient><linearGradient id="paint12_linear_1322_23283" x1="21.388" y1="20.777" x2="23.766" y2="22.164" gradientUnits="userSpaceOnUse"><stop stop-color="#A8A8A8"/><stop offset=".088" stop-color="#6B6B6B"/><stop offset=".368" stop-color="#5E5E5E"/><stop offset=".463" stop-color="#626262"/><stop offset=".542" stop-color="#6C6C6C"/><stop offset=".615" stop-color="#7D7D7D"/><stop offset=".685" stop-color="#969696"/><stop offset=".687" stop-color="#969696"/><stop offset=".846" stop-color="#D9D9D9"/></linearGradient><linearGradient id="paint13_linear_1322_23283" x1="19.512" y1="19.131" x2="25.759" y2="19.131" gradientUnits="userSpaceOnUse"><stop stop-color="#A8A8A8"/><stop offset="1" stop-color="#fff"/></linearGradient><linearGradient id="paint14_linear_1322_23283" x1="25.415" y1="18.079" x2="26.772" y2="20.634" gradientUnits="userSpaceOnUse"><stop stop-color="#C7C7C7"/><stop offset=".082" stop-color="#BDBDBD"/><stop offset=".143" stop-color="#8C8C8C"/><stop offset=".215" stop-color="#7E7E7E"/><stop offset=".33" stop-color="#6B6B6B"/><stop offset=".391" stop-color="#595959"/><stop offset=".544" stop-color="#2E2E2E"/><stop offset=".574" stop-color="#323232"/><stop offset=".604" stop-color="#3E3E3E"/><stop offset=".635" stop-color="#535353"/><stop offset=".666" stop-color="#707070"/><stop offset=".697" stop-color="#959595"/><stop offset=".728" stop-color="#C1C1C1"/><stop offset=".747" stop-color="#E0E0E0"/><stop offset=".89" stop-color="#fff"/></linearGradient><linearGradient id="paint15_linear_1322_23283" x1="25.309" y1="17.865" x2="25.486" y2="17.865" gradientUnits="userSpaceOnUse"><stop stop-color="#fff"/><stop offset=".451" stop-color="#BFBFBF"/><stop offset=".824" stop-color="#C2C2C2"/></linearGradient><linearGradient id="paint16_linear_1322_23283" x1="20.447" y1="20.929" x2="20.45" y2="20.583" gradientUnits="userSpaceOnUse"><stop stop-color="#A6A6A6"/><stop offset=".451" stop-color="#E6E6E6"/><stop offset=".824" stop-color="#B8B8B8"/></linearGradient><linearGradient id="paint17_linear_1322_23283" x1="39.261" y1="20.706" x2="37.981" y2="24.849" gradientUnits="userSpaceOnUse"><stop offset=".005" stop-color="#fff"/><stop offset=".006" stop-color="#FEFEFE"/><stop offset=".035" stop-color="#CBCBCB"/><stop offset=".064" stop-color="#A1A1A1"/><stop offset=".092" stop-color="#818181"/><stop offset=".118" stop-color="#6A6A6A"/><stop offset=".143" stop-color="#5C5C5C"/><stop offset=".165" stop-color="#575757"/><stop offset=".204" stop-color="#686868"/><stop offset=".281" stop-color="#959595"/><stop offset=".341" stop-color="#BDBDBD"/><stop offset=".454" stop-color="#A1A1A1"/><stop offset=".511" stop-color="#919191"/><stop offset=".857" stop-color="#B8B8B8"/></linearGradient><linearGradient id="paint18_linear_1322_23283" x1="36.217" y1="18.661" x2="38.245" y2="20.735" gradientUnits="userSpaceOnUse"><stop offset=".082" stop-color="#DEDEDE"/><stop offset=".244" stop-color="#7D7D7D"/><stop offset=".324" stop-color="#525252"/><stop offset=".56" stop-color="#737373"/><stop offset=".67" stop-color="#A0A0A0"/><stop offset=".824" stop-color="#E6E6E6"/></linearGradient><linearGradient id="paint19_linear_1322_23283" x1="35.989" y1="18.317" x2="36.292" y2="18.317" gradientUnits="userSpaceOnUse"><stop stop-color="#E3E3E3"/><stop offset=".451" stop-color="#BABABA"/><stop offset=".764" stop-color="#DADADA"/><stop offset=".824" stop-color="#E0E0E0"/></linearGradient><linearGradient id="paint20_linear_1322_23283" x1="40.549" y1="20.627" x2="40.549" y2="20.815" gradientUnits="userSpaceOnUse"><stop stop-color="#E6E6E6"/><stop offset=".054" stop-color="#DDD"/><stop offset=".203" stop-color="#CBCBCB"/><stop offset=".36" stop-color="silver"/><stop offset=".538" stop-color="#BDBDBD"/><stop offset=".645" stop-color="#C2C2C2"/><stop offset=".772" stop-color="#D0D0D0"/><stop offset=".908" stop-color="#E8E8E8"/><stop offset="1" stop-color="#FCFCFC"/></linearGradient><linearGradient id="paint21_linear_1322_23283" x1="35.943" y1="23.213" x2="36.464" y2="23.213" gradientUnits="userSpaceOnUse"><stop offset=".017" stop-color="#878787"/><stop offset=".064" stop-color="#8A8A8A"/><stop offset=".093" stop-color="#919191"/><stop offset=".429" stop-color="#E0E0E0"/><stop offset=".769" stop-color="#9E9E9E"/><stop offset="1" stop-color="#ADADAD"/></linearGradient><linearGradient id="paint22_linear_1322_23283" x1="34.564" y1="14.578" x2="35.95" y2="15.944" gradientUnits="userSpaceOnUse"><stop offset=".082" stop-color="#EDEDED"/><stop offset=".205" stop-color="#BCBCBC"/><stop offset=".324" stop-color="#919191"/><stop offset=".56" stop-color="#8C8C8C"/><stop offset=".758" stop-color="#999"/></linearGradient><linearGradient id="paint23_linear_1322_23283" x1="33.204" y1="18.451" x2="37.101" y2="15.254" gradientUnits="userSpaceOnUse"><stop offset=".082" stop-color="#949494"/><stop offset=".164" stop-color="#7C7C7C"/><stop offset=".324" stop-color="#525252"/><stop offset=".56" stop-color="#4A4A4A"/><stop offset=".758" stop-color="#999"/></linearGradient><linearGradient id="paint24_linear_1322_23283" x1="31.654" y1="17.227" x2="33.525" y2="20.472" gradientUnits="userSpaceOnUse"><stop stop-color="#D9D9D9"/><stop offset=".203" stop-color="#6B6B6B"/><stop offset=".206" stop-color="#6C6C6C"/><stop offset=".445" stop-color="#969696"/><stop offset=".56" stop-color="#969696"/><stop offset=".758" stop-color="#A8A8A8"/></linearGradient><linearGradient id="paint25_linear_1322_23283" x1="32.613" y1="19.168" x2="33.009" y2="19.168" gradientUnits="userSpaceOnUse"><stop offset=".214" stop-color="#969696"/><stop offset=".363" stop-color="#ADADAD"/><stop offset=".505" stop-color="#C9C9C9"/><stop offset=".742" stop-color="#A3A3A3"/><stop offset=".885" stop-color="#9E9E9E"/></linearGradient><linearGradient id="paint26_linear_1322_23283" x1="28.759" y1="15.886" x2="31.149" y2="17.28" gradientUnits="userSpaceOnUse"><stop stop-color="#A8A8A8"/><stop offset=".088" stop-color="#6B6B6B"/><stop offset=".368" stop-color="#5E5E5E"/><stop offset=".463" stop-color="#626262"/><stop offset=".542" stop-color="#6C6C6C"/><stop offset=".615" stop-color="#7D7D7D"/><stop offset=".685" stop-color="#969696"/><stop offset=".687" stop-color="#969696"/><stop offset=".846" stop-color="#D9D9D9"/></linearGradient><linearGradient id="paint27_linear_1322_23283" x1="26.875" y1="14.212" x2="33.15" y2="14.212" gradientUnits="userSpaceOnUse"><stop stop-color="#A8A8A8"/><stop offset="1" stop-color="#fff"/></linearGradient><linearGradient id="paint28_linear_1322_23283" x1="32.798" y1="13.146" x2="34.174" y2="15.738" gradientUnits="userSpaceOnUse"><stop stop-color="#C7C7C7"/><stop offset=".082" stop-color="#BDBDBD"/><stop offset=".143" stop-color="#8C8C8C"/><stop offset=".215" stop-color="#7E7E7E"/><stop offset=".33" stop-color="#6B6B6B"/><stop offset=".391" stop-color="#595959"/><stop offset=".544" stop-color="#2E2E2E"/><stop offset=".574" stop-color="#323232"/><stop offset=".604" stop-color="#3E3E3E"/><stop offset=".635" stop-color="#535353"/><stop offset=".666" stop-color="#707070"/><stop offset=".697" stop-color="#959595"/><stop offset=".728" stop-color="#C1C1C1"/><stop offset=".747" stop-color="#E0E0E0"/><stop offset=".89" stop-color="#fff"/></linearGradient><linearGradient id="paint29_linear_1322_23283" x1="45.773" y1="16.468" x2="42.445" y2="17.231" gradientUnits="userSpaceOnUse"><stop stop-color="#B8B8B8"/><stop offset=".107" stop-color="#A0A0A0"/><stop offset=".319" stop-color="#757575"/><stop offset=".434" stop-color="#767676"/><stop offset=".56" stop-color="#737373"/><stop offset=".63" stop-color="#787878"/><stop offset=".71" stop-color="#868686"/><stop offset=".775" stop-color="#969696"/></linearGradient><linearGradient id="paint30_linear_1322_23283" x1="45.111" y1="15.064" x2="46.059" y2="16.012" gradientUnits="userSpaceOnUse"><stop stop-color="#E6E6E6"/><stop offset=".102" stop-color="#C8C8C8"/><stop offset=".269" stop-color="#9C9C9C"/><stop offset=".43" stop-color="#A6A6A6"/><stop offset=".753" stop-color="#B7B7B7"/><stop offset="1" stop-color="#BDBDBD"/></linearGradient><linearGradient id="paint31_linear_1322_23283" x1="42.854" y1="13.508" x2="43.937" y2="15.991" gradientUnits="userSpaceOnUse"><stop offset=".143" stop-color="#DEDEDE"/><stop offset=".236" stop-color="#A0A0A0"/><stop offset=".308" stop-color="#757575"/><stop offset=".577" stop-color="#737373"/><stop offset=".617" stop-color="#787878"/><stop offset=".664" stop-color="#868686"/><stop offset=".714" stop-color="#9D9D9D"/><stop offset=".766" stop-color="#BDBDBD"/><stop offset=".819" stop-color="#E6E6E6"/></linearGradient><linearGradient id="paint32_linear_1322_23283" x1="36.3" y1="14.401" x2="42.904" y2="14.401" gradientUnits="userSpaceOnUse"><stop offset=".082" stop-color="#999"/><stop offset=".128" stop-color="#A4A4A4"/><stop offset=".324" stop-color="#CFCFCF"/><stop offset=".56" stop-color="#D9D9D9"/><stop offset=".758" stop-color="#E0E0E0"/></linearGradient><linearGradient id="paint33_linear_1322_23283" x1="42.759" y1="13.474" x2="43.028" y2="13.474" gradientUnits="userSpaceOnUse"><stop stop-color="#E3E3E3"/><stop offset=".11" stop-color="#DBDBDB"/><stop offset=".281" stop-color="#C5C5C5"/><stop offset=".451" stop-color="#A8A8A8"/><stop offset=".671" stop-color="#C8C8C8"/><stop offset=".824" stop-color="#E0E0E0"/></linearGradient><linearGradient id="paint34_linear_1322_23283" x1="42.664" y1="17.918" x2="43.502" y2="17.918" gradientUnits="userSpaceOnUse"><stop stop-color="#BABABA"/><stop offset=".115" stop-color="#A0A0A0"/><stop offset=".319" stop-color="#757575"/><stop offset=".434" stop-color="#767676"/><stop offset=".56" stop-color="#737373"/><stop offset=".663" stop-color="#787878"/><stop offset=".775" stop-color="#858585"/></linearGradient><linearGradient id="paint35_linear_1322_23283" x1="36.801" y1="16.821" x2="42.567" y2="16.821" gradientUnits="userSpaceOnUse"><stop offset=".082" stop-color="#999"/><stop offset=".175" stop-color="#7C7C7C"/><stop offset=".324" stop-color="#525252"/><stop offset=".56" stop-color="#404040"/><stop offset=".747" stop-color="#999"/><stop offset=".868" stop-color="#D1D1D1"/></linearGradient><linearGradient id="paint36_linear_1322_23283" x1="43.14" y1="18.378" x2="41.892" y2="17.22" gradientUnits="userSpaceOnUse"><stop stop-color="#3B3B3B"/><stop offset=".026" stop-color="#3D3D3D"/><stop offset=".256" stop-color="#4C4C4C"/><stop offset=".44" stop-color="#525252"/><stop offset=".497" stop-color="#585858"/><stop offset=".574" stop-color="#686868"/><stop offset=".626" stop-color="#787878"/><stop offset=".747" stop-color="#999"/><stop offset=".868" stop-color="#D1D1D1"/></linearGradient><linearGradient id="paint37_linear_1322_23283" x1="27.864" y1="15.727" x2="27.864" y2="16.061" gradientUnits="userSpaceOnUse"><stop stop-color="#BDBDBD"/><stop offset=".451" stop-color="#D9D9D9"/><stop offset=".824" stop-color="#A8A8A8"/></linearGradient><linearGradient id="paint38_linear_1322_23283" x1="32.698" y1="12.926" x2="32.876" y2="12.926" gradientUnits="userSpaceOnUse"><stop stop-color="#fff"/><stop offset=".451" stop-color="#BFBFBF"/><stop offset=".824" stop-color="#C2C2C2"/></linearGradient><linearGradient id="paint39_linear_1322_23283" x1="7.832" y1="11.325" x2="18.649" y2="12.989" gradientUnits="userSpaceOnUse"><stop stop-color="#A8A8A8"/><stop offset=".088" stop-color="#6B6B6B"/><stop offset=".368" stop-color="#4D4D4D"/><stop offset=".452" stop-color="#505050"/><stop offset=".522" stop-color="#5A5A5A"/><stop offset=".588" stop-color="#6C6C6C"/><stop offset=".649" stop-color="#848484"/><stop offset=".687" stop-color="#969696"/><stop offset=".846" stop-color="#F0F0F0"/></linearGradient><linearGradient id="paint40_linear_1322_23283" x1="5.068" y1="7.191" x2="19.407" y2="7.191" gradientUnits="userSpaceOnUse"><stop stop-color="#A8A8A8"/><stop offset=".61" stop-color="#F0F0F0"/><stop offset=".736" stop-color="#fff"/><stop offset=".8" stop-color="#FBFBFB"/><stop offset=".871" stop-color="#EDEDED"/><stop offset=".945" stop-color="#D7D7D7"/><stop offset="1" stop-color="#C2C2C2"/></linearGradient><linearGradient id="paint41_linear_1322_23283" x1="18.825" y1="6.859" x2="25.214" y2="6.859" gradientUnits="userSpaceOnUse"><stop stop-color="#CFCFCF"/><stop offset=".082" stop-color="#D9D9D9"/><stop offset=".143" stop-color="#6B6B6B"/><stop offset=".192" stop-color="#5F5F5F"/><stop offset=".286" stop-color="#4D4D4D"/><stop offset=".3" stop-color="#505050"/><stop offset=".516" stop-color="#7A7A7A"/><stop offset=".576" stop-color="#7F7F7F"/><stop offset=".638" stop-color="#8B8B8B"/><stop offset=".7" stop-color="#9F9F9F"/><stop offset=".762" stop-color="#BCBCBC"/><stop offset=".824" stop-color="#E0E0E0"/><stop offset=".973" stop-color="#EDEDED"/></linearGradient><linearGradient id="paint42_linear_1322_23283" x1="18.935" y1="3.931" x2="19.307" y2="3.931" gradientUnits="userSpaceOnUse"><stop stop-color="#D4D4D4"/><stop offset=".527" stop-color="#9E9E9E"/><stop offset=".824" stop-color="#D9D9D9"/></linearGradient><linearGradient id="paint43_linear_1322_23283" x1="38.457" y1="8.11" x2="37.222" y2="10.408" gradientUnits="userSpaceOnUse"><stop stop-color="#D1D1D1"/><stop offset=".621" stop-color="#fff"/><stop offset=".799" stop-color="#D6D6D6"/><stop offset="1" stop-color="#ABABAB"/></linearGradient><linearGradient id="paint44_linear_1322_23283" x1="43.352" y1="10.118" x2="43.683" y2="12.054" gradientUnits="userSpaceOnUse"><stop offset=".066" stop-color="#fff"/><stop offset=".264" stop-color="#8C8C8C"/><stop offset=".308" stop-color="#777"/><stop offset=".407" stop-color="#4D4D4D"/><stop offset=".639" stop-color="#494949"/><stop offset=".687" stop-color="#474747"/><stop offset="1" stop-color="#EBEBEB"/></linearGradient><linearGradient id="paint45_linear_1322_23283" x1="41.067" y1="11.182" x2="39.878" y2="15.758" gradientUnits="userSpaceOnUse"><stop offset=".06" stop-color="#E0E0E0"/><stop offset=".258" stop-color="#EBEBEB"/><stop offset=".267" stop-color="#E4E4E4"/><stop offset=".409" stop-color="#787878"/><stop offset=".472" stop-color="#4D4D4D"/><stop offset=".67" stop-color="#4D4D4D"/><stop offset=".687" stop-color="#4D4D4D"/><stop offset="1" stop-color="#5E5E5E"/></linearGradient><linearGradient id="paint46_linear_1322_23283" x1="20.881" y1="13.474" x2="18.841" y2="20.388" gradientUnits="userSpaceOnUse"><stop stop-color="#BDBDBD"/><stop offset=".225" stop-color="#828282"/><stop offset=".26" stop-color="#777"/><stop offset=".407" stop-color="#4D4D4D"/><stop offset=".48" stop-color="#505050"/><stop offset=".542" stop-color="#5A5A5A"/><stop offset=".6" stop-color="#6C6C6C"/><stop offset=".654" stop-color="#848484"/><stop offset=".687" stop-color="#969696"/><stop offset="1" stop-color="#9C9C9C"/></linearGradient><linearGradient id="paint47_linear_1322_23283" x1="17.322" y1="14.17" x2="18.629" y2="20.985" gradientUnits="userSpaceOnUse"><stop stop-color="#B5B5B5"/><stop offset=".225" stop-color="#6B6B6B"/><stop offset=".407" stop-color="#4D4D4D"/><stop offset=".48" stop-color="#505050"/><stop offset=".542" stop-color="#5A5A5A"/><stop offset=".6" stop-color="#6C6C6C"/><stop offset=".654" stop-color="#848484"/><stop offset=".687" stop-color="#969696"/><stop offset="1" stop-color="#C2C2C2"/></linearGradient><linearGradient id="paint48_linear_1322_23283" x1="18.957" y1="19.354" x2="19.274" y2="19.354" gradientUnits="userSpaceOnUse"><stop stop-color="#999"/><stop offset=".451" stop-color="#E6E6E6"/><stop offset=".824" stop-color="#A3A3A3"/></linearGradient><linearGradient id="paint49_linear_1322_23283" x1="6.515" y1="10.79" x2="6.515" y2="11.253" gradientUnits="userSpaceOnUse"><stop stop-color="#A8A8A8"/><stop offset=".043" stop-color="#B2B2B2"/><stop offset=".258" stop-color="#DCDCDC"/><stop offset=".427" stop-color="#F5F5F5"/><stop offset=".527" stop-color="#fff"/><stop offset=".646" stop-color="#EBEBEB"/><stop offset=".888" stop-color="#B8B8B8"/><stop offset="1" stop-color="#9E9E9E"/></linearGradient><linearGradient id="paint50_linear_1322_23283" x1="22.07" y1="14.29" x2="31.542" y2="9.891" gradientUnits="userSpaceOnUse"><stop stop-color="#BDBDBD"/><stop offset=".264" stop-color="#6B6B6B"/><stop offset=".407" stop-color="#4D4D4D"/><stop offset=".639" stop-color="#494949"/><stop offset=".687" stop-color="#474747"/><stop offset="1" stop-color="#545454"/></linearGradient><linearGradient id="paint51_linear_1322_23283" x1="39.124" y1="12.065" x2="35.267" y2="11.352" gradientUnits="userSpaceOnUse"><stop stop-color="#BFBFBF"/><stop offset=".264" stop-color="#737373"/><stop offset=".407" stop-color="#4D4D4D"/><stop offset=".639" stop-color="#494949"/><stop offset=".687" stop-color="#474747"/><stop offset="1" stop-color="#545454"/></linearGradient><linearGradient id="paint52_linear_1322_23283" x1="39.275" y1="11.521" x2="40.009" y2="14.635" gradientUnits="userSpaceOnUse"><stop stop-color="#D1D1D1"/><stop offset=".242" stop-color="#9C9C9C"/><stop offset=".328" stop-color="#777"/><stop offset=".44" stop-color="#4D4D4D"/><stop offset=".645" stop-color="#494949"/><stop offset=".687" stop-color="#474747"/><stop offset="1" stop-color="#4D4D4D"/></linearGradient><linearGradient id="paint53_linear_1322_23283" x1="39.865" y1="14.201" x2="40.235" y2="14.201" gradientUnits="userSpaceOnUse"><stop stop-color="#4A4A4A"/><stop offset=".103" stop-color="#4D4D4D"/><stop offset=".188" stop-color="#575757"/><stop offset=".267" stop-color="#696969"/><stop offset=".342" stop-color="#818181"/><stop offset=".415" stop-color="#A0A0A0"/><stop offset=".484" stop-color="#C6C6C6"/><stop offset=".505" stop-color="#D4D4D4"/><stop offset=".548" stop-color="#CACACA"/><stop offset=".62" stop-color="#B0B0B0"/><stop offset=".711" stop-color="#868686"/><stop offset=".753" stop-color="#707070"/><stop offset=".94" stop-color="#4F4F4F"/></linearGradient><linearGradient id="paint54_linear_1322_23283" x1="41.012" y1="11.883" x2="44.175" y2="11.137" gradientUnits="userSpaceOnUse"><stop stop-color="#E6E6E6"/><stop offset=".231" stop-color="#737373"/><stop offset=".451" stop-color="#4D4D4D"/><stop offset=".632" stop-color="#474747"/><stop offset=".692" stop-color="#666"/><stop offset=".789" stop-color="#929292"/><stop offset=".876" stop-color="#B2B2B2"/><stop offset=".95" stop-color="#C5C5C5"/><stop offset="1" stop-color="#CCC"/></linearGradient><linearGradient id="paint55_linear_1322_23283" x1="44.633" y1="11.137" x2="44.628" y2="10.867" gradientUnits="userSpaceOnUse"><stop stop-color="#C9C9C9"/><stop offset=".246" stop-color="#C6C6C6"/><stop offset=".449" stop-color="#BCBCBC"/><stop offset=".505" stop-color="#B8B8B8"/><stop offset=".554" stop-color="#AEAEAE"/><stop offset=".636" stop-color="#949494"/><stop offset=".725" stop-color="#707070"/><stop offset=".94" stop-color="#4F4F4F"/></linearGradient><linearGradient id="paint56_linear_1322_23283" x1="41.428" y1="10.482" x2="40.391" y2="8.058" gradientUnits="userSpaceOnUse"><stop stop-color="#fff"/><stop offset=".126" stop-color="#A6A6A6"/><stop offset=".274" stop-color="#777"/><stop offset=".423" stop-color="#4D4D4D"/><stop offset=".731" stop-color="#474747"/><stop offset=".992" stop-color="#515151"/><stop offset="1" stop-color="#525252"/></linearGradient><linearGradient id="paint57_linear_1322_23283" x1="39.859" y1="8.159" x2="40.209" y2="8.159" gradientUnits="userSpaceOnUse"><stop stop-color="#D4D4D4"/><stop offset=".203" stop-color="#D0D0D0"/><stop offset=".37" stop-color="#C6C6C6"/><stop offset=".505" stop-color="#B8B8B8"/><stop offset=".547" stop-color="#AEAEAE"/><stop offset=".616" stop-color="#949494"/><stop offset=".704" stop-color="#6A6A6A"/><stop offset=".725" stop-color="#5E5E5E"/><stop offset=".94" stop-color="#4D4D4D"/></linearGradient><linearGradient id="paint58_linear_1322_23283" x1="24.245" y1="9.991" x2="34.805" y2="10.744" gradientUnits="userSpaceOnUse"><stop stop-color="#E8E8E8"/><stop offset=".621" stop-color="#fff"/><stop offset=".799" stop-color="#D6D6D6"/><stop offset="1" stop-color="#ABABAB"/></linearGradient><linearGradient id="paint59_linear_1322_23283" x1="42.664" y1="18.465" x2="43.181" y2="18.465" gradientUnits="userSpaceOnUse"><stop offset=".028" stop-color="#4A4A4A"/><stop offset=".089" stop-color="#575757"/><stop offset=".205" stop-color="#7B7B7B"/><stop offset=".357" stop-color="#B2B2B2"/><stop offset=".489" stop-color="#D4D4D4"/><stop offset=".55" stop-color="#C7C7C7"/><stop offset=".662" stop-color="#A5A5A5"/><stop offset=".72" stop-color="#919191"/><stop offset=".874" stop-color="#757575"/></linearGradient><linearGradient id="paint61_linear_1322_23283" x1="35.867" y1="13.893" x2="40.146" y2="19.678" gradientUnits="userSpaceOnUse"><stop stop-color="#ADADAD"/><stop offset=".092" stop-color="#999"/><stop offset=".154" stop-color="#919191"/><stop offset=".168" stop-color="#8F8F8F"/><stop offset=".342" stop-color="#7D7D7D"/><stop offset=".522" stop-color="#717171"/><stop offset=".714" stop-color="#6E6E6E"/><stop offset="1" stop-color="#8A8A8A"/></linearGradient><linearGradient id="paint62_linear_1322_23283" x1="35.715" y1="24.671" x2="33.522" y2="23.032" gradientUnits="userSpaceOnUse"><stop stop-color="#E6E6E6"/><stop offset=".244" stop-color="#C6C6C6"/><stop offset=".564" stop-color="#A4A4A4"/><stop offset=".827" stop-color="#8F8F8F"/><stop offset="1" stop-color="#878787"/></linearGradient><linearGradient id="paint63_linear_1322_23283" x1="46.658" y1="15.694" x2="46.658" y2="16.011" gradientUnits="userSpaceOnUse"><stop stop-color="#C2C2C2"/><stop offset=".126" stop-color="#BABABA"/><stop offset=".322" stop-color="#A4A4A4"/><stop offset=".451" stop-color="#919191"/><stop offset=".715" stop-color="#B1B1B1"/><stop offset=".824" stop-color="#BFBFBF"/></linearGradient><radialGradient id="paint60_radial_1322_23283" cx="0" cy="0" r="1" gradientUnits="userSpaceOnUse" gradientTransform="translate(17.085 9.547) scale(18.8513)"><stop offset=".071" stop-color="#fff"/><stop offset=".075" stop-color="#FDFDFD"/><stop offset=".144" stop-color="#D5D5D5"/><stop offset=".207" stop-color="#B8B8B8"/><stop offset=".262" stop-color="#A7A7A7"/><stop offset=".302" stop-color="#A1A1A1"/><stop offset=".375" stop-color="#8F8F8F"/><stop offset=".483" stop-color="#7D7D7D"/><stop offset=".595" stop-color="#717171"/><stop offset=".714" stop-color="#6E6E6E"/><stop offset="1" stop-color="#696969"/></radialGradient></defs></svg>