<svg width="48" height="31" viewBox="0 0 48 31" fill="none" xmlns="http://www.w3.org/2000/svg"><path d="M.027 15.05c0 8.271 10.755 15 23.973 15 13.218 0 23.973-6.729 23.973-15 0-8.27-10.755-15-23.973-15C10.78.05.027 6.78.027 15.05zm.736 0C.763 7.187 11.187.789 24 .789c12.813 0 23.237 6.398 23.237 14.263 0 7.866-10.424 14.264-23.237 14.264-12.813 0-23.237-6.398-23.237-14.264z" fill="#000"/><path d="M21.734 2.777c-5.61.343-9.686 1.83-10.38 3.79-.071.197-.108.405-.108.615 0 .33.093.66.279.977.778 1.326 3.195 2.42 6.635 3.007l.364.06.061-.364c.565-3.444 1.804-6.152 3.402-7.431l.905-.725-1.158.071zm-9.574 5.01a1.184 1.184 0 0 1-.18-.603c0-.125.022-.247.067-.371.53-1.497 4.132-2.804 8.733-3.226-1.312 1.485-2.322 3.877-2.848 6.784-2.99-.553-5.14-1.506-5.772-2.583zm8.548 3.295-.071.4.405.031a39.866 39.866 0 0 0 5.914 0l.406-.03-.072-.4c-.554-3.109-1.785-4.965-3.29-4.965-1.508 0-2.738 1.856-3.292 4.964zM24 6.854c1.03 0 1.98 1.541 2.481 3.948a38.07 38.07 0 0 1-2.481.086c-.837 0-1.667-.033-2.48-.086.499-2.407 1.451-3.948 2.48-3.948zm2.012-3.423c1.597 1.279 2.838 3.988 3.402 7.431l.06.364.364-.06c3.441-.586 5.86-1.68 6.636-3.007.302-.51.359-1.06.172-1.592-.694-1.96-4.77-3.446-10.38-3.79l-1.157-.071.903.725zm1.209.156c4.6.422 8.202 1.731 8.73 3.226.046.124.068.246.068.371 0 .198-.06.4-.178.604-.634 1.077-2.785 2.03-5.773 2.583-.527-2.907-1.535-5.3-2.847-6.784zM7.803 8.01c-2.521 2.113-3.854 4.622-3.854 7.258 0 6.202 7.563 11.444 17.59 12.191l1.12.084-.853-.728c-2.197-1.88-3.56-6.339-3.56-11.638l.022-1.252-.307-.063C12.686 12.917 8.934 10.7 8.4 8.216l-.128-.597-.469.391zm-3.117 7.258c0-2.26 1.102-4.43 3.173-6.314.964 2.509 4.569 4.6 9.663 5.572l-.012.65c0 4.915 1.166 9.158 3.09 11.448-9.137-.975-15.914-5.747-15.914-11.356zm15.723-.663-.002.134c0 4.926 1.544 8.642 3.592 8.642s3.592-3.716 3.592-8.642l-.005-.532-.395.034a36.733 36.733 0 0 1-3.191.137c-1.078 0-2.152-.046-3.19-.137l-.397-.036-.004.4zM26.85 15c-.055 4.583-1.499 7.646-2.852 7.646-1.354 0-2.798-3.063-2.852-7.646.936.07 1.891.112 2.852.112.963 0 1.916-.043 2.852-.112zm12.747-6.784c-.534 2.483-4.287 4.7-9.56 5.646l-.309.058.025 1.257c0 5.3-1.365 9.758-3.561 11.637l-.853.729 1.118-.084c10.029-.747 17.591-5.99 17.591-12.191 0-2.636-1.334-5.146-3.855-7.258l-.467-.39-.13.596zm.54.738c2.073 1.884 3.176 4.053 3.176 6.314 0 5.608-6.777 10.38-15.914 11.356 1.923-2.29 3.089-6.533 3.089-11.447l-.012-.65c5.093-.973 8.697-3.064 9.662-5.573z" fill="#000"/><path d="M39.859 6.322a2.804 2.804 0 0 1 .02 1.904c2.391 1.973 3.801 4.406 3.801 7.042 0 6.58-8.811 11.916-19.68 11.916-10.87 0-19.682-5.335-19.682-11.916 0-2.634 1.412-5.069 3.802-7.042a2.817 2.817 0 0 1-.069-1.62c.029-.104.067-.205.115-.303-3.265 2.326-5.244 5.374-5.244 8.712 0 7.288 9.436 13.197 21.077 13.197 11.64 0 21.078-5.909 21.078-13.197 0-3.331-1.971-6.372-5.218-8.693z" fill="url(#paint0_linear_1322_22481)"/><path d="M26.928 11.147c-.928.07-1.908.108-2.928.108s-1.999-.038-2.928-.108h-.003l-.607.441a40.786 40.786 0 0 0 7.077 0l-.61-.44zm10.767-4.623c-.74-2.446-6.84-4.242-13.695-4.242-6.854 0-12.953 1.796-13.693 4.242-.642 2.121 2.864 4.084 8.394 4.863l-.48-.585c-4.474-.761-7.134-2.385-6.52-4.111.743-2.096 6.144-3.614 12.299-3.614 6.154 0 11.556 1.518 12.299 3.614.613 1.726-2.045 3.35-6.52 4.111l-.48.585c5.53-.779 9.037-2.742 8.396-4.863z" fill="url(#paint1_linear_1322_22481)"/><path d="M21.078 11.147c.514-2.854 1.628-4.638 2.92-4.638 1.294 0 2.408 1.784 2.922 4.638h.01l.601.436c-.507-3.77-1.896-6.178-3.532-6.178-1.636 0-3.025 2.409-3.531 6.178l.6-.436h.01z" fill="url(#paint2_linear_1322_22481)"/><path d="m27.714 13.719-.491.888.002.2c0 4.73-1.446 8.318-3.226 8.318s-3.225-3.588-3.225-8.319c0-.074.002-.149.003-.22l-.492-.867c-.014.36-.021.721-.021 1.082 0 5.364 1.672 9.428 3.736 9.428s3.738-4.064 3.738-9.428c-.001-.36-.009-.722-.024-1.082z" fill="url(#paint3_linear_1322_22481)"/><path d="M18.71 11.389c.707-5.24 2.808-9.108 5.29-9.108-2.66 0-4.93 3.427-5.771 8.531l.474.577h.007z" fill="url(#paint4_linear_1322_22481)"/><path d="M29.292 11.389h.005l.474-.577c-.84-5.104-3.11-8.53-5.771-8.53 2.483 0 4.586 3.868 5.292 9.107z" fill="url(#paint5_linear_1322_22481)"/><path d="m30.101 14.222-.603-.721h-.005c.034.572.053 1.154.053 1.745 0 7.16-2.483 12.965-5.546 12.965 3.434 0 6.12-5.383 6.12-12.964 0-.347-.007-.688-.019-1.025z" fill="url(#paint6_linear_1322_22481)"/><path d="M18.456 15.247c0-.591.02-1.173.053-1.746h-.004l-.605.719c-.013.342-.02.684-.02 1.027 0 7.581 2.689 12.965 6.121 12.965-3.061 0-5.545-5.805-5.545-12.965z" fill="url(#paint7_linear_1322_22481)"/><path d="M39.88 8.226c.914.754 1.685 1.577 2.289 2.452a8.436 8.436 0 0 0-1.61-3.83 16.384 16.384 0 0 0-.7-.526 2.798 2.798 0 0 1 .02 1.903zm-31.759 0a2.817 2.817 0 0 1-.068-1.62c.028-.104.067-.206.114-.303-.245.177-.487.359-.725.546a8.47 8.47 0 0 0-1.609 3.829c.603-.875 1.373-1.698 2.288-2.452z" fill="#2D2F34"/><path d="M.395 15.05C.395 6.97 10.962.42 23.999.42c13.036 0 23.604 6.55 23.604 14.63 0 8.082-10.568 14.631-23.604 14.631-13.037 0-23.604-6.549-23.604-14.63zm23.604 13.162c11.64 0 21.078-5.909 21.078-13.197 0-7.29-9.438-13.2-21.078-13.2-11.641 0-21.078 5.91-21.078 13.2 0 7.288 9.437 13.197 21.078 13.197z" fill="url(#paint8_linear_1322_22481)"/><path d="M18.456 15.247c0-7.085 2.484-12.965 5.545-12.965 3.062 0 5.546 5.88 5.546 12.965 0 7.16-2.484 12.965-5.546 12.965-3.063 0-5.545-5.805-5.545-12.965zm5.545 8.982c2.064 0 3.738-4.063 3.738-9.425 0-5.565-1.675-9.399-3.738-9.399-2.064 0-3.737 3.834-3.737 9.399 0 5.362 1.673 9.425 3.737 9.425z" fill="url(#paint9_linear_1322_22481)"/><path d="M8.051 6.607C8.659 4.198 16.017.692 23.999.692c7.981 0 15.086 2.505 15.948 5.915.965 3.821-6.126 7.28-15.948 7.28-9.824 0-16.914-3.458-15.948-7.28zm15.948-4.325c-6.854 0-12.953 1.796-13.693 4.241-.83 2.74 5.258 5.218 13.693 5.218 8.436 0 14.523-2.479 13.695-5.218-.74-2.445-6.84-4.24-13.695-4.24z" fill="url(#paint10_linear_1322_22481)"/><path d="m20.278 13.712.004.003.507.893a37.089 37.089 0 0 0 6.437-.002l.492-.892.003-.003a39.295 39.295 0 0 1-3.72.176c-1.244 0-2.486-.058-3.723-.175zM40.03 7.433c-.126 2.733-4.326 5.154-10.535 6.066l.002.002.605.724c6.076-1.092 10.072-3.775 9.928-6.792zm-32.062 0c-.144 3.02 3.852 5.7 9.926 6.792l.607-.724.002-.002c-6.21-.912-10.408-3.333-10.535-6.066z" fill="url(#paint11_linear_1322_22481)"/><defs><linearGradient id="paint0_linear_1322_22481" x1="23.999" y1="26.581" x2="23.999" y2="9.909" gradientUnits="userSpaceOnUse"><stop stop-color="#F0F3F5"/><stop offset=".056" stop-color="#E2E5E8"/><stop offset=".138" stop-color="#D4D8DD"/><stop offset=".242" stop-color="#CCD0D6"/><stop offset=".44" stop-color="#CACED4"/><stop offset=".568" stop-color="#B3B7BD"/><stop offset=".835" stop-color="#797C83"/><stop offset="1" stop-color="#52545C"/></linearGradient><linearGradient id="paint1_linear_1322_22481" x1="24.001" y1="13.878" x2="24.001" y2="4.844" gradientUnits="userSpaceOnUse"><stop stop-color="#F0F3F5"/><stop offset=".056" stop-color="#E2E5E8"/><stop offset=".138" stop-color="#D4D8DD"/><stop offset=".242" stop-color="#CCD0D6"/><stop offset=".44" stop-color="#CACED4"/><stop offset=".568" stop-color="#B3B7BD"/><stop offset=".835" stop-color="#797C83"/><stop offset="1" stop-color="#52545C"/></linearGradient><linearGradient id="paint2_linear_1322_22481" x1="26.999" y1="12.218" x2="21.358" y2="7.484" gradientUnits="userSpaceOnUse"><stop stop-color="#F0F3F5"/><stop offset=".056" stop-color="#E2E5E8"/><stop offset=".138" stop-color="#D4D8DD"/><stop offset=".242" stop-color="#CCD0D6"/><stop offset=".44" stop-color="#CACED4"/><stop offset=".568" stop-color="#B3B7BD"/><stop offset=".835" stop-color="#797C83"/><stop offset="1" stop-color="#52545C"/></linearGradient><linearGradient id="paint3_linear_1322_22481" x1="27.573" y1="20.092" x2="19.347" y2="15.343" gradientUnits="userSpaceOnUse"><stop stop-color="#F0F3F5"/><stop offset=".056" stop-color="#E2E5E8"/><stop offset=".138" stop-color="#D4D8DD"/><stop offset=".242" stop-color="#CCD0D6"/><stop offset=".44" stop-color="#CACED4"/><stop offset=".568" stop-color="#B3B7BD"/><stop offset=".835" stop-color="#797C83"/><stop offset="1" stop-color="#52545C"/></linearGradient><linearGradient id="paint4_linear_1322_22481" x1="21.115" y1=".418" x2="21.115" y2="14.747" gradientUnits="userSpaceOnUse"><stop stop-color="#F0F3F5"/><stop offset=".056" stop-color="#E2E5E8"/><stop offset=".138" stop-color="#D4D8DD"/><stop offset=".242" stop-color="#CCD0D6"/><stop offset=".44" stop-color="#CACED4"/><stop offset=".568" stop-color="#B3B7BD"/><stop offset=".835" stop-color="#797C83"/><stop offset="1" stop-color="#52545C"/></linearGradient><linearGradient id="paint5_linear_1322_22481" x1="26.886" y1=".418" x2="26.886" y2="14.747" gradientUnits="userSpaceOnUse"><stop stop-color="#F0F3F5"/><stop offset=".056" stop-color="#E2E5E8"/><stop offset=".138" stop-color="#D4D8DD"/><stop offset=".242" stop-color="#CCD0D6"/><stop offset=".44" stop-color="#CACED4"/><stop offset=".568" stop-color="#B3B7BD"/><stop offset=".835" stop-color="#797C83"/><stop offset="1" stop-color="#52545C"/></linearGradient><linearGradient id="paint6_linear_1322_22481" x1="27.06" y1=".297" x2="27.06" y2="24.212" gradientUnits="userSpaceOnUse"><stop stop-color="#F0F3F5"/><stop offset=".056" stop-color="#E2E5E8"/><stop offset=".138" stop-color="#D4D8DD"/><stop offset=".242" stop-color="#CCD0D6"/><stop offset=".44" stop-color="#CACED4"/><stop offset=".568" stop-color="#B3B7BD"/><stop offset=".835" stop-color="#797C83"/><stop offset="1" stop-color="#52545C"/></linearGradient><linearGradient id="paint7_linear_1322_22481" x1="20.941" y1=".297" x2="20.941" y2="24.212" gradientUnits="userSpaceOnUse"><stop stop-color="#F0F3F5"/><stop offset=".056" stop-color="#E2E5E8"/><stop offset=".138" stop-color="#D4D8DD"/><stop offset=".242" stop-color="#CCD0D6"/><stop offset=".44" stop-color="#CACED4"/><stop offset=".568" stop-color="#B3B7BD"/><stop offset=".835" stop-color="#797C83"/><stop offset="1" stop-color="#52545C"/></linearGradient><linearGradient id="paint8_linear_1322_22481" x1="23.998" y1=".419" x2="23.998" y2="29.681" gradientUnits="userSpaceOnUse"><stop stop-color="#F0F3F5"/><stop offset=".253" stop-color="#EDF0F3"/><stop offset=".406" stop-color="#E5E8EA"/><stop offset=".531" stop-color="#D7DADC"/><stop offset=".642" stop-color="#C3C5C9"/><stop offset=".744" stop-color="#A9ABAF"/><stop offset=".839" stop-color="#888B90"/><stop offset=".926" stop-color="#63656B"/><stop offset="1" stop-color="#3D3F46"/></linearGradient><linearGradient id="paint9_linear_1322_22481" x1="24.001" y1=".418" x2="24.001" y2="29.682" gradientUnits="userSpaceOnUse"><stop stop-color="#F0F3F5"/><stop offset=".253" stop-color="#EDF0F3"/><stop offset=".406" stop-color="#E5E8EA"/><stop offset=".531" stop-color="#D7DADC"/><stop offset=".642" stop-color="#C3C5C9"/><stop offset=".744" stop-color="#A9ABAF"/><stop offset=".839" stop-color="#888B90"/><stop offset=".926" stop-color="#63656B"/><stop offset="1" stop-color="#3D3F46"/></linearGradient><linearGradient id="paint10_linear_1322_22481" x1="23.999" y1=".421" x2="23.999" y2="29.684" gradientUnits="userSpaceOnUse"><stop stop-color="#F0F3F5"/><stop offset=".253" stop-color="#EDF0F3"/><stop offset=".406" stop-color="#E5E8EA"/><stop offset=".531" stop-color="#D7DADC"/><stop offset=".642" stop-color="#C3C5C9"/><stop offset=".744" stop-color="#A9ABAF"/><stop offset=".839" stop-color="#888B90"/><stop offset=".926" stop-color="#63656B"/><stop offset="1" stop-color="#3D3F46"/></linearGradient><linearGradient id="paint11_linear_1322_22481" x1="24" y1="6.488" x2="24" y2="14.828" gradientUnits="userSpaceOnUse"><stop stop-color="#CACED4"/><stop offset="1" stop-color="#52545C"/></linearGradient></defs></svg>