<svg width="20" height="20" viewBox="0 0 20 20" fill="none" xmlns="http://www.w3.org/2000/svg"><path d="M19.989 9.879a10.272 10.272 0 0 0-9.275-8.418V0H9.285v1.461A10.271 10.271 0 0 0 .01 9.88a.714.714 0 0 0 1.068.735A3.467 3.467 0 0 1 2.857 10a3.474 3.474 0 0 1 2.957 1.793.744.744 0 0 0 1.228 0 3.585 3.585 0 0 1 2.243-1.703v6.696a1.786 1.786 0 0 1-3.571 0v-.357H4.285v.357a3.214 3.214 0 1 0 6.429 0v-6.697a3.586 3.586 0 0 1 2.243 1.705.715.715 0 0 0 1.228 0A3.475 3.475 0 0 1 17.142 10c.639.037 1.254.25 1.779.614a.714.714 0 0 0 1.068-.735zM2.857 8.57c-.363 0-.725.052-1.074.153a8.886 8.886 0 0 1 6.063-5.581A10.369 10.369 0 0 0 5.67 9.524a4.674 4.674 0 0 0-2.813-.953zm7.143 0a4.68 4.68 0 0 0-2.898 1.022C7.13 8.007 7.537 4.957 10 3.039c2.45 1.912 2.863 4.964 2.894 6.552A4.68 4.68 0 0 0 10 8.57zm7.142 0a4.674 4.674 0 0 0-2.813.953 10.37 10.37 0 0 0-2.176-6.382 8.887 8.887 0 0 1 6.063 5.582c-.349-.101-.71-.153-1.074-.153z" fill="#FF4C00"/></svg>