<svg width="20" height="20" viewBox="0 0 20 20" fill="none" xmlns="http://www.w3.org/2000/svg"><g clip-path="url(#clip0_740:4849)"><path fill-rule="evenodd" clip-rule="evenodd" d="M0 10a10 10 0 1 1 20 0 10 10 0 0 1-20 0zm10-8.566A8.566 8.566 0 0 0 3.669 15.77 7.506 7.506 0 0 1 10 12.303a7.506 7.506 0 0 1 6.331 3.466A8.567 8.567 0 0 0 10 1.434zm5.257 15.329A6.074 6.074 0 0 0 10 13.737a6.075 6.075 0 0 0-5.257 3.026A8.528 8.528 0 0 0 10 18.566a8.535 8.535 0 0 0 5.257-1.803zM6.452 8.498a3.548 3.548 0 1 1 7.096 0 3.548 3.548 0 0 1-7.096 0zM10 6.384a2.114 2.114 0 1 0 0 4.228 2.114 2.114 0 0 0 0-4.228z" fill="#FF4C00"/></g><defs><clipPath id="clip0_740:4849"><path fill="#fff" d="M0 0h20v20H0z"/></clipPath></defs></svg>