<svg xmlns="http://www.w3.org/2000/svg" viewBox="0 0 24 24"><path fill-rule="evenodd" clip-rule="evenodd" d="M2 12a10 10 0 1120 0 10 10 0 01-20 0zm11.41 8v-1.91c1.74-.33 3.11-1.33 3.12-3.16 0-2.52-2.16-3.39-4.18-3.91-2.02-.52-2.67-1.07-2.67-1.91 0-.96.9-1.64 2.4-1.64 1.58 0 2.17.76 2.22 1.87h1.96a3.54 3.54 0 00-2.85-3.39V4h-2.67v1.93c-1.72.37-3.11 1.49-3.11 3.21 0 2.05 1.7 3.07 4.18 3.67 2.23.53 2.67 1.31 2.67 2.14 0 .61-.44 1.59-2.4 1.59-1.83 0-2.55-.82-2.65-1.87H7.47c.11 1.94 1.56 3.04 3.27 3.4V20h2.67z" fill="#1F3366"/></svg>
