<svg xmlns="http://www.w3.org/2000/svg" xmlns:xlink="http://www.w3.org/1999/xlink" viewBox="0 0 30 30"><defs><style>.a{fill:none;}.b{clip-path:url(#a);}.c{clip-path:url(#b);}.d{fill:#bc1f34;}</style><clipPath id="a"><circle class="a" cx="15" cy="15" r="15"/></clipPath><clipPath id="b"><rect class="a" x="-10.37" width="50.74" height="30"/></clipPath></defs><title>Albania</title><g class="b"><g class="c"><rect class="d" x="-10.37" width="50.74" height="30"/><g class="c"><path d="M23.16,19.06a.54.54,0,0,0-.27-.09.78.78,0,0,1-.31-.07.45.45,0,0,0-.5.08c-.1.09-.17.1-.56.13s-.72.05-.72,0a1.49,1.49,0,0,1,.31-.23c.23-.16.33-.2.41-.18A.61.61,0,0,0,22,18.5c.15-.16.19-.17.52-.15a.35.35,0,0,0,.14,0,.49.49,0,0,0-.58-.32.57.57,0,0,1-.31,0,.51.51,0,0,0-.59.31,1.86,1.86,0,0,1-.65.54l-.28.18-.55-.21a6.37,6.37,0,0,1-1.13-.51,1,1,0,0,1,.17-.22.94.94,0,0,0,.17-.22,1.25,1.25,0,0,0-.23-.14A3.37,3.37,0,0,1,17,16c-.18-.48-.09-.59.14-.16a1.42,1.42,0,0,0,.55.66c.26.17.4.2.5.11s.09-.24-.08-.43c-.37-.43-.48-1.08-.17-1.08.12,0,.13,0,.37.57a3,3,0,0,0,.94,1.43c.22.12.59,0,.65-.17s0-.25-.27-.42a1.86,1.86,0,0,1-.77-1.26c0-.19,0-.23,0-.32s.16-.09.42.31a8.57,8.57,0,0,0,1.75,2,1.36,1.36,0,0,0,1.67,0,.36.36,0,0,0,.14-.27c0-.19-.14-.27-.44-.25-.67,0-.73,0-1-.1a3.34,3.34,0,0,1-1.38-1.63c-.36-.75-.27-.79.34-.16.83.86,1.5,1.17,2.12,1,.29-.09.57-.36.57-.56s-.1-.28-.42-.26l-.61,0a.93.93,0,0,1-.59-.13,2.65,2.65,0,0,1-.52-.37A5.24,5.24,0,0,1,19.89,13c0-.18.16-.11.57.25a6.66,6.66,0,0,0,1.19.83,1.19,1.19,0,0,0,.54.09.85.85,0,0,0,.54-.1.53.53,0,0,0,.36-.51c0-.38-.16-.47-.69-.33-.76.19-1.15,0-1.85-.67-.34-.35-.46-.53-.41-.64s.18-.06.83.27a2.48,2.48,0,0,0,1.24.43.9.9,0,0,0,.66-.22c.27-.24.34-.5.17-.68s-.4-.13-.7,0a1.77,1.77,0,0,1-.45.14,2.21,2.21,0,0,1-1.52-.58c-.24-.24-.35-.46-.29-.54s.17-.07.44,0a2.49,2.49,0,0,0,1.14.28,1.83,1.83,0,0,0,1.07-.28c.29-.16.48-.36.48-.51a.46.46,0,0,0-.08-.23c-.11-.18-.3-.17-.67,0a1.74,1.74,0,0,1-1.75.2A2.26,2.26,0,0,1,20,9.65c-.06-.12-.06-.14,0-.19s.12-.06.68.15a2.57,2.57,0,0,0,1.74,0,1.38,1.38,0,0,0,.77-.94A.48.48,0,0,0,23,8.29c-.17-.06-.26,0-.51.25a1.78,1.78,0,0,1-1.43.57c-.67,0-.94-.11-.94-.36s.13-.29.4-.33a5,5,0,0,0,2.32-1.06c.3-.29.42-.49.41-.73A.49.49,0,0,0,23,6.1c-.18-.06-.32,0-.52.34a2.81,2.81,0,0,1-1.27,1.12,3.8,3.8,0,0,1-1.06.36S20,7.84,20,7.75c-.09-.25-.1-.26-.48-.1-.19.09-.57.23-.86.34-.57.2-.76.33-.9.6s-.08.23-.08.64,0,.48-.09.6a.46.46,0,0,1-.45.21c-.36,0-.55-.21-.57-.62a1.82,1.82,0,0,1,.2-.95,1.72,1.72,0,0,1,.69-.78,2.29,2.29,0,0,1,1.12-.37,1.3,1.3,0,0,0,1-.41,1,1,0,0,1-.82-.08s.8,0,.9,0a1,1,0,0,0,.62-.26c.2-.14.34-.28.28-.38s-.2-.08-.3,0L20,6.45c-.12.14-.15.15-.51.2a1,1,0,0,1-.49,0s-.09-.08-.09-.1.15-.14.29-.17a1.8,1.8,0,0,1,.51.11,1.56,1.56,0,0,0-.11-.24c-.09-.18-.25-.24-.65-.26s-.38,0-.43-.08l-.16-.11a.39.39,0,0,0-.2,0,2.67,2.67,0,0,0-1,.26,1,1,0,0,1-.52.12,2.21,2.21,0,0,1-.42,0c-.3-.08-.36-.08-.36,0s.26.31.45.41.14.09.12.13a1.1,1.1,0,0,1-.49.34c-.18.06-.17.14,0,.23s.16.1.16.12-.37.36-.54.36-.13.17.1.22.13,0,0,.16-.23.2-.36.17-.16,0-.08.17.06.13,0,.18a.21.21,0,0,1-.11,0h-.12a.21.21,0,0,1-.11,0c-.07-.05-.07-.06,0-.18s.06-.2-.08-.17-.24,0-.36-.17-.12-.14,0-.16.31-.22.1-.22-.55-.25-.54-.36.07-.08.16-.12.2-.17,0-.23a1.1,1.1,0,0,1-.49-.34s0-.08.12-.13.45-.34.45-.41-.06-.06-.36,0a2.21,2.21,0,0,1-.42,0A1,1,0,0,1,12.91,6a2.67,2.67,0,0,0-1-.26.39.39,0,0,0-.2,0,.72.72,0,0,0-.15.11c-.07,0-.16.07-.44.08s-.56.08-.65.26a1.56,1.56,0,0,0-.11.24,1.8,1.8,0,0,1,.51-.11c.14,0,.29.12.29.17s0,.07-.09.1a1,1,0,0,1-.49,0c-.36-.05-.39-.06-.51-.2L9.81,6.2c-.1-.12-.25-.14-.3,0s.08.24.28.38a1,1,0,0,0,.62.26c.1,0,.87,0,.9,0a1,1,0,0,1-.82.08,1.3,1.3,0,0,0,.95.41,2.29,2.29,0,0,1,1.12.37,1.72,1.72,0,0,1,.69.78,1.82,1.82,0,0,1,.2.95c0,.41-.21.62-.57.62a.46.46,0,0,1-.45-.21c-.07-.12-.08-.17-.09-.6s0-.51-.08-.64-.33-.4-.9-.6c-.29-.11-.67-.25-.86-.34-.38-.16-.39-.15-.48.1,0,.09-.08.16-.12.17a3.8,3.8,0,0,1-1.06-.36A3,3,0,0,1,7.56,6.44c-.19-.31-.33-.4-.51-.34a.49.49,0,0,0-.34.53c0,.24.11.44.41.73A5,5,0,0,0,9.43,8.42c.28,0,.41.15.41.33s-.27.36-.94.36a1.78,1.78,0,0,1-1.43-.57c-.25-.27-.34-.31-.51-.25a.48.48,0,0,0-.17.36,1.38,1.38,0,0,0,.77.94,2,2,0,0,0,1,.16,1.9,1.9,0,0,0,.73-.14c.57-.21.62-.22.69-.15s0,.07,0,.19a2.15,2.15,0,0,1-.68.66,1.74,1.74,0,0,1-1.75-.2c-.37-.21-.56-.22-.67,0a.46.46,0,0,0-.08.23c0,.15.19.35.48.51a1.83,1.83,0,0,0,1.07.28,2.49,2.49,0,0,0,1.14-.28c.26-.11.37-.12.44,0s-.05.3-.29.54a2.21,2.21,0,0,1-1.52.58,1.77,1.77,0,0,1-.45-.14c-.29-.16-.56-.17-.7,0s-.11.44.17.68a.9.9,0,0,0,.66.22A2.48,2.48,0,0,0,9,12.19c.65-.33.8-.38.83-.27s-.07.29-.41.64c-.7.72-1.09.86-1.85.67-.53-.14-.72-.05-.69.33a.53.53,0,0,0,.36.51.85.85,0,0,0,.54.1,1.19,1.19,0,0,0,.54-.09,6.66,6.66,0,0,0,1.19-.83c.41-.36.57-.43.57-.25a5.24,5.24,0,0,1-1.06,1.47,2.65,2.65,0,0,1-.52.37.93.93,0,0,1-.59.13l-.61,0c-.32,0-.42,0-.42.26s.28.47.57.56c.62.18,1.29-.13,2.12-1,.61-.63.7-.59.34.16a3.34,3.34,0,0,1-1.38,1.63c-.26.12-.32.13-1,.1-.29,0-.43.06-.43.25a.39.39,0,0,0,.14.27,1.36,1.36,0,0,0,1.67,0,8.57,8.57,0,0,0,1.75-2c.26-.4.33-.45.42-.31s.06.13,0,.32a1.86,1.86,0,0,1-.77,1.26c-.26.17-.32.27-.27.42s.43.29.65.17a3,3,0,0,0,.94-1.43c.24-.55.25-.57.37-.57.31,0,.2.65-.17,1.08-.17.19-.2.32-.08.43s.24.06.5-.11a1.42,1.42,0,0,0,.55-.66c.23-.43.32-.32.14.16a3.37,3.37,0,0,1-1.71,1.73,1.25,1.25,0,0,0-.23.14.94.94,0,0,0,.17.22,1,1,0,0,1,.17.22,6.37,6.37,0,0,1-1.13.51l-.55.21-.28-.18a1.76,1.76,0,0,1-.65-.54A.51.51,0,0,0,8.19,18a.57.57,0,0,1-.31,0,.49.49,0,0,0-.58.32.35.35,0,0,0,.14,0c.34,0,.37,0,.52.15a.61.61,0,0,0,.52.21c.08,0,.18,0,.41.18a1.49,1.49,0,0,1,.31.23s-.18,0-.72,0-.46,0-.56-.13a.45.45,0,0,0-.5-.08.78.78,0,0,1-.31.07.54.54,0,0,0-.27.09.46.46,0,0,0-.23.29,1.06,1.06,0,0,0,.28,0c.25,0,.28,0,.36,0a.88.88,0,0,0,.17.12.67.67,0,0,0,.5,0,2.37,2.37,0,0,1,.66,0,5.22,5.22,0,0,1,.6,0,1.2,1.2,0,0,1-.27.18.73.73,0,0,1-.56.19c-.33,0-.52.09-.57.31l-.08.29c0,.21-.07.24.07.59.16-.39.11-.27.16-.34s.11-.14.3-.15a.49.49,0,0,0,.47-.32c.07-.14.14-.2.49-.42s.44-.3,1-.05c.26.13.36.19.4.28a.36.36,0,0,0,.44.17c.18-.06.25,0,.38.15s0,.06.13.12a.82.82,0,0,0,0-.22c0-.16,0-.19-.22-.4s-.38-.3-.55-.23-.14,0-.34-.08-.32-.19-.2-.19.39-.13.81-.3l.76-.3.11.09a1.51,1.51,0,0,0,.68.32c.13,0,.14,0,.19-.15a10,10,0,0,1,.74-1.44c.39-.62.61-.78.79-.58s.07.14.07.37a3.43,3.43,0,0,1-.92,2.13,1.64,1.64,0,0,1-.93.48c-.28,0-.47.11-.47.18a.74.74,0,0,0,.31.36.83.83,0,0,0,.41.06.93.93,0,0,0,.56-.18c.24-.15.28-.16.33-.11s.05.08,0,.22c-.08.3-.29.43-.78.49s-.67.22-.5.46a.66.66,0,0,0,.56.23,1.27,1.27,0,0,0,.88-.45c.14-.13.27-.23.3-.22s0,.34,0,.53a1,1,0,0,1-.44.51,1.89,1.89,0,0,1-.31.1c-.41.12-.47.28-.18.47a.78.78,0,0,0,.73,0,2.61,2.61,0,0,0,.64-.6c.07-.13.14,0,.12.15a1.51,1.51,0,0,1-.31.62c-.16.23-.11.54.17,1a2,2,0,0,0,.45.52,2,2,0,0,0,.45-.52c.28-.42.34-.73.17-1a1.51,1.51,0,0,1-.31-.62c0-.19,0-.28.12-.15a2.61,2.61,0,0,0,.64.6.78.78,0,0,0,.73,0c.29-.19.23-.35-.18-.47a2.49,2.49,0,0,1-.32-.1,1,1,0,0,1-.43-.51.85.85,0,0,1,0-.53s.16.09.3.22a1.27,1.27,0,0,0,.88.45.66.66,0,0,0,.56-.23c.17-.24,0-.39-.5-.46s-.7-.19-.78-.49c0-.14,0-.17,0-.22s.09,0,.33.11a.93.93,0,0,0,.56.18.91.91,0,0,0,.42-.06.76.76,0,0,0,.3-.36c0-.07-.19-.14-.47-.18a1.64,1.64,0,0,1-.93-.48,3.43,3.43,0,0,1-.92-2.13c0-.23,0-.31.07-.37s.4,0,.79.58A10,10,0,0,1,17.22,19c.05.14.06.15.19.15a1.51,1.51,0,0,0,.68-.32l.11-.09L19,19c.42.17.79.3.81.3s0,.09-.2.19-.27.11-.34.08-.31,0-.55.23-.22.24-.22.4a.56.56,0,0,0,0,.22.46.46,0,0,0,.12-.12c.12-.18.2-.21.38-.15a.36.36,0,0,0,.44-.17c0-.09.14-.15.4-.28.54-.25.51-.25,1,.05s.42.28.49.42a.49.49,0,0,0,.47.32c.19,0,.22,0,.3.15s0-.05.16.34c.14-.35.12-.38.07-.59s-.06-.22-.07-.29c-.06-.22-.25-.32-.58-.31a.73.73,0,0,1-.56-.19,1.2,1.2,0,0,1-.27-.18,5.22,5.22,0,0,1,.6,0,2.31,2.31,0,0,1,.66,0,.67.67,0,0,0,.5,0l.17-.12c.08-.08.11-.08.36,0a1.1,1.1,0,0,0,.28,0,.46.46,0,0,0-.23-.29M17.74,6.52c.08-.06-.07-.21.09-.21l.17,0c.12,0,.19.16.11.23a.81.81,0,0,1-.57,0c-.14-.38.1,0,.2-.11m-5.28.11a.81.81,0,0,1-.57,0c-.08-.07,0-.21.11-.23l.17,0c.16,0,0,.15.09.21s.34-.27.2.11"/></g></g></g></svg>