<svg xmlns="http://www.w3.org/2000/svg" xmlns:xlink="http://www.w3.org/1999/xlink" viewBox="0 0 30 30"><defs><style>.a{fill:none;}.b{clip-path:url(#a);}.c{fill:#fff;}.d{fill:#7ea5d7;}.e{clip-path:url(#b);}.f{fill:#f0bc50;}.g{fill:#7b371d;}</style><clipPath id="a"><circle class="a" cx="15" cy="15" r="15"/></clipPath><clipPath id="b"><rect class="a" x="-11.08" width="52.17" height="30.06"/></clipPath></defs><title>Argentina</title><g class="b"><rect class="c" x="-11.08" y="10.02" width="52.17" height="10.02"/><rect class="d" x="-11.08" width="52.17" height="10.02"/><rect class="d" x="-11.08" y="20.04" width="52.17" height="10.02"/><g class="e"><path class="f" d="M14.79,15l.16,4.1s0,.08.05.08.05-.08.05-.08l.16-4.1Z"/><path class="g" d="M15,19.22c-.05,0-.06-.06-.06-.09L14.78,15h0l.16,4.1s0,.06,0,.06,0-.06,0-.06L15.2,15l-.14,4.1s0,.09-.06.09Z"/><polygon class="g" points="14.9 15.03 15 17.84 15.1 15.03 14.9 15.03"/><path class="f" d="M14.61,16.35c-.24.52,0,.94-.27,1.39a1.82,1.82,0,0,0-.11,1c0,.21-.19.26-.14.31s.22,0,.29-.32-.1-.43.19-1,.06-.81.34-1.3Z"/><path class="g" d="M14.13,19.1h-.05s0-.06,0-.09a.41.41,0,0,0,.11-.23c0-.06,0-.12,0-.2a1.24,1.24,0,0,1,.12-.83,1.6,1.6,0,0,0,.13-.67,1.77,1.77,0,0,1,.14-.72h0a1.75,1.75,0,0,0-.14.71,1.38,1.38,0,0,1-.13.68,1.34,1.34,0,0,0-.12.82.69.69,0,0,1,0,.2.38.38,0,0,1-.11.24s0,0,0,.06.21-.11.27-.31a.76.76,0,0,0,0-.26,1.24,1.24,0,0,1,.18-.73,1.6,1.6,0,0,0,.17-.66,1.31,1.31,0,0,1,.17-.64,1.77,1.77,0,0,0-.15.64,1.53,1.53,0,0,1-.17.67,1.17,1.17,0,0,0-.17.72,1.14,1.14,0,0,1,0,.26.44.44,0,0,1-.25.34Z"/><path class="g" d="M14.67,16.48c-.18.52,0,.86-.23,1.29.27-.31.09-.71.33-1.24Z"/><path class="f" d="M15.21,15l-.16-4.1s0-.07-.05-.07-.05.07-.05.07L14.79,15Z"/><path class="g" d="M15.2,15,15,10.93s0-.06,0-.06,0,.06,0,.06L14.8,15l.14-4.1s0-.09.06-.09.06.06.06.09l.16,4.1Z"/><polygon class="g" points="15.1 15.03 15 12.22 14.9 15.03 15.1 15.03"/><path class="f" d="M15.39,13.71c.24-.52,0-.94.27-1.39a1.82,1.82,0,0,0,.11-1c0-.21.19-.26.14-.31s-.22,0-.29.32.1.43-.19,1-.06.81-.34,1.3Z"/><path class="g" d="M15.41,13.71h0a1.72,1.72,0,0,0,.14-.71,1.38,1.38,0,0,1,.13-.68,1.32,1.32,0,0,0,.12-.81.77.77,0,0,1,0-.21.36.36,0,0,1,.11-.24s0-.05,0-.06-.21.1-.27.31a.76.76,0,0,0,0,.26,1.24,1.24,0,0,1-.18.73,1.6,1.6,0,0,0-.17.66,1.31,1.31,0,0,1-.17.64,1.77,1.77,0,0,0,.15-.64,1.53,1.53,0,0,1,.17-.67,1.17,1.17,0,0,0,.17-.72,1.14,1.14,0,0,1,0-.26c.06-.22.18-.33.25-.34h.06s0,.06,0,.09a.41.41,0,0,0-.11.23,1.5,1.5,0,0,0,0,.2,1.33,1.33,0,0,1-.13.83,1.6,1.6,0,0,0-.13.67,1.93,1.93,0,0,1-.13.72Z"/><path class="g" d="M15.33,13.57c.18-.51,0-.85.24-1.29-.28.32-.1.72-.34,1.25Z"/><path class="f" d="M15,14.82,10.85,15s-.08,0-.08,0,.08.05.08.05l4.15.16Z"/><path class="g" d="M15,15.22l-4.15-.13s-.09,0-.09-.06.06-.06.09-.06L15,14.81v0L10.85,15s-.06,0-.06,0,.06,0,.06,0l4.15.15Z"/><polygon class="g" points="15 14.93 12.15 15.03 15 15.13 15 14.93"/><path class="f" d="M13.66,14.64c-.52-.23-.95,0-1.4-.27a2,2,0,0,0-1-.1c-.2,0-.26-.19-.31-.14s0,.22.33.29.43-.1,1,.18.81.06,1.31.34Z"/><path class="g" d="M13.54,14.93a1.55,1.55,0,0,0-.64-.14,1.68,1.68,0,0,1-.68-.17,1.33,1.33,0,0,0-.73-.18.83.83,0,0,1-.27,0,.46.46,0,0,1-.34-.25h0v-.05s.06,0,.09,0a.41.41,0,0,0,.24.11h.2a1.32,1.32,0,0,1,.84.11,1.51,1.51,0,0,0,.68.14,1.69,1.69,0,0,1,.73.13l0,0a1.9,1.9,0,0,0-.72-.13,1.51,1.51,0,0,1-.68-.14,1.44,1.44,0,0,0-.83-.11.77.77,0,0,1-.21,0,.41.41,0,0,1-.24-.11s-.05,0-.06,0,.11.21.32.26a.76.76,0,0,0,.26,0,1.25,1.25,0,0,1,.74.17,1.47,1.47,0,0,0,.67.17,1.46,1.46,0,0,1,.64.17Z"/><path class="g" d="M13.53,14.71c-.52-.19-.87,0-1.31-.24.32.28.73.09,1.26.33Z"/><path class="f" d="M15,15.24l4.15-.16s.08,0,.08-.05-.08,0-.08,0L15,14.82Z"/><path class="g" d="M15,15.25v0l4.15-.15s.06,0,.06,0-.06,0-.06,0L15,14.84l4.15.13s.09,0,.09.06-.06.06-.09.06L15,15.25Z"/><polygon class="g" points="15 15.13 17.85 15.03 15 14.93 15 15.13"/><path class="f" d="M16.34,15.42c.52.23.95,0,1.41.27a1.93,1.93,0,0,0,1,.1c.2,0,.26.19.31.14s-.05-.22-.32-.29-.44.1-1-.18-.81-.06-1.31-.34Z"/><path class="g" d="M19.08,16s0,0-.06,0a.41.41,0,0,0-.24-.11l-.2,0a1.41,1.41,0,0,1-.84-.12,1.47,1.47,0,0,0-.67-.14,1.64,1.64,0,0,1-.73-.13v0a1.9,1.9,0,0,0,.72.13,1.51,1.51,0,0,1,.68.14,1.36,1.36,0,0,0,.83.11.77.77,0,0,1,.21,0,.41.41,0,0,1,.24.11s0,0,.06,0-.11-.21-.32-.26a.76.76,0,0,0-.26,0,1.24,1.24,0,0,1-.74-.17,1.47,1.47,0,0,0-.67-.17,1.33,1.33,0,0,1-.64-.17,1.56,1.56,0,0,0,.65.14,1.64,1.64,0,0,1,.68.18,1.34,1.34,0,0,0,.72.17.83.83,0,0,1,.27,0c.22.06.33.18.34.25h0v0Z"/><path class="g" d="M16.47,15.35c.52.19.87,0,1.31.24-.32-.27-.73-.1-1.26-.33Z"/><path class="f" d="M14.85,14.89l-2.82,3S12,18,12,18s.09,0,.09,0l3.05-2.78Z"/><path class="g" d="M12,18a.08.08,0,0,1,0-.13l2.82-3h0L12,17.9S12,18,12,18s.07,0,.07,0l3.05-2.79-3,2.8A.1.1,0,0,1,12,18Z"/><polygon class="g" points="14.93 14.96 12.99 17.02 15.07 15.1 14.93 14.96"/><path class="f" d="M13.77,15.69c-.53.2-.69.64-1.18.79a1.85,1.85,0,0,0-.81.66c-.16.13-.32.05-.33.12s.19.12.44,0,.24-.37.84-.56.61-.53,1.17-.67Z"/><path class="g" d="M11.6,17.34a.21.21,0,0,1-.12,0l0,0s0,0,.09-.05a.38.38,0,0,0,.24-.08L11.9,17a1.34,1.34,0,0,1,.69-.51,1.4,1.4,0,0,0,.57-.38,1.86,1.86,0,0,1,.61-.41v0a1.72,1.72,0,0,0-.6.41,1.6,1.6,0,0,1-.59.39,1.41,1.41,0,0,0-.67.49l-.13.16a.45.45,0,0,1-.26.09s-.06,0-.06,0a.39.39,0,0,0,.42,0,1,1,0,0,0,.19-.17,1.28,1.28,0,0,1,.65-.39,1.76,1.76,0,0,0,.59-.35A1.38,1.38,0,0,1,13.9,16a1.63,1.63,0,0,0-.56.35,1.63,1.63,0,0,1-.61.35,1.27,1.27,0,0,0-.63.39,1.12,1.12,0,0,1-.2.17.62.62,0,0,1-.3.1Z"/><path class="g" d="M13.73,15.83c-.5.23-.61.61-1.09.75.42,0,.58-.44,1.12-.65Z"/><path class="f" d="M15.15,15.18l2.82-3s.05-.05,0-.09-.09,0-.09,0l-3,2.79Z"/><path class="g" d="M15.16,15.19l0,0,2.82-3s.05-.05,0-.07-.07,0-.07,0l-3.05,2.79,3-2.8a.07.07,0,0,1,.11,0,.09.09,0,0,1,0,.11l-2.82,3Z"/><polygon class="g" points="15.07 15.1 17.01 13.04 14.93 14.96 15.07 15.1"/><path class="f" d="M16.23,14.37c.53-.2.69-.64,1.18-.79a1.79,1.79,0,0,0,.81-.66c.16-.13.32-.05.33-.12s-.19-.12-.44,0-.24.37-.84.56-.61.53-1.17.68Z"/><path class="g" d="M16.23,14.38v0a1.72,1.72,0,0,0,.6-.41,1.47,1.47,0,0,1,.59-.38,1.42,1.42,0,0,0,.67-.5l.13-.16a.47.47,0,0,1,.26-.09c.05,0,.06,0,.06,0a.37.37,0,0,0-.41,0,.85.85,0,0,0-.2.17,1.28,1.28,0,0,1-.65.39,1.76,1.76,0,0,0-.59.35,1.32,1.32,0,0,1-.58.33,1.63,1.63,0,0,0,.56-.35,1.78,1.78,0,0,1,.61-.35A1.2,1.2,0,0,0,17.9,13a1.12,1.12,0,0,1,.2-.17.47.47,0,0,1,.42-.07l0,.05s0,0-.09,0a.38.38,0,0,0-.24.08l-.13.15a1.34,1.34,0,0,1-.69.51,1.4,1.4,0,0,0-.57.38,1.86,1.86,0,0,1-.61.41Z"/><path class="g" d="M16.27,14.23c.5-.23.61-.61,1.09-.74-.41,0-.57.43-1.12.64Z"/><path class="f" d="M15.15,14.89,12.1,12.1s0-.06-.09,0,0,.09,0,.09l2.82,3Z"/><path class="g" d="M14.86,15.17l-2.84-3a.09.09,0,0,1,0-.11.07.07,0,0,1,.11,0l3.05,2.79h0l-3-2.79s0,0-.08,0,0,.07,0,.07l2.82,3Z"/><polygon class="g" points="15.07 14.96 12.99 13.04 14.93 15.1 15.07 14.96"/><path class="f" d="M14.33,13.82c-.2-.53-.65-.69-.8-1.17s-.52-.64-.66-.8-.06-.32-.12-.32-.13.19,0,.43.38.24.57.83.53.6.68,1.15Z"/><path class="g" d="M14,13.94a1.48,1.48,0,0,0-.34-.55,1.58,1.58,0,0,1-.36-.6,1.32,1.32,0,0,0-.39-.63.7.7,0,0,1-.18-.2.45.45,0,0,1-.07-.41l.06,0s0,.05,0,.09a.4.4,0,0,0,.09.24L13,12a1.37,1.37,0,0,1,.51.67,1.63,1.63,0,0,0,.38.57,1.74,1.74,0,0,1,.42.61h0a1.65,1.65,0,0,0-.42-.59,1.37,1.37,0,0,1-.38-.58A1.29,1.29,0,0,0,13,12l-.15-.13a.39.39,0,0,1-.09-.26s0-.06,0-.06-.08.23,0,.41a.79.79,0,0,0,.17.19,1.29,1.29,0,0,1,.4.64,1.76,1.76,0,0,0,.35.59,1.17,1.17,0,0,1,.33.57Z"/><path class="g" d="M14.19,13.77c-.24-.49-.62-.59-.76-1.08,0,.42.45.58.66,1.12Z"/><path class="f" d="M14.85,15.18l3,2.78S18,18,18,18s0-.09,0-.09l-2.82-3Z"/><path class="g" d="M18,18a.08.08,0,0,1-.07,0l-3.05-2.78,0,0L17.91,18s0,.05.07,0,0-.07,0-.07l-2.82-3,2.84,3S18,18,18,18Z"/><polygon class="g" points="14.93 15.1 17.01 17.02 15.07 14.96 14.93 15.1"/><path class="f" d="M15.67,16.24c.2.53.65.69.8,1.17a1.75,1.75,0,0,0,.66.8c.14.16.06.32.12.32s.13-.18,0-.43-.38-.24-.57-.83-.53-.6-.68-1.15Z"/><path class="g" d="M17.25,18.54s0,0,0-.08a.4.4,0,0,0-.09-.24,1.08,1.08,0,0,0-.15-.13,1.32,1.32,0,0,1-.51-.67,1.54,1.54,0,0,0-.38-.57,1.79,1.79,0,0,1-.42-.6h0a1.65,1.65,0,0,0,.42.59,1.47,1.47,0,0,1,.38.58,1.29,1.29,0,0,0,.51.66l.15.13a.39.39,0,0,1,.09.26c0,.05,0,.06,0,.06s.08-.23,0-.41a.79.79,0,0,0-.17-.19,1.29,1.29,0,0,1-.4-.64,1.61,1.61,0,0,0-.36-.59,1.24,1.24,0,0,1-.32-.57,1.48,1.48,0,0,0,.34.55,1.47,1.47,0,0,1,.36.6,1.32,1.32,0,0,0,.39.63.7.7,0,0,1,.18.2.45.45,0,0,1,.07.41l-.06,0Z"/><path class="g" d="M15.81,16.29c.24.49.62.59.76,1.08,0-.42-.45-.58-.66-1.12Z"/><path class="f" d="M14.81,15,13.36,18.8s0,.07,0,.09.08-.05.08-.05l1.73-3.73Z"/><path class="g" d="M13.42,18.9c-.09,0-.08-.08-.07-.11L14.8,15h0L13.38,18.8s0,.06,0,.08l.06-.05,1.73-3.73-1.71,3.74s0,.05-.05.06Z"/><polygon class="g" points="14.9 14.99 13.91 17.63 15.1 15.07 14.9 14.99"/><path class="f" d="M14.13,16.11c-.42.38-.4.85-.79,1.17a1.85,1.85,0,0,0-.5.91c-.09.19-.28.18-.25.24s.22,0,.39-.19.08-.43.56-.84.36-.71.82-1.06Z"/><path class="g" d="M12.65,18.47h0l-.06,0s0-.05.07-.07a.42.42,0,0,0,.19-.17c0-.05,0-.12.07-.19a1.32,1.32,0,0,1,.43-.73,1.51,1.51,0,0,0,.38-.56,1.77,1.77,0,0,1,.41-.61h0a2.13,2.13,0,0,0-.4.61,1.36,1.36,0,0,1-.39.57,1.35,1.35,0,0,0-.42.71.77.77,0,0,1-.07.2.41.41,0,0,1-.2.18s-.06,0-.05,0,.24,0,.37-.19a.54.54,0,0,0,.11-.23,1.28,1.28,0,0,1,.45-.61,1.4,1.4,0,0,0,.41-.54,1.27,1.27,0,0,1,.41-.52,1.55,1.55,0,0,0-.38.53,1.58,1.58,0,0,1-.42.55,1.23,1.23,0,0,0-.44.6.9.9,0,0,1-.12.24.5.5,0,0,1-.34.22Z"/><path class="g" d="M14.14,16.25c-.38.41-.33.79-.73,1.1.38-.18.37-.62.8-1Z"/><path class="f" d="M15.19,15.11l1.45-3.85s0-.07,0-.09-.08.05-.08.05L14.81,15Z"/><path class="g" d="M15.2,15.11h0l1.44-3.84s0-.06,0-.07l-.06,0L14.82,15l1.71-3.74a.18.18,0,0,1,0-.06l.07,0a.1.1,0,0,1,0,.08L15.2,15.11Z"/><polygon class="g" points="15.1 15.07 16.09 12.43 14.9 14.99 15.1 15.07"/><path class="f" d="M15.88,14c.41-.38.39-.85.78-1.17a1.85,1.85,0,0,0,.5-.91c.1-.19.28-.18.25-.24s-.22,0-.39.19-.08.44-.56.84-.36.72-.82,1.06Z"/><path class="g" d="M15.88,14h0a2.13,2.13,0,0,0,.4-.61,1.36,1.36,0,0,1,.39-.57,1.35,1.35,0,0,0,.42-.71.77.77,0,0,1,.07-.2.41.41,0,0,1,.2-.18s.06,0,0,0-.24,0-.37.19a.7.7,0,0,0-.11.23,1.28,1.28,0,0,1-.45.61,1.51,1.51,0,0,0-.41.54,1.27,1.27,0,0,1-.41.52A1.43,1.43,0,0,0,16,13.2a1.58,1.58,0,0,1,.42-.55,1.19,1.19,0,0,0,.44-.6.9.9,0,0,1,.12-.24.45.45,0,0,1,.36-.22l.06,0s0,0-.07.07a.47.47,0,0,0-.19.17c0,.05,0,.12-.06.19a1.35,1.35,0,0,1-.44.73,1.51,1.51,0,0,0-.38.56,1.64,1.64,0,0,1-.41.61Z"/><path class="g" d="M15.87,13.81c.37-.41.32-.79.72-1.1-.38.18-.37.62-.8,1Z"/><path class="f" d="M15.08,14.84l-3.89-1.43s-.07,0-.09,0,.05.08.05.08l3.77,1.71Z"/><path class="g" d="M14.93,15.21l-3.79-1.69s-.08,0-.06-.09.08,0,.11,0l3.89,1.43v0l-3.89-1.42s-.06,0-.07,0,0,.06,0,.06l3.78,1.71Z"/><polygon class="g" points="15.04 14.94 12.37 13.95 14.96 15.13 15.04 14.94"/><path class="f" d="M13.91,14.17c-.39-.42-.86-.39-1.19-.78a1.79,1.79,0,0,0-.92-.49c-.19-.1-.18-.27-.24-.25s0,.22.19.39.44.07.85.55.73.35,1.08.81Z"/><path class="g" d="M13.69,14.39a1.68,1.68,0,0,0-.54-.38,1.51,1.51,0,0,1-.56-.42,1.27,1.27,0,0,0-.61-.43,1.28,1.28,0,0,1-.24-.11.46.46,0,0,1-.22-.36l0-.06s0,0,.07.07a.47.47,0,0,0,.17.19L12,13a1.38,1.38,0,0,1,.74.43,1.41,1.41,0,0,0,.57.37,1.91,1.91,0,0,1,.62.41h0a1.8,1.8,0,0,0-.61-.39,1.57,1.57,0,0,1-.58-.39A1.36,1.36,0,0,0,12,13l-.19-.06a.41.41,0,0,1-.18-.2s0-.06,0-.05a.39.39,0,0,0,.2.37,1.2,1.2,0,0,0,.23.11,1.26,1.26,0,0,1,.62.44,1.66,1.66,0,0,0,.55.41,1.24,1.24,0,0,1,.53.4Z"/><path class="g" d="M13.76,14.18c-.4-.37-.8-.32-1.11-.72.19.38.63.36,1,.79Z"/><path class="f" d="M14.92,15.22l3.89,1.43s.07,0,.1,0-.06-.08-.06-.08l-3.77-1.71Z"/><path class="g" d="M18.86,16.67h-.05l-3.89-1.43v0l3.89,1.42s.06,0,.07,0,0-.06,0-.06l-3.78-1.71,3.79,1.69s.08.05.06.09a.06.06,0,0,1-.06,0Z"/><polygon class="g" points="14.96 15.13 17.63 16.11 15.04 14.94 14.96 15.13"/><path class="f" d="M16.09,15.89c.39.42.86.39,1.19.78a1.79,1.79,0,0,0,.92.49c.19.1.18.28.24.25s0-.22-.19-.39-.44-.07-.85-.54-.73-.36-1.08-.82Z"/><path class="g" d="M18.43,17.43s0,0-.06-.07a.47.47,0,0,0-.17-.19L18,17.11a1.38,1.38,0,0,1-.74-.43,1.54,1.54,0,0,0-.57-.38,1.72,1.72,0,0,1-.62-.4h0a1.71,1.71,0,0,0,.61.39,1.57,1.57,0,0,1,.58.39,1.37,1.37,0,0,0,.72.42l.2.06a.41.41,0,0,1,.18.2s0,.06.05,0,0-.24-.2-.37a1,1,0,0,0-.23-.11,1.26,1.26,0,0,1-.62-.44,1.66,1.66,0,0,0-.55-.41,1.32,1.32,0,0,1-.53-.4,1.68,1.68,0,0,0,.54.38,1.51,1.51,0,0,1,.56.42,1.27,1.27,0,0,0,.61.43,1.28,1.28,0,0,1,.24.11.46.46,0,0,1,.22.36l0,.06Z"/><path class="g" d="M16.24,15.88c.41.37.8.32,1.11.72-.18-.37-.63-.36-1-.79Z"/><path class="f" d="M14.92,14.84l-3.77,1.71s-.07,0-.05.08.09,0,.09,0l3.89-1.43Z"/><path class="g" d="M11.14,16.67a.07.07,0,0,1-.06,0s0-.08.06-.09l3.78-1.71v0l-3.78,1.71s-.06,0,0,.06.07,0,.07,0l3.89-1.42-3.88,1.45Z"/><polygon class="g" points="14.96 14.94 12.37 16.11 15.04 15.13 14.96 14.94"/><path class="f" d="M13.61,15.18c-.57,0-.89.33-1.4.28a1.84,1.84,0,0,0-1,.3c-.2.06-.32-.07-.35,0s.13.18.42.14.36-.25,1-.2.77-.26,1.34-.18Z"/><path class="g" d="M11.17,15.91a.39.39,0,0,1-.31-.11v-.06s.05,0,.1,0a.39.39,0,0,0,.25,0l.19-.09a1.39,1.39,0,0,1,.82-.21,1.46,1.46,0,0,0,.67-.13,1.83,1.83,0,0,1,.73-.15v0a1.81,1.81,0,0,0-.72.15,1.53,1.53,0,0,1-.68.13,1.4,1.4,0,0,0-.81.21l-.19.09a.39.39,0,0,1-.27,0s-.06,0-.07,0a.38.38,0,0,0,.4.13.92.92,0,0,0,.25-.09,1.31,1.31,0,0,1,.75-.12,1.47,1.47,0,0,0,.68-.09,1.32,1.32,0,0,1,.66-.09,1.65,1.65,0,0,0-.65.11,1.68,1.68,0,0,1-.69.1,1.29,1.29,0,0,0-.74.12.92.92,0,0,1-.25.08Z"/><path class="g" d="M13.52,15.29c-.56,0-.8.33-1.3.27.4.14.7-.18,1.29-.16Z"/><path class="f" d="M15.08,15.22l3.77-1.71s.07,0,.06-.08-.1,0-.1,0l-3.89,1.43Z"/><path class="g" d="M15.08,15.23v0l3.78-1.71s.06,0,0-.06-.07,0-.07,0l-3.89,1.42,3.88-1.45s.09,0,.11,0,0,.08-.06.09l-3.78,1.71Z"/><polygon class="g" points="15.04 15.13 17.63 13.95 14.96 14.94 15.04 15.13"/><path class="f" d="M16.39,14.88c.57,0,.89-.33,1.4-.28a1.84,1.84,0,0,0,1-.3c.2-.06.32.07.35,0s-.13-.18-.41-.14-.37.25-1,.2-.77.26-1.34.18Z"/><path class="g" d="M16.44,14.89h-.05v0a1.81,1.81,0,0,0,.72-.15,1.43,1.43,0,0,1,.68-.13,1.35,1.35,0,0,0,.81-.21l.19-.09a.39.39,0,0,1,.27,0c.05,0,.06,0,.07,0a.38.38,0,0,0-.4-.13.92.92,0,0,0-.25.09,1.31,1.31,0,0,1-.75.12,1.49,1.49,0,0,0-.68.09,1.45,1.45,0,0,1-.66.09,1.69,1.69,0,0,0,.65-.11,1.68,1.68,0,0,1,.69-.1,1.29,1.29,0,0,0,.74-.12,1,1,0,0,1,.25-.08.46.46,0,0,1,.42.1v.06s0,0-.1,0a.38.38,0,0,0-.25,0,.76.76,0,0,0-.18.09,1.42,1.42,0,0,1-.83.21,1.56,1.56,0,0,0-.68.13,1.74,1.74,0,0,1-.67.15Z"/><path class="g" d="M16.49,14.77c.55,0,.79-.33,1.29-.27-.39-.14-.7.18-1.29.17Z"/><path class="f" d="M15.19,15l-1.73-3.73s0-.07-.08-.05,0,.09,0,.09l1.45,3.85Z"/><path class="g" d="M14.82,15.1l-1.47-3.83a.1.1,0,0,1,0-.08l.07,0s.05.06.05.06L15.2,15h0l-1.76-3.79h0v.08l1.44,3.84Z"/><polygon class="g" points="15.1 14.99 13.91 12.43 14.9 15.07 15.1 14.99"/><path class="f" d="M14.85,13.66c0-.57-.33-.88-.29-1.39a1.68,1.68,0,0,0-.3-1c-.06-.2.07-.32,0-.35s-.19.13-.15.41.26.36.21,1,.25.76.18,1.33Z"/><path class="g" d="M14.86,13.66h0a1.73,1.73,0,0,0-.15-.71,1.41,1.41,0,0,1-.14-.68,1.36,1.36,0,0,0-.21-.8,1.5,1.5,0,0,1-.09-.18.39.39,0,0,1,0-.27s0-.06,0-.07a.38.38,0,0,0-.13.4,1,1,0,0,0,.09.24,1.31,1.31,0,0,1,.12.74,1.46,1.46,0,0,0,.1.68,1.29,1.29,0,0,1,.08.65,1.6,1.6,0,0,0-.11-.64,1.68,1.68,0,0,1-.1-.69,1.12,1.12,0,0,0-.12-.73.92.92,0,0,1-.08-.25.44.44,0,0,1,.1-.41h.06s0,.05,0,.1a.34.34,0,0,0,0,.25,1.26,1.26,0,0,0,.08.18,1.3,1.3,0,0,1,.22.81,1.34,1.34,0,0,0,.13.67,1.74,1.74,0,0,1,.15.72Z"/><path class="g" d="M14.74,13.56c0-.54-.34-.78-.28-1.28-.14.39.19.7.17,1.28Z"/><path class="f" d="M14.81,15.11l1.73,3.73s0,.07.08.05,0-.09,0-.09L15.19,15Z"/><path class="g" d="M16.62,18.9a.11.11,0,0,1-.09-.06L14.8,15.11h0l1.73,3.73s0,.06.06.05,0-.08,0-.08L15.18,15l1.47,3.83s0,.09,0,.11Z"/><polygon class="g" points="14.9 15.07 16.09 17.63 15.1 14.99 14.9 15.07"/><path class="f" d="M15.15,16.4c0,.57.33.88.29,1.39a1.75,1.75,0,0,0,.3,1c.06.19-.07.31,0,.34s.19-.13.15-.41-.26-.36-.21-1-.25-.76-.18-1.33Z"/><path class="g" d="M15.72,19.13s0-.05,0-.1a.34.34,0,0,0,0-.25,1.26,1.26,0,0,0-.08-.18,1.32,1.32,0,0,1-.22-.82,1.33,1.33,0,0,0-.13-.66,1.74,1.74,0,0,1-.15-.72h0a1.58,1.58,0,0,0,.16.71,1.53,1.53,0,0,1,.13.68,1.36,1.36,0,0,0,.21.8,1.5,1.5,0,0,1,.09.18.39.39,0,0,1,0,.27s0,.06,0,.07a.38.38,0,0,0,.13-.4,1,1,0,0,0-.09-.24,1.29,1.29,0,0,1-.12-.74,1.48,1.48,0,0,0-.1-.68,1.27,1.27,0,0,1-.08-.65,1.69,1.69,0,0,0,.11.65,1.6,1.6,0,0,1,.1.68,1.1,1.1,0,0,0,.12.73.92.92,0,0,1,.08.25.44.44,0,0,1-.1.41Z"/><path class="g" d="M15.26,16.5c0,.54.34.78.28,1.28.14-.39-.19-.7-.17-1.28Z"/><path class="f" d="M15,13.36A1.67,1.67,0,1,1,13.31,15,1.68,1.68,0,0,1,15,13.36Z"/><path class="g" d="M15,16.71A1.68,1.68,0,1,1,16.7,15,1.69,1.69,0,0,1,15,16.71Zm0-3.34A1.66,1.66,0,1,0,16.68,15,1.67,1.67,0,0,0,15,13.37Z"/><path class="g" d="M16.07,14.67a.68.68,0,0,0-.89-.1.55.55,0,0,0,0,.68l-.05,0a.9.9,0,0,1-.07-.73.64.64,0,0,1,1,.13Z"/><path class="g" d="M15.6,14.59a.34.34,0,0,0-.29.11.29.29,0,0,1-.13.06s0,.05,0,0,.08,0,.15-.1a.32.32,0,0,1,.24-.07c.23,0,.36.19.39.18a.42.42,0,0,0-.39-.22Z"/><path class="g" d="M15.9,14.81a.4.4,0,0,0-.61,0h.05a.31.31,0,0,1,.47,0v0Z"/><path class="g" d="M15.57,14.68a.12.12,0,0,1,.12.12.11.11,0,0,1-.12.11.11.11,0,0,1-.11-.11.12.12,0,0,1,.11-.12Z"/><path class="g" d="M15.29,14.82a.52.52,0,0,0,.61,0h-.09a.34.34,0,0,1-.47,0v0Z"/><path class="g" d="M15.91,14.88a.52.52,0,0,1-.57.07c-.13-.07-.13-.1-.11-.1s.06,0,.16.08a.67.67,0,0,0,.52,0Z"/><path class="g" d="M15.27,15.26a.09.09,0,0,1,.05.1.08.08,0,0,1-.1.05.08.08,0,0,1-.05-.07.21.21,0,0,1-.17.1h0l0,0a.28.28,0,0,0,.16,0,.11.11,0,0,0,.16,0,.12.12,0,0,0,0-.16.14.14,0,0,0-.08-.05Z"/><path class="g" d="M15.43,15.8c-.12-.08-.17-.19-.3-.19a.27.27,0,0,0-.13,0h0l0,0c.05,0,.13-.07.22,0a1.35,1.35,0,0,0,.21.13Z"/><path class="g" d="M15.39,15.8a.65.65,0,0,0-.39,0h0l0,.05c.1,0,.16-.08.39,0Z"/><path class="g" d="M15.43,15.8c-.29,0-.2.14-.43.14h0l0,0c.29,0,.16-.15.43-.18Z"/><path class="g" d="M15.23,16.21a.23.23,0,0,0-.46,0,.24.24,0,0,1,.29-.17.23.23,0,0,1,.17.17Z"/><path class="g" d="M13.93,14.67a.68.68,0,0,1,.89-.1.55.55,0,0,1,0,.68l.05,0a.9.9,0,0,0,.07-.73.64.64,0,0,0-1,.13Z"/><path class="g" d="M14.4,14.59a.34.34,0,0,1,.29.11.29.29,0,0,0,.13.06s0,.05,0,0-.08,0-.15-.1a.32.32,0,0,0-.24-.07c-.23,0-.36.19-.39.18a.42.42,0,0,1,.39-.22Z"/><path class="g" d="M14.1,14.81a.4.4,0,0,1,.61,0h-.05a.31.31,0,0,0-.47,0v0Z"/><path class="g" d="M14.43,14.68a.12.12,0,0,0-.12.12.11.11,0,0,0,.12.11.11.11,0,0,0,.11-.11.12.12,0,0,0-.11-.12Z"/><path class="g" d="M14.71,14.82a.52.52,0,0,1-.61,0h.09a.34.34,0,0,0,.47,0v0Z"/><path class="g" d="M14.09,14.88a.52.52,0,0,0,.57.07c.13-.07.13-.1.11-.1s-.06,0-.16.08a.67.67,0,0,1-.52,0Z"/><path class="g" d="M14.73,15.26a.08.08,0,0,0,0,.15.08.08,0,0,0,.05-.07.21.21,0,0,0,.17.1h0l0,0a.28.28,0,0,1-.16,0,.11.11,0,0,1-.16,0,.12.12,0,0,1,0-.16.14.14,0,0,1,.08-.05Z"/><path class="g" d="M14.57,15.8c.12-.08.17-.19.3-.19a.27.27,0,0,1,.13,0h0l0,0c-.05,0-.13-.07-.22,0a1.35,1.35,0,0,1-.21.13Z"/><path class="g" d="M14.61,15.8a.65.65,0,0,1,.39,0h0l0,.05c-.1,0-.16-.08-.39,0Z"/><path class="g" d="M14.57,15.8c.29,0,.2.14.43.14h0l0,0c-.29,0-.16-.15-.43-.18Z"/><path class="g" d="M14.77,16.21a.23.23,0,0,1,.46,0A.23.23,0,0,0,15,16a.23.23,0,0,0-.18.17Z"/></g><rect class="a" x="-11.08" width="52.17" height="30.06"/></g></svg>