<svg xmlns="http://www.w3.org/2000/svg" xmlns:xlink="http://www.w3.org/1999/xlink" viewBox="0 0 30 30"><defs><style>.a{fill:none;}.b{clip-path:url(#a);}.c{clip-path:url(#b);}.d{fill:#302d85;}.e{fill:#f4cb29;}.f{fill:#fff;}</style><clipPath id="a"><circle class="a" cx="15" cy="15" r="15"/></clipPath><clipPath id="b"><rect class="a" x="-11.9" y="-2.05" width="59.9" height="34.11"/></clipPath></defs><title>Bosnia Herzegovina</title><g class="b"><g class="c"><rect class="d" x="-11.9" y="-2.05" width="59.9" height="34.11"/><polygon class="e" points="1.62 -2.05 36.57 32.05 36.57 -2.05 1.62 -2.05"/><polygon class="f" points="29.53 30.67 27.12 30.67 29.06 32.05 30.28 32.05 31.49 32.05 33.43 30.67 31.02 30.67 30.28 28.43 29.53 30.67"/><polygon class="f" points="-0.3 3.06 1.65 4.45 0.91 2.21 2.86 0.82 0.45 0.82 -0.3 -1.42 -1.04 0.82 -3.46 0.82 -1.5 2.21 -2.25 4.45 -0.3 3.06"/><polygon class="f" points="4.07 7.33 6.02 8.71 5.28 6.47 7.23 5.09 4.82 5.09 4.07 2.85 3.33 5.09 0.91 5.09 2.86 6.47 2.12 8.71 4.07 7.33"/><polygon class="f" points="8.44 11.59 10.39 12.97 9.64 10.73 11.6 9.35 9.18 9.35 8.44 7.11 7.69 9.35 5.28 9.35 7.23 10.73 6.49 12.97 8.44 11.59"/><polygon class="f" points="12.8 15.85 14.76 17.24 14.01 15 15.96 13.62 13.55 13.62 12.8 11.38 12.06 13.62 9.65 13.62 11.6 15 10.85 17.24 12.8 15.85"/><polygon class="f" points="17.17 20.12 19.12 21.5 18.38 19.26 20.33 17.88 17.92 17.88 17.17 15.64 16.43 17.88 14.02 17.88 15.97 19.26 15.22 21.5 17.17 20.12"/><polygon class="f" points="21.54 24.38 23.49 25.76 22.75 23.53 24.7 22.14 22.29 22.14 21.54 19.9 20.8 22.14 18.38 22.14 20.33 23.53 19.59 25.76 21.54 24.38"/><polygon class="f" points="25.91 28.64 27.86 30.03 27.11 27.79 29.07 26.41 26.65 26.41 25.91 24.16 25.16 26.41 22.75 26.41 24.7 27.79 23.96 30.03 25.91 28.64"/></g></g></svg>