<svg xmlns="http://www.w3.org/2000/svg" xmlns:xlink="http://www.w3.org/1999/xlink" viewBox="0 0 30 30"><defs><style>.a{fill:none;}.b{clip-path:url(#a);}.c{fill:#3a8d36;}.d{fill:#eec200;}.e{clip-path:url(#b);}.f{fill:#322565;}.g{fill:#fff;}</style><clipPath id="a"><circle class="a" cx="15" cy="15" r="15"/></clipPath><clipPath id="b"><rect class="a" x="-10.62" width="51.25" height="29.89"/></clipPath></defs><title>Brazil</title><g class="b"><rect class="c" x="-10.62" width="51.25" height="30"/><polygon class="d" points="1.43 15 15 23.66 28.57 15 15 6.33 1.43 15"/><g class="e"><path class="f" d="M20.57,15A5.57,5.57,0,1,1,15,9.43,5.57,5.57,0,0,1,20.57,15"/><path class="g" d="M11.82,12.61a13.35,13.35,0,0,0-1.92.14,6.11,6.11,0,0,0-.3.85,13.48,13.48,0,0,1,2.22-.19,12.66,12.66,0,0,1,8.5,3.26,5.45,5.45,0,0,0,.2-.89,13.48,13.48,0,0,0-8.7-3.17"/></g></g></svg>