<svg xmlns="http://www.w3.org/2000/svg" xmlns:xlink="http://www.w3.org/1999/xlink" viewBox="0 0 30 30"><defs><style>.a{fill:none;}.b{clip-path:url(#a);}.c{fill:#fff;}.d{fill:#313f98;}.e{fill:#c22727;}</style><clipPath id="a"><circle class="a" cx="15" cy="15" r="15"/></clipPath></defs><title>Chile</title><g class="b"><rect class="c" x="15.18" width="36.87" height="15"/><rect class="d" width="15.18" height="15"/><rect class="e" y="15" width="52.05" height="15"/><polygon class="c" points="7.59 3.75 6.42 7.32 8.22 7.89 7.59 3.75"/><polygon class="c" points="7.59 3.75 8.76 7.32 6.96 7.89 7.59 3.75"/><polygon class="c" points="11.2 6.34 7.41 6.34 7.41 8.21 11.2 6.34"/><polygon class="c" points="11.2 6.34 8.13 8.54 7.01 7.03 11.2 6.34"/><polygon class="c" points="3.98 6.34 7.05 8.54 8.17 7.03 3.98 6.34"/><polygon class="c" points="3.98 6.34 7.78 6.34 7.78 8.21 3.98 6.34"/><polygon class="c" points="9.82 10.53 8.65 6.97 6.84 7.54 9.82 10.53"/><polygon class="c" points="9.82 10.53 6.75 8.33 7.87 6.81 9.82 10.53"/><polygon class="c" points="5.36 10.53 8.43 8.33 7.31 6.81 5.36 10.53"/><polygon class="c" points="5.36 10.53 6.53 6.97 8.34 7.54 5.36 10.53"/></g></svg>