<svg width="33" height="33" xmlns="http://www.w3.org/2000/svg"><path d="M17.397 32.395l-.535-3.594a.134.134 0 01.11-.147s.888-.125.951-.128a.151.151 0 01.139.058l1.336 1.889-.43-2.094a.127.127 0 01.092-.153l.651-.161a.129.129 0 01.153.092l.774 3.613a.128.128 0 01-.092.153l-.934.232a.147.147 0 01-.145-.056l-1.451-1.975.325 2.116a.128.128 0 01-.11.145l-.681.114h-.019a.134.134 0 01-.134-.104zm-4.9-.272a1.9 1.9 0 01-1.138-.687 2.653 2.653 0 01.805-3.269 2.215 2.215 0 012.486.59 2.655 2.655 0 01-.805 3.269 1.662 1.662 0 01-.762.173 2.458 2.458 0 01-.589-.076h.003zm.29-3.15a1.994 1.994 0 00-.493 2.031c.098.15.252.252.427.287.169.048.35.024.5-.067a1.979 1.979 0 00.493-2.025.641.641 0 00-.422-.292.782.782 0 00-.186-.024.592.592 0 00-.322.089l.003.001zm10.206 1.269c-.087-.058-.1-.1-.047-.172l.442-.613c.052-.077.1-.064.17-.019.18.163.446.185.65.054a.407.407 0 00.183-.575.377.377 0 00-.429-.163l-.414.08a1.28 1.28 0 01-1.526-.517 1.1 1.1 0 01-.154-.852 1.3 1.3 0 01.631-.809c.38-.292.905-.311 1.306-.048.122.075.128.134.08.2l-.376.527c-.037.023-.061.033-.09.007a.36.36 0 00-.484-.039.307.307 0 00-.137.42c.1.153.194.2.5.133l.415-.087a1.3 1.3 0 011.529.5c.187.288.244.642.158.975a2 2 0 01-1.644 1.251 1.493 1.493 0 01-.766-.254l.003.001zm-16.244-.937l-.7-.508a.083.083 0 01-.018-.118l2.214-3.06a.1.1 0 01.155-.025l.962.7c.252.164.463.385.616.644.22.417.165.925-.137 1.286a1.22 1.22 0 01-1.249.6 1.85 1.85 0 01-.795-.36l-.154-.112c-.042-.031-.072-.026-.1.012l-.669.925a.083.083 0 01-.068.035.09.09 0 01-.06-.02l.003.001zm1.9-2.469l-.56.775c-.022.03-.021.038.005.056l.2.144c.223.162.456.075.649-.191.174-.241.184-.49-.039-.653l-.2-.144a.048.048 0 00-.025-.012c-.016 0-.024.007-.037.025h.007zm19.173.443l-2.82-2.42a.129.129 0 01-.014-.18l.508-.594a.13.13 0 01.183-.018l2.821 2.421c.053.048.058.13.011.184l-.508.594a.129.129 0 01-.1.044.128.128 0 01-.088-.032l.007.001zM3.894 26.05a1.633 1.633 0 01-.95-.755 1.359 1.359 0 01-.086-1.646c.057-.088.1-.1.172-.049l.618.433c.077.051.067.1.021.17a.537.537 0 00-.044.651.405.405 0 00.578.175.376.376 0 00.155-.431l-.086-.414a1.282 1.282 0 01.492-1.536c.247-.17.554-.23.847-.168.346.085.642.31.818.62.298.377.325.902.068 1.308-.072.123-.13.13-.194.082l-.532-.368c-.024-.036-.033-.061-.008-.091a.361.361 0 00.032-.485.306.306 0 00-.421-.13c-.15.1-.195.2-.125.507l.094.415a1.3 1.3 0 01-.479 1.54 1.213 1.213 0 01-.971.173l.001-.001zm10.729-1.029a8.4 8.4 0 01-6.729-8.694 8.278 8.278 0 016.613-8.186c4.849-.925 7.764 2.115 9.054 5.019a1.735 1.735 0 01-.652 2.369 24.2 24.2 0 01-3.988 1.874c-2.024.761-3.942 1.325-4.687 1.546-.5.148-.658.319-.462.871.908 2.555 3.994 2.283 5.076 1.935a8.657 8.657 0 003.21-2.163c.634-.671 2.591.629 1.895 1.725a9.03 9.03 0 01-7.485 3.917 7.958 7.958 0 01-1.851-.214l.006.001zm.391-14.146c-1.757.6-2.059 3.8-1.681 4.842.318.87.968.776 2.328.313l1.385-.46a3.2 3.2 0 001.438-.812 2.176 2.176 0 00.066-1.7c-.437-1.477-1.239-2.382-2.469-2.382a3.289 3.289 0 00-1.073.198l.006.001zm15.235 13.084l-3.51-1.455a.083.083 0 01-.046-.111l.49-1.189c.09-.309.268-.585.512-.794a.838.838 0 01.87-.064c.339.112.558.44.533.795l-.007.044.026-.035a.969.969 0 011.235-.334c.726.3.873 1 .532 1.825l-.525 1.272a.082.082 0 01-.077.053.084.084 0 01-.039-.008l.006.001zm-.977-1.82l-.086.207a.039.039 0 00.023.055l.726.3c.025.011.041 0 .05-.024l.094-.227c.125-.3.051-.513-.184-.611a.566.566 0 00-.214-.048c-.169 0-.312.098-.418.347l.009.001zm-1.369-.538l-.076.182a.04.04 0 00.024.055l.529.219a.038.038 0 00.051-.025l.073-.177a.328.328 0 00-.16-.474.381.381 0 00-.144-.031c-.124-.001-.23.073-.302.25l.005.001zm-25.927.012l-.057-.028a2.195 2.195 0 01-1.093-1.5 1.815 1.815 0 01.456-1.834 2.475 2.475 0 012.123-.584 1.82 1.82 0 011.4 1.434c.133.47.073.974-.166 1.4-.17.3-.45.522-.782.618-.283.072-.417.018-.685-.277-.4-.493-.756-1.022-1.063-1.578a.138.138 0 00-.1-.077.136.136 0 00-.106.037.752.752 0 00-.173.823c.115.344.346.638.654.831a.135.135 0 01.057.064c-.008.055-.012.082-.012.1l-.331.529a.1.1 0 01-.09.049.136.136 0 01-.037-.008l.005.001zm.884-2.917a.145.145 0 00-.106.07.2.2 0 00.026.166c.193.344.405.678.634 1a.243.243 0 00.267.1c.13-.035.24-.12.309-.235.083-.151.1-.33.05-.494a.822.822 0 00-.38-.512l-.051-.028-.015-.007-.148-.058a1.041 1.041 0 00-.591-.003l.005.001zm28.978-.144l-3.71-.185a.128.128 0 01-.12-.133l.039-.781a.129.129 0 01.133-.126l2.957.147c.017 0 .03-.013.033-.03l.054-1.11a.13.13 0 01.134-.122l.593.03c.07.004.124.064.121.134l-.1 2.054a.13.13 0 01-.129.121l-.005.001zm-28.466-2.79a.91.91 0 01-.8-.751h-.011c-.206.482-.539.534-1 .45l-.448-.082a1.737 1.737 0 00-.472-.022.126.126 0 01-.138-.159l.146-.8a.124.124 0 01.116-.1c.11-.004.221.004.33.022l.538.1c.314.057.517.035.579-.305l.052-.287c0-.026-.009-.039-.035-.044l-1.294-.237a.13.13 0 01-.1-.154l.14-.769a.128.128 0 01.148-.1l3.7.675a.088.088 0 01.065.115l-.216 1.192a2.058 2.058 0 01-.383.946.907.907 0 01-.926.309l.009.001zm-.3-1.795l-.039.214a.39.39 0 00.365.482.351.351 0 00.471-.3l.042-.236c.005-.026 0-.043-.034-.049l-.757-.138h-.016c-.029-.004-.041.005-.041.026l.009.001zm25.024 1.456l-.228-.974c-.006-.025.012-.041.031-.056l1.118-.742-1.316-.151c-.033 0-.058-.014-.066-.051l-.209-.895c-.012-.052.034-.09.109-.074l2.359.468 1.53-.359a.078.078 0 01.1.048l.2.869a.08.08 0 01-.066.092l-1.529.359-1.881 1.488a.151.151 0 01-.087.037.068.068 0 01-.074-.06l.009.001zM4.024 10.175a.523.523 0 11.261.07.515.515 0 01-.27-.071l.009.001zm23.741-.405a.522.522 0 11.91-.511.522.522 0 01-.91.511zm-3.167-1.911l-.663-.573a.076.076 0 010-.11l1.008-1.169.634-2.272c.03-.1.088-.11.136-.069l.742.642c.019.017.013.04.008.062l-.46 1.236 1.131-.642a.064.064 0 01.082 0l.682.59c.04.035.025.091-.043.122l-2.143.994-1.007 1.169a.091.091 0 01-.067.033.057.057 0 01-.049-.014l.009.001zM6.962 7.323a2.243 2.243 0 01-.878-.8 2.281 2.281 0 01-.388-1 1.983 1.983 0 012.247-2.121c.34.06.643.25.845.53.162.243.156.387-.03.739a10.581 10.581 0 01-1.124 1.536.141.141 0 00-.039.117c.009.038.035.07.07.088a.75.75 0 00.833-.114c.285-.226.482-.544.559-.9a.141.141 0 01.041-.076l.1-.021.608.133a.11.11 0 01.084.1l-.007.064a2.191 2.191 0 01-1.039 1.535c-.32.232-.704.361-1.1.371-.274 0-.545-.062-.791-.182l.009.001zm.06-2.958a.821.821 0 00-.353.533l-.008.058v.175c.012.198.078.39.191.553.02.04.057.068.1.077a.194.194 0 00.146-.081c.26-.299.504-.611.73-.936a.246.246 0 00.006-.286.525.525 0 00-.429-.222.676.676 0 00-.392.128l.009.001zm13.8 1.19a1.853 1.853 0 01-1-.845 2.652 2.652 0 011.292-3.079 2.149 2.149 0 012.321.951 2.648 2.648 0 01-1.291 3.08 1.546 1.546 0 01-.488.077 2.175 2.175 0 01-.842-.185l.008.001zm.772-3.042c-.313.19-.548.487-.662.835a1.56 1.56 0 00-.134 1.08c.072.16.207.285.372.346a.619.619 0 00.493.009 1.981 1.981 0 00.794-1.909.632.632 0 00-.364-.349.689.689 0 00-.269-.058.594.594 0 00-.239.045l.009.001zm-9.969 2.848l-1.227-3.478a.127.127 0 01.072-.161l.914-.348a.145.145 0 01.149.038l1.669 1.8-.554-2.08a.129.129 0 01.091-.157l.655-.19a.131.131 0 01.16.083l.937 3.5a.133.133 0 01-.091.158s-.855.227-.917.238a.152.152 0 01-.143-.041l-1.533-1.692.67 2a.127.127 0 01-.073.161l-.618.235a.126.126 0 01-.162-.072l.001.006zm5.17-.74a1.338 1.338 0 01-.776-.277.115.115 0 01-.008-.174l.265-.361a.125.125 0 01.169-.028c.05.03.105.047.163.051.13.01.216-.082.23-.26l.239-2.955c.009-.07.07-.12.14-.115l.763.062c.069.006.12.066.114.135l-.222 2.758c-.01.17-.04.338-.092.5a.913.913 0 01-.9.672 67.715 67.715 0 01-.093-.009l.008.001z" stroke="none" fill="#FFF" fill-rule="nonzero" stroke-opacity="0"/></svg>