<svg xmlns="http://www.w3.org/2000/svg" xmlns:xlink="http://www.w3.org/1999/xlink" viewBox="0 0 30 30"><defs><style>.a{fill:none;}.b{clip-path:url(#a);}.c{fill:#2a2874;}.d{fill:#fff;}</style><clipPath id="a"><circle class="a" cx="15" cy="15" r="15"/></clipPath></defs><title>Greece</title><g class="b"><rect class="c" x="-2.05" y="26.93" width="53.15" height="3.37"/><rect class="d" x="-2.05" y="23.57" width="53.15" height="3.37"/><rect class="c" x="-2.05" y="20.2" width="53.15" height="3.37"/><rect class="d" x="-2.05" y="16.83" width="53.15" height="3.37"/><rect class="c" x="15.17" y="13.47" width="35.93" height="3.37"/><rect class="d" x="15.17" y="10.1" width="35.93" height="3.37"/><rect class="c" x="15.17" y="6.73" width="35.93" height="3.37"/><rect class="d" x="15.17" y="3.37" width="35.93" height="3.37"/><rect class="c" x="15.17" width="35.93" height="3.37"/><rect class="c" x="-2.05" width="6.89" height="6.73"/><rect class="d" x="-2.05" y="6.73" width="17.22" height="3.37"/><rect class="d" x="4.83" width="3.45" height="16.83"/><rect class="a" x="-2.05" width="53.15" height="30.3"/><rect class="c" x="8.28" width="6.89" height="6.73"/><rect class="c" x="-2.05" y="10.1" width="6.89" height="6.73"/><rect class="c" x="8.28" y="10.1" width="6.89" height="6.73"/></g></svg>