<svg viewBox="0 0 84.16 44.6" xmlns="http://www.w3.org/2000/svg"><g fill="#fff"><path d="m57.43 23.23v-.07h-.43a.58.58 0 0 0 .5.65h.12a.64.64 0 0 0 .69-.59.2.2 0 0 0 0-.11.5.5 0 0 0 -.36-.55.54.54 0 0 0 .29-.55.55.55 0 0 0 -.5-.61h-.1c-.43 0-.56.31-.55.69h.41v-.09c0-.1 0-.24.15-.24s.16.13.16.24c0 .26-.1.31-.36.31v.4c.27 0 .36.07.36.33s0 .33-.2.33a.18.18 0 0 1 -.18-.17"/><path d="m56.68 21.43h-1.26v.4h.63l-.73 1.94h.48z"/><path d="m54.44 22.51a.49.49 0 0 0 .32-.5.58.58 0 0 0 -.56-.61.58.58 0 0 0 -.61.56v.04a.49.49 0 0 0 .31.49.58.58 0 0 0 -.4.62.67.67 0 0 0 1.34 0 .57.57 0 0 0 -.4-.62m-.28-.75c.13 0 .15.16.15.25s0 .26-.15.26-.16-.16-.16-.25 0-.24.13-.24m0 1.65c-.16 0-.2-.22-.2-.33s0-.34.2-.34.2.22.2.34 0 .33-.2.33"/><path d="m52.86 21.43h-.67v.4h.22v1.94h.45z"/><path d="m26.64 21.43h-1v2.35h1v-.44h-.52v-.53h.45v-.43h-.45v-.51h.52z"/><path d="m31.17 23.22a.31.31 0 0 0 -.3.29.31.31 0 0 0 .3.3.29.29 0 0 0 .29-.3.29.29 0 0 0 -.28-.3"/><path d="m30.53 21.43h-1.31v.44h.4v1.91h.52v-1.91h.4z"/><path d="m28.51 22v-.45a.88.88 0 0 0 -.45-.11.63.63 0 0 0 -.67.61.16.16 0 0 0 0 .07.76.76 0 0 0 .47.7c.14.1.3.16.3.34a.27.27 0 0 1 -.27.26.65.65 0 0 1 -.38-.13v.45a.92.92 0 0 0 .43.11.68.68 0 0 0 .74-.63.17.17 0 0 0 0-.1c0-.63-.77-.66-.77-1a.23.23 0 0 1 .23-.23.67.67 0 0 1 .38.15"/><path d="m38 9.05c-2.3 0-6.46.15-8.31.22h-.94a.55.55 0 0 0 -.45.3c0 .1-.07.2-.07.2l-.03.23a.56.56 0 0 0 .19.51s.26.22.73.58c1.46 1.15 4.74 3.69 6.59 5.07-.69 2.2-1.85 6.18-2.36 8-.16.56-.25.9-.25.9a.54.54 0 0 0 .15.51l.17.14.18.12a.55.55 0 0 0 .54 0l.78-.51c1.54-1 5-3.37 6.85-4.71 1.88 1.34 5.32 3.67 6.86 4.71l.78.51a.55.55 0 0 0 .54 0l.18-.12.17-.14a.54.54 0 0 0 .15-.51s-.09-.35-.25-.9c-.51-1.79-1.67-5.77-2.36-8 1.85-1.38 5.13-3.92 6.59-5.07l.74-.58a.57.57 0 0 0 .18-.51l-.06-.21s0-.1-.07-.2a.57.57 0 0 0 -.45-.3h-.94c-1.85-.06-6-.2-8.3-.22-.74-2.21-2.15-6.07-2.78-7.86-.2-.55-.33-.87-.33-.87a.54.54 0 0 0 -.42-.34h-.43a.54.54 0 0 0 -.43.33s-.13.32-.33.87c-.64 1.8-2.05 5.66-2.81 7.85z"/></g><path d="m36.84 15.81-3 9.1s0 0 0 0l.16.09a0 0 0 0 0 0 0l7.75-5.63 7.77 5.63a0 0 0 0 0 0 0s0 0 0 0l-3-9.1 7.75-5.62s0 0 0 0a.22.22 0 0 1 0-.06.14.14 0 0 0 0-.05 0 0 0 0 0 0 0h-9.44l-2.96-9.27s0 0 0 0h-.11l-3 9.11h-9.61a0 0 0 0 0 0 0v.05.06a0 0 0 0 0 0 0z" fill="#d21113"/><g fill="#fff"><path d="m82.2 29.51a2 2 0 1 0 2 2 2 2 0 0 0 -2-2zm0 3.52a1.57 1.57 0 1 1 1.56-1.57 1.56 1.56 0 0 1 -1.56 1.54z"/><path d="m82.73 31.46a.54.54 0 0 0 .31-.53.6.6 0 0 0 -.61-.59h-1v2.11h.48v-.82h.19c.24 0 .38.06.45.29a3.27 3.27 0 0 0 .17.53h.53a1.93 1.93 0 0 1 -.2-.52.6.6 0 0 0 -.32-.47zm-.46-.25h-.39v-.49h.34c.15 0 .32.06.32.23a.25.25 0 0 1 -.26.26z"/><path d="m21.58 41.13a5.4 5.4 0 0 1 -2 1.33c-.67.21-2.57.38-3.14-1.19-.12-.34 0-.45.29-.54.46-.14 1.65-.49 2.9-1a15 15 0 0 0 2.47-1.15 1.08 1.08 0 0 0 .4-1.46 4.91 4.91 0 0 0 -5.6-3.1 5.1 5.1 0 0 0 -4.09 5 5.18 5.18 0 0 0 4.19 5.45 5.61 5.61 0 0 0 5.77-2.28c.41-.68-.77-1.48-1.19-1.06zm-5.4-2.4c-.24-.64-.05-2.61 1-3s1.84.2 2.18 1.35a1.3 1.3 0 0 1 0 1 1.88 1.88 0 0 1 -.89.5l-.85.29c-.84.28-1.24.34-1.44-.19z"/><path d="m49.48 41.13a5.45 5.45 0 0 1 -2 1.33c-.67.21-2.58.38-3.14-1.19-.12-.34 0-.45.29-.54.46-.14 1.64-.49 2.9-1a14.88 14.88 0 0 0 2.47-1.11 1.06 1.06 0 0 0 .4-1.46 4.9 4.9 0 0 0 -5.6-3.1 5.11 5.11 0 0 0 -4.09 5 5.18 5.18 0 0 0 4.16 5.36 5.6 5.6 0 0 0 5.77-2.28c.44-.63-.77-1.43-1.16-1.01zm-5.4-2.4a3.33 3.33 0 0 1 .14-1.95 1.59 1.59 0 0 1 .9-1 1.43 1.43 0 0 1 1.32 0 2.14 2.14 0 0 1 .87 1.3 1.34 1.34 0 0 1 0 1 1.89 1.89 0 0 1 -.89.5c-.37.14-.7.24-.86.29-.84.27-1.24.34-1.43-.19z"/><path d="m70.76 41.13a5.4 5.4 0 0 1 -2 1.33c-.66.21-2.57.38-3.13-1.19-.12-.34 0-.45.28-.54s1.65-.49 2.9-1a15 15 0 0 0 2.47-1.15 1.08 1.08 0 0 0 .4-1.46 4.91 4.91 0 0 0 -5.6-3.1 5.1 5.1 0 0 0 -4.09 5 5.18 5.18 0 0 0 4.16 5.36 5.61 5.61 0 0 0 5.77-2.28c.44-.59-.77-1.39-1.16-.97zm-5.4-2.4a3.41 3.41 0 0 1 .13-1.95 1.64 1.64 0 0 1 .91-1 1.43 1.43 0 0 1 1.32 0 2.09 2.09 0 0 1 .86 1.3 1.3 1.3 0 0 1 0 1 1.8 1.8 0 0 1 -.89.5c-.37.14-.7.24-.85.29-.85.27-1.24.34-1.44-.19z"/><path d="m8 41.7a1.06 1.06 0 0 1 -.44 1l-.68.3a.26.26 0 0 0 -.15.28.31.31 0 0 0 0 .1l.08.78c0 .21.18.24.45.24h4.92c.28 0 .43 0 .46-.24l.08-.78a.31.31 0 0 0 0-.1.28.28 0 0 0 -.15-.28l-.68-.3a1.09 1.09 0 0 1 -.45-1v-8.53a1.08 1.08 0 0 1 .45-1l.68-.31a.27.27 0 0 0 .15-.28.38.38 0 0 0 0-.1l-.08-.58c0-.21-.18-.24-.46-.24h-4.68c-.27 0-.42 0-.45.24l-.05.59a.38.38 0 0 0 0 .1.25.25 0 0 0 .15.28l.56.31c.31.18.34.59.34 1v2.38a.3.3 0 0 1 -.3.3h-2.75a.29.29 0 0 1 -.3-.3v-2.39c0-.4 0-.81.34-1l.55-.31a.28.28 0 0 0 .16-.28s0-.06 0-.1l-.08-.58c0-.21-.18-.24-.46-.24h-4.66c-.28 0-.42 0-.46.24l-.09.59s0 .07 0 .1a.28.28 0 0 0 .16.28l.68.31a1.06 1.06 0 0 1 .44 1v8.52a1 1 0 0 1 -.44 1l-.68.3a.28.28 0 0 0 -.16.28s0 .07 0 .1l.08.77c0 .21.18.24.46.24h4.93c.28 0 .42 0 .46-.24l.07-.77s0-.07 0-.1a.28.28 0 0 0 -.14-.28l-.68-.31a1 1 0 0 1 -.44-1v-3.46a.3.3 0 0 1 .3-.3h2.66a.3.3 0 0 1 .3.3z"/><path d="m27.4 32.11a1.78 1.78 0 1 1 -1.84-1.71h.07a1.75 1.75 0 0 1 1.77 1.71z"/><path d="m23.68 44.4c-.26 0-.4 0-.43-.23l-.08-.77a.38.38 0 0 1 0-.1.28.28 0 0 1 .15-.27l.53-.3a1 1 0 0 0 .42-.95v-4.87c0-.4-.07-.93-.42-1.1l-.34-.2a.27.27 0 0 1 -.16-.28.31.31 0 0 1 0-.1l.08-.58c0-.21.18-.25.46-.25h3.32a.3.3 0 0 1 .3.3v7.08a1 1 0 0 0 .42.95l.53.3a.26.26 0 0 1 .15.26.31.31 0 0 1 0 .1l-.07.77c0 .2-.17.24-.44.24z"/><path d="m33.74 34.93.53-.25a4.49 4.49 0 0 1 3-.53c.94.3 1.74 1 1.74 2.75v5.39c0 .23 0 .32.12.38s.39-.16.63-.28.38 0 .52.19a.5.5 0 0 1 .16.6 2.48 2.48 0 0 1 -2.33 1.32 2.06 2.06 0 0 1 -2.23-1.89.76.76 0 0 1 0-.15v-5.19a.9.9 0 0 0 -.8-1h-.22c-.68.08-1.17.64-1.17 1.65v3.88a1 1 0 0 0 .43 1l.52.3a.24.24 0 0 1 .15.26v.1l-.08.77c0 .2-.17.24-.44.24h-4.37c-.27 0-.4 0-.44-.24l-.08-.77a.33.33 0 0 1 0-.1.24.24 0 0 1 .14-.26l.53-.3a1 1 0 0 0 .42-1v-4.88c0-.41-.07-.93-.42-1.11l-.34-.2a.28.28 0 0 1 -.16-.28s0-.06 0-.1l.08-.58c0-.21.18-.24.46-.24h3.13a.43.43 0 0 1 .42.3z"/><path d="m76.73 34.93.52-.25a4.5 4.5 0 0 1 3-.53c.93.3 1.74 1 1.74 2.75v5.39c0 .23 0 .32.11.38s.4-.16.64-.28.37 0 .52.19a.51.51 0 0 1 .15.6 2.48 2.48 0 0 1 -2.33 1.32 2.06 2.06 0 0 1 -2.23-1.89.76.76 0 0 1 0-.15v-5.19a.9.9 0 0 0 -.8-1h-.22c-.67.08-1.16.64-1.16 1.65v3.88a1 1 0 0 0 .42 1l.53.3a.24.24 0 0 1 .14.26.33.33 0 0 1 0 .1l-.08.77c0 .2-.17.24-.44.24h-4.4c-.26 0-.4 0-.43-.24l-.08-.77a.31.31 0 0 1 0-.1.25.25 0 0 1 .15-.26l.53-.3a1 1 0 0 0 .42-1v-4.88c0-.41-.07-.93-.42-1.11l-.34-.2a.26.26 0 0 1 -.16-.28s0-.06 0-.1l.08-.58c0-.21.18-.24.46-.24h3.13a.41.41 0 0 1 .41.3z"/><path d="m60.78 41.92a2.2 2.2 0 0 0 .81.82l.53.29a.28.28 0 0 1 .15.27s0 .07 0 .1l-.08.77c0 .2-.17.23-.43.23h-2.67c-.46 0-.49-.13-.7-.5l-2.23-4.06-.83.8v1.15a1.06 1.06 0 0 0 .48 1l.53.3a.25.25 0 0 1 .15.26.31.31 0 0 1 0 .1l-.07.77c0 .2-.18.24-.44.24h-4.4c-.27 0-.4 0-.44-.24l-.08-.77v-.1a.24.24 0 0 1 .14-.26l.53-.3a1.07 1.07 0 0 0 .43-1v-8.72a1 1 0 0 0 -.43-1l-.53-.3a.25.25 0 0 1 -.14-.27v-.1l.08-.55c0-.2.17-.23.44-.23h3.19a.57.57 0 0 1 .57.57v6.61l1.42-1.28c.2-.17.53-.46.66-.59s.16-.32 0-.4l-.5-.23a.23.23 0 0 1 -.14-.25.31.31 0 0 1 0-.1l.07-.7c0-.19.16-.22.42-.22h3.82c.25 0 .39 0 .42.22l.07.7a.31.31 0 0 1 0 .1c0 .15-.17.22-.28.27a3 3 0 0 0 -.52.22 5.37 5.37 0 0 0 -.84.65l-1.48 1.42z"/></g></svg>