<svg xmlns="http://www.w3.org/2000/svg" xmlns:xlink="http://www.w3.org/1999/xlink" viewBox="0 0 30 30"><defs><style>.a{fill:none;}.b{clip-path:url(#a);}.c{fill:#fff;}.d{fill:#ef943d;}.e{fill:#3e8941;}.f{clip-path:url(#b);}.g{fill:#2a2874;}.h{clip-path:url(#c);}.i{fill:#ca2127;}</style><clipPath id="a"><circle class="a" cx="15" cy="15" r="15"/></clipPath><clipPath id="b"><rect class="a" x="-11" y="-0.24" width="52.01" height="30.48"/></clipPath><clipPath id="c"><circle class="a" cx="-35" cy="15" r="15"/></clipPath></defs><title>India</title><g class="b"><rect class="c" x="-11" y="9.92" width="52.01" height="10.16"/><rect class="d" x="-11" y="-0.24" width="52.01" height="10.16"/><rect class="e" x="-11" y="20.08" width="52.01" height="10.16"/><g class="f"><path class="g" d="M15,10.43A4.57,4.57,0,1,0,19.55,15,4.56,4.56,0,0,0,15,10.43m0,.44-.12,2.3L15,14.48l.12-1.31L15,10.87l.34,0v0a.19.19,0,0,0,.19.19.2.2,0,0,0,.19-.16l.33.07-.7,2.19-.23,1.3.46-1.24L16.07,11l.33.1a.14.14,0,0,0,0,.07.2.2,0,0,0,.19.19.17.17,0,0,0,.17-.12l.31.16-1.24,1.93-.55,1.2L16,13.48l1-2.05.29.18a.19.19,0,0,0,0,.12.19.19,0,0,0,.18.19.19.19,0,0,0,.16-.08l.25.24-1.7,1.54-.83,1,1-.84,1.53-1.7a2.73,2.73,0,0,1,.23.25.21.21,0,0,0-.07.15.19.19,0,0,0,.19.19.21.21,0,0,0,.11,0,2.29,2.29,0,0,1,.18.29l-2,1.05-1.07.76,1.19-.55,1.92-1.25.17.33a.17.17,0,0,0-.12.17.2.2,0,0,0,.19.19h.07a2.81,2.81,0,0,1,.1.31l-2.24.48-1.23.46,1.29-.23,2.18-.7c0,.11.05.22.07.33a.2.2,0,0,0-.16.19.19.19,0,0,0,.19.19h0c0,.11,0,.23,0,.35l-2.29-.12-1.3.12,1.3.12L19.11,15c0,.11,0,.23,0,.34h0a.2.2,0,0,0-.19.19.19.19,0,0,0,.16.19c0,.11,0,.22-.07.33l-.78-.25-1.4-.45-1.29-.23h0l1.23.45,2.24.48a3.19,3.19,0,0,1-.11.33h-.07a.18.18,0,0,0-.18.19.17.17,0,0,0,0,.07h0a.22.22,0,0,0,.05.08h0s0,0,0,0a3,3,0,0,1-.16.31l-1.92-1.25h0l-1.19-.55h0l.62.45.45.31h0l2,1.05-.18.29a.2.2,0,0,0-.11,0,.18.18,0,0,0-.19.19.15.15,0,0,0,.07.14l-.23.25-1.53-1.7-1-.84.83,1,1.7,1.54a2.73,2.73,0,0,1-.25.23.16.16,0,0,0-.12,0,.18.18,0,0,0-.18.19.25.25,0,0,0,0,.08l-.3.19-1-2-.76-1.08h0l.55,1.2,1.24,1.93c-.1.05-.2.11-.3.15a.2.2,0,0,0-.17-.11.19.19,0,0,0-.19.19.15.15,0,0,0,0,.07l-.33.1-.48-2.24-.46-1.24h0l.23,1.3.7,2.19-.34.07a.18.18,0,0,0-.18-.16.19.19,0,0,0-.19.19v0l-.35,0,.12-2.3L15,15.52l-.12,1.31.12,2.3-.36,0v0a.2.2,0,0,0-.19-.19.19.19,0,0,0-.19.16L13.94,19l.71-2.19.22-1.3-.46,1.24L13.93,19l-.33-.1a.14.14,0,0,0,0-.07.2.2,0,0,0-.19-.19.18.18,0,0,0-.17.12L13,18.58l1.24-1.93.55-1.2L14,16.52l-1,2.05a2.9,2.9,0,0,1-.29-.19.2.2,0,0,0,0-.11.19.19,0,0,0-.18-.19.2.2,0,0,0-.15.07,2.73,2.73,0,0,1-.25-.23l1.7-1.54.83-1h0l-1,.84-1.54,1.7a2.73,2.73,0,0,1-.23-.25.21.21,0,0,0,.07-.15.19.19,0,0,0-.19-.19.21.21,0,0,0-.11,0,1.75,1.75,0,0,1-.18-.29l2-1.05,1.07-.76-1.19.55-1.92,1.25c-.06-.1-.11-.2-.16-.3a.19.19,0,0,0,.13-.18.2.2,0,0,0-.19-.19l-.08,0a3.38,3.38,0,0,1-.11-.34l2.24-.48,1.23-.46-1.29.23-2.18.7c0-.11,0-.22-.07-.33a.2.2,0,0,0,.16-.19.19.19,0,0,0-.19-.19h0c0-.11,0-.23,0-.34l2.29.11,1.3-.12-1.3-.12L10.89,15c0-.12,0-.24,0-.35h0a.19.19,0,0,0,.19-.19.19.19,0,0,0-.17-.19c0-.11,0-.22.07-.33l2.18.7,1.29.23-1.23-.46L11,13.93a3.19,3.19,0,0,1,.11-.33h.07a.18.18,0,0,0,.18-.19.18.18,0,0,0-.11-.17,3,3,0,0,1,.16-.31l1.92,1.25,1.19.55L13.48,14l-2-1.05a2.82,2.82,0,0,1,.18-.29.21.21,0,0,0,.12,0,.19.19,0,0,0,.18-.19.2.2,0,0,0-.07-.15,2.73,2.73,0,0,1,.23-.25l1.53,1.7,1,.84-.83-1-1.7-1.54.25-.23a.21.21,0,0,0,.15.07.2.2,0,0,0,.19-.19.21.21,0,0,0,0-.11l.29-.19,1,2.05.76,1.07-.54-1.2L13,11.42l.3-.15a.19.19,0,0,0,.37-.07.19.19,0,0,0,0-.08l.33-.1.48,2.24.46,1.24-.22-1.3L13.94,11l.34-.07a.19.19,0,0,0,.19.16.19.19,0,0,0,.18-.19v0l.35,0"/><path class="c" d="M15,14.32a.68.68,0,0,1,.69.68.69.69,0,1,1-1.37,0,.68.68,0,0,1,.68-.68"/><path class="g" d="M15,14.47a.53.53,0,0,1,.53.53.53.53,0,0,1-1.06,0,.53.53,0,0,1,.53-.53"/></g><rect class="a" x="-11" y="-0.24" width="52.01" height="30.48"/></g><g class="h"><rect class="i" x="-49.9" width="52.35" height="30"/><rect class="a" x="-49.9" width="52.35" height="30"/></g></svg>