<svg xmlns="http://www.w3.org/2000/svg" xmlns:xlink="http://www.w3.org/1999/xlink" viewBox="0 0 30 30"><defs><style>.a{fill:none;}.b{clip-path:url(#a);}.c{fill:#488a40;}.d{fill:#f0da28;}</style><clipPath id="a"><circle class="a" cx="15" cy="15" r="15"/></clipPath></defs><title>Jamaica</title><g class="b"><polygon class="c" points="-6.41 30 36.41 30 15 17.8 -6.41 30"/><polygon class="c" points="36.41 0 -6.41 0 15 12.21 36.41 0"/><polygon points="-11.31 27.2 10.1 15 -11.31 2.79 -11.31 27.2"/><polygon points="41.31 27.2 41.31 2.79 19.9 15 41.31 27.2"/><polygon class="d" points="-11.31 30 -11.31 30 -6.41 30 15 17.8 36.41 30 41.31 30 15 15 -11.31 30"/><polygon class="d" points="36.41 0 15 12.21 -6.41 0 -11.31 0 15 15 41.31 0 36.41 0"/><polygon class="d" points="41.31 0 15 15 41.31 30 41.31 27.2 19.9 15 41.31 2.79 41.31 0"/><polygon class="d" points="-11.31 2.79 10.1 15 -11.31 27.2 -11.31 30 15 15 -11.31 0 -11.31 2.79"/></g></svg>