<svg xmlns="http://www.w3.org/2000/svg" xmlns:xlink="http://www.w3.org/1999/xlink" viewBox="0 0 30 30"><defs><style>.a{fill:none;}.b{clip-path:url(#a);}.c{clip-path:url(#b);}.d{fill:#fff;}.e{fill:#e53733;}.f{fill:#419e47;}</style><clipPath id="a"><circle class="a" cx="15" cy="15" r="15"/></clipPath><clipPath id="b"><rect class="a" x="-11.5" y="-0.09" width="53" height="30.18"/></clipPath></defs><title>Libanon</title><g class="b"><g class="c"><rect class="d" y="7.46" width="30" height="15.09"/><rect class="e" y="22.54" width="30" height="7.54"/><rect class="e" width="30" height="7.46"/><g class="c"><path class="f" d="M14.79,7.46l-.25.41a3.14,3.14,0,0,1-.75.75,4.09,4.09,0,0,0-.73.63l-.24.28.25-.07a3.34,3.34,0,0,0,.4-.12c.09,0,.15,0,.15,0h0v0a1.8,1.8,0,0,1-.82.62,2.34,2.34,0,0,0-.88.62h0a.39.39,0,0,0,.27,0c.21,0,.3,0,.37.13s0,.32-.2.32a.94.94,0,0,0-.79.54c0,.17-.21.31-.56.47a4.38,4.38,0,0,0-1.38.9v0c0,.21.49.2,1.2,0,.16,0,.23,0,.35.27s.14.33-.2.77a1.18,1.18,0,0,1-.68.5c-.46.1-.6.19-1.2.77a3.12,3.12,0,0,1-.63.51H8.41a.92.92,0,0,0,.54.26,1.85,1.85,0,0,0,.7-.32c.45-.31.47-.32.65-.14a.7.7,0,0,1,.19.43c0,.21-.12.3-.7.59a5.54,5.54,0,0,0-1.34,1c-.54.52-.69.62-.92.58a.89.89,0,0,0-.25,0h0s.05.08.14.17a.64.64,0,0,0,.42.16,6.12,6.12,0,0,0,2.11-.76.91.91,0,0,1,1-.16c.46.27-.31.81-1.77,1.23a10.12,10.12,0,0,0-1.06.35h0s0,.13.07.21.92.21,1.57,0c.27-.08.92-.34,1.45-.57,1-.43,1-.43,1.31-.26.79.4.72,1.11-.23,2.27a2.34,2.34,0,0,1-1.44.88c-.25.06-.75.53-.75.69v0h.17a.4.4,0,0,0,.12-.11A1.38,1.38,0,0,1,11.46,22a2.47,2.47,0,0,0,1.46-.64c.37-.35.75-.45,1-.28a.52.52,0,0,0,.49,0q.51-.19.51.18a.48.48,0,0,0,.28.35,5.07,5.07,0,0,1,.62.47c.14.14.24.2.29.2h0a.68.68,0,0,0-.14-.33.4.4,0,0,1-.09-.25h0a3.29,3.29,0,0,1,.72,0,1.15,1.15,0,0,1,1,.51,1.41,1.41,0,0,0,.44.37h.24a.17.17,0,0,0,.1-.08h0a5.11,5.11,0,0,0-.81-.74,2.22,2.22,0,0,1-1.13-2.19c0-.66,0-.83.19-1s.38-.26,1,.05c.45.23.59.25,1.63.23s1.15,0,1.71.3c.31.18.69.42.85.54.34.25.7.27.78,0s-.56-.81-1.8-1.45-1.36-.82-.79-1.11c.32-.17.35-.16.86.12a1.11,1.11,0,0,0,.86.21l.33-.07-.74-.59a9.46,9.46,0,0,1-.87-.76,1.33,1.33,0,0,0-1-.47.78.78,0,0,1-.43-.09h0c-.12-.2.23-.29,1.2-.33,1.3,0,1.48-.2.58-.48a12.08,12.08,0,0,0-1.2-.32c-.36-.08-.56-.16-.61-.26s0,0,0,0,0,0,0,0a.18.18,0,0,1,.05-.11c.07-.06.36-.06.86,0s.86.11.92,0-.2-.25-.77-.56a7.64,7.64,0,0,1-1.47-1,4.84,4.84,0,0,0-1-.72c-.31-.14-.42-.24-.38-.36s.57-.2.9,0a1.83,1.83,0,0,0,.76.14h.52l-.35-.14a5.61,5.61,0,0,1-1.36-.94h0a1.56,1.56,0,0,1,.52,0l.52,0-.75-.56a3.08,3.08,0,0,0-1.28-.68L16,8.93A2.13,2.13,0,0,1,15,7.86Zm-1.72,2.86h0a.25.25,0,0,1,.2.06h0v0h0a.73.73,0,0,1-.25.26.35.35,0,0,1-.17.1h0a.4.4,0,0,1,0-.2c0-.21,0-.27.21-.27m2.54.25h0c.15,0,.25.07.27.18s0,.18-.27.18-.21,0-.25,0a.16.16,0,0,1,0-.13.24.24,0,0,1,.26-.18m-.74.06c.13,0,.18.07.18.23s-.07.25-.43.34a1.47,1.47,0,0,1-.47.06h0c-.13-.13,0-.3.29-.45a1.37,1.37,0,0,1,.43-.17m1.71,0c.19,0,.21.08.12.33a.32.32,0,0,1-.29.17c-.19,0-.23-.05-.2-.23s.1-.24.29-.27h.08m-2.89.5h0c.23,0,.09.42-.2.61s-.54.25-.62.18h0v0h0c0-.23.56-.72.83-.74m2.15,1c.11,0,.18.11.14.32s-.13.2-.29.22-.2,0-.23,0h0c0-.06,0-.17.18-.34a.36.36,0,0,1,.21-.16m-.85.05h0c.22,0,.26.19.06.3l-.21.1h0l-.27-.09-.23-.08.26-.12a1.3,1.3,0,0,1,.39-.11m1.84.23a1,1,0,0,1,.33.06c.19.08.23.15.2.37s-.22.32-.77.15c-.27-.09-.3-.13-.21-.3a.51.51,0,0,1,.45-.28m-4.08.07h0c.4,0,.45.07.26.32a2.54,2.54,0,0,1-.28.29c-.13.1-.17.09-.26-.08s-.13-.34-.08-.42.15-.1.34-.11m-1.05.18c.17,0,.27.07.41.3l.19.32-.29.11c-.26.1-.3.08-.52-.22s-.19-.31-.15-.39v0h0a.48.48,0,0,1,.3-.09h0m6.3,1a.31.31,0,0,1,.36.33c0,.26-.34.34-.58.15s-.15-.16,0-.33A.35.35,0,0,1,18,13.6m-3.58.5h.11a.25.25,0,0,1,0,.18c0,.28-.23.36-.31.14s0-.35.17-.36m-1.19.21a.57.57,0,0,1,.34.15.32.32,0,0,1,.13.2v0h0c-.05,0-.17,0-.3-.07a.61.61,0,0,1-.21-.25h0a.09.09,0,0,1,.08-.09m1.9,0s.07,0,.14.11a1,1,0,0,1,.21.37c.08.28-.05.4-.31.27a.38.38,0,0,1-.18-.6c.06-.1.1-.14.14-.15m.66.39c.07,0,.17.09.19.26a.27.27,0,0,1,0,.22h0c-.14,0-.22-.12-.22-.34s0-.15.08-.15m-4.17.41a1.73,1.73,0,0,1,.35,0,.49.49,0,0,1,.26.11l0,0v0c0,.08-.14.18-.35.29a3.44,3.44,0,0,1-.68.24c-.32.06-.37,0-.5-.24a2.3,2.3,0,0,1-.15-.36h0a3,3,0,0,1,1-.13m6.47.92c.37,0,.58.23.17.53a.74.74,0,0,1-.88,0c-.18-.13-.17-.15.14-.36a1.07,1.07,0,0,1,.57-.19m1.37.28h0a.67.67,0,0,1,.29.15c.18.14.18.15-.05.41s-.23.24-.27.24h0l-.37,0c-.18,0-.3-.1-.3-.19v0a1.34,1.34,0,0,1,.7-.54m-6.87.41h.07c.25,0,.4.21.4.58s-.32.47-.47-.05-.14-.52,0-.53m2,.15a1.31,1.31,0,0,1,.58.13h0a1.38,1.38,0,0,1-.22.35l-.23.3-.11-.38a1.45,1.45,0,0,1-.09-.4h.07m-1,.16.13,0a.29.29,0,0,1,.26.22.39.39,0,0,1,0,.26v0h-.07c-.06,0-.15-.08-.22-.23s-.12-.25-.1-.29h0"/></g></g></g></svg>