<svg xmlns="http://www.w3.org/2000/svg" xmlns:xlink="http://www.w3.org/1999/xlink" viewBox="0 0 30 30"><defs><style>.a{fill:none;}.b{clip-path:url(#a);}.c{fill:#2d2f77;}.d{fill:#fff;}.e{fill:#bd1f37;}</style><clipPath id="a"><circle class="a" cx="15" cy="15" r="15"/></clipPath></defs><title>New Zealand</title><g class="b"><polygon class="c" points="18.75 -0.15 18.75 0.81 18.75 1.14 18.75 1.29 12.89 4.17 18.75 4.17 18.75 5.04 18.75 6.34 18.75 7.63 18.75 8.5 12.89 8.5 18.75 11.38 18.75 11.87 18.75 12.83 18.75 12.91 16.95 12.91 16.27 12.91 15.96 12.91 7.73 8.87 7.73 12.91 6.85 12.91 5.53 12.91 4.21 12.91 3.32 12.91 3.32 8.87 -4.91 12.91 -5.89 12.91 -7.69 12.91 -7.69 30.14 45.17 30.14 45.17 -0.15 18.75 -0.15"/><polygon class="c" points="7.73 -0.15 7.73 3.8 15.79 -0.15 7.73 -0.15"/><polygon class="c" points="3.32 -0.15 -4.73 -0.15 3.32 3.8 3.32 -0.15"/><polygon class="d" points="18.74 -0.15 9.93 4.17 7.96 4.17 16.77 -0.15 15.79 -0.15 7.73 3.8 7.73 -0.15 6.85 -0.15 6.85 4.24 6.85 4.72 6.85 5.04 8.17 5.04 10.14 5.04 10.81 5.04 11.12 5.04 18.75 5.04 18.75 4.17 12.89 4.17 18.75 1.29 18.75 1.14 18.75 0.81 18.75 -0.15 18.74 -0.15"/><polygon class="d" points="3.32 -0.15 3.32 3.8 -4.73 -0.15 -7.69 -0.15 1.12 4.17 -0.85 4.17 -7.69 0.81 -7.69 1.3 -1.83 4.17 -7.69 4.17 -7.69 5.04 -0.07 5.04 0.91 5.04 2.88 5.04 4.21 5.04 4.21 4.72 4.21 4.39 4.21 4.24 4.21 -0.15 3.32 -0.15"/><polygon class="d" points="10.14 7.63 8.17 7.63 6.85 7.63 6.85 7.95 6.85 8.28 6.85 8.44 6.85 12.91 7.73 12.91 7.73 8.87 15.96 12.91 16.27 12.91 16.95 12.91 18.75 12.91 18.75 12.83 9.93 8.5 11.9 8.5 18.75 11.87 18.75 11.38 12.89 8.5 18.75 8.5 18.75 7.63 11.12 7.63 10.14 7.63"/><polygon class="d" points="2.88 7.63 0.91 7.63 0.24 7.63 -0.07 7.63 -7.69 7.63 -7.69 8.5 -1.83 8.5 -7.69 11.38 -7.69 12.83 1.12 8.5 3.09 8.5 -5.89 12.91 -4.91 12.91 3.32 8.87 3.32 12.91 4.21 12.91 4.21 8.44 4.21 7.95 4.21 7.63 2.88 7.63"/><polygon class="e" points="1.12 8.5 -7.69 12.83 -7.69 12.91 -5.89 12.91 3.09 8.5 1.12 8.5"/><polygon class="e" points="-7.69 0.81 -0.85 4.17 1.12 4.17 -7.69 -0.15 -7.69 0.81"/><polygon class="e" points="18.74 -0.15 16.77 -0.15 7.96 4.17 9.93 4.17 18.74 -0.15"/><polygon class="e" points="9.93 8.5 18.75 12.83 18.75 11.87 11.9 8.5 9.93 8.5"/><polygon class="e" points="4.21 -0.15 4.21 4.24 4.21 4.39 4.21 4.72 4.21 5.04 2.88 5.04 0.91 5.04 -0.07 5.04 -7.69 5.04 -7.69 7.63 -0.07 7.63 0.24 7.63 0.91 7.63 2.88 7.63 4.21 7.63 4.21 7.95 4.21 8.44 4.21 12.91 5.53 12.91 6.85 12.91 6.85 8.44 6.85 8.28 6.85 7.95 6.85 7.63 8.17 7.63 10.14 7.63 11.12 7.63 18.75 7.63 18.75 6.34 18.75 5.04 11.12 5.04 10.81 5.04 10.14 5.04 8.17 5.04 6.85 5.04 6.85 4.72 6.85 4.24 6.85 -0.15 4.21 -0.15"/><polygon class="d" points="29 8.69 30.44 8.69 30.88 7.34 31.32 8.69 32.76 8.69 31.6 9.51 32.04 10.86 30.88 10.03 29.72 10.86 30.16 9.51 29 8.69"/><polygon class="e" points="29.64 8.89 30.59 8.89 30.88 8 31.17 8.89 32.12 8.89 31.36 9.44 31.65 10.33 30.88 9.78 30.11 10.33 30.41 9.44 29.64 8.89"/><polygon class="d" points="23.26 14.36 24.69 14.36 25.14 13.02 25.58 14.36 27.02 14.36 25.86 15.19 26.3 16.53 25.14 15.71 23.98 16.53 24.42 15.19 23.26 14.36"/><polygon class="e" points="23.89 14.57 24.84 14.57 25.14 13.68 25.43 14.57 26.38 14.57 25.61 15.12 25.91 16 25.14 15.46 24.37 16 24.66 15.12 23.89 14.57"/><polygon class="d" points="28.79 23.27 30.39 23.27 30.88 21.78 31.37 23.27 32.97 23.27 31.68 24.2 32.17 25.69 30.88 24.77 29.59 25.69 30.09 24.2 28.79 23.27"/><polygon class="e" points="29.5 23.5 30.56 23.5 30.88 22.52 31.21 23.5 32.26 23.5 31.41 24.11 31.73 25.1 30.88 24.49 30.03 25.1 30.36 24.11 29.5 23.5"/><rect class="a" x="-7.69" y="-0.15" width="52.85" height="30.29"/></g></svg>