<svg xmlns="http://www.w3.org/2000/svg" xmlns:xlink="http://www.w3.org/1999/xlink" viewBox="0 0 30 30"><defs><style>.a{fill:none;}.b{clip-path:url(#a);}.c{fill:#fff;}.d{fill:#4165af;}.e{fill:#c01f3f;}</style><clipPath id="a"><circle class="a" cx="15" cy="15" r="15"/></clipPath></defs><title>Panama</title><g class="b"><rect class="c" x="14.95" y="15" width="25.65" height="15"/><rect class="c" x="-10.87" width="25.82" height="15"/><polygon class="d" points="6.66 3.75 5.49 7.32 7.28 7.9 6.66 3.75"/><polygon class="d" points="6.66 3.75 7.82 7.32 6.03 7.9 6.66 3.75"/><polygon class="d" points="10.24 6.34 6.47 6.34 6.47 8.22 10.24 6.34"/><polygon class="d" points="10.24 6.34 7.19 8.55 6.08 7.03 10.24 6.34"/><polygon class="d" points="3.07 6.34 6.12 8.55 7.23 7.03 3.07 6.34"/><polygon class="d" points="3.07 6.34 6.84 6.34 6.84 8.22 3.07 6.34"/><polygon class="d" points="8.87 10.53 7.71 6.97 5.92 7.55 8.87 10.53"/><polygon class="d" points="8.87 10.53 5.82 8.33 6.93 6.81 8.87 10.53"/><polygon class="d" points="4.44 10.53 7.49 8.33 6.38 6.81 4.44 10.53"/><polygon class="d" points="4.44 10.53 5.61 6.97 7.4 7.55 4.44 10.53"/><rect class="d" x="-10.87" y="15" width="25.82" height="15"/><rect class="e" x="14.95" width="25.65" height="15"/><polygon class="e" points="23.24 18.75 22.07 22.32 23.86 22.9 23.24 18.75"/><polygon class="e" points="23.24 18.75 24.4 22.32 22.61 22.9 23.24 18.75"/><polygon class="e" points="26.82 21.34 23.05 21.34 23.05 23.22 26.82 21.34"/><polygon class="e" points="26.82 21.34 23.77 23.55 22.66 22.03 26.82 21.34"/><polygon class="e" points="19.66 21.34 22.7 23.55 23.81 22.03 19.66 21.34"/><polygon class="e" points="19.66 21.34 23.42 21.34 23.42 23.22 19.66 21.34"/><polygon class="e" points="25.45 25.53 24.29 21.97 22.5 22.55 25.45 25.53"/><polygon class="e" points="25.45 25.53 22.4 23.33 23.51 21.81 25.45 25.53"/><polygon class="e" points="21.02 25.53 24.07 23.33 22.96 21.81 21.02 25.53"/><polygon class="e" points="21.02 25.53 22.19 21.97 23.98 22.55 21.02 25.53"/><rect class="a" x="-10.87" width="51.64" height="30"/></g></svg>