<svg xmlns="http://www.w3.org/2000/svg" xmlns:xlink="http://www.w3.org/1999/xlink" viewBox="0 0 30 30"><defs><style>.a{fill:none;}.b{clip-path:url(#a);}.c{fill:#fff;}.d{fill:#2f3e98;}.e{fill:#bc1f34;}</style><clipPath id="a"><circle class="a" cx="15" cy="15" r="15"/></clipPath></defs><title>Paraguay</title><g class="b"><rect class="c" x="-10.78" y="10.07" width="51.57" height="10.07"/><rect class="d" x="-10.75" y="20.14" width="51.54" height="10.07"/><rect class="e" x="-10.75" width="51.54" height="10.07"/><path class="c" d="M18.82,15.08A3.82,3.82,0,1,1,15,11.23a3.83,3.83,0,0,1,3.82,3.85Z"/><path d="M15,19a3.92,3.92,0,1,1,3.88-3.92A3.91,3.91,0,0,1,15,19Zm0-7.71a3.79,3.79,0,1,0,3.76,3.79A3.78,3.78,0,0,0,15,11.29Z"/><path class="e" d="M15,11.78a3.3,3.3,0,1,0,3.28,3.3A3.29,3.29,0,0,0,15,11.78Zm0,5.78a2.48,2.48,0,1,1,2.46-2.48A2.47,2.47,0,0,1,15,17.56Z"/></g></svg>