<svg xmlns="http://www.w3.org/2000/svg" xmlns:xlink="http://www.w3.org/1999/xlink" viewBox="0 0 30 30"><defs><style>.a{fill:none;}.b{clip-path:url(#a);}.c{fill:#fff;}.d{fill:#f3d02f;}.e{clip-path:url(#b);}.f{fill:#2f3e98;}.g{fill:#bc1f34;}</style><clipPath id="a"><circle class="a" cx="15" cy="15" r="15"/></clipPath><clipPath id="b"><rect class="a" x="-0.62" y="-0.28" width="50.94" height="30.23"/></clipPath></defs><title>Philippines</title><g class="b"><polygon class="c" points="-0.24 -0.28 -0.24 29.95 25.63 14.83 -0.24 -0.28"/><polygon class="d" points="2.87 27.04 1.72 26.36 0.74 27.27 1.02 25.95 -0.14 25.28 1.19 25.14 1.46 23.81 1.99 25.05 3.32 24.9 2.32 25.8 2.87 27.04"/><path class="d" d="M6.36,12.1l-1-1.7-.56-.06,1.33,1.91Zm-.75.77-2-1.59-.07-.93.82,0L6,12.41Zm-.31.36-1.68-1-.07-.56L5.45,13Z"/><path class="d" d="M8.75,11.75l.51-1.89-.35-.45-.41,2.3Zm-1.07,0-.31-2.6.6-.7.6.58-.29,2.68Zm-.47,0-.5-1.89.35-.45.4,2.31Z"/><path class="d" d="M10.69,13.27l1.69-.94.08-.56-1.92,1.29ZM10,12.48l1.62-2,.91-.05v.83l-2.1,1.66Zm-.35-.32,1-1.68.56-.05L9.8,12.32Z"/><path class="d" d="M11,15.64l1.86.51.44-.35L11,15.38Zm0-1.09,2.55-.32.69.61-.57.61L11,15.16Zm0-.48,1.85-.51.44.35L11,14.32Z"/><path class="d" d="M9.58,17.56l1,1.69.55.06L9.78,17.4Zm.75-.78,2,1.59.08.92-.82,0-1.7-2.09Zm.31-.36,1.68.95.07.57-1.91-1.32Z"/><path class="d" d="M7.19,17.92,6.7,19.81l.35.45L7.45,18Zm1.07,0,.33,2.6-.59.7-.6-.57L7.67,18Zm.48,0,.51,1.89-.34.45-.43-2.31Z"/><path class="d" d="M5.26,16.44l-1.67,1L3.52,18l1.89-1.33Zm.75.77L4.42,19.26l-.91.07,0-.84L5.57,16.8Zm.36.32-1,1.69-.55.07,1.32-1.92Z"/><path class="d" d="M4.93,14.05l-1.86-.5-.44.35,2.27.4Zm0,1.09-2.54.33-.7-.6.56-.61,2.65.27Zm0,.48-1.86.52-.44-.35,2.26-.43Z"/><g class="e"><path class="d" d="M8,11.64a3.19,3.19,0,1,1-3.13,3.19A3.17,3.17,0,0,1,8,11.64"/><polygon class="d" points="18.75 15.93 19.54 14.83 18.75 13.74 20.01 14.17 20.79 13.06 20.78 14.42 22.05 14.83 20.78 15.24 20.79 16.6 20.01 15.5 18.75 15.93"/><polygon class="d" points="2.87 2.29 1.72 2.98 0.74 2.06 1.02 3.39 -0.14 4.06 1.19 4.19 1.46 5.52 1.99 4.28 3.32 4.43 2.32 3.53 2.87 2.29"/></g><rect class="a" x="-0.62" y="-0.28" width="50.94" height="30.23"/><polygon class="f" points="-0.23 -0.28 25.64 14.83 50.72 14.83 50.72 -0.28 -0.23 -0.28"/><polygon class="g" points="-0.23 29.95 25.64 14.83 50.72 14.83 50.72 29.95 -0.23 29.95"/></g></svg>