<svg xmlns="http://www.w3.org/2000/svg" xmlns:xlink="http://www.w3.org/1999/xlink" viewBox="0 0 30 30"><defs><style>.a{fill:none;}.b{clip-path:url(#a);}.c{clip-path:url(#b);}.d{fill:#e81e25;}.e{fill:#2d6a34;}.f{fill:#f3ea32;}.g{fill:#fff;}.h{fill:#2d2d86;}</style><clipPath id="a"><circle class="a" cx="15" cy="15" r="15"/></clipPath><clipPath id="b"><rect class="a" x="-5.27" y="-0.06" width="52.83" height="30.12"/></clipPath></defs><title>Portugal</title><g class="b"><g class="c"><rect class="d" x="13.21" y="-0.06" width="16.79" height="30.12"/><rect class="e" y="-0.06" width="13.21" height="30.12"/><g class="c"><path class="f" d="M13.22,12.68a22.38,22.38,0,0,0,6.86-.95l-.36-.57c-1,.53-3.87.88-6.52.93-3.13,0-5.35-.31-6.46-1l-.33.6a17.19,17.19,0,0,0,6.81,1Z"/><path class="f" d="M5.58,15.43c1.43.75,4.61,1.13,7.62,1.16,2.74,0,6.31-.42,7.64-1.11l0-.76c-.42.64-4.24,1.26-7.64,1.23s-6.55-.54-7.6-1.2v.68Z"/><path class="f" d="M13.19,19.54a27,27,0,0,1-6.71-1l.44.67a18.23,18.23,0,0,0,6.3,1,16.57,16.57,0,0,0,6.24-1l.44-.69a24.15,24.15,0,0,1-6.71,1Z"/><path class="f" d="M13.2,8.3a6.7,6.7,0,1,1,0,13.39A6.77,6.77,0,0,1,6.35,15,6.78,6.78,0,0,1,13.2,8.3Zm0-.66A7.46,7.46,0,0,1,20.72,15a7.52,7.52,0,0,1-15,0A7.45,7.45,0,0,1,13.2,7.64Z"/><path class="f" d="M13.2,7.55A7.55,7.55,0,0,1,20.82,15a7.55,7.55,0,0,1-7.62,7.45A7.55,7.55,0,0,1,5.58,15,7.55,7.55,0,0,1,13.2,7.55Zm0,.17A7.41,7.41,0,0,1,20.66,15,7.46,7.46,0,0,1,5.75,15,7.4,7.4,0,0,1,13.2,7.72Z"/><path d="M13.2,22.49A7.57,7.57,0,0,1,5.56,15,7.57,7.57,0,0,1,13.2,7.53,7.58,7.58,0,0,1,20.85,15a7.58,7.58,0,0,1-7.65,7.48Zm0-14.92A7.53,7.53,0,0,0,5.6,15a7.52,7.52,0,0,0,7.6,7.43A7.52,7.52,0,0,0,20.8,15a7.53,7.53,0,0,0-7.6-7.44Zm0,14.75A7.4,7.4,0,0,1,5.73,15,7.4,7.4,0,0,1,13.2,7.7,7.41,7.41,0,0,1,20.68,15a7.41,7.41,0,0,1-7.48,7.31Zm0-14.58A7.36,7.36,0,0,0,5.77,15a7.36,7.36,0,0,0,7.43,7.27A7.36,7.36,0,0,0,20.63,15,7.36,7.36,0,0,0,13.2,7.74Z"/><path class="f" d="M13.21,8.17a6.94,6.94,0,0,1,7,6.83,7,7,0,0,1-14,0,6.94,6.94,0,0,1,7-6.83Zm0,.17A6.76,6.76,0,0,1,20,15,6.81,6.81,0,0,1,6.4,15a6.76,6.76,0,0,1,6.81-6.66Z"/><rect class="f" x="12.89" y="7.52" width="0.66" height="15"/><path class="f" d="M13.45,7.44h.17V22.59h-.17V7.44Zm-.65,0H13V22.59H12.8V7.44Z"/><path d="M13.62,22.61h-.17l0-15.17.19,0,0,15.17s0,0,0,0Zm0-15.17-.14,0,0,15.13.13,0V7.44ZM13,22.61H12.8l0-15.17.19,0,0,15.17v0ZM13,7.44l-.15,0,0,15.13.13,0V7.44Z"/><path class="a" d="M19.68,11l.29.44Z"/><path class="a" d="M6.49,18.56l.23.39Z"/><path d="M11.83,17.55a.14.14,0,0,1,0-.06l.05,0h0a0,0,0,0,1,0,0s0,0,0,0,0,0,0,0,0,0,0,0h-.07l0,0s0,0,0,0Zm0,0s0,0,0,0h0l0,0a.05.05,0,0,0,0,0v0l0,0h-.06s0,0,0,.05Zm.18,0h0s0,0,0,0h0s0,0,0,0h0a0,0,0,0,1,0,0s0,0,0,0h0v0h0v0h0s0,0,0,0h0s0,0,0,0,0,0,0,0Zm.18,0h0s0,0,0,0h0s0,0,0,0,0,0,0,0a.06.06,0,0,1,0,0h.07s0,0,0,0h-.08s0,0,0,0h0Zm0,0h0v0h0a0,0,0,0,0,0,0Zm.08.07h.06v0h0s0,0,0,0a0,0,0,0,1,0,0v0s0,0,0,0h.07v.12l0,0h0v0Zm0-.07v0h0s0,0,0,0l0,0a0,0,0,0,0,0,0h0a0,0,0,0,0,0,0Zm.09,0v-.1h.11a0,0,0,0,1,0,0s0,0,0,0v.07h0v-.07h0v.08h0v-.07h0a0,0,0,0,0,0,0v.07Zm.23,0h0s0,0,0,0h-.06a0,0,0,0,1,0,0s0,0,0,0a.05.05,0,0,1,0,0h0s0,0,0,0h-.07s0,0,0,0h0s0,0,0,0Zm-.05,0h.06s0,0,0,0h0s0,0,0,0Zm.09.06v-.1h0s0,0,0,0h0v.08h0v-.08h0a0,0,0,0,0,0,0v.05Zm.15,0v0h0v-.08h0v0h0v0h0v.06h0Zm0,0a.08.08,0,0,1,0-.05h0l0,0s0,0,0,0v0l0,0h0l0,0s0,0,0,0Zm0,0v0h0s0,0,0,0,0,0,0,0,0,0,0,0h0a0,0,0,0,0,0,0Zm.21,0h0l0,0h0l0,0s0,0,0,0,0,0,0,0l0,0h0a.06.06,0,0,1,0,0H13v0h0v0Zm-.05,0H13v0h0s0,0,0,0Zm.09.06,0-.14h0l0,.14Zm.06-.12v0h0v0Zm0,.12,0-.1h0v.1Zm0,0,0-.1h.06s0,0,0,0,0,0,0,0h0s0,0,0,0v.07h0v-.08h0s0,0,0,0,0,0,0,0v.06h0v-.07h0a0,0,0,0,0,0,0h0v.07Zm.18-.12v0h0v0Zm0,.12,0-.1h0l0,.1Zm.05,0v-.1h.08v.08h0v-.08h0a0,0,0,0,0,0,0v.06Zm.17,0h-.06a0,0,0,0,1,0,0h.06s0,0,0,0h0s0,0,0,0h.08v.07h0Zm0,0h-.05v0h0l0,0h0Zm.1,0h0s0,0,0,0h0s0,0,0,0v0s0,0,0,0h.07v0h0l0,.14Zm0,0v0h0s0,0,0,0v0h0s0,0,0,0Zm.09,0a.05.05,0,0,1,0,0h.06a.06.06,0,0,1,0,0s0,0,0,0,0,0,0,0h0l0,0v0Zm0,0a0,0,0,0,0,0,0s0,0,0,0h0s0,0,0,0,0,0,0,0h0a0,0,0,0,0,0,0Zm.13.06,0-.1h0s0,0,0,0h0v0h0a0,0,0,0,0,0,0v.06Zm.14,0h0l0,0h0s0,0,0,0a.06.06,0,0,1,0,0s0,0,0,0H14s0,0,0,0h-.07v0h0Zm0,0H14v0h0a0,0,0,0,0,0,0Zm.08,0h0a0,0,0,0,0,0,0h0a0,0,0,0,0,0,0h0v0h.07v0h0v0H14a0,0,0,0,1,0,0Zm.09.07,0-.14h0v0l0,0h0a0,0,0,0,1,0,0v0s0,0,0,0l0,0h-.05v.05Zm0-.09s0,0,0,0h0a0,0,0,0,0,0,0v0h0a0,0,0,0,0,0,0Zm.15,0h0l0,0h-.07v0a.05.05,0,0,1,0,0h.07s0,0,0,0H14.2s0,0,0,0h.05Zm-.05,0h.06s0,0,0,0,0,0,0,0h0v0Zm.11-.06v0h0v0Zm0,.12,0-.1h0l0,.1Zm.08,0h0V17.5h0v0h0v0h0v0h0v.06h0Zm.08,0,0,0h0s0,0,0,0v0h.07v0h0a0,0,0,0,1,0,0h0a0,0,0,0,1,0,0h.06v.06h0v0Zm0,0h0a0,0,0,0,0,0,0,0,0,0,0,0,0,0Zm.09,0a.05.05,0,0,1,0,0h0a.05.05,0,0,1,0,0v0a0,0,0,0,1,0,0s0,0,0,0h0l0,0s0,0,0,0Zm0,0s0,0,0,0h0s0,0,0,0,0,0,0,0h0s0,0,0,0Zm.13.1,0-.14h.07a0,0,0,0,1,0,0v0s0,0,0,0h0v.05Zm0-.09s0,0,0,0,0,0,0,0h0a0,0,0,0,0,0,0v0h0s0,0,0,0Zm.08.06,0-.1h0v0h0v0l0,.06Zm.07-.05a.05.05,0,0,1,0,0h0s0,0,0,0,0,0,0,0a0,0,0,0,1,0,0l0,0h-.06s0,0,0,0Zm0,0v0h0a0,0,0,0,0,0,0v0h0l0,0ZM15,17.5v0h0v0Zm-.05.16v0h0a0,0,0,0,1,0,0l0-.1h0l0,.1s0,0,0,0,0,0,0,0Zm.14-.07h0l0,0h0s0,0,0,0,0,0,0,0,0,0,0,0h.07a0,0,0,0,1,0,0H15v0h0s0,0,0,0Zm-.05,0h.06v0h0l0,0Z"/><path d="M15.19,17.6h0a0,0,0,0,1,0,0h-.06v-.07l0,0h0s0,0,0,0h-.06a0,0,0,0,0,0,0,0,0,0,0,0,0,0h0s0,0,0,0Zm.06,0v0h0v-.08h0v0h0v0h0v0h0l0,.06h0Zm0,0a.05.05,0,0,1,0,0h0s0,0,0,0,0,0,0,0v0l0,0h0l0,0s0,0,0,0Zm0,0v0h.05a0,0,0,0,0,0,0v0s0,0,0,0h0l0,0Zm.2.07h0s0,0,0,0h0a0,0,0,0,1,0,0v0s0,0,0,0v0h.05v-.05h0l0,.14Zm0-.05v0s0,0,0,0h0a0,0,0,0,0,0,0,0,0,0,0,0,0,0h0s0,0,0,0Zm.16,0h0l0,0h0l0,0v0a.08.08,0,0,1,0,0h0l0,0s0,0,0,0h-.07s0,0,0,0h0Zm0,0h.06s0,0,0,0a0,0,0,0,0,0,0h0a0,0,0,0,1,0,0Zm.24,0h0l0,0h0l0,0a0,0,0,0,1,0,0v0s0,0,0,0l0,0h0l0,0s0,0,0,0h0s0,0,0,0,0,0,0,0h0s0,0,0,0a0,0,0,0,1,0,0v.05h0a0,0,0,0,0,0,0Zm0,0,0,0h0l0,0s0,0,0,0l0,0s0,0,0,0h0a0,0,0,0,1,0,0s0,0,0,0Zm0,0v0l0,0h0l0,0v0h0s0,0,0,0a0,0,0,0,0,0,0Zm.08.06,0-.13h0l0,.14Zm.11,0v0a.05.05,0,0,1,0,0h0v0l0-.06h0l0,.06v0h0a0,0,0,0,1,0,0v-.05h0l0,.1Zm0,0,0-.1h0v0h0v0s0,0,0,0h0a0,0,0,0,1,0,0l0,.07h0l0-.06h0s0,0,0,0v.06h0l0-.07h0v0l0,0Zm.18,0h0l0-.14h0l0,0h.06v0s0,0,0,0h0l0,0Zm0,0v0a0,0,0,0,0,0,0h0s0,0,0,0a0,0,0,0,0,0,0,0,0,0,0,0,0,0s0,0,0,0a0,0,0,0,0,0,0Zm.14.06h0s0,0,0,0,0,0,0,0h.08v0h0s0,0,0,0h.06v0h0v.07h0Zm0,0h0s0,0,0,0h0a0,0,0,0,1,0,0v0Zm0,.06,0-.1h0v0s0,0,0,0h0a0,0,0,0,0,0,0v0h0v.06h0l0-.06v0h0l0,0,0,.05Zm.11,0s0,0,0,0h0l0,0v0s0,0,0,0h0s0,0,0,0l0,0a0,0,0,0,1,0,0Zm0,0a0,0,0,0,0,0,0s0,0,0,0,0,0,0,0a0,0,0,0,0,0,0s0,0,0,0,0,0,0,0h0v0Z"/><path class="d" d="M17,18.22h0a0,0,0,0,1,0,0l.42-.72s0,0,.05,0,0,0,0,0l-.42.73Z"/><path class="g" d="M8.64,15.83A4.38,4.38,0,0,0,10,19a4.6,4.6,0,0,0,6.45,0,4.41,4.41,0,0,0,1.35-3.16h0v-6H8.64v6Z"/><path d="M13.2,20.32A4.61,4.61,0,0,1,10,19a4.39,4.39,0,0,1-1.35-3.16v-6h9.17l0,6A4.4,4.4,0,0,1,16.45,19a4.62,4.62,0,0,1-3.25,1.32ZM17.75,9.87l-9.11,0,0,5.94A4.35,4.35,0,0,0,10,19a4.59,4.59,0,0,0,6.42,0,4.35,4.35,0,0,0,1.33-3.14v-6Z"/><path class="d" d="M8.81,15.84h0a4.17,4.17,0,0,0,1.29,3,4.44,4.44,0,0,0,6.19,0,4.22,4.22,0,0,0,1.29-3h0V10.06H8.81v5.78Zm7-4.05v4.07h0a1.72,1.72,0,0,1,0,.32A2.43,2.43,0,0,1,15,17.66a2.61,2.61,0,0,1-1.85.75,2.57,2.57,0,0,1-1.83-.76,2.51,2.51,0,0,1-.77-1.8V11.78Z"/><path class="h" d="M12.64,15.18h0a.64.64,0,0,0,.17.43.56.56,0,0,0,.82,0,.64.64,0,0,0,.17-.43v-.81H12.65v.81Z"/><path class="g" d="M13.55,14.57a.11.11,0,1,0,0,.22.11.11,0,0,0,0-.22Z"/><path class="g" d="M13.23,14.87a.11.11,0,1,0,0,.22.11.11,0,1,0,0-.22Z"/><path class="g" d="M13.55,15.18a.11.11,0,0,0-.12.11.12.12,0,0,0,.12.12.11.11,0,0,0,.11-.12.11.11,0,0,0-.11-.11Z"/><path class="g" d="M12.92,15.18a.11.11,0,0,0-.11.11.11.11,0,0,0,.11.12.12.12,0,0,0,.12-.12.11.11,0,0,0-.12-.11Z"/><path class="g" d="M12.92,14.57a.11.11,0,0,0,0,.22.11.11,0,1,0,0-.22Z"/><path class="h" d="M12.64,17.12h0a.6.6,0,0,0,.17.43.55.55,0,0,0,.81,0,.6.6,0,0,0,.17-.43v-.81H12.64v.81Z"/><path class="g" d="M13.54,16.51a.11.11,0,0,0,0,.22.11.11,0,1,0,0-.22Z"/><path class="g" d="M13.22,16.81a.11.11,0,1,0,0,.22.11.11,0,1,0,0-.22Z"/><path class="g" d="M13.54,17.12a.11.11,0,0,0-.11.12.11.11,0,0,0,.11.11.12.12,0,0,0,.12-.11.12.12,0,0,0-.12-.12Z"/><path class="g" d="M12.92,17.12a.12.12,0,0,0-.12.12.11.11,0,0,0,.12.11.11.11,0,0,0,.11-.11.11.11,0,0,0-.11-.12Z"/><path class="g" d="M12.92,16.51a.11.11,0,1,0,0,.22.11.11,0,0,0,0-.22Z"/><path class="h" d="M11,15.19h0a.63.63,0,0,0,.17.42.56.56,0,0,0,.82,0,.62.62,0,0,0,.17-.42v-.81H11v.82Z"/><path class="g" d="M12,14.57a.11.11,0,0,0-.12.11.12.12,0,0,0,.12.12.11.11,0,0,0,.11-.12.11.11,0,0,0-.11-.11Z"/><path class="g" d="M11.63,14.87a.11.11,0,0,0-.12.11.12.12,0,0,0,.12.12.11.11,0,0,0,.11-.12.11.11,0,0,0-.11-.11Z"/><path class="g" d="M12,15.19a.11.11,0,1,0,0,.22.11.11,0,1,0,0-.22Z"/><path class="g" d="M11.32,15.19a.11.11,0,0,0,0,.22.11.11,0,1,0,0-.22Z"/><path class="g" d="M11.32,14.57a.11.11,0,0,0-.11.11.11.11,0,1,0,.22,0,.11.11,0,0,0-.11-.11Z"/><path class="h" d="M14.24,15.18h0a.64.64,0,0,0,.17.43.56.56,0,0,0,.41.18.58.58,0,0,0,.41-.18.63.63,0,0,0,.17-.42v-.82H14.24v.81Z"/><path class="g" d="M15.14,14.57a.11.11,0,1,0,0,.22.11.11,0,1,0,0-.22Z"/><path class="g" d="M14.82,14.87a.11.11,0,0,0,0,.22.11.11,0,1,0,0-.22Z"/><path class="g" d="M15.14,15.19a.11.11,0,1,0,0,.22.11.11,0,1,0,0-.22Z"/><path class="g" d="M14.52,15.19a.11.11,0,1,0,.11.11.11.11,0,0,0-.11-.11Z"/><path class="g" d="M14.52,14.57a.11.11,0,1,0,0,.22.11.11,0,0,0,0-.22Z"/></g></g></g></svg>