<svg xmlns="http://www.w3.org/2000/svg" xmlns:xlink="http://www.w3.org/1999/xlink" viewBox="0 0 30 30"><defs><style>.a{fill:none;}.b{clip-path:url(#a);}.c{fill:#d80027;}.c,.f{isolation:isolate;}.d{fill:#313031;}.e,.g{fill:#fff;}.f{fill:#0052b4;}.g{fill-rule:evenodd;}</style><clipPath id="a"><circle class="a" cx="15" cy="15" r="15"/></clipPath></defs><title>Puerto Rico</title><g class="b"><rect class="c" y="11.99" width="51.69" height="6.02"/><rect class="c" y="0.05" width="51.69" height="6.02"/><rect class="c" y="24.13" width="51.69" height="6.02"/><path class="d" d="M0,21.12H0ZM0,9H0Z"/><rect class="e" y="18.11" width="51.69" height="6.02"/><rect class="e" y="6.02" width="51.69" height="6.02"/><polygon class="f" points="0 0 0 30.16 26.07 15.1 0 0"/><polygon class="g" points="8.71 10.05 7.15 14.81 9.53 15.59 8.71 10.05"/><polygon class="g" points="8.71 10.05 10.21 14.81 7.83 15.59 8.71 10.05"/><polygon class="g" points="13.47 13.55 8.46 13.55 8.46 16.02 13.47 13.55"/><polygon class="g" points="13.47 13.55 9.39 16.46 7.93 14.47 13.47 13.55"/><polygon class="g" points="3.89 13.55 7.98 16.46 9.44 14.47 3.89 13.55"/><polygon class="g" points="3.89 13.55 8.95 13.55 8.95 16.02 3.89 13.55"/><polygon class="g" points="11.63 19.13 10.07 14.38 7.69 15.15 11.63 19.13"/><polygon class="g" points="11.63 19.13 7.59 16.17 9.05 14.18 11.63 19.13"/><polygon class="g" points="5.74 19.13 9.78 16.17 8.32 14.18 5.74 19.13"/><polygon class="g" points="5.74 19.13 7.29 14.38 9.68 15.15 5.74 19.13"/><rect class="a" width="51.69" height="30.15"/></g></svg>