<svg xmlns="http://www.w3.org/2000/svg" xmlns:xlink="http://www.w3.org/1999/xlink" viewBox="0 0 30 30"><defs><style>.a{fill:none;}.b{clip-path:url(#a);}.c{clip-path:url(#b);}.d{fill:#fff;}.e{fill:#2f3e98;}.f{fill:#bc1f34;}</style><clipPath id="a"><circle class="a" cx="15" cy="15" r="15"/></clipPath><clipPath id="b"><rect class="a" width="51.98" height="30"/></clipPath></defs><title>Slovakia</title><g class="b"><g class="c"><rect class="d" width="30" height="10"/><rect class="e" y="10" width="30" height="10"/><rect class="f" y="20" width="30" height="10"/><g class="c"><path class="d" d="M7.86,7.05c-.61,0-.43.78-.51,1.2-.22,2.87-.51,5.83.37,8.62a9.7,9.7,0,0,0,4.39,5.31,7.08,7.08,0,0,0,1.53.77,7.59,7.59,0,0,0,1.61-.81,9.68,9.68,0,0,0,4.32-5.27c.9-2.84.58-5.85.36-8.77,0-.4,0-1.09-.57-1Z"/><path class="f" d="M13.64,7.5v15c-7-3.36-6.24-8.93-5.78-15Zm0,0v15c7-3.36,6.25-8.93,5.79-15Z"/><path class="d" d="M14.46,11.61a11.93,11.93,0,0,1,2.22.28,2.59,2.59,0,0,1,0-1.82,11.15,11.15,0,0,1-2.22.28H12.83a11.15,11.15,0,0,1-2.22-.28,2.59,2.59,0,0,1,0,1.82,11.93,11.93,0,0,1,2.22-.28Z"/><path class="d" d="M15.1,14.35a11.71,11.71,0,0,1,2.21.27,2.71,2.71,0,0,1,0-1.82,11,11,0,0,1-2.21.28H12.19A11,11,0,0,1,10,12.8a2.71,2.71,0,0,1,0,1.82,11.71,11.71,0,0,1,2.21-.27Z"/><path class="d" d="M12.72,8.07A10.85,10.85,0,0,1,13,10.25v9.29h1.29V10.25a10.85,10.85,0,0,1,.28-2.18,2.68,2.68,0,0,1-1.85,0"/><path class="e" d="M10.73,17.29a1.49,1.49,0,0,0-1.5,1.48,1.1,1.1,0,0,0,0,.18,8.25,8.25,0,0,0,1,1.22,1.39,1.39,0,0,0,.46.08,1.48,1.48,0,1,0,0-3"/><path class="e" d="M13.64,16.41a1.89,1.89,0,1,0,1.92,1.89,1.91,1.91,0,0,0-1.92-1.89"/><path class="e" d="M16.56,17.29a1.48,1.48,0,1,0,0,3,1.44,1.44,0,0,0,.46-.08A8.8,8.8,0,0,0,18,19a1.1,1.1,0,0,0,0-.18,1.49,1.49,0,0,0-1.5-1.48"/><path class="e" d="M9.48,19.27a11,11,0,0,0,4.16,3.23,11,11,0,0,0,4.16-3.23Z"/></g></g></g></svg>