<svg xmlns="http://www.w3.org/2000/svg" xmlns:xlink="http://www.w3.org/1999/xlink" viewBox="0 0 30 30"><defs><style>.a{fill:none;}.b{clip-path:url(#a);}.c{clip-path:url(#b);}.d{fill:#d22029;}.e{fill:#fff;}</style><clipPath id="a"><circle class="a" cx="15" cy="15" r="15"/></clipPath><clipPath id="b"><rect class="a" x="-10.85" y="-0.02" width="51.71" height="30.04"/></clipPath></defs><title>Tunesia</title><g class="b"><g class="c"><rect class="d" x="-10.85" y="-0.02" width="51.71" height="30.04"/><g class="c"><path class="e" d="M15,7.49A7.51,7.51,0,1,1,7.46,15,7.53,7.53,0,0,1,15,7.49"/><path class="d" d="M15,9.37A5.63,5.63,0,1,1,9.34,15,5.65,5.65,0,0,1,15,9.37"/><path class="e" d="M16.51,10.5A4.51,4.51,0,1,1,12,15a4.5,4.5,0,0,1,4.53-4.5"/><polyline class="d" points="13.12 15 16.34 16.05 16.87 14.44"/><polyline class="d" points="13.12 15 16.34 13.96 16.87 15.56"/><polyline class="d" points="15.46 11.79 15.46 15.17 17.16 15.17"/><polyline class="d" points="15.46 11.79 17.45 14.52 16.08 15.52"/><polyline class="d" points="15.46 18.22 17.45 15.48 16.08 14.49"/><polyline class="d" points="15.46 18.22 15.46 14.84 17.16 14.84"/><polyline class="d" points="19.25 13.02 16.03 14.06 16.55 15.67"/><polyline class="d" points="19.25 13.02 17.26 15.75 15.89 14.76"/><polyline class="d" points="19.25 16.99 17.26 14.26 15.89 15.25"/><polyline class="d" points="19.25 16.99 16.03 15.95 16.55 14.34"/></g></g><rect class="a" x="-11.34" width="52.69" height="30"/></g></svg>