<svg xmlns="http://www.w3.org/2000/svg" xmlns:xlink="http://www.w3.org/1999/xlink" viewBox="0 0 30 30"><defs><style>.a{fill:none;}.b{clip-path:url(#a);}.c{fill:#fff;}.d{fill:#bd1f37;}.e{fill:#2d2f77;}</style><clipPath id="a"><circle class="a" cx="15" cy="15" r="15"/></clipPath></defs><title>United Kingdom</title><g class="b"><rect class="c" x="-10.99" width="51.98" height="30"/><polygon class="d" points="23.82 10.85 40.99 1.34 40.99 0 39.8 0 20.22 10.85 23.82 10.85"/><polygon class="d" points="23 19.76 40.99 29.71 40.99 27.72 26.6 19.76 23 19.76"/><polygon class="d" points="-10.99 2.29 4.4 10.85 7.99 10.85 -10.99 0.29 -10.99 2.29"/><polygon class="d" points="7.18 19.76 -10.99 29.83 -10.99 30 -7.71 30 10.77 19.76 7.18 19.76"/><polygon class="e" points="37.43 0 19.23 0 19.23 10.09 37.43 0"/><polygon class="e" points="11.2 0 -6.93 0 11.2 10.09 11.2 0"/><polygon class="e" points="40.99 10.85 40.99 3.96 28.64 10.85 40.99 10.85"/><polygon class="e" points="40.99 26.56 40.99 19.76 28.64 19.76 40.99 26.56"/><polygon class="e" points="-5.9 30 11.2 30 11.2 20.52 -5.9 30"/><polygon class="e" points="19.23 30 36.38 30 19.23 20.52 19.23 30"/><polygon class="e" points="-10.99 19.76 -10.99 26.87 1.79 19.76 -10.99 19.76"/><polygon class="e" points="-10.99 10.85 1.79 10.85 -10.99 3.72 -10.99 10.85"/><polygon class="d" points="12.8 0 12.8 12.63 -10.99 12.63 -10.99 17.98 12.8 17.98 12.8 30 17.63 30 17.63 17.98 40.99 17.98 40.99 12.63 17.63 12.63 17.63 0 12.8 0"/><rect class="a" x="-10.99" width="51.98" height="30"/></g></svg>