<svg width="40" height="40" viewBox="0 0 40 40" fill="none" xmlns="http://www.w3.org/2000/svg">
<circle cx="20" cy="20" r="20" fill="url(#paint0_linear)"/>
<path d="M15.5556 10C12.4922 10 10 12.4922 10 15.5556V24.4444C10 27.5078 12.4922 30 15.5556 30H24.4444C27.5078 30 30 27.5078 30 24.4444V15.5556C30 12.4922 27.5078 10 24.4444 10H15.5556ZM15.5556 12.2222H24.4444C26.2822 12.2222 27.7778 13.7178 27.7778 15.5556V24.4444C27.7778 26.2822 26.2822 27.7778 24.4444 27.7778H15.5556C13.7178 27.7778 12.2222 26.2822 12.2222 24.4444V15.5556C12.2222 13.7178 13.7178 12.2222 15.5556 12.2222ZM25.5556 13.3333C25.2609 13.3333 24.9783 13.4504 24.7699 13.6588C24.5615 13.8671 24.4444 14.1498 24.4444 14.4444C24.4444 14.7391 24.5615 15.0217 24.7699 15.2301C24.9783 15.4385 25.2609 15.5556 25.5556 15.5556C25.8502 15.5556 26.1329 15.4385 26.3412 15.2301C26.5496 15.0217 26.6667 14.7391 26.6667 14.4444C26.6667 14.1498 26.5496 13.8671 26.3412 13.6588C26.1329 13.4504 25.8502 13.3333 25.5556 13.3333ZM20 14.4444C16.9367 14.4444 14.4444 16.9367 14.4444 20C14.4444 23.0633 16.9367 25.5556 20 25.5556C23.0633 25.5556 25.5556 23.0633 25.5556 20C25.5556 16.9367 23.0633 14.4444 20 14.4444ZM20 16.6667C21.8378 16.6667 23.3333 18.1622 23.3333 20C23.3333 21.8378 21.8378 23.3333 20 23.3333C18.1622 23.3333 16.6667 21.8378 16.6667 20C16.6667 18.1622 18.1622 16.6667 20 16.6667Z" fill="white"/>
<defs>
<linearGradient id="paint0_linear" x1="41" y1="16" x2="2.5" y2="33.5" gradientUnits="userSpaceOnUse">
<stop stop-color="#AA27AA"/>
<stop offset="0.9999" stop-color="#E03023"/>
<stop offset="1" stop-color="#C4C4C4" stop-opacity="0"/>
</linearGradient>
</defs>
</svg>
