<svg width="50" height="50" viewBox="0 0 50 50" fill="none" xmlns="http://www.w3.org/2000/svg">
<circle cx="25" cy="25" r="25" fill="#D6E4FF"/>
<path d="M20.827 33V31.2L25.707 26.22C26.8937 25.0333 27.487 24.0067 27.487 23.14C27.487 22.46 27.2804 21.9333 26.867 21.56C26.467 21.1733 25.9537 20.98 25.327 20.98C24.1537 20.98 23.287 21.56 22.727 22.72L20.787 21.58C21.227 20.6467 21.847 19.94 22.647 19.46C23.447 18.98 24.3337 18.74 25.307 18.74C26.5337 18.74 27.587 19.1267 28.467 19.9C29.347 20.6733 29.787 21.7267 29.787 23.06C29.787 24.4867 28.9937 26.0067 27.407 27.62L24.247 30.78H30.047V33H20.827Z" fill="#222222"/>
</svg>
