<svg width="24" height="24" viewBox="0 0 24 24" fill="none" xmlns="http://www.w3.org/2000/svg">
<mask id="mask0" mask-type="alpha" maskUnits="userSpaceOnUse" x="1" y="1" width="22" height="22">
<circle cx="12" cy="12" r="11" fill="#C4C4C4"/>
</mask>
<g mask="url(#mask0)">
<path d="M29.9852 -0.88916H-5.9873V11.5935H29.9852V-0.88916Z" fill="#C7100E"/>
<path d="M-5.9873 11.594V24.1H29.9852V11.594H-5.9873Z" fill="white"/>
<path fill-rule="evenodd" clip-rule="evenodd" d="M12 22.0833C17.5689 22.0833 22.0833 17.5689 22.0833 12C22.0833 6.43113 17.5689 1.91667 12 1.91667C6.43113 1.91667 1.91667 6.43113 1.91667 12C1.91667 17.5689 6.43113 22.0833 12 22.0833ZM12 23C18.0751 23 23 18.0751 23 12C23 5.92487 18.0751 1 12 1C5.92487 1 1 5.92487 1 12C1 18.0751 5.92487 23 12 23Z" fill="#CCCCCC"/>
</g>
</svg>
