<svg width="178" height="58" viewBox="0 0 178 58" fill="none" xmlns="http://www.w3.org/2000/svg">
<g clip-path="url(#clip0)">
<path d="M88.1695 26.0362V27.6764H91.9472V13.0302H88.1695V20.9367C88.1695 22.1471 87.8766 23.0554 87.2907 23.6614C86.7049 24.2674 85.9241 24.57 84.9485 24.5692C84.0698 24.5692 83.3669 24.3106 82.84 23.7933C82.313 23.2761 82.0492 22.5292 82.0484 21.5528V13.0326H74.0148V12.8862C74.0148 11.0705 75.0497 10.2406 77.1195 10.3963V6.76503C74.8358 6.62866 73.1178 7.09709 71.9655 8.17034C70.8132 9.24358 70.237 10.8171 70.237 12.891V13.0375H68.126V16.6687H70.2346V27.6836H74.0148V16.6687H78.273V22.0297C78.273 23.9236 78.7976 25.4076 79.8466 26.4817C80.8956 27.5557 82.2182 28.0923 83.8144 28.0915C85.8003 28.0875 87.252 27.4024 88.1695 26.0362Z" fill="#222222"/>
<path d="M98.613 19.7686C98.613 18.5582 98.906 17.6504 99.4918 17.0452C100.078 16.44 100.859 16.1374 101.835 16.1374C102.714 16.1374 103.417 16.396 103.944 16.9133C104.471 17.4305 104.734 18.1773 104.734 19.1538V27.6764H108.512V18.6853C108.512 16.7914 107.99 15.3074 106.946 14.2334C105.901 13.1593 104.578 12.6223 102.977 12.6223C100.986 12.6223 99.5334 13.3058 98.6191 14.6728V13.0326H94.8341V27.6788H98.6118L98.613 19.7686Z" fill="#222222"/>
<path d="M122.311 25.9479V27.6764H126.09V7.17537H122.311V14.7599C121.198 13.3356 119.617 12.6231 117.567 12.6223C115.594 12.6223 113.91 13.3691 112.515 14.8628C111.12 16.3565 110.422 18.187 110.421 20.3545C110.421 22.5212 111.119 24.3513 112.515 25.845C113.911 27.3387 115.595 28.0855 117.567 28.0855C119.616 28.0855 121.197 27.373 122.311 25.9479ZM118.27 24.4833C117.099 24.4833 116.127 24.0975 115.356 23.3261C114.584 22.5546 114.199 21.5641 114.201 20.3545C114.201 19.1441 114.587 18.1531 115.358 17.3817C116.13 16.6102 117.101 16.2245 118.273 16.2245C119.444 16.2245 120.412 16.6102 121.178 17.3817C121.944 18.1531 122.324 19.1441 122.319 20.3545C122.319 21.5649 121.939 22.5555 121.178 23.3261C120.417 24.0967 119.447 24.4825 118.268 24.4833H118.27Z" fill="#222222"/>
<path d="M132.779 13.0326H129.001V27.6764H132.779V13.0326Z" fill="#222222"/>
<path d="M130.875 11.2751C131.183 11.2796 131.489 11.2209 131.774 11.1027C132.058 10.9844 132.316 10.8091 132.53 10.5876C132.75 10.3777 132.924 10.1253 133.042 9.84577C133.16 9.56623 133.22 9.26547 133.218 8.96196C133.219 8.65642 133.159 8.35374 133.041 8.07195C132.923 7.79017 132.749 7.53506 132.53 7.32183C132.318 7.09638 132.061 6.91746 131.776 6.7964C131.491 6.67535 131.184 6.61479 130.875 6.61858C130.57 6.61688 130.268 6.67851 129.988 6.79957C129.709 6.92063 129.457 7.09848 129.25 7.32183C129.031 7.53483 128.857 7.78987 128.739 8.07169C128.62 8.35351 128.56 8.65631 128.561 8.96196C128.571 9.57242 128.818 10.1552 129.25 10.5869C129.681 11.0186 130.264 11.2654 130.875 11.2751Z" fill="#222222"/>
<path d="M143.835 12.6223C141.842 12.6223 140.39 13.3058 139.477 14.6728V13.0326H135.699V27.6788H139.477V19.7686C139.477 18.5582 139.77 17.6504 140.356 17.0452C140.942 16.44 141.722 16.1374 142.698 16.1374C143.577 16.1374 144.28 16.396 144.807 16.9133C145.333 17.4305 145.597 18.1773 145.598 19.1538V27.6764H149.376V18.6853C149.376 16.7914 148.851 15.3074 147.802 14.2334C146.753 13.1593 145.431 12.6223 143.835 12.6223Z" fill="#222222"/>
<path d="M166.956 13.0326H163.267V14.8483C162.153 13.3643 160.591 12.6223 158.58 12.6223C156.53 12.6223 154.803 13.3546 153.397 14.8192C151.991 16.2838 151.288 18.0507 151.288 20.1197C151.288 22.2089 151.986 23.9809 153.382 25.4359C154.778 26.8908 156.511 27.6171 158.58 27.6146C160.592 27.6146 162.154 26.8726 163.267 25.3887V26.9707C163.267 28.1214 162.925 29.009 162.242 29.6336C161.558 30.2582 160.621 30.5705 159.43 30.5705C157.614 30.5705 156.335 29.887 155.593 28.52L152.372 30.3647C152.997 31.5169 153.963 32.4472 155.139 33.0277C156.34 33.6329 157.731 33.9355 159.312 33.9355C161.421 33.9355 163.222 33.34 164.716 32.1489C166.209 30.9578 166.956 29.2302 166.956 26.9658V13.0326ZM162.114 23.0041C161.342 23.7554 160.361 24.1314 159.171 24.1322C157.98 24.133 157 23.757 156.228 23.0041C155.456 22.2537 155.07 21.2922 155.071 20.1197C155.071 18.9673 155.457 18.0155 156.228 17.2643C157 16.513 157.98 16.1374 159.171 16.1374C160.362 16.1374 161.343 16.513 162.114 17.2643C162.886 18.0155 163.272 18.9673 163.272 20.1197C163.268 21.2946 162.881 22.2561 162.11 23.0041H162.114Z" fill="#222222"/>
<path d="M76.5228 44.1357L73.9022 43.4458C73.115 43.2523 72.3644 42.9322 71.6799 42.498C71.393 42.3254 71.1571 42.0799 70.9959 41.7865C70.8347 41.4931 70.7542 41.1623 70.7623 40.8277C70.7525 40.4405 70.8398 40.0571 71.0164 39.7124C71.193 39.3678 71.4531 39.0728 71.773 38.8547C72.446 38.3656 73.2804 38.1207 74.2762 38.1199C75.0729 38.1103 75.8586 38.3072 76.5567 38.6912C77.2238 39.054 77.7422 39.6397 78.0213 40.3459L79.2523 39.6439C78.8467 38.7514 78.177 38.0049 77.3337 37.505C76.4647 36.9789 75.4443 36.7154 74.2726 36.7146C72.808 36.7146 71.6121 37.1149 70.6849 37.9154C69.7577 38.7159 69.2941 39.702 69.2941 40.8736C69.2941 41.8509 69.5967 42.632 70.2019 43.217C70.8245 43.8123 71.5918 44.2346 72.4279 44.442L75.0485 45.1319C75.8388 45.3254 76.588 45.6595 77.2599 46.1184C77.5452 46.3058 77.7782 46.5627 77.937 46.8648C78.0958 47.1669 78.1752 47.5045 78.1677 47.8457C78.1677 48.7237 77.8115 49.4015 77.0989 49.8792C76.3864 50.3569 75.4834 50.5962 74.39 50.597C73.2958 50.597 72.3734 50.3674 71.623 49.9083C70.8989 49.4848 70.3525 48.8137 70.0845 48.0188L68.8293 48.7535C69.1997 49.7307 69.8682 50.5167 70.835 51.1114C71.8017 51.7062 72.9879 52.0039 74.3936 52.0047C75.9551 52.0047 77.2192 51.6142 78.1859 50.833C79.1526 50.0519 79.6368 49.0561 79.6384 47.8457C79.6384 46.8257 79.339 46.0107 78.7403 45.4006C78.1318 44.7827 77.3644 44.3449 76.5228 44.1357Z" fill="#222222"/>
<path d="M89.0168 36.7146C86.8687 36.7146 85.0478 37.4518 83.5541 38.9261C82.0605 40.4004 81.3136 42.2112 81.3136 44.3585C81.3136 46.5074 82.0605 48.3182 83.5541 49.7909C85.0478 51.2635 86.8687 52.0007 89.0168 52.0023C91.1431 52.0023 92.9539 51.2652 94.4492 49.7909C95.9445 48.3166 96.6913 46.5058 96.6897 44.3585C96.6897 42.2112 95.9428 40.4004 94.4492 38.9261C92.9555 37.4518 91.1447 36.7146 89.0168 36.7146ZM93.4094 48.7814C92.2184 49.9918 90.7541 50.597 89.0168 50.597C87.2794 50.597 85.81 49.9918 84.6084 48.7814C83.4077 47.5709 82.8073 46.0966 82.8073 44.3585C82.8073 42.6203 83.4077 41.1464 84.6084 39.9368C85.8091 38.7264 87.2786 38.1211 89.0168 38.1211C90.7549 38.1211 92.2192 38.7264 93.4094 39.9368C94.6005 41.1472 95.196 42.6211 95.196 44.3585C95.196 46.0958 94.6005 47.5701 93.4094 48.7814Z" fill="#222222"/>
<path d="M109.359 49.7763C108.404 50.3307 107.316 50.6144 106.212 50.597C104.456 50.597 102.982 49.9966 101.79 48.7959C100.599 47.5951 100.003 46.116 100.004 44.3585C100.004 42.6009 100.599 41.1218 101.79 39.921C102.981 38.7203 104.455 38.1199 106.212 38.1199C107.316 38.1031 108.404 38.3867 109.359 38.9406C110.254 39.4514 110.966 40.2299 111.395 41.1666L112.596 40.4633C112.068 39.3092 111.19 38.351 110.085 37.7253C108.91 37.0439 107.571 36.6946 106.212 36.7146C104.005 36.7146 102.17 37.4469 100.707 38.9115C99.2441 40.3762 98.5118 42.1918 98.5102 44.3585C98.5102 46.5267 99.2425 48.3424 100.707 49.8054C102.172 51.2684 104.007 52.0007 106.212 52.0023C107.573 52.0195 108.913 51.6704 110.093 50.9916C111.212 50.3631 112.123 49.4216 112.715 48.2827L111.485 47.5504C111.003 48.4802 110.266 49.2526 109.359 49.7763Z" fill="#222222"/>
<path d="M116.566 37.0366H115.101V51.6803H116.566V37.0366Z" fill="#222222"/>
<path d="M115.834 31.1793C115.682 31.1784 115.531 31.2077 115.39 31.2655C115.249 31.3232 115.121 31.4083 115.013 31.5158C114.901 31.6182 114.813 31.7428 114.752 31.8817C114.692 32.0205 114.661 32.1705 114.662 32.322C114.659 32.4779 114.688 32.6327 114.749 32.7764C114.809 32.9201 114.899 33.0494 115.013 33.156C115.231 33.3723 115.526 33.4937 115.833 33.4937C116.14 33.4937 116.435 33.3723 116.653 33.156C116.767 33.0497 116.858 32.9204 116.919 32.7767C116.979 32.6329 117.009 32.478 117.005 32.322C117.007 32.1704 116.976 32.0203 116.915 31.8814C116.855 31.7425 116.765 31.6179 116.653 31.5158C116.546 31.4082 116.418 31.3231 116.277 31.2653C116.137 31.2076 115.986 31.1783 115.834 31.1793Z" fill="#222222"/>
<path d="M126.884 36.7146C124.658 36.7146 122.837 37.4409 121.421 38.8934C120.005 40.3459 119.297 42.1664 119.298 44.3548C119.298 46.5804 120.021 48.411 121.466 49.8465C122.911 51.2821 124.756 51.9995 127.001 51.9987C128.425 51.9987 129.694 51.7009 130.808 51.1054C131.875 50.5526 132.767 49.7145 133.385 48.6845L132.096 47.9232C131.629 48.7441 130.938 49.4157 130.105 49.8599C129.226 50.344 128.201 50.5881 127.03 50.5922C125.35 50.5922 123.938 50.0894 122.794 49.084C121.649 48.0785 120.992 46.7579 120.821 45.1222H134.088C134.088 45.0448 134.088 44.9274 134.103 44.7712C134.117 44.6151 134.117 44.4977 134.117 44.4202C134.117 42.331 133.449 40.5246 132.112 39.0011C130.774 37.4776 129.032 36.7154 126.884 36.7146ZM120.821 43.6855C120.976 42.0449 121.611 40.7074 122.725 39.6729C123.838 38.6384 125.225 38.1207 126.884 38.1199C128.31 38.0984 129.689 38.6283 130.734 39.5991C131.816 40.586 132.438 41.9481 132.599 43.6855H120.821Z" fill="#222222"/>
<path d="M139.164 32.9369L137.669 33.3811V37.0366H134.448V38.4722H137.669V47.9897C137.669 49.6101 138.153 50.7035 139.121 51.27C140.09 51.8365 141.559 51.9733 143.53 51.6803V50.3622C142.713 50.4555 141.89 50.4802 141.069 50.436C140.423 50.3876 139.945 50.1774 139.634 49.8054C139.324 49.4334 139.168 48.8282 139.166 47.9897V38.4722H143.524V37.0366H139.166L139.164 32.9369Z" fill="#222222"/>
<path d="M146.534 31.1793C146.382 31.1783 146.231 31.2076 146.09 31.2653C145.95 31.3231 145.822 31.4082 145.714 31.5158C145.602 31.6179 145.513 31.7425 145.452 31.8814C145.392 32.0203 145.361 32.1704 145.362 32.322C145.359 32.478 145.388 32.6329 145.449 32.7767C145.51 32.9204 145.6 33.0497 145.714 33.156C145.932 33.3723 146.227 33.4937 146.534 33.4937C146.842 33.4937 147.136 33.3723 147.355 33.156C147.468 33.0494 147.558 32.9201 147.619 32.7764C147.679 32.6327 147.709 32.4779 147.706 32.322C147.707 32.1705 147.676 32.0205 147.616 31.8817C147.555 31.7428 147.466 31.6182 147.355 31.5158C147.247 31.4083 147.119 31.3232 146.978 31.2655C146.837 31.2077 146.686 31.1784 146.534 31.1793Z" fill="#222222"/>
<path d="M147.266 37.0366H145.802V51.6803H147.266V37.0366Z" fill="#222222"/>
<path d="M157.584 36.7146C155.357 36.7146 153.537 37.4409 152.122 38.8934C150.708 40.3459 150 42.1664 149.999 44.3548C149.999 46.5804 150.722 48.411 152.166 49.8465C153.61 51.2821 155.455 51.9995 157.701 51.9987C159.125 51.9987 160.394 51.7009 161.508 51.1054C162.575 50.5529 163.467 49.7148 164.085 48.6845L162.797 47.9232C162.33 48.7438 161.639 49.4153 160.806 49.8599C159.927 50.344 158.902 50.5881 157.73 50.5922C156.052 50.5922 154.64 50.0894 153.494 49.084C152.348 48.0785 151.691 46.7579 151.522 45.1222H164.788C164.788 45.0448 164.788 44.9274 164.803 44.7712C164.817 44.6151 164.817 44.4977 164.817 44.4202C164.817 42.331 164.149 40.5246 162.812 39.0011C161.475 37.4776 159.732 36.7154 157.584 36.7146ZM151.522 43.6855C151.677 42.0449 152.311 40.7074 153.425 39.6729C154.538 38.6384 155.925 38.1207 157.584 38.1199C159.01 38.0982 160.39 38.6281 161.435 39.5991C162.519 40.5852 163.139 41.9473 163.295 43.6855H151.522Z" fill="#222222"/>
<path d="M176.203 45.3982C175.594 44.782 174.827 44.3452 173.986 44.1357L171.366 43.4458C170.579 43.2523 169.829 42.9323 169.145 42.498C168.858 42.3255 168.621 42.08 168.46 41.7867C168.299 41.4933 168.218 41.1624 168.226 40.8277C168.216 40.4406 168.304 40.0572 168.48 39.7126C168.657 39.3679 168.917 39.073 169.237 38.8547C169.91 38.3656 170.745 38.1207 171.741 38.1199C172.539 38.11 173.326 38.3069 174.025 38.6912C174.692 39.054 175.211 39.6397 175.49 40.3459L176.719 39.6439C176.314 38.7512 175.644 38.0045 174.801 37.505C173.932 36.9789 172.912 36.7154 171.741 36.7146C170.276 36.7146 169.08 37.1149 168.153 37.9154C167.226 38.7159 166.762 39.702 166.762 40.8736C166.762 41.8509 167.065 42.632 167.67 43.217C168.292 43.8125 169.059 44.2349 169.895 44.442L172.516 45.1319C173.306 45.3252 174.056 45.6594 174.728 46.1184C175.014 46.3058 175.247 46.5627 175.405 46.8648C175.564 47.1669 175.644 47.5045 175.636 47.8457C175.636 48.7237 175.28 49.4015 174.567 49.8792C173.855 50.3569 172.952 50.5962 171.858 50.597C170.764 50.597 169.841 50.3674 169.09 49.9083C168.367 49.4843 167.821 48.8133 167.553 48.0188L166.294 48.7511C166.664 49.7283 167.333 50.5143 168.3 51.109C169.266 51.7037 170.453 52.0015 171.858 52.0023C173.42 52.0023 174.684 51.6117 175.651 50.8306C176.617 50.0495 177.102 49.0537 177.103 47.8433C177.102 46.8233 176.801 46.0083 176.203 45.3982Z" fill="#222222"/>
</g>
<path d="M4.97573 16.9866L16.9874 28.9982L4.97491 41.0107C1.78936 37.8247 -0.0001535 33.5038 9.87581e-09 28.9985C0.00015352 24.4931 1.78996 20.1723 4.97573 16.9866Z" fill="#5203EA"/>
<path d="M41.0106 4.97491L28.9982 16.9874L16.9865 4.97573C20.1723 1.78997 24.4931 0.000153799 28.9984 9.91153e-09C33.5038 -0.00015378 37.8247 1.78936 41.0106 4.97491Z" fill="#FFDE0F"/>
<path d="M16.9867 4.97485L4.97424 16.9873L16.9867 28.9998L28.9992 16.9873L16.9867 4.97485Z" fill="#FFB50D"/>
<path d="M53.0237 41.0107L41.0121 28.999L53.0246 16.9866C56.2101 20.1726 57.9996 24.4935 57.9995 28.9988C57.9993 33.5042 56.2095 37.8249 53.0237 41.0107Z" fill="#08C0A6"/>
<path d="M16.9868 53.0244L28.9992 41.012L41.0109 53.0236C37.8251 56.2094 33.5043 57.9992 28.999 57.9994C24.4936 57.9995 20.1727 56.21 16.9868 53.0244Z" fill="#2C50FF"/>
<path d="M41.0108 53.0234L53.0233 41.011L41.0108 28.9985L28.9984 41.011L41.0108 53.0234Z" fill="#3E7EFF"/>
<path d="M4.97467 41.0117L16.9871 28.9993L28.9996 41.0117C25.8137 44.1976 21.4927 45.9875 16.9871 45.9875C12.4816 45.9875 8.16058 44.1976 4.97467 41.0117Z" fill="#3B03A8"/>
<path d="M53.0244 16.9866L41.012 28.9991L28.9995 16.9866C32.1854 13.8007 36.5064 12.0109 41.012 12.0109C45.5175 12.0109 49.8385 13.8007 53.0244 16.9866Z" fill="#27E4CD"/>
<path d="M28.9993 41.0109L16.9875 28.9991L28.9993 16.9873V41.0109Z" fill="#27E4CD"/>
<path d="M41.0111 28.9991L28.9993 41.0109V16.9873L41.0111 28.9991Z" fill="#5203EA"/>
<defs>
<clipPath id="clip0">
<rect width="109.948" height="46.4" fill="white" transform="translate(67.28 6.18665)"/>
</clipPath>
</defs>
</svg>
