<svg width="18" height="17" viewBox="0 0 18 17" fill="none" xmlns="http://www.w3.org/2000/svg">
<path d="M4.61449 6.08825C4.06221 7.04484 2.83903 7.37259 1.88244 6.8203C0.925856 6.26802 0.598106 5.04484 1.15039 4.08825C1.70268 3.13167 2.92586 2.80392 3.88244 3.3562C4.83903 3.90849 5.16678 5.13167 4.61449 6.08825Z" fill="#3B03A8"/>
<circle cx="14.2887" cy="11.6737" r="2" transform="rotate(30 14.2887 11.6737)" fill="#3B03A8"/>
<path d="M11.8495 2.89747C9.87071 1.75499 7.47493 1.98101 5.76187 3.28699L4.54932 1.69648C6.88134 -0.0813779 10.1479 -0.394365 12.8495 1.16542C15.5512 2.7252 16.9134 5.71063 16.5397 8.61915L14.556 8.36431C14.8305 6.22776 13.8284 4.03995 11.8495 2.89747Z" fill="#D2C2FF"/>
<path fill-rule="evenodd" clip-rule="evenodd" d="M2.76181 8.48311C2.48733 10.6197 3.48948 12.8075 5.46831 13.95C7.44714 15.0924 9.84292 14.8664 11.556 13.5604L12.7685 15.1509C10.4365 16.9288 7.16993 17.2418 4.46831 15.682C1.76669 14.1222 0.404458 11.1368 0.778111 8.22827L2.76181 8.48311Z" fill="#D2C2FF"/>
</svg>
