<svg xmlns="http://www.w3.org/2000/svg" width="38" height="38" viewBox="0 0 38 38">
    <g fill="none" fill-rule="evenodd">
        <path fill="#0077B5" d="M.25 19C.25 8.507 8.645 0 19 0s18.75 8.507 18.75 19S29.355 38 19 38 .25 29.493.25 19z"/>
        <path fill="#FFF" d="M14.146 14.84v12.393h-4.07V14.841h4.07zm.268-3.833c0 1.19-.884 2.142-2.303 2.142h-.026c-1.367 0-2.25-.952-2.25-2.142 0-1.215.91-2.14 2.303-2.14 1.392 0 2.25.925 2.276 2.14zm14.41 9.12v7.106h-4.07v-6.63c0-1.665-.589-2.802-2.062-2.802-1.125 0-1.794.767-2.089 1.506-.107.266-.134.635-.134 1.005v6.921H16.4s.053-11.23 0-12.392h4.07v1.755c.54-.844 1.508-2.046 3.67-2.046 2.678 0 4.686 1.771 4.686 5.578z"/>
    </g>
</svg>
