<svg width="50" height="50" viewBox="0 0 50 50" fill="none" xmlns="http://www.w3.org/2000/svg">
<circle cx="25" cy="25" r="25" fill="#D6E4FF"/>
<path d="M26.7796 23.72C27.7929 23.96 28.6129 24.4333 29.2396 25.14C29.8796 25.8333 30.1996 26.7067 30.1996 27.76C30.1996 29.16 29.7263 30.26 28.7796 31.06C27.8329 31.86 26.6729 32.26 25.2996 32.26C24.2329 32.26 23.2729 32.0133 22.4196 31.52C21.5796 31.0267 20.9729 30.3067 20.5996 29.36L22.5596 28.22C22.9729 29.42 23.8863 30.02 25.2996 30.02C26.0996 30.02 26.7329 29.82 27.1996 29.42C27.6663 29.0067 27.8996 28.4533 27.8996 27.76C27.8996 27.0667 27.6663 26.52 27.1996 26.12C26.7329 25.72 26.0996 25.52 25.2996 25.52H24.7796L23.8596 24.14L26.8796 20.16H21.0196V18H29.6196V19.96L26.7796 23.72Z" fill="#222222"/>
</svg>
