<svg width="48" height="48" viewBox="0 0 48 48" fill="none" xmlns="http://www.w3.org/2000/svg">
<path d="M2 15C2 12.7909 3.79086 11 6 11H42C44.2091 11 46 12.7909 46 15V33C46 35.2091 44.2091 37 42 37H6C3.79086 37 2 35.2091 2 33V15Z" fill="#DCFAF0"/>
<path d="M18.0028 19.2727V28H16.7926L12.3565 21.5994H12.2756V28H10.9588V19.2727H12.1776L16.6179 25.6818H16.6989V19.2727H18.0028ZM19.9237 28V19.2727H25.3952V20.4062H21.2404V23.0653H25.1097V24.1946H21.2404V26.8665H25.4464V28H19.9237ZM28.8629 28L26.4425 19.2727H27.8274L29.5277 26.0312H29.6087L31.3771 19.2727H32.7493L34.5178 26.0355H34.5987L36.2947 19.2727H37.6839L35.2592 28H33.9339L32.0973 21.4631H32.0291L30.1925 28H28.8629Z" fill="#08C0A6"/>
</svg>
