<svg width="174" height="58" viewBox="0 0 174 58" fill="none" xmlns="http://www.w3.org/2000/svg">
<path d="M159.695 0.000188499H13.8252C13.2935 0.000188499 12.7682 0.000188499 12.2379 0.00308849C11.794 0.00598848 11.3536 0.014413 10.9054 0.0215034C9.93176 0.032961 8.9604 0.118619 7.99977 0.277732C7.04049 0.440309 6.11126 0.746814 5.2435 1.18688C4.37681 1.63067 3.58489 2.20732 2.89647 2.89593C2.20443 3.5826 1.62757 4.3763 1.18805 5.2465C0.747328 6.11498 0.441727 7.04563 0.281807 8.00631C0.120365 8.96578 0.0334925 9.93631 0.0219674 10.9092C0.00851147 11.3538 0.00709048 11.7998 0 12.2444V45.76C0.00709048 46.2102 0.00851147 46.6464 0.0219674 47.0968C0.0334961 48.0696 0.120369 49.0401 0.281807 49.9995C0.441286 50.9607 0.746904 51.8919 1.18805 52.7607C1.62737 53.6281 2.20431 54.4186 2.89647 55.1015C3.58228 55.7931 4.37471 56.3702 5.2435 56.8106C6.11125 57.2518 7.04038 57.5601 7.99977 57.7252C8.96056 57.8831 9.93183 57.9688 10.9054 57.9816C11.3536 57.9914 11.794 57.9971 12.2379 57.9971C12.7682 58 13.2936 58 13.8252 58H159.695C160.216 58 160.746 58 161.267 57.9971C161.709 57.9971 162.162 57.9914 162.603 57.9816C163.575 57.9694 164.545 57.8837 165.503 57.7252C166.466 57.559 167.398 57.2507 168.27 56.8106C169.138 56.3699 169.93 55.7929 170.615 55.1015C171.306 54.4159 171.884 53.626 172.329 52.7607C172.766 51.8913 173.069 50.9602 173.226 49.9995C173.388 49.04 173.478 48.0697 173.495 47.0968C173.501 46.6464 173.501 46.2102 173.501 45.76C173.512 45.2332 173.512 44.7093 173.512 44.174V13.8275C173.512 13.2965 173.512 12.7698 173.501 12.2444C173.501 11.7998 173.501 11.3538 173.495 10.9091C173.478 9.93617 173.388 8.96585 173.226 8.00625C173.069 7.04612 172.766 6.11555 172.329 5.24645C171.434 3.50221 170.014 2.08242 168.27 1.18675C167.398 0.747759 166.466 0.441336 165.503 0.277602C164.545 0.117787 163.575 0.0320997 162.603 0.0213004C162.162 0.0142245 161.709 0.00572748 161.267 0.00289999C160.746 0 160.216 0 159.695 0V0.000188499Z" fill="#A6A6A6"/>
<path d="M12.2449 56.7312C11.8032 56.7312 11.372 56.7256 10.9337 56.7157C10.0257 56.7039 9.11982 56.6248 8.22348 56.4792C7.38769 56.3353 6.57803 56.0675 5.82122 55.6848C5.07134 55.3052 4.38739 54.8075 3.79557 54.2107C3.19519 53.621 2.69534 52.937 2.31584 52.1858C1.93215 51.4298 1.66662 50.6194 1.52849 49.7829C1.37932 48.884 1.29861 47.9752 1.28707 47.0641C1.27787 46.7583 1.26584 45.7401 1.26584 45.7401V12.2444C1.26584 12.2444 1.27866 11.2419 1.28714 10.9473C1.2982 10.0377 1.37843 9.13029 1.52716 8.23286C1.66554 7.39406 1.93128 6.58134 2.31517 5.82282C2.69328 5.07218 3.19035 4.38766 3.78712 3.7958C4.38322 3.19832 5.06935 2.69804 5.82051 2.31322C6.57558 1.9317 7.38371 1.66583 8.21781 1.52451C9.11709 1.37743 10.0261 1.29792 10.9373 1.28663L12.2457 1.26892H161.26L162.584 1.28734C163.486 1.29806 164.387 1.37687 165.278 1.52309C166.121 1.66618 166.937 1.93391 167.701 2.31747C169.206 3.09299 170.43 4.31995 171.203 5.82636C171.581 6.57964 171.842 7.38574 171.979 8.21728C172.129 9.12208 172.214 10.0367 172.231 10.9537C172.235 11.3644 172.235 11.8055 172.235 12.2444C172.246 12.7882 172.246 13.3057 172.246 13.8275V44.174C172.246 44.7008 172.246 45.2148 172.235 45.733C172.235 46.2046 172.235 46.6365 172.229 47.0811C172.212 47.9818 172.13 48.88 171.982 49.7687C171.846 50.6112 171.582 51.4279 171.199 52.1901C170.816 52.9332 170.319 53.6112 169.726 54.1994C169.134 54.7994 168.448 55.3 167.697 55.682C166.935 56.0677 166.12 56.3365 165.278 56.4792C164.382 56.6256 163.476 56.7047 162.568 56.7157C162.143 56.7256 161.698 56.7312 161.267 56.7312L159.695 56.7341L12.2449 56.7312Z" fill="black"/>
<path d="M35.9147 29.4361C35.9303 28.2258 36.2518 27.0392 36.8492 25.9866C37.4466 24.9339 38.3006 24.0495 39.3317 23.4156C38.6767 22.4801 37.8126 21.7103 36.808 21.1672C35.8034 20.6241 34.686 20.3227 33.5446 20.287C31.1097 20.0314 28.7491 21.744 27.5084 21.744C26.2436 21.744 24.3332 20.3124 22.2761 20.3547C20.9454 20.3977 19.6486 20.7846 18.512 21.4778C17.3754 22.171 16.4377 23.1468 15.7903 24.3101C12.9861 29.1653 15.0778 36.3008 17.7641 40.2254C19.1081 42.1471 20.6788 44.2937 22.7341 44.2176C24.7454 44.1342 25.4965 42.9351 27.9242 42.9351C30.3294 42.9351 31.0342 44.2176 33.1312 44.1692C35.2893 44.1342 36.6491 42.2389 37.9459 40.299C38.9116 38.9297 39.6546 37.4163 40.1476 35.8149C38.8938 35.2846 37.8238 34.3969 37.0711 33.2626C36.3183 32.1282 35.9162 30.7974 35.9147 29.4361Z" fill="white"/>
<path d="M31.9539 17.7059C33.1306 16.2933 33.7103 14.4777 33.5699 12.6445C31.7722 12.8334 30.1116 13.6926 28.919 15.051C28.3359 15.7146 27.8893 16.4866 27.6047 17.3229C27.3202 18.1592 27.2032 19.0434 27.2606 19.925C28.1598 19.9342 29.0494 19.7393 29.8623 19.3549C30.6753 18.9706 31.3904 18.4067 31.9539 17.7059Z" fill="white"/>
<path d="M61.338 39.3525H54.4746L52.8264 44.2193H49.9193L56.4202 26.2133H59.4405L65.9414 44.2193H62.9848L61.338 39.3525ZM55.1854 37.1067H60.6258L57.9439 29.2082H57.8688L55.1854 37.1067Z" fill="white"/>
<path d="M79.9812 37.6561C79.9812 41.7356 77.7978 44.3566 74.5027 44.3566C73.668 44.4003 72.8379 44.208 72.1074 43.8018C71.3769 43.3956 70.7755 42.7919 70.3722 42.0598H70.3098V48.5622H67.6152V31.0914H70.2235V33.2749H70.2731C70.695 32.5464 71.3065 31.9458 72.0425 31.5371C72.7786 31.1284 73.6117 30.9269 74.4531 30.9541C77.7849 30.9541 79.9812 33.5879 79.9812 37.6561ZM77.2115 37.6561C77.2115 34.9982 75.838 33.2509 73.7423 33.2509C71.6834 33.2509 70.2985 35.035 70.2985 37.6561C70.2985 40.3012 71.6834 42.0726 73.7423 42.0726C75.838 42.0726 77.2115 40.338 77.2115 37.6561Z" fill="white"/>
<path d="M94.4301 37.6562C94.4301 41.7357 92.2466 44.3567 88.9516 44.3567C88.1169 44.4004 87.2868 44.2081 86.5563 43.8019C85.8258 43.3957 85.2244 42.792 84.8211 42.0599H84.7587V48.5623H82.0641V31.0915H84.6723V33.275H84.7219C85.1438 32.5465 85.7553 31.9459 86.4914 31.5372C87.2274 31.1285 88.0605 30.9271 88.902 30.9542C92.2339 30.9542 94.4301 33.588 94.4301 37.6562ZM91.6604 37.6562C91.6604 34.9983 90.2869 33.251 88.1912 33.251C86.1323 33.251 84.7474 35.0351 84.7474 37.6562C84.7474 40.3013 86.1323 42.0727 88.1912 42.0727C90.2869 42.0727 91.6604 40.3381 91.6604 37.6562H91.6604Z" fill="white"/>
<path d="M103.98 39.2024C104.179 40.988 105.914 42.1604 108.284 42.1604C110.556 42.1604 112.19 40.988 112.19 39.3779C112.19 37.9803 111.204 37.1435 108.871 36.57L106.537 36.0078C103.231 35.2092 101.696 33.6629 101.696 31.1537C101.696 28.047 104.403 25.9131 108.248 25.9131C112.052 25.9131 114.661 28.047 114.749 31.1537H112.028C111.866 29.3568 110.38 28.2722 108.209 28.2722C106.039 28.2722 104.553 29.3696 104.553 30.9668C104.553 32.2398 105.502 32.9889 107.823 33.5623L109.807 34.0494C113.501 34.9231 115.036 36.4071 115.036 39.0409C115.036 42.4096 112.353 44.5194 108.085 44.5194C104.092 44.5194 101.396 42.4591 101.221 39.2023L103.98 39.2024Z" fill="white"/>
<path d="M120.852 27.9849V31.0916H123.348V33.2255H120.852V40.4628C120.852 41.5871 121.351 42.111 122.449 42.111C122.745 42.1058 123.041 42.085 123.335 42.0486V44.1698C122.842 44.262 122.34 44.3038 121.838 44.2944C119.181 44.2944 118.144 43.2961 118.144 40.7502V33.2255H116.235V31.0916H118.144V27.9849H120.852Z" fill="white"/>
<path d="M124.794 37.6561C124.794 33.5256 127.226 30.9301 131.02 30.9301C134.826 30.9301 137.248 33.5255 137.248 37.6561C137.248 41.7979 134.839 44.3822 131.02 44.3822C127.202 44.3822 124.794 41.7979 124.794 37.6561ZM134.502 37.6561C134.502 34.8227 133.203 33.1504 131.02 33.1504C128.836 33.1504 127.539 34.8354 127.539 37.6561C127.539 40.5009 128.836 42.1604 131.02 42.1604C133.203 42.1604 134.502 40.5009 134.502 37.6561H134.502Z" fill="white"/>
<path d="M139.469 31.0916H142.039V33.326H142.102C142.276 32.6281 142.684 32.0114 143.259 31.5795C143.834 31.1475 144.541 30.9267 145.259 30.9542C145.57 30.9531 145.88 30.9868 146.183 31.0547V33.5752C145.791 33.4554 145.382 33.4004 144.972 33.4124C144.58 33.3965 144.19 33.4655 143.828 33.6147C143.466 33.7639 143.14 33.9897 142.873 34.2767C142.606 34.5636 142.405 34.9049 142.282 35.277C142.16 35.6492 142.12 36.0435 142.164 36.4327V44.2194H139.469L139.469 31.0916Z" fill="white"/>
<path d="M158.607 40.3635C158.244 42.7467 155.923 44.3822 152.954 44.3822C149.135 44.3822 146.765 41.8234 146.765 37.7184C146.765 33.6007 149.148 30.9301 152.841 30.9301C156.473 30.9301 158.757 33.4251 158.757 37.4055V38.3287H149.485V38.4915C149.442 38.9747 149.502 39.4614 149.662 39.9194C149.822 40.3773 150.077 40.7961 150.411 41.1478C150.745 41.4995 151.15 41.7761 151.599 41.9592C152.049 42.1423 152.532 42.2278 153.016 42.21C153.653 42.2697 154.292 42.1222 154.838 41.7895C155.384 41.4568 155.809 40.9567 156.048 40.3635L158.607 40.3635ZM149.497 36.4454H156.061C156.085 36.011 156.019 35.5763 155.867 35.1685C155.715 34.7608 155.481 34.3888 155.179 34.0759C154.876 33.7631 154.513 33.5161 154.11 33.3505C153.708 33.1849 153.276 33.1042 152.841 33.1135C152.402 33.1109 151.967 33.1952 151.561 33.3616C151.155 33.528 150.786 33.7731 150.475 34.0829C150.164 34.3927 149.918 34.7609 149.75 35.1664C149.582 35.5719 149.496 36.0066 149.497 36.4454V36.4454Z" fill="white"/>
<path d="M54.8477 12.6601C55.4127 12.6195 55.9796 12.7049 56.5075 12.91C57.0355 13.115 57.5113 13.4347 57.9008 13.846C58.2902 14.2573 58.5836 14.7498 58.7596 15.2882C58.9356 15.8265 58.99 16.3972 58.9188 16.9591C58.9188 19.7231 57.4249 21.312 54.8477 21.312H51.7226V12.6601H54.8477ZM53.0664 20.0884H54.6976C55.1013 20.1125 55.5053 20.0464 55.8802 19.8947C56.2551 19.743 56.5914 19.5096 56.8647 19.2115C57.138 18.9135 57.3414 18.5582 57.4601 18.1716C57.5788 17.785 57.6098 17.3768 57.5509 16.9767C57.6056 16.5782 57.5714 16.1725 57.4509 15.7888C57.3304 15.405 57.1265 15.0527 56.8538 14.757C56.5811 14.4613 56.2464 14.2296 55.8736 14.0784C55.5008 13.9273 55.0992 13.8604 54.6976 13.8827H53.0664V20.0884Z" fill="white"/>
<path d="M60.4367 18.0444C60.3956 17.6153 60.4447 17.1824 60.5808 16.7734C60.7169 16.3644 60.9369 15.9883 61.2268 15.6693C61.5167 15.3504 61.8701 15.0955 62.2643 14.9211C62.6585 14.7467 63.0848 14.6566 63.5158 14.6566C63.9468 14.6566 64.3731 14.7467 64.7673 14.9211C65.1615 15.0955 65.5149 15.3504 65.8048 15.6693C66.0947 15.9883 66.3147 16.3644 66.4508 16.7734C66.5869 17.1824 66.636 17.6153 66.5949 18.0444C66.6367 18.4739 66.5882 18.9074 66.4525 19.3171C66.3168 19.7267 66.0969 20.1034 65.8069 20.423C65.5169 20.7427 65.1633 20.998 64.7687 21.1728C64.3741 21.3476 63.9474 21.4379 63.5158 21.4379C63.0842 21.4379 62.6575 21.3476 62.2629 21.1728C61.8683 20.998 61.5147 20.7427 61.2247 20.423C60.9347 20.1034 60.7148 19.7267 60.5791 19.3171C60.4434 18.9074 60.3949 18.4739 60.4367 18.0444ZM65.2695 18.0444C65.2695 16.6291 64.6337 15.8014 63.5179 15.8014C62.3979 15.8014 61.7678 16.6291 61.7678 18.0444C61.7678 19.471 62.3979 20.2923 63.5179 20.2923C64.6338 20.2923 65.2695 19.4653 65.2695 18.0444H65.2695Z" fill="white"/>
<path d="M74.7809 21.3118H73.4442L72.0948 16.503H71.9928L70.649 21.3118H69.325L67.5253 14.7826H68.8323L70.0019 19.7648H70.0982L71.4406 14.7826H72.6768L74.0191 19.7648H74.1211L75.285 14.7826H76.5736L74.7809 21.3118Z" fill="white"/>
<path d="M78.0873 14.7825H79.3277V15.8197H79.424C79.5874 15.4472 79.8629 15.1349 80.2121 14.9264C80.5614 14.7179 80.967 14.6235 81.3725 14.6565C81.6902 14.6326 82.0092 14.6805 82.3058 14.7966C82.6025 14.9127 82.8692 15.0941 83.0863 15.3274C83.3033 15.5606 83.4651 15.8397 83.5596 16.1439C83.6542 16.4481 83.679 16.7697 83.6324 17.0849V21.3116H82.3438V17.4085C82.3438 16.3592 81.8879 15.8374 80.9349 15.8374C80.7192 15.8274 80.5039 15.8641 80.3037 15.945C80.1035 16.026 79.9232 16.1493 79.7751 16.3064C79.6271 16.4636 79.5147 16.6509 79.4458 16.8555C79.3769 17.0602 79.353 17.2773 79.3759 17.492V21.3117H78.0873L78.0873 14.7825Z" fill="white"/>
<path d="M85.6856 12.2338H86.9742V21.3118H85.6856V12.2338Z" fill="white"/>
<path d="M88.7655 18.0444C88.7245 17.6152 88.7736 17.1823 88.9097 16.7733C89.0458 16.3643 89.2659 15.9882 89.5558 15.6692C89.8457 15.3503 90.1992 15.0954 90.5934 14.921C90.9876 14.7466 91.4139 14.6565 91.845 14.6565C92.276 14.6565 92.7023 14.7466 93.0965 14.921C93.4907 15.0954 93.8441 15.3503 94.1341 15.6692C94.424 15.9882 94.6441 16.3643 94.7802 16.7733C94.9163 17.1823 94.9654 17.6152 94.9244 18.0444C94.9662 18.4739 94.9176 18.9074 94.7819 19.3171C94.6461 19.7267 94.4262 20.1035 94.1362 20.4231C93.8462 20.7426 93.4925 20.998 93.0979 21.1728C92.7033 21.3476 92.2765 21.4378 91.845 21.4378C91.4134 21.4378 90.9866 21.3476 90.592 21.1728C90.1974 20.998 89.8437 20.7426 89.5537 20.4231C89.2637 20.1035 89.0438 19.7267 88.908 19.3171C88.7722 18.9074 88.7237 18.4739 88.7655 18.0444ZM93.5983 18.0444C93.5983 16.6291 92.9625 15.8014 91.8467 15.8014C90.7267 15.8014 90.0966 16.6291 90.0966 18.0444C90.0966 19.471 90.7267 20.2923 91.8467 20.2923C92.9625 20.2923 93.5983 19.4653 93.5983 18.0444H93.5983Z" fill="white"/>
<path d="M96.2809 19.4653C96.2809 18.29 97.156 17.6124 98.7094 17.5161L100.478 17.4142V16.8506C100.478 16.161 100.022 15.7716 99.1413 15.7716C98.422 15.7716 97.9235 16.0357 97.7805 16.4973H96.533C96.6647 15.3758 97.7196 14.6565 99.2008 14.6565C100.838 14.6565 101.761 15.4714 101.761 16.8506V21.3117H100.52V20.3942H100.419C100.212 20.7233 99.921 20.9916 99.5765 21.1717C99.2319 21.3518 98.8457 21.4373 98.4574 21.4193C98.1833 21.4478 97.9062 21.4186 97.6441 21.3335C97.382 21.2484 97.1407 21.1093 96.9356 20.9252C96.7306 20.7411 96.5664 20.516 96.4536 20.2646C96.3408 20.0131 96.282 19.7408 96.2809 19.4653ZM100.478 18.9073V18.3615L98.8836 18.4634C97.9844 18.5236 97.5766 18.8295 97.5766 19.4051C97.5766 19.9927 98.0863 20.3347 98.7873 20.3347C98.9927 20.3555 99.2002 20.3347 99.3974 20.2737C99.5946 20.2127 99.7775 20.1126 99.9352 19.9794C100.093 19.8463 100.222 19.6827 100.316 19.4985C100.409 19.3144 100.464 19.1133 100.478 18.9073Z" fill="white"/>
<path d="M103.454 18.0444C103.454 15.9813 104.515 14.6743 106.165 14.6743C106.573 14.6555 106.978 14.7532 107.332 14.9561C107.687 15.1589 107.976 15.4585 108.167 15.8198H108.263V12.2338H109.552V21.3118H108.317V20.2802H108.215C108.01 20.6391 107.71 20.9349 107.349 21.1357C106.987 21.3365 106.578 21.4346 106.165 21.4194C104.504 21.4195 103.454 20.1125 103.454 18.0444ZM104.786 18.0444C104.786 19.4292 105.438 20.2626 106.53 20.2626C107.616 20.2626 108.287 19.4172 108.287 18.0501C108.287 16.6893 107.609 15.8319 106.53 15.8319C105.445 15.8319 104.785 16.6709 104.785 18.0444H104.786Z" fill="white"/>
<path d="M114.883 18.0444C114.842 17.6153 114.891 17.1824 115.027 16.7734C115.163 16.3644 115.383 15.9883 115.673 15.6693C115.963 15.3504 116.316 15.0955 116.711 14.9211C117.105 14.7467 117.531 14.6566 117.962 14.6566C118.393 14.6566 118.819 14.7467 119.214 14.9211C119.608 15.0955 119.961 15.3504 120.251 15.6693C120.541 15.9883 120.761 16.3644 120.897 16.7734C121.033 17.1824 121.082 17.6153 121.041 18.0444C121.083 18.4739 121.035 18.9074 120.899 19.3171C120.763 19.7267 120.543 20.1034 120.253 20.423C119.963 20.7427 119.61 20.998 119.215 21.1728C118.82 21.3476 118.394 21.4379 117.962 21.4379C117.531 21.4379 117.104 21.3476 116.709 21.1728C116.315 20.998 115.961 20.7427 115.671 20.423C115.381 20.1034 115.161 19.7267 115.025 19.3171C114.89 18.9074 114.841 18.4739 114.883 18.0444ZM119.716 18.0444C119.716 16.6291 119.08 15.8014 117.964 15.8014C116.844 15.8014 116.214 16.6291 116.214 18.0444C116.214 19.471 116.844 20.2923 117.964 20.2923C119.08 20.2923 119.716 19.4653 119.716 18.0444Z" fill="white"/>
<path d="M122.77 14.7825H124.011V15.8197H124.107C124.27 15.4472 124.546 15.1349 124.895 14.9264C125.244 14.7179 125.65 14.6235 126.055 14.6565C126.373 14.6326 126.692 14.6805 126.989 14.7966C127.285 14.9127 127.552 15.0941 127.769 15.3274C127.986 15.5606 128.148 15.8397 128.243 16.1439C128.337 16.4481 128.362 16.7697 128.315 17.0849V21.3116H127.027V17.4085C127.027 16.3592 126.571 15.8374 125.618 15.8374C125.402 15.8274 125.187 15.8641 124.987 15.945C124.786 16.026 124.606 16.1493 124.458 16.3064C124.31 16.4636 124.198 16.6509 124.129 16.8555C124.06 17.0602 124.036 17.2773 124.059 17.492V21.3117H122.77V14.7825Z" fill="white"/>
<path d="M135.596 13.157V14.8123H137.011V15.8977H135.596V19.255C135.596 19.939 135.878 20.2385 136.52 20.2385C136.684 20.2379 136.848 20.228 137.011 20.2087V21.282C136.78 21.3234 136.545 21.3455 136.31 21.3479C134.877 21.3479 134.306 20.8438 134.306 19.585V15.8976H133.27V14.8122H134.306V13.157H135.596Z" fill="white"/>
<path d="M138.771 12.2338H140.048V15.8319H140.15C140.322 15.4558 140.605 15.1418 140.961 14.9325C141.317 14.7232 141.729 14.6288 142.141 14.6622C142.457 14.645 142.773 14.6978 143.066 14.8168C143.36 14.9357 143.623 15.1179 143.838 15.3504C144.053 15.5829 144.214 15.8599 144.309 16.1617C144.404 16.4635 144.432 16.7827 144.39 17.0964V21.3118H143.1V17.4142C143.1 16.3713 142.614 15.8432 141.704 15.8432C141.482 15.825 141.26 15.8554 141.051 15.9324C140.843 16.0093 140.653 16.1309 140.497 16.2885C140.34 16.4462 140.22 16.6362 140.145 16.8452C140.069 17.0542 140.04 17.2771 140.06 17.4985V21.3118H138.771L138.771 12.2338Z" fill="white"/>
<path d="M151.903 19.5489C151.728 20.1456 151.349 20.6618 150.832 21.0071C150.314 21.3525 149.692 21.5049 149.074 21.4379C148.644 21.4492 148.216 21.3668 147.821 21.1964C147.426 21.026 147.073 20.7716 146.786 20.451C146.499 20.1303 146.285 19.7511 146.159 19.3396C146.034 18.928 145.999 18.494 146.058 18.0678C146.001 17.6402 146.036 17.2053 146.161 16.7925C146.287 16.3797 146.499 15.9987 146.785 15.6753C147.07 15.3518 147.422 15.0935 147.816 14.9177C148.21 14.742 148.637 14.6529 149.068 14.6566C150.885 14.6566 151.981 15.8978 151.981 17.9481V18.3977H147.371V18.4699C147.35 18.7095 147.381 18.9507 147.459 19.178C147.537 19.4053 147.663 19.6137 147.826 19.7898C147.99 19.9659 148.189 20.1058 148.41 20.2007C148.631 20.2955 148.869 20.3431 149.109 20.3404C149.418 20.3774 149.73 20.3219 150.007 20.181C150.283 20.04 150.512 19.82 150.663 19.5489L151.903 19.5489ZM147.371 17.4447H150.668C150.685 17.2256 150.655 17.0055 150.581 16.7985C150.507 16.5916 150.391 16.4024 150.239 16.2431C150.088 16.0838 149.905 15.958 149.702 15.8736C149.499 15.7892 149.281 15.7483 149.061 15.7533C148.838 15.7505 148.617 15.7924 148.411 15.8764C148.204 15.9604 148.017 16.0849 147.859 16.2425C147.702 16.4002 147.577 16.5877 147.493 16.7942C147.409 17.0007 147.368 17.2219 147.371 17.4447H147.371Z" fill="white"/>
</svg>
