<svg width="24" height="24" viewBox="0 0 24 24" fill="none" xmlns="http://www.w3.org/2000/svg">
<mask id="mask0" mask-type="alpha" maskUnits="userSpaceOnUse" x="1" y="1" width="22" height="22">
<rect x="1" y="1" width="22" height="22" rx="11" fill="#C4C4C4"/>
</mask>
<g mask="url(#mask0)">
<path fill-rule="evenodd" clip-rule="evenodd" d="M1 23H33.2664V12.7334H1V23Z" fill="#FFFFFE"/>
<path fill-rule="evenodd" clip-rule="evenodd" d="M1 12.7333H33.2664V1H1V12.7333Z" fill="#D72C3A"/>
<path fill-rule="evenodd" clip-rule="evenodd" d="M9.4541 5.5338H10.0668L10.2582 4.90845L10.4497 5.51578H11.0432L10.555 5.89339L10.7661 6.50164L10.2482 6.12449L9.7408 6.51135L9.93276 5.91327L9.4541 5.5338Z" fill="#FFFFFE"/>
<path fill-rule="evenodd" clip-rule="evenodd" d="M7.41211 6.98982H8.02479L8.21626 6.36401L8.40822 6.97179H9.00225L8.51353 7.34896L8.72464 7.95628L8.20718 7.5782L7.6988 7.96553L7.89077 7.36698L7.41211 6.98982Z" fill="#FFFFFE"/>
<path fill-rule="evenodd" clip-rule="evenodd" d="M11.5 6.98982H12.1117L12.3036 6.36401L12.4961 6.97179H13.0896L12.6019 7.34896L12.8115 7.95628L12.2941 7.5782L11.7877 7.96553L11.9786 7.36698L11.5 6.98982Z" fill="#FFFFFE"/>
<path fill-rule="evenodd" clip-rule="evenodd" d="M10.7373 9.33846H11.351L11.5415 8.71265L11.7329 9.32136H12.3264L11.8372 9.69944L12.0483 10.3058L11.5304 9.92776L11.023 10.316L11.215 9.71654L10.7373 9.33846Z" fill="#FFFFFE"/>
<path fill-rule="evenodd" clip-rule="evenodd" d="M8.17969 9.33846H8.79286L8.98484 8.71265L9.17629 9.32136H9.76983L9.28059 9.69944L9.4917 10.3058L8.97576 9.92776L8.46788 10.316L8.65935 9.71654L8.17969 9.33846Z" fill="#FFFFFE"/>
<path fill-rule="evenodd" clip-rule="evenodd" d="M6.17768 7.91595C6.17768 6.38053 7.18136 4.59783 9.40697 4.37923C9.03719 4.28262 8.64748 4.19434 8.24574 4.19434C5.85795 4.19434 4.68652 6.23356 4.68652 7.85495C4.68652 9.45276 5.7713 11.5696 8.15816 11.5696C8.58493 11.5696 8.99549 11.5128 9.38334 11.406C7.12715 11.229 6.17768 9.29377 6.17768 7.91595Z" fill="#FFFFFE"/>
<path fill-rule="evenodd" clip-rule="evenodd" d="M1.91667 12C1.91667 17.5689 6.43113 22.0833 12 22.0833C17.5689 22.0833 22.0833 17.5689 22.0833 12C22.0833 6.43113 17.5689 1.91667 12 1.91667C6.43113 1.91667 1.91667 6.43113 1.91667 12ZM12 1C5.92487 1 1 5.92487 1 12C1 18.0751 5.92487 23 12 23C18.0751 23 23 18.0751 23 12C23 5.92487 18.0751 1 12 1Z" fill="#CCCCCC"/>
</g>
</svg>
