<svg width="196" height="58" viewBox="0 0 196 58" fill="none" xmlns="http://www.w3.org/2000/svg">
<path d="M188.5 58H7.25C3.19 58 0 54.81 0 50.75V7.25C0 3.19 3.19 0 7.25 0H188.5C192.56 0 195.75 3.19 195.75 7.25V50.75C195.75 54.81 192.56 58 188.5 58Z" fill="black"/>
<path d="M188.5 1.16C191.835 1.16 194.59 3.915 194.59 7.25V50.75C194.59 54.085 191.835 56.84 188.5 56.84H7.25C3.915 56.84 1.16 54.085 1.16 50.75V7.25C1.16 3.915 3.915 1.16 7.25 1.16H188.5ZM188.5 0H7.25C3.19 0 0 3.335 0 7.25V50.75C0 54.81 3.19 58 7.25 58H188.5C192.56 58 195.75 54.81 195.75 50.75V7.25C195.75 3.335 192.56 0 188.5 0Z" fill="#A6A6A6"/>
<path d="M68.73 14.79C68.73 15.95 68.44 16.965 67.715 17.69C66.845 18.56 65.83 18.995 64.525 18.995C63.22 18.995 62.205 18.56 61.335 17.69C60.465 16.82 60.03 15.805 60.03 14.5C60.03 13.195 60.465 12.18 61.335 11.31C62.205 10.44 63.22 10.005 64.525 10.005C65.105 10.005 65.685 10.15 66.265 10.44C66.845 10.73 67.28 11.02 67.57 11.455L66.845 12.18C66.265 11.455 65.54 11.165 64.525 11.165C63.655 11.165 62.785 11.455 62.205 12.18C61.48 12.76 61.19 13.63 61.19 14.645C61.19 15.66 61.48 16.53 62.205 17.11C62.93 17.69 63.655 18.125 64.525 18.125C65.54 18.125 66.265 17.835 66.99 17.11C67.425 16.675 67.715 16.095 67.715 15.37H64.525V14.21H68.73C68.73 14.355 68.73 14.645 68.73 14.79Z" fill="white" stroke="white" stroke-width="0.2" stroke-miterlimit="10"/>
<path d="M75.4 11.165H71.485V13.92H75.11V14.935H71.485V17.69H75.4V18.85H70.325V10.15H75.4V11.165Z" fill="white" stroke="white" stroke-width="0.2" stroke-miterlimit="10"/>
<path d="M80.1851 18.85H79.0251V11.165H76.5601V10.15H82.6501V11.165H80.1851V18.85Z" fill="white" stroke="white" stroke-width="0.2" stroke-miterlimit="10"/>
<path d="M86.855 18.85V10.15H88.015V18.85H86.855Z" fill="white" stroke="white" stroke-width="0.2" stroke-miterlimit="10"/>
<path d="M92.9451 18.85H91.7851V11.165H89.3201V10.15H95.2651V11.165H92.8001V18.85H92.9451Z" fill="white" stroke="white" stroke-width="0.2" stroke-miterlimit="10"/>
<path d="M106.72 17.69C105.85 18.56 104.835 18.995 103.53 18.995C102.225 18.995 101.21 18.56 100.34 17.69C99.4701 16.82 99.0351 15.805 99.0351 14.5C99.0351 13.195 99.4701 12.18 100.34 11.31C101.21 10.44 102.225 10.005 103.53 10.005C104.835 10.005 105.85 10.44 106.72 11.31C107.59 12.18 108.025 13.195 108.025 14.5C108.025 15.805 107.59 16.82 106.72 17.69ZM101.21 16.965C101.79 17.545 102.66 17.98 103.53 17.98C104.4 17.98 105.27 17.69 105.85 16.965C106.43 16.385 106.865 15.515 106.865 14.5C106.865 13.485 106.575 12.615 105.85 12.035C105.27 11.455 104.4 11.02 103.53 11.02C102.66 11.02 101.79 11.31 101.21 12.035C100.63 12.615 100.195 13.485 100.195 14.5C100.195 15.515 100.485 16.385 101.21 16.965Z" fill="white" stroke="white" stroke-width="0.2" stroke-miterlimit="10"/>
<path d="M109.62 18.85V10.15H110.925L115.13 16.965V15.225V10.15H116.29V18.85H115.13L110.635 11.745V13.485V18.85H109.62Z" fill="white" stroke="white" stroke-width="0.2" stroke-miterlimit="10"/>
<path d="M98.745 31.6099C95.265 31.6099 92.51 34.2199 92.51 37.8449C92.51 41.3249 95.265 44.0799 98.745 44.0799C102.225 44.0799 104.98 41.4699 104.98 37.8449C104.98 34.0749 102.225 31.6099 98.745 31.6099ZM98.745 41.4699C96.86 41.4699 95.265 39.8749 95.265 37.6999C95.265 35.5249 96.86 33.9299 98.745 33.9299C100.63 33.9299 102.225 35.3799 102.225 37.6999C102.225 39.8749 100.63 41.4699 98.745 41.4699ZM85.26 31.6099C81.78 31.6099 79.025 34.2199 79.025 37.8449C79.025 41.3249 81.78 44.0799 85.26 44.0799C88.74 44.0799 91.495 41.4699 91.495 37.8449C91.495 34.0749 88.74 31.6099 85.26 31.6099ZM85.26 41.4699C83.375 41.4699 81.78 39.8749 81.78 37.6999C81.78 35.5249 83.375 33.9299 85.26 33.9299C87.145 33.9299 88.74 35.3799 88.74 37.6999C88.74 39.8749 87.145 41.4699 85.26 41.4699ZM69.165 33.4949V36.1049H75.4C75.255 37.5549 74.675 38.7149 73.95 39.4399C73.08 40.3099 71.63 41.3249 69.165 41.3249C65.25 41.3249 62.35 38.2799 62.35 34.3649C62.35 30.4499 65.395 27.4049 69.165 27.4049C71.195 27.4049 72.79 28.2749 73.95 29.2899L75.835 27.4049C74.24 25.9549 72.21 24.7949 69.31 24.7949C64.09 24.7949 59.595 29.1449 59.595 34.3649C59.595 39.5849 64.09 43.9349 69.31 43.9349C72.21 43.9349 74.24 43.0649 75.98 41.1799C77.72 39.4399 78.3 36.9749 78.3 35.0899C78.3 34.5099 78.3 33.9299 78.155 33.4949H69.165ZM134.995 35.5249C134.415 34.0749 132.965 31.6099 129.775 31.6099C126.585 31.6099 123.975 34.0749 123.975 37.8449C123.975 41.3249 126.585 44.0799 130.065 44.0799C132.82 44.0799 134.56 42.3399 135.14 41.3249L133.11 39.8749C132.385 40.8899 131.515 41.6149 130.065 41.6149C128.615 41.6149 127.745 41.0349 127.02 39.7299L135.285 36.2499L134.995 35.5249ZM126.585 37.5549C126.585 35.2349 128.47 33.9299 129.775 33.9299C130.79 33.9299 131.805 34.5099 132.095 35.2349L126.585 37.5549ZM119.77 43.4999H122.525V25.3749H119.77V43.4999ZM115.42 32.9149C114.695 32.1899 113.535 31.4649 112.085 31.4649C109.04 31.4649 106.14 34.2199 106.14 37.6999C106.14 41.1799 108.895 43.7899 112.085 43.7899C113.535 43.7899 114.695 43.0649 115.275 42.3399H115.42V43.2099C115.42 45.5299 114.115 46.8349 112.085 46.8349C110.49 46.8349 109.33 45.6749 109.04 44.6599L106.72 45.6749C107.445 47.2699 109.185 49.2999 112.23 49.2999C115.42 49.2999 118.03 47.4149 118.03 42.9199V31.8999H115.42V32.9149ZM112.23 41.4699C110.345 41.4699 108.75 39.8749 108.75 37.6999C108.75 35.5249 110.345 33.9299 112.23 33.9299C114.115 33.9299 115.565 35.5249 115.565 37.6999C115.565 39.8749 114.115 41.4699 112.23 41.4699ZM147.61 25.3749H141.085V43.4999H143.84V36.6849H147.61C150.655 36.6849 153.555 34.5099 153.555 31.0299C153.555 27.5499 150.655 25.3749 147.61 25.3749ZM147.755 34.0749H143.84V27.8399H147.755C149.785 27.8399 150.945 29.5799 150.945 30.8849C150.8 32.4799 149.64 34.0749 147.755 34.0749ZM164.43 31.4649C162.4 31.4649 160.37 32.3349 159.645 34.2199L162.11 35.2349C162.69 34.2199 163.56 33.9299 164.575 33.9299C166.025 33.9299 167.33 34.7999 167.475 36.2499V36.3949C167.04 36.1049 165.88 35.6699 164.72 35.6699C162.11 35.6699 159.5 37.1199 159.5 39.7299C159.5 42.1949 161.675 43.7899 163.995 43.7899C165.88 43.7899 166.75 42.9199 167.475 42.0499H167.62V43.4999H170.23V36.5399C169.94 33.3499 167.475 31.4649 164.43 31.4649ZM164.14 41.4699C163.27 41.4699 161.965 41.0349 161.965 39.8749C161.965 38.4249 163.56 37.9899 164.865 37.9899C166.025 37.9899 166.605 38.2799 167.33 38.5699C167.04 40.3099 165.59 41.4699 164.14 41.4699ZM179.365 31.8999L176.32 39.7299H176.175L172.985 31.8999H170.085L174.87 42.9199L172.115 49.0099H174.87L182.265 31.8999H179.365ZM155.005 43.4999H157.76V25.3749H155.005V43.4999Z" fill="white"/>
<path d="M15.08 10.875C14.645 11.31 14.5 12.035 14.5 12.905V44.95C14.5 45.82 14.79 46.545 15.225 46.98L15.37 47.125L33.35 29.145V29V28.855L15.08 10.875Z" fill="url(#paint0_linear)"/>
<path d="M39.15 35.235L33.205 29.29V29V28.855L39.15 22.91L39.295 23.055L46.4 27.115C48.43 28.275 48.43 30.16 46.4 31.32L39.15 35.235Z" fill="url(#paint1_linear)"/>
<path d="M39.295 35.09L33.205 29L15.08 47.125C15.805 47.85 16.82 47.85 18.125 47.27L39.295 35.09Z" fill="url(#paint2_linear)"/>
<path d="M39.295 22.91L18.125 10.875C16.82 10.15 15.805 10.295 15.08 11.02L33.205 29L39.295 22.91Z" fill="url(#paint3_linear)"/>
<path opacity="0.2" d="M39.15 34.9449L18.125 46.8349C16.965 47.5599 15.95 47.4149 15.225 46.8349L15.08 46.9799L15.225 47.1249C15.95 47.7049 16.965 47.8499 18.125 47.1249L39.15 34.9449Z" fill="black"/>
<path opacity="0.12" d="M15.08 46.8351C14.645 46.4001 14.5 45.6751 14.5 44.8051V44.9501C14.5 45.8201 14.79 46.5451 15.225 46.9801V46.8351H15.08Z" fill="black"/>
<path opacity="0.12" d="M46.4 30.885L39.15 34.945L39.295 35.09L46.4 31.03C47.415 30.45 47.85 29.725 47.85 29C47.85 29.725 47.27 30.305 46.4 30.885Z" fill="black"/>
<path opacity="0.25" d="M18.125 11.0201L46.4 27.1151C47.27 27.6951 47.85 28.2751 47.85 29.0001C47.85 28.2751 47.415 27.5501 46.4 26.9701L18.125 10.8751C16.095 9.7151 14.5 10.5851 14.5 12.9051V13.0501C14.5 10.8751 16.095 9.8601 18.125 11.0201Z" fill="white"/>
<defs>
<linearGradient id="paint0_linear" x1="31.6094" y1="12.6292" x2="7.27494" y2="36.9637" gradientUnits="userSpaceOnUse">
<stop stop-color="#00A0FF"/>
<stop offset="0.00657445" stop-color="#00A1FF"/>
<stop offset="0.2601" stop-color="#00BEFF"/>
<stop offset="0.5122" stop-color="#00D2FF"/>
<stop offset="0.7604" stop-color="#00DFFF"/>
<stop offset="1" stop-color="#00E3FF"/>
</linearGradient>
<linearGradient id="paint1_linear" x1="49.0598" y1="29.0022" x2="13.9743" y2="29.0022" gradientUnits="userSpaceOnUse">
<stop stop-color="#FFE000"/>
<stop offset="0.4087" stop-color="#FFBD00"/>
<stop offset="0.7754" stop-color="#FFA500"/>
<stop offset="1" stop-color="#FF9C00"/>
</linearGradient>
<linearGradient id="paint2_linear" x1="35.999" y1="32.3295" x2="2.99951" y2="65.329" gradientUnits="userSpaceOnUse">
<stop stop-color="#FF3A44"/>
<stop offset="1" stop-color="#C31162"/>
</linearGradient>
<linearGradient id="paint3_linear" x1="10.581" y1="0.255602" x2="25.3167" y2="14.9912" gradientUnits="userSpaceOnUse">
<stop stop-color="#32A071"/>
<stop offset="0.0685" stop-color="#2DA771"/>
<stop offset="0.4762" stop-color="#15CF74"/>
<stop offset="0.8009" stop-color="#06E775"/>
<stop offset="1" stop-color="#00F076"/>
</linearGradient>
</defs>
</svg>
