<svg width="24" height="24" viewBox="0 0 24 24" fill="none" xmlns="http://www.w3.org/2000/svg">
<mask id="mask0" mask-type="alpha" maskUnits="userSpaceOnUse" x="1" y="1" width="22" height="22">
<rect x="1" y="1" width="22" height="22" rx="11" fill="#C4C4C4"/>
</mask>
<g mask="url(#mask0)">
<path d="M0.816406 16.7296H31.2044V15.1394H0.816406V16.7296Z" fill="white"/>
<path d="M0.816406 15.1391H31.2044V13.5681H0.816406V15.1391Z" fill="#DA170B"/>
<path d="M0.816406 21.4424H31.2044V19.8713H0.816406V21.4424Z" fill="#DA170B"/>
<path d="M0.816406 13.5686H31.2044V11.9976H0.816406V13.5686Z" fill="white"/>
<path d="M0.816406 18.3008H31.2044V16.7297H0.816406V18.3008Z" fill="#DA170B"/>
<path d="M0.816406 19.8716H31.2044V18.3005H0.816406V19.8716Z" fill="white"/>
<path d="M0.816406 23H31.2044V21.429H0.816406V23Z" fill="white"/>
<path d="M0.816406 7.28418H31.2044V5.71313H0.816406V7.28418Z" fill="white"/>
<path d="M0.816406 11.9971H31.2044V10.426H0.816406V11.9971Z" fill="#DA170B"/>
<path d="M31.2044 2.57227H0.816406V4.14332H31.2044V2.57227Z" fill="white"/>
<path d="M0.816406 4.14233V5.71338H31.2044V4.14233H0.816406Z" fill="#DA170B"/>
<path d="M31.2044 1H0.816406V2.57105H31.2044V1Z" fill="#DA170B"/>
<path d="M0.816406 10.4263H31.2044V8.85522H0.816406V10.4263Z" fill="white"/>
<path d="M0.816406 8.85546H31.2044V7.28442H0.816406V8.85546Z" fill="#DA170B"/>
<path d="M16.0104 13.5875H0.816406V1H16.0104V13.5875Z" fill="#211782"/>
<path d="M9.09683 11.5262C7.10102 11.5262 5.48067 10.0059 5.48067 8.13031C5.48067 6.25466 7.10102 4.7344 9.09683 4.7344C9.68965 4.7344 10.2429 4.87261 10.7172 5.10954C10.0256 4.5962 9.15611 4.30005 8.20761 4.30005C5.93516 4.30005 4.11719 6.01774 4.11719 8.15006C4.11719 10.2824 5.95492 12 8.20761 12C9.15611 12 10.0256 11.7039 10.7172 11.1906C10.2232 11.388 9.66989 11.5262 9.09683 11.5262Z" fill="#EEC619"/>
<path d="M11.8069 5.40015L12.0989 7.13256L13.2866 5.66926L12.6246 7.3344L14.4546 6.42615L12.975 7.68761L15.1166 7.53624L13.1113 8.15856L15.1166 8.76407L12.975 8.61269L14.4546 9.85734L12.6246 8.96589L13.2866 10.631L12.0989 9.16773L11.8069 10.9001L11.5148 9.16773L10.3467 10.631L11.0086 8.96589L9.15908 9.85734L10.6387 8.61269L8.5166 8.76407L10.5219 8.15856L8.5166 7.53624L10.6387 7.68761L9.15908 6.42615L11.0086 7.3344L10.3467 5.66926L11.5148 7.13256L11.8069 5.40015Z" fill="#EEC619"/>
<path fill-rule="evenodd" clip-rule="evenodd" d="M1.91667 12C1.91667 17.5689 6.43113 22.0833 12 22.0833C17.5689 22.0833 22.0833 17.5689 22.0833 12C22.0833 6.43113 17.5689 1.91667 12 1.91667C6.43113 1.91667 1.91667 6.43113 1.91667 12ZM12 1C5.92487 1 1 5.92487 1 12C1 18.0751 5.92487 23 12 23C18.0751 23 23 18.0751 23 12C23 5.92487 18.0751 1 12 1Z" fill="#CCCCCC"/>
</g>
</svg>
