<svg width="48" height="47" viewBox="0 0 48 47" fill="none" xmlns="http://www.w3.org/2000/svg">
<path fill-rule="evenodd" clip-rule="evenodd" d="M23.9831 13.7255L14.0529 23.4334L4.12119 13.7255L14.0529 4.01762L23.9831 13.7255Z" fill="#FFB50D"/>
<path fill-rule="evenodd" clip-rule="evenodd" d="M23.9831 33.1424L14.0529 23.4345L23.9831 13.7251" fill="#27E3CC"/>
<path fill-rule="evenodd" clip-rule="evenodd" d="M23.9831 13.7255L33.9133 23.4334L23.9831 33.1427" fill="#5203E9"/>
<path fill-rule="evenodd" clip-rule="evenodd" d="M43.8438 33.1424L33.9136 42.8488L23.9834 33.1424L33.9136 23.4345L43.8438 33.1424Z" fill="#3E7EFF"/>
<path fill-rule="evenodd" clip-rule="evenodd" d="M43.8394 13.7299L33.9092 23.4378L43.8394 33.1457C49.324 27.7838 49.324 19.0903 43.8394 13.7299Z" fill="#08C0A6"/>
<path fill-rule="evenodd" clip-rule="evenodd" d="M23.9787 13.7298L33.9089 23.4377L43.8391 13.7298C38.356 8.36795 29.4634 8.36795 23.9787 13.7298Z" fill="#27E3CC"/>
<path fill-rule="evenodd" clip-rule="evenodd" d="M4.11356 33.1496L14.0438 23.4417L4.11356 13.7338C-1.3711 19.0957 -1.3711 27.7892 4.11356 33.1496Z" fill="#5203E9"/>
<path fill-rule="evenodd" clip-rule="evenodd" d="M14.048 4.02156L23.9782 13.7294L33.91 4.02156C28.4253 -1.34031 19.5327 -1.34031 14.048 4.02156Z" fill="#FFDD0F"/>
<path fill-rule="evenodd" clip-rule="evenodd" d="M23.9743 33.1496L14.0441 23.4417L4.11386 33.1496C9.59852 38.5114 18.4896 38.5114 23.9743 33.1496Z" fill="#3B03A8"/>
<path fill-rule="evenodd" clip-rule="evenodd" d="M33.9049 42.8579L23.9747 33.1501L14.043 42.8579C19.5277 48.2198 28.4203 48.2198 33.9049 42.8579Z" fill="#2C50FF"/>
</svg>
