<svg xmlns="http://www.w3.org/2000/svg" width="886.802" height="948.534" viewBox="0 0 886.802 948.534">
  <g id="Group_4" data-name="Group 4" transform="translate(0)">
    <path id="Path_25" data-name="Path 25" d="M350.835,401.957l-.066.112h0l-15.143,26.29c-10.289,17.864-16.577,28.79-16.577,28.79-20.887,36.177-23.747,79.272-7.235,118.687a129.546,129.546,0,0,0,35.991,48.989c65.2,54.822,160.816,35.624,201.426-34.7l32.644-56.654-29.73-1.02A280.862,280.862,0,0,1,350.835,401.957Z" transform="translate(-191.097 182)" fill="none"/>
    <path id="Path_26" data-name="Path 26" d="M747.48,339.152l-59.8,0H505.259a170.463,170.463,0,0,0-147.223,85l-12.473,21.606-.043-.069-15.112,26.224,9.33,16.16h0l18.421,31.91a170.468,170.468,0,0,0,147.223,85h55.146l45.932-79.716a216.09,216.09,0,0,1,187.226-108.2H871.56a134.053,134.053,0,0,0-25.466-36.3A139.086,139.086,0,0,0,747.48,339.152Z" transform="translate(-107.276 2.062)" fill="none"/>
    <path id="Path_27" data-name="Path 27" d="M435.969,442.266,422.356,466.16l65.4-.475c48.939,0,92.185-27.079,115.251-67.031,2.033-3.521,3.854-7.17,5.562-10.88H529.73A107.908,107.908,0,0,0,435.969,442.266Z" transform="translate(156.155 141.362)" fill="none"/>
    <path id="Path_28" data-name="Path 28" d="M770.67,392.721H655.032c-1.708,3.71-3.529,7.359-5.562,10.88-23.067,39.953-66.312,67.027-115.251,67.031l-65.4.475L406.14,581.114l128.083-.479c116.5.008,215.286-84.006,237.966-194.589C771.312,390.309,770.67,392.721,770.67,392.721Z" transform="translate(109.696 136.414)" fill="#f47929"/>
    <path id="Path_29" data-name="Path 29" d="M505.35,378.08c.027-1.5-.027-2.984-.027-4.476h0a247.475,247.475,0,0,1-4.329,45.325A239.634,239.634,0,0,0,505.35,378.08Z" transform="translate(381.444 100.768)" fill="#f47929"/>
    <path id="Path_30" data-name="Path 30" d="M391.668,527.233l.043.069L404.183,505.7a170.463,170.463,0,0,1,147.223-85H733.832l59.8,0a139.086,139.086,0,0,1,98.612,41.615,134.062,134.062,0,0,1,25.466,36.3h116.024a240.772,240.772,0,0,0-62.965-113.334,249.741,249.741,0,0,0-177.138-74.584l-83.407,0H543.3l.066.112A280.877,280.877,0,0,0,329.739,419.851l-.039-.066-15.4,25.849,62.254,107.823Z" transform="translate(-153.423 -79.48)" fill="#ee4036"/>
    <path id="Path_31" data-name="Path 31" d="M502.023,370.338c.023.429.05.839.073,1.271C502.073,371.184,502.046,370.763,502.023,370.338Z" transform="translate(384.404 91.41)" fill="#ee4036"/>
    <path id="Path_32" data-name="Path 32" d="M501.782,367.224c.07.7.143,1.4.213,2.118C501.929,368.635,501.851,367.927,501.782,367.224Z" transform="translate(383.714 82.489)" fill="#ee4036"/>
    <path id="Path_33" data-name="Path 33" d="M502.114,373.667v-.085l0,.085Z" transform="translate(384.653 100.704)" fill="#ee4036"/>
    <path id="Path_34" data-name="Path 34" d="M314.056,401.957l-.066.112h0Z" transform="translate(-154.317 182)" fill="#fbae17"/>
    <path id="Path_35" data-name="Path 35" d="M669.68,857.916a170.467,170.467,0,0,1-147.223-85l-18.421-31.91h0l-9.33-16.16L432.452,617.024l-1.206-2.091-29.9-51.784a139.089,139.089,0,0,1-13.269-106.2c9.639-34.631,31.774-62.988,62.339-79.863a131.249,131.249,0,0,1,63.615-16.357c46.133,0,91.207,23.913,115.677,66.293l32.343,55.061H789.075L724.969,372.016c-65.69-113.8-212.716-154.733-327.724-91.234C340.608,312.05,299.719,364.139,282.1,427.456a249.72,249.72,0,0,0,23.979,190.693l41.7,72.234h0l20.164,34.932.047-.073,63.313,109.585a280.862,280.862,0,0,0,201.31,130.491l29.73,1.02,62.474-108.422H669.68Z" transform="translate(-271.573 -250.87)" fill="#fbae17"/>
    <path id="Path_36" data-name="Path 36" d="M501.837,367.772q.458,4.939.719,9.918C502.374,374.238,502.131,370.922,501.837,367.772Z" transform="translate(383.871 84.059)" fill="#803359"/>
    <path id="Path_37" data-name="Path 37" d="M502.309,381.779c0-3.823-.1-7.537-.267-11.112.17,3.741.267,7.5.267,11.267Z" transform="translate(384.458 92.353)" fill="#803359"/>
    <path id="Path_38" data-name="Path 38" d="M500.5,359.311h-.058a237.534,237.534,0,0,1,5.187,30.584A216.56,216.56,0,0,0,500.5,359.311Z" transform="translate(379.869 59.818)" fill="#803359"/>
    <path id="Path_39" data-name="Path 39" d="M501.4,385.331q-.267,1.386-.549,2.764C501.022,387.244,501.207,386.324,501.4,385.331Z" transform="translate(381.038 134.366)" fill="#803359"/>
    <path id="Path_40" data-name="Path 40" d="M468.726,408.055,406.14,518.061h0l62.674-110.007Z" transform="translate(109.697 199.468)" fill="#803359"/>
    <path id="Path_41" data-name="Path 41" d="M1159.178,403.2c-.023-.433-.05-.842-.073-1.271q-.255-4.974-.719-9.918c-.069-.723-.143-1.415-.212-2.118a237.535,237.535,0,0,0-5.187-30.584h-193.9a216.09,216.09,0,0,0-187.226,108.2l-45.932,79.716L663.456,655.651h0L630.813,712.3c-40.61,70.328-136.223,89.526-201.426,34.7A129.544,129.544,0,0,1,393.4,698.019c-16.511-39.416-13.651-82.511,7.235-118.687,0,0,6.288-10.927,16.577-28.791l15.143-26.29L369.057,414.627l-15.4,25.849c-27.72,48.108-48.332,83.906-48.328,83.906A242.836,242.836,0,0,0,515.287,888.716c84.018,0,165.849-43.574,210.795-121.42l62.432-109.585L851.1,547.7h.089L864.8,523.811a107.909,107.909,0,0,1,93.762-54.493h194.481s.642-2.412,1.519-6.675q.285-1.38.549-2.764a247.51,247.51,0,0,0,4.328-45.325h0l0-.085C1159.445,410.7,1159.348,406.944,1159.178,403.2Z" transform="translate(-272.678 59.818)" fill="#803359"/>
    <path id="Path_42" data-name="Path 42" d="M360.973,483.189,297.658,373.6l-.043.073L360.907,483.3Z" transform="translate(-201.233 100.767)" fill="#803359"/>
    <rect id="Rectangle_13" data-name="Rectangle 13" width="125.133" transform="matrix(0.499, -0.866, 0.866, 0.499, 390.778, 715.469)" fill="#803359"/>
    <path id="Path_47" data-name="Path 47" d="M1159.178,403.2c-.023-.433-.05-.842-.073-1.271q-.255-4.974-.719-9.918c-.069-.723-.143-1.415-.212-2.118a237.535,237.535,0,0,0-5.187-30.584h-193.9a216.09,216.09,0,0,0-187.226,108.2l-45.932,79.716L663.456,655.651h0L630.813,712.3c-40.61,70.328-136.223,89.526-201.426,34.7A129.544,129.544,0,0,1,393.4,698.019c-16.511-39.416-13.651-82.511,7.235-118.687,0,0,6.288-10.927,16.577-28.791l15.143-26.29L369.057,414.627l-15.4,25.849c-27.72,48.108-48.332,83.906-48.328,83.906A242.836,242.836,0,0,0,515.287,888.716c84.018,0,165.849-43.574,210.795-121.42l62.432-109.585L851.1,547.7h.089L864.8,523.811a107.909,107.909,0,0,1,93.762-54.493h194.481s.642-2.412,1.519-6.675q.285-1.38.549-2.764a247.51,247.51,0,0,0,4.328-45.325h0l0-.085C1159.445,410.7,1159.348,406.944,1159.178,403.2Z" transform="translate(-272.678 59.818)" fill="#803359"/>
  </g>
</svg>
