<?xml version="1.0" encoding="UTF-8"?>
<svg width="84px" height="84px" viewBox="0 0 84 84" version="1.1" xmlns="http://www.w3.org/2000/svg" xmlns:xlink="http://www.w3.org/1999/xlink">
    <!-- Generator: Sketch 55.1 (78136) - https://sketchapp.com -->
    <title>Shape</title>
    <desc>Created with Sketch.</desc>
    <g id="Page-1" stroke="none" stroke-width="1" fill="none" fill-rule="evenodd">
        <path d="M60.0343053,52.8301887 L56.2401372,52.8301887 L54.8953688,51.5334477 C59.6020583,46.058319 62.4356775,38.9502573 62.4356775,31.2178388 C62.4356775,13.9759863 48.4596913,0 31.2178388,0 C13.9759863,0 0,13.9759863 0,31.2178388 C0,48.4596913 13.9759863,62.4356775 31.2178388,62.4356775 C38.9502573,62.4356775 46.058319,59.6020583 51.5334477,54.8953688 L52.8301887,56.2401372 L52.8301887,60.0343053 L76.8439108,84 L84,76.8439108 L60.0343053,52.8301887 Z M31.2178388,52.8301887 C19.2590051,52.8301887 9.60548885,43.1766724 9.60548885,31.2178388 C9.60548885,19.2590051 19.2590051,9.60548885 31.2178388,9.60548885 C43.1766724,9.60548885 52.8301887,19.2590051 52.8301887,31.2178388 C52.8301887,43.1766724 43.1766724,52.8301887 31.2178388,52.8301887 Z" id="Shape" fill="#B8B8B8" fill-rule="nonzero"></path>
    </g>
</svg>