<svg xmlns="http://www.w3.org/2000/svg" xmlns:xlink="http://www.w3.org/1999/xlink" viewBox="0 0 30 30"><defs><style>.a{fill:none;}.b{clip-path:url(#a);}.c{clip-path:url(#b);}.d{fill:#fff;}.e{fill:#12110b;}.f{fill:#327230;}.g{fill:#c01634;}</style><clipPath id="a"><circle class="a" cx="15" cy="15" r="15"/></clipPath><clipPath id="b"><rect class="a" x="-10.72" width="51.44" height="30"/></clipPath></defs><title>Algeria</title><g class="b"><g class="c"><rect class="d" x="0.14" width="29.82" height="30"/><path class="e" d="M30,30.08H.09V-.08H30V30.08ZM.18,29.92H29.91V.07H.18V29.92Z"/><rect class="f" width="15" height="30"/><g class="c"><path class="g" d="M20.56,19.68a6,6,0,1,1,.94-8.44A7.6,7.6,0,0,0,18.75,8.5,7.5,7.5,0,1,0,21.5,18.75a6.36,6.36,0,0,1-.94.93Z"/><polygon class="g" points="17.59 16.36 19.19 18.57 19.19 15.84 21.79 15 19.19 14.15 19.19 11.43 17.59 13.63 15 12.79 16.6 15 15 17.21 17.59 16.36"/></g></g></g></svg>