<svg xmlns="http://www.w3.org/2000/svg" xmlns:xlink="http://www.w3.org/1999/xlink" viewBox="0 0 30 30"><defs><style>.a{fill:none;}.b{clip-path:url(#a);}.c{fill:#2c2a7c;}.d{fill:#fff;}.e{fill:#e81e25;}</style><clipPath id="a"><circle class="a" cx="15" cy="15" r="15"/></clipPath></defs><title>Australia</title><g class="b"><rect class="c" x="-10.64" width="51.27" height="30.32"/><polygon class="d" points="2.85 18.58 3.63 21.04 6.02 20.12 4.61 22.28 6.8 23.59 4.26 23.82 4.61 26.38 2.85 24.51 1.1 26.38 1.45 23.82 -1.09 23.59 1.1 22.28 -0.31 20.12 2.07 21.04 2.85 18.58"/><polygon class="d" points="27.24 23.15 27.61 24.32 28.74 23.89 28.07 24.91 29.11 25.54 27.91 25.65 28.07 26.87 27.24 25.97 26.4 26.87 26.57 25.65 25.36 25.54 26.4 24.91 25.73 23.89 26.86 24.32 27.24 23.15"/><polygon class="d" points="20.49 12.33 20.86 13.5 22 13.06 21.33 14.09 22.37 14.71 21.16 14.82 21.33 16.04 20.49 15.15 19.66 16.04 19.82 14.82 18.61 14.71 19.66 14.09 18.99 13.06 20.12 13.5 20.49 12.33"/><polygon class="d" points="27.24 4.92 27.61 6.09 28.74 5.66 28.07 6.68 29.11 7.31 27.91 7.42 28.07 8.63 27.24 7.74 26.4 8.63 26.57 7.42 25.36 7.31 26.4 6.68 25.73 5.66 26.86 6.09 27.24 4.92"/><polygon class="d" points="29.93 15.99 30.23 16.72 31 16.78 30.41 17.29 30.59 18.05 29.93 17.64 29.27 18.05 29.46 17.29 28.86 16.78 29.64 16.72 29.93 15.99"/><polygon class="d" points="0.6 0 0.6 4.56 -10.64 4.56 -10.64 9.12 0.6 9.12 0.6 13.68 5.1 13.68 5.1 9.12 16.34 9.12 16.34 4.56 5.1 4.56 5.1 0 0.6 0"/><polygon class="d" points="-10.64 0 -10.64 1.53 13.32 13.68 16.34 13.68 16.34 12.15 -7.62 0 -10.64 0"/><polygon class="d" points="13.32 0 -10.64 12.15 -10.64 13.68 -7.62 13.68 16.34 1.53 16.34 0 13.32 0"/><polygon class="e" points="1.5 0 1.5 5.47 -10.64 5.47 -10.64 8.21 1.5 8.21 1.5 13.68 4.2 13.68 4.2 8.21 16.34 8.21 16.34 5.47 4.2 5.47 4.2 0 1.5 0"/><path class="e" d="M-10.64,0V1l7,3.54h2Zm25,0-9,4.56h2l9-4.56Z"/><path class="e" d="M-1.64,9.12l-9,4.56h2l9-4.56Zm9,0,9,4.56v-1l-7-3.54Z"/><rect class="a" x="-10.64" width="51.27" height="30.32"/></g></svg>