<svg xmlns="http://www.w3.org/2000/svg" xmlns:xlink="http://www.w3.org/1999/xlink" viewBox="0 0 30 30"><defs><style>.a{fill:none;}.b{clip-path:url(#a);}.c{fill:#fff;}.d{fill:#e81e25;}.e{clip-path:url(#b);}</style><clipPath id="a"><circle class="a" cx="15" cy="15" r="15"/></clipPath><clipPath id="b"><rect class="a" x="-11.17" width="52.35" height="30"/></clipPath></defs><title>Canada</title><g class="b"><rect class="c" x="4.16" width="21.68" height="30"/><rect class="d" x="25.84" width="12.31" height="30"/><g class="e"><path class="d" d="M15,5.46,13.48,8.37c-.18.31-.49.28-.8.11l-1.1-.59.82,4.47c.18.82-.38.82-.65.46l-1.93-2.2-.31,1.12a.37.37,0,0,1-.43.26l-2.44-.52.64,2.38c.14.53.25.75-.14.89l-.86.41,4.19,3.49a.57.57,0,0,1,.19.58l-.37,1.23L14.47,20c.13,0,.34.11.34.26l-.19,4.51h.7l-.11-4.5c0-.15.19-.27.32-.27l4.18.49-.37-1.23a.57.57,0,0,1,.19-.58l4.19-3.49-.87-.41c-.38-.14-.27-.36-.13-.89l.64-2.38L20.92,12a.37.37,0,0,1-.43-.26l-.31-1.12-1.93,2.2c-.27.36-.83.36-.65-.46l.82-4.47-1.1.59c-.31.17-.62.2-.8-.11Z"/></g><rect class="d" x="-8.15" width="12.31" height="30"/></g></svg>