<svg xmlns="http://www.w3.org/2000/svg" xmlns:xlink="http://www.w3.org/1999/xlink" viewBox="0 0 30 30"><defs><style>.a{fill:none;}.b{clip-path:url(#a);}.c{clip-path:url(#b);}.d{fill:#fff;}.e{fill:#2c3281;}.f{fill:#ca202b;}</style><clipPath id="a"><circle class="a" cx="15" cy="15" r="15"/></clipPath><clipPath id="b"><rect class="a" x="-11.85" y="-0.29" width="53.71" height="30.58"/></clipPath></defs><title>Croatia</title><g class="b"><g class="c"><rect class="d" y="9.9" width="30" height="10.19"/><rect class="e" y="20.1" width="30" height="10.19"/><rect class="f" y="-0.29" width="30" height="10.19"/><g class="c"><path class="f" d="M21.25,9.83l0,0a19.15,19.15,0,0,0-12.42,0L7.17,6.71,8.23,4.82l2,.81,1.26-1.52,1.87,1,1.5-1.21,1.7,1.23,1.71-1c.58.58,1.38,1.44,1.43,1.47s1.4-.57,1.93-.79l1.16,1.89L21.25,9.83Zm-13-4.95-1,1.84,1.56,3a17.79,17.79,0,0,1,6.1-1.06,19,19,0,0,1,6.29,1l1.55-3.05-1.1-1.82c-1.91.8-1.93.8-1.94.8A17.58,17.58,0,0,1,18.3,4.17l-1.7,1L14.9,4,13.41,5.19l-1.86-1L10.28,5.7l-2-.82Z"/><path class="d" d="M8.68,9.86H21.32v7.91a6.34,6.34,0,0,1-6.13,5.36c-3,.13-6.29-2.26-6.53-5.39Z"/><path class="f" d="M15,23.18c-2.8,0-6.1-2.23-6.35-5.43l0-7.89,12.68,0,0,8a6.42,6.42,0,0,1-6.14,5.41ZM21.27,9.86,8.68,9.91l0,7.83C9,21,12.36,23.21,15.19,23.09a6.34,6.34,0,0,0,6.08-5.32V9.86Z"/><path class="f" d="M9,10.14h12.1v7.58a6.07,6.07,0,0,1-5.87,5.14c-2.86.12-6-2.17-6.26-5.17Z"/><path class="f" d="M15,22.9c-2.69,0-5.85-2.14-6.08-5.21l0-7.55,12.15,0,.05,7.62a6.17,6.17,0,0,1-5.89,5.18ZM21,10.14,9,10.18v7.51c.24,3.1,3.52,5.24,6.22,5.12A6.07,6.07,0,0,0,21,17.71V10.14Z"/><rect class="d" x="11.38" y="10.18" width="2.41" height="2.53"/><path class="d" d="M18.62,17.77v2.5H20a5.61,5.61,0,0,0,1-2.5Z"/><path class="d" d="M20,20.29H18.62V17.77H21a5.28,5.28,0,0,1-1,2.52Zm-1.37-2.51v2.49H20a5.57,5.57,0,0,0,1-2.49H18.62Z"/><path class="d" d="M16.21,20.29v2.4a6.39,6.39,0,0,0,2.39-1.05V20.29Z"/><path class="d" d="M16.2,22.71V20.29h2.39l0,1.36a6.19,6.19,0,0,1-2.39,1.06Zm2.38-2.42-2.37,0v2.37a6.32,6.32,0,0,0,2.37-1.05V20.29Z"/><path class="d" d="M11.4,20.29v1.34a6.87,6.87,0,0,0,2.38,1V20.3Z"/><path class="d" d="M13.8,22.68h0a6.88,6.88,0,0,1-2.38-1V20.29h2.39l0,2.4Zm0-2.38H11.4l0,1.32a6.9,6.9,0,0,0,2.36,1V20.3Z"/><path class="d" d="M9,17.77a5,5,0,0,0,1,2.47l1.4,0v-2.5Z"/><path class="d" d="M11.38,20.28h0l-1.4,0a5,5,0,0,1-1-2.48h2.39v2.52Zm0-2.51H9a5.08,5.08,0,0,0,1,2.45l1.38,0V17.77Z"/><rect class="d" x="8.98" y="12.71" width="2.41" height="2.53"/><rect class="d" x="13.79" y="12.71" width="2.41" height="2.53"/><rect class="d" x="16.2" y="10.17" width="2.41" height="2.53"/><rect class="d" x="18.61" y="12.71" width="2.41" height="2.53"/><rect class="d" x="11.38" y="15.23" width="2.41" height="2.53"/><rect class="d" x="16.2" y="15.23" width="2.41" height="2.53"/><rect class="d" x="13.79" y="17.76" width="2.41" height="2.53"/></g></g></g></svg>