<svg xmlns="http://www.w3.org/2000/svg" xmlns:xlink="http://www.w3.org/1999/xlink" viewBox="0 0 30 30"><defs><style>.a{fill:none;}.b{clip-path:url(#a);}.c{fill:#d71e34;}.d{fill:#fff;}.e{fill:#313f98;}.f{clip-path:url(#b);}.g{fill:#f4cf2a;}</style><clipPath id="a"><circle class="a" cx="15" cy="15" r="15"/></clipPath><clipPath id="b"><rect class="a" x="-4.85" y="-0.05" width="52.23" height="30.1"/></clipPath></defs><title>Malaysia</title><g class="b"><rect class="c" x="-4.85" y="-0.05" width="52.23" height="2.15"/><rect class="d" x="-4.85" y="2.1" width="52.23" height="2.15"/><rect class="c" x="-4.85" y="4.25" width="52.23" height="2.15"/><rect class="d" x="-4.85" y="6.4" width="52.23" height="2.15"/><rect class="c" x="-4.85" y="8.55" width="52.23" height="2.15"/><rect class="d" x="-4.85" y="10.7" width="52.23" height="2.15"/><rect class="c" x="-4.85" y="12.85" width="52.23" height="2.15"/><rect class="d" x="-4.85" y="15" width="52.23" height="2.15"/><rect class="c" x="-4.85" y="17.15" width="52.23" height="2.15"/><rect class="d" x="-4.85" y="19.3" width="52.23" height="2.15"/><rect class="c" x="-4.85" y="21.45" width="52.23" height="2.15"/><rect class="d" x="-4.85" y="23.6" width="52.23" height="2.15"/><rect class="c" x="-4.85" y="25.75" width="52.23" height="2.15"/><rect class="d" x="-4.85" y="27.9" width="52.23" height="2.15"/><rect class="e" x="-4.85" y="-0.05" width="30.47" height="17.2"/><g class="f"><path class="g" d="M6.31,8.55A5.73,5.73,0,0,1,15,3.74,6.54,6.54,0,0,0,4.14,8.55,6.54,6.54,0,0,0,15,13.36a5.73,5.73,0,0,1-8.7-4.81"/><polygon class="g" points="19.37 8.55 22.5 7.35 19.15 7.62 21.45 5.2 18.55 6.87 19.55 3.71 17.68 6.45 17.19 3.17 16.85 5.52 16.75 6.2 16.71 6.45 14.83 3.71 15.84 6.87 12.94 5.2 15.23 7.62 11.89 7.35 15.02 8.55 11.89 9.75 15.23 9.48 12.94 11.9 15.84 10.23 14.83 13.39 16.71 10.65 16.75 10.9 16.85 11.58 17.19 13.93 17.68 10.65 19.55 13.39 18.55 10.23 21.45 11.9 19.15 9.48 22.5 9.75 19.37 8.55"/></g><rect class="a" x="-4.85" y="-0.05" width="52.23" height="30.1"/></g></svg>