<svg xmlns="http://www.w3.org/2000/svg" xmlns:xlink="http://www.w3.org/1999/xlink" viewBox="0 0 30 30"><defs><style>.a{fill:none;}.b{clip-path:url(#a);}.c{clip-path:url(#b);}.d{fill:#fff;}.e{fill:#317368;}.f{fill:#f4e027;}.g{fill:#c01f3f;}</style><clipPath id="a"><circle class="a" cx="15" cy="15" r="15"/></clipPath><clipPath id="b"><rect class="a" x="-0.25" width="30.25" height="30.09"/></clipPath></defs><title>Mozambique</title><g class="b"><g class="c"><rect x="-0.25" width="30.25" height="30.09"/><rect class="d" x="-0.25" y="9.35" width="30.25" height="0.99"/><rect class="e" x="-0.25" width="30.25" height="9.4"/><rect class="d" x="-0.25" y="19.73" width="30.25" height="0.95"/><rect class="f" x="-0.25" y="20.68" width="30.25" height="9.4"/><polygon class="g" points="-0.25 0 -0.25 30.09 19.85 15.04 -0.25 0"/><polygon class="f" points="10.18 20.68 6.45 18 2.72 20.68 4.17 16.36 0.41 13.71 5.04 13.73 6.45 9.4 7.86 13.73 12.49 13.71 8.73 16.37 10.18 20.68"/><g class="c"><path class="d" d="M1.74,17.67H3.29c.13.24.41.34.67,0,.49-.45,1.43,0,1.43,0l.18-.33-.45-2.53L5,14.52a1.14,1.14,0,0,0-1-.24c-.66.12-.89,0-.89,0a2.52,2.52,0,0,0-.74.26s-.18.31-.18.31Z"/><path d="M3.6,17.92h0a.37.37,0,0,1-.32-.23H1.74l.38-2.89s.17-.31.19-.34a2.78,2.78,0,0,1,.75-.26,1.41,1.41,0,0,0,.89,0,1.17,1.17,0,0,1,1,.24l.16.3.46,2.54-.19.36a4,4,0,0,0-.86-.19.81.81,0,0,0-.57.2.49.49,0,0,1-.37.22Zm-.31-.28a.37.37,0,0,0,.31.22h0A.48.48,0,0,0,4,17.64a.88.88,0,0,1,.59-.2,2.34,2.34,0,0,1,.85.2l.17-.32-.46-2.5-.16-.28h0a1.17,1.17,0,0,0-1-.23c-.66.12-.89,0-.9,0a2.79,2.79,0,0,0-.72.25l-.18.31-.39,2.85,1.53,0Z"/><path d="M3.59,17.92a.44.44,0,0,1-.32-.2,1.07,1.07,0,0,1,.34-.47,2.37,2.37,0,0,0-1.55-.2s0,0,0,0,0,0,0,0a2.26,2.26,0,0,1,1.59.24A1.59,1.59,0,0,1,5.08,17s0,0,0,0,0,0,0,0a1.62,1.62,0,0,0-1.39.23,1.19,1.19,0,0,1,.3.39c-.14.18-.26.27-.39.27Zm.06-.64a1.17,1.17,0,0,0-.35.43c.21.22.41.22.65-.06a.85.85,0,0,0-.3-.37Z"/><polygon points="3.64 17.28 3.62 14.5 3.65 14.5 3.64 17.28 3.64 17.28"/><polygon points="5.25 16.74 4.94 14.54 4.97 14.53 5.25 16.74 5.25 16.74"/><path d="M2.18,15.67h0s0,0,0,0l.16-1.14,0,0s0,0,0,0L2.2,15.65l0,0Z"/><path d="M.74,18l.36.73c0,.05.08,0,.12,0l.54-1.1L2,17.12a.57.57,0,0,0,0-.22l.43-.66.1,0c-.05,0-.08-.06,0-.14L2.61,16l.08.16s-.11.24-.12.24H2.45l-.23.35.1.15.15.7.19-.22-.12-.72.26-.48-.1-.26.06-.15s.9,1,1.25.71c0,0,0-.69,0-.69s-.93-.16-1-.48.2-.35.2-.35l-.09-.24,0-.12.16.35.37-.54,2.16,4.2c.12-.08.14-.13.15-.33,0,0-2.12-4.14-2.12-4.14l.16-.3a.26.26,0,0,0,0-.18l.24-.37a.39.39,0,0,1,.17.22l.68-1a.08.08,0,0,0,.11,0L6.47,10.7,5.24,12.18l0,0c0-.06,0-.08,0-.19s-.12.1-.13.1a.48.48,0,0,1-.22-.23v.34l-.32.49-.23,0-.35.58,0,.22L4,13.6a2.93,2.93,0,0,1-.18.26s0-.08,0-.09l.16-.24,0-.17-.05-.14s-.22.38-.23.34l-.58-1.12,0-.2-.37-.68c-.13-.08-.35-.1-.39.4,0,.12-.31,0-.31,0L1.86,12,1,14.1l.48,1,1-2.1,0-.59.2.39a.21.21,0,0,0,.2,0l.57,1.1L3.36,14a1.29,1.29,0,0,0,.09.16L3.54,14l0,.1c-.05,0-.08.1-.13.15a.51.51,0,0,1-.15-.37L3,14.37v.1L2,15.83l-.09,0,0,.42.63-.88v-.13l.06.09.49-.66s0,.07,0,.07-.43.66-.43.66v.08l-.08.11,0-.06L2,16.44H1.87L1.54,17a.31.31,0,0,0-.22.11Z"/><path d="M1.16,18.77a.13.13,0,0,1-.07,0L.72,18l.58-.92A.33.33,0,0,1,1.54,17l.31-.54H2l.58-.88.06.05.06-.16c.33-.52.41-.65.44-.68h0l0,0-.46.66-.09-.09,0,.11-.63.91v-.45l.11,0,1-1.36v-.07l.33-.48a.67.67,0,0,0,.17.36.13.13,0,0,1,0-.07l.07-.08h0l-.08.09L3.34,14l.1-.2-.58-1.06c0,.06-.1.07-.18.05l-.21-.4V13l-1,2.11-.5-1L1.84,12,2,12a.94.94,0,0,0,.21,0c.08,0,.09,0,.09,0,.05-.58.32-.48.42-.42l.37.69,0,.23h0s.56,1.06.58,1.09l.16-.27s0-.07.05-.07l0,.1,0-.11.35-.59h.26l.3-.49v-.31a1.06,1.06,0,0,0,.24.2c0-.06.06-.13.09-.13l0,0a.26.26,0,0,1,0,.17l0,.07,1.21-1.49s0,0,0,0a0,0,0,0,1,0,0L5.35,12.57a.08.08,0,0,1-.13,0l-.66,1a.56.56,0,0,0-.18-.21l-.23.36a.34.34,0,0,1,0,.18l-.17.3h0s2.1,4.06,2.12,4.1c0,.24,0,.3-.16.38L3.72,14.43,3.38,15l-.19-.35v.11l.1.22c0,.05-.12.06-.18.18a.35.35,0,0,0,0,.18c0,.21.58.39.93.45,0,.75,0,.75,0,.75a.25.25,0,0,1-.15,0c-.4,0-1.08-.73-1.11-.76l0,.14.1.22-.26.52.12.69-.19.25-.17-.71-.1-.13.23-.4h.13s.06-.12.1-.23L2.6,16l-.07.13c0,.05,0,.06,0,.08s0,0,0,0,0,0,0,0l-.09,0L2,16.92a.41.41,0,0,1,0,.22l-.77,1.58a.1.1,0,0,1-.07.05Zm1.37-3.19L2,16.46h-.1L1.56,17a.33.33,0,0,0-.23.12L.75,18l.36.68a.07.07,0,0,0,.1,0L2,17.1a.4.4,0,0,0,0-.2l.44-.68h0a.12.12,0,0,1,0-.1L2.6,16l.1.17c-.11.29-.12.29-.13.29H2.45l-.21.34.1.11.15.71.16-.24-.13-.68.26-.51-.1-.22.07-.18h0s.72.73,1.11.73a.21.21,0,0,0,.14,0s0-.42,0-.66c-.08,0-.93-.14-.95-.47a.34.34,0,0,1,0-.23.26.26,0,0,1,.18-.16l-.11-.19,0-.15.19.34.34-.54,2.19,4.2A.36.36,0,0,0,6,18.28S5.86,18,3.92,14.16l.16-.34a.27.27,0,0,0,0-.16l.25-.4a.38.38,0,0,1,.19.23l.66-1,.08,0,1-1.55-1,1.23-.07-.06a.31.31,0,0,1,0-.09s0,0,0-.1-.07,0-.08.07l0,0a.47.47,0,0,1-.24-.25l0,.33-.32.52H4.29L4,13.22l0,.21.05.16c-.18.3-.19.3-.2.3s0-.06,0-.08,0-.06,0-.06l.16-.25v-.08l0-.15,0,.05c-.13.22-.17.28-.19.28L3,12.46l0-.23-.36-.65a.35.35,0,0,0-.12,0q-.21,0-.24.42c0,.06-.06.08-.13.08A.94.94,0,0,1,2,12l-.14.06-.84,2,.47.93,1-2.09,0-.58.24.37h.06a.16.16,0,0,0,.11-.05l.6,1.11-.1.2,0,0,0,.08,0-.07,0-.05s0,0,0,.05l0,0a.54.54,0,0,1-.07.12l-.07.07a.45.45,0,0,1-.17-.39L3,14.4v.07L2,15.85l-.1,0v.39l.59-.91v-.1l.09.07.47-.67c.06.09.05.1.05.11l-.44.68v.06l-.08.12-.06-.05ZM3.91,13.5v0l-.17.26a.13.13,0,0,1,0,.06.84.84,0,0,1,.15-.27l0-.08Z"/></g></g></g></svg>