<?xml version="1.0" encoding="utf-8"?>
<!-- Generator: Adobe Illustrator 25.0.0, SVG Export Plug-In . SVG Version: 6.00 Build 0)  -->
<svg version="1.1" id="Layer_1" xmlns="http://www.w3.org/2000/svg" xmlns:xlink="http://www.w3.org/1999/xlink" x="0px" y="0px"
	 viewBox="0 0 30 30" style="enable-background:new 0 0 30 30;" xml:space="preserve">
<style type="text/css">
	.st0{fill:#00A1DE;}
	.st1{fill:#FAD201;}
	.st2{fill:#20603D;}
	.st3{fill:#E5BE01;}
</style>
<path class="st0" d="M15,0C6.7,0,0,6.7,0,15h30C30,6.7,23.3,0,15,0z"/>
<path class="st1" d="M28,22.5c1.3-2.2,2-4.8,2-7.5H0c0,2.7,0.7,5.3,2,7.5H28z"/>
<path class="st2" d="M28,22.5H2C4.6,27,9.5,30,15,30C20.5,30,25.4,27,28,22.5z"/>
<g>
	<polygon class="st3" points="18.6,6.1 18.8,3.7 19,6.1 	"/>
	<polygon class="st3" points="18.1,6.2 17.7,3.8 18.5,6.1 	"/>
	<polygon class="st3" points="17.7,6.5 16.6,4.3 18,6.2 	"/>
	<polygon class="st3" points="17.3,6.8 15.8,4.9 17.6,6.5 	"/>
	<polygon class="st3" points="17.1,7.2 15.1,5.8 17.3,6.9 	"/>
	<polygon class="st3" points="16.9,7.7 14.6,6.9 17,7.3 	"/>
	<polygon class="st3" points="16.9,8.2 14.5,8 16.9,7.8 	"/>
	<polygon class="st3" points="17,8.7 14.6,9.1 16.9,8.3 	"/>
	<polygon class="st3" points="17.3,9.1 15.1,10.1 17.1,8.7 	"/>
	<polygon class="st3" points="17.6,9.5 15.8,11 17.3,9.2 	"/>
	<polygon class="st3" points="18,9.7 16.6,11.7 17.7,9.5 	"/>
	<polygon class="st3" points="18.5,9.9 17.7,12.1 18.1,9.7 	"/>
	<polygon class="st3" points="19,9.9 18.8,12.3 18.6,9.9 	"/>
	<polygon class="st3" points="19.5,9.7 19.9,12.1 19.1,9.9 	"/>
	<polygon class="st3" points="19.9,9.5 20.9,11.7 19.6,9.7 	"/>
	<polygon class="st3" points="20.3,9.2 21.8,11 20,9.5 	"/>
	<polygon class="st3" points="20.5,8.7 22.5,10.1 20.3,9.1 	"/>
	<polygon class="st3" points="20.7,8.3 22.9,9.1 20.6,8.7 	"/>
	<polygon class="st3" points="20.7,7.8 23.1,8 20.7,8.2 	"/>
	<polygon class="st3" points="20.6,7.3 22.9,6.9 20.7,7.7 	"/>
	<polygon class="st3" points="20.3,6.9 22.5,5.8 20.5,7.2 	"/>
	<polygon class="st3" points="20,6.5 21.8,4.9 20.3,6.8 	"/>
	<polygon class="st3" points="19.6,6.2 20.9,4.3 19.9,6.5 	"/>
	<polygon class="st3" points="19.1,6.1 19.9,3.8 19.5,6.2 	"/>
	<polygon class="st3" points="18.6,6.1 18.8,3.7 19,6.1 	"/>
	<circle class="st3" cx="18.8" cy="8" r="1.6"/>
</g>
</svg>
