<svg xmlns="http://www.w3.org/2000/svg" xmlns:xlink="http://www.w3.org/1999/xlink" viewBox="0 0 30 30"><defs><style>.a{fill:none;}.b{clip-path:url(#a);}.c{fill:#c71528;}.d{fill:#fff;}.e{fill:#34357b;}.f{clip-path:url(#b);}.g{fill:#2f2927;}</style><clipPath id="a"><circle class="a" cx="15" cy="15" r="15"/></clipPath><clipPath id="b"><rect class="a" x="-2.36" y="-0.03" width="51.44" height="30.01"/></clipPath></defs><title>Serbia</title><g class="b"><rect class="c" x="-2.37" y="-0.03" width="51.44" height="10"/><rect class="d" x="-2.36" y="19.97" width="51.44" height="10"/><rect class="e" x="-2.36" y="9.97" width="51.44" height="10"/><g class="f"><path class="g" d="M13.68,23.64a5.41,5.41,0,0,1-5.41-5.4v0a5.4,5.4,0,0,0,10.79,0v0a5.41,5.41,0,0,1-5.4,5.4ZM19.07,10h0Z"/><path class="c" d="M8.31,9.93V18.2h0a5.39,5.39,0,0,0,5.39,5.39h0a5.39,5.39,0,0,0,5.38-5.39V9.93Z"/><path class="d" d="M13.68,23.65a5.43,5.43,0,0,1-5.42-5.41V10l10.81,0,0,8.3a5.43,5.43,0,0,1-5.41,5.41ZM19,10,8.29,10l0,8.25a5.37,5.37,0,0,0,10.73,0V10Z"/></g><rect class="a" x="-2.36" y="-0.03" width="51.44" height="30.01"/></g></svg>