<svg xmlns="http://www.w3.org/2000/svg" xmlns:xlink="http://www.w3.org/1999/xlink" viewBox="0 0 30 30"><defs><style>.a{fill:none;}.b{clip-path:url(#a);}.c{fill:#d91d42;}.d{fill:#fff;}.e{clip-path:url(#b);}</style><clipPath id="a"><circle class="a" cx="15" cy="15" r="15"/></clipPath><clipPath id="b"><rect class="a" width="51.19" height="30"/></clipPath></defs><title>Singapore</title><g class="b"><rect class="c" width="30" height="15"/><rect class="d" y="15" width="30" height="15"/><g class="e"><path class="d" d="M17.09,7.46a5.62,5.62,0,1,1-5.61-5.64,5.63,5.63,0,0,1,5.61,5.64"/><path class="c" d="M18.86,7.5a5.31,5.31,0,1,1-5.31-5.33A5.32,5.32,0,0,1,18.86,7.5"/><polygon class="d" points="12.17 7.64 11.41 7.05 10.65 7.64 10.94 6.69 10.18 6.1 11.12 6.11 11.41 5.16 11.7 6.11 12.64 6.1 11.88 6.69 12.17 7.64"/><polygon class="d" points="18.16 7.64 17.4 7.05 16.63 7.64 16.93 6.69 16.16 6.1 17.11 6.11 17.39 5.16 17.69 6.11 18.63 6.1 17.86 6.69 18.16 7.64"/><polygon class="d" points="15.17 5.41 14.41 4.82 13.64 5.41 13.94 4.46 13.17 3.87 14.12 3.88 14.41 2.93 14.7 3.88 15.64 3.87 14.88 4.46 15.17 5.41"/><polygon class="d" points="13.29 11.21 12.53 10.62 11.77 11.21 12.06 10.26 11.3 9.68 12.24 9.68 12.53 8.73 12.82 9.68 13.77 9.68 13 10.26 13.29 11.21"/><polygon class="d" points="17.04 11.21 16.28 10.62 15.51 11.21 15.81 10.26 15.04 9.68 15.99 9.68 16.28 8.73 16.57 9.68 17.51 9.68 16.74 10.26 17.04 11.21"/></g><rect class="a" width="51.19" height="30"/></g></svg>