<svg xmlns="http://www.w3.org/2000/svg" xmlns:xlink="http://www.w3.org/1999/xlink" viewBox="0 0 30 30"><defs><style>.a{fill:none;}.b{clip-path:url(#a);}.c{clip-path:url(#b);}.d{clip-path:url(#c);}.e{fill:#fff;}.f{fill:#e81e25;}.g{fill:#485faa;}.h{clip-path:url(#d);}.i{fill:#f8e623;}</style><clipPath id="a"><circle class="a" cx="-35" cy="15" r="15"/></clipPath><clipPath id="b"><rect class="a" x="-50" width="51.98" height="30"/></clipPath><clipPath id="c"><circle class="a" cx="15" cy="15" r="15"/></clipPath><clipPath id="d"><rect class="a" x="0.09" width="50.45" height="29.94"/></clipPath></defs><title>Slovenia</title><g class="d"><rect class="e" x="0.09" width="29.91" height="9.98"/><rect class="f" x="0.09" y="19.96" width="29.91" height="9.98"/><rect class="g" x="0.09" y="9.98" width="29.91" height="9.98"/><g class="h"><path class="f" d="M11.25,5.76,11,5.88l.28,4.53a5.13,5.13,0,0,0,1.46,3.28A5,5,0,0,0,14.82,15h0a5,5,0,0,0,2.1-1.28,5.13,5.13,0,0,0,1.46-3.28l.28-4.53-.27-.12h0l-.29,4.63a4.85,4.85,0,0,1-1.37,3.1,4.71,4.71,0,0,1-1.91,1.18h0a4.71,4.71,0,0,1-1.91-1.18,4.85,4.85,0,0,1-1.37-3.1l-.29-4.63h0"/><path class="g" d="M18.39,5.76a8.66,8.66,0,0,0-7.14,0l.29,4.63a4.85,4.85,0,0,0,1.37,3.1,4.71,4.71,0,0,0,1.91,1.18h0a4.71,4.71,0,0,0,1.91-1.18,4.85,4.85,0,0,0,1.37-3.1"/><polyline class="i" points="15.04 7.16 15.2 6.94 14.93 6.97 14.82 6.72 14.71 6.97 14.45 6.94 14.61 7.16 14.45 7.38 14.71 7.35 14.82 7.6 14.93 7.35 15.2 7.38"/><polyline class="i" points="14.03 5.79 14.19 5.57 13.92 5.6 13.81 5.35 13.7 5.6 13.44 5.57 13.6 5.79 13.44 6.01 13.7 5.98 13.81 6.23 13.92 5.98 14.19 6.01"/><polyline class="i" points="16.04 5.79 16.2 5.57 15.94 5.6 15.83 5.35 15.72 5.6 15.45 5.57 15.61 5.79 15.45 6.01 15.72 5.98 15.83 6.23 15.94 5.98 16.2 6.01"/><path class="e" d="M17.7,11.07l-1.44-2-.58.78-.86-1.76L14,9.89l-.58-.78-1.44,2a1,1,0,0,0,.28.69,1,1,0,0,0,.68.28.89.89,0,0,0,.48-.13h0l.23-.1a1,1,0,0,1,.73.1.91.91,0,0,0,.48.13h0a.91.91,0,0,0,.48-.13,1,1,0,0,1,.73-.1l.23.1h0a.91.91,0,0,0,.48.13,1,1,0,0,0,.68-.28,1,1,0,0,0,.28-.69"/><path class="e" d="M12.28,12.13c.07.13.14.26.22.39h0a1,1,0,0,0,.65.05.92.92,0,0,0,.23-.09h0a.9.9,0,0,1,.48-.14h0a.92.92,0,0,1,.48.14.93.93,0,0,0,.73.09.92.92,0,0,0,.23-.09h0a.9.9,0,0,1,.48-.14h0a.92.92,0,0,1,.48.14.93.93,0,0,0,.73.09l.15-.05c.08-.13.15-.26.22-.39h0l-.14.06h0a.67.67,0,0,1-.23.1.93.93,0,0,1-.73-.1,1,1,0,0,0-.48-.13h0a1,1,0,0,0-.48.13h0a.67.67,0,0,1-.23.1.93.93,0,0,1-.73-.1,1,1,0,0,0-.48-.13h0a1,1,0,0,0-.48.13h0a.67.67,0,0,1-.23.1.93.93,0,0,1-.73-.1l-.14-.06h0"/><path class="e" d="M16.89,12.88a4.59,4.59,0,0,1-.36.41,4.32,4.32,0,0,1-1.71,1.09h0a4.39,4.39,0,0,1-1.71-1.09,4.59,4.59,0,0,1-.36-.41h0a1.08,1.08,0,0,0,.4,0l.23-.1h0a.89.89,0,0,1,.48-.13h0a.91.91,0,0,1,.48.13,1,1,0,0,0,.73.1l.23-.1h0a.89.89,0,0,1,.48-.13h0a.91.91,0,0,1,.48.13,1,1,0,0,0,.63.12h0"/></g></g></svg>