<svg xmlns="http://www.w3.org/2000/svg" xmlns:xlink="http://www.w3.org/1999/xlink" viewBox="0 0 30 30"><defs><style>.a{fill:none;}.b{clip-path:url(#a);}.c{fill:#fff;}.d{clip-path:url(#b);}.e{fill:#b41e3b;}.f{fill:#273775;}.g{clip-path:url(#c);}</style><clipPath id="a"><circle class="a" cx="15" cy="15" r="15"/></clipPath><clipPath id="b"><rect class="a" x="-6.29" y="2.86" width="42.57" height="24.27"/></clipPath><clipPath id="c"><circle class="a" cx="-35" cy="15" r="15"/></clipPath></defs><title>South Korea</title><g class="b"><rect class="c" x="-11.31" width="52.62" height="30"/><polygon points="21.89 6.87 23.47 9.18 22.61 9.74 21.03 7.43 21.89 6.87"/><polygon points="23.75 9.6 25.33 11.91 24.47 12.48 22.89 10.16 23.75 9.6"/><polygon points="23.18 6.03 26.62 11.07 25.76 11.63 22.32 6.59 23.18 6.03"/><polygon points="24.47 5.18 26.05 7.5 25.19 8.06 23.61 5.74 24.47 5.18"/><polygon points="26.34 7.92 27.91 10.23 27.05 10.79 25.48 8.48 26.34 7.92"/><polygon points="5.53 17.52 8.97 22.57 8.11 23.13 4.67 18.09 5.53 17.52"/><polygon points="4.24 18.37 5.82 20.68 4.96 21.24 3.38 18.93 4.24 18.37"/><polygon points="6.1 21.1 7.68 23.41 6.82 23.98 5.24 21.66 6.1 21.1"/><polygon points="2.95 19.21 6.39 24.26 5.53 24.82 2.08 19.77 2.95 19.21"/><polygon points="4.67 11.91 8.11 6.87 8.97 7.43 5.53 12.48 4.67 11.91"/><polygon points="3.38 11.07 6.82 6.03 7.68 6.59 4.24 11.63 3.38 11.07"/><polygon points="2.08 10.23 5.53 5.18 6.39 5.74 2.95 10.79 2.08 10.23"/><polygon points="21.03 22.57 22.61 20.26 23.47 20.82 21.89 23.13 21.03 22.57"/><polygon points="22.89 19.84 24.47 17.52 25.33 18.09 23.75 20.4 22.89 19.84"/><polygon points="22.32 23.41 23.9 21.1 24.76 21.66 23.18 23.98 22.32 23.41"/><polygon points="24.18 20.68 25.76 18.37 26.62 18.93 25.05 21.24 24.18 20.68"/><polygon points="23.61 24.26 25.19 21.94 26.05 22.5 24.47 24.82 23.61 24.26"/><polygon points="25.48 21.52 27.05 19.21 27.91 19.77 26.34 22.08 25.48 21.52"/><g class="d"><path class="e" d="M9.83,11.63l-.06.1.06-.1"/><path class="e" d="M18.44,10a6.31,6.31,0,0,0-8.61,1.68,3,3,0,0,0,.87,4.21A3.15,3.15,0,0,0,15,15a3.15,3.15,0,0,1,4.3-.84,3,3,0,0,1,.87,4.21A6,6,0,0,0,18.44,10"/><path class="f" d="M9.83,11.63a3,3,0,0,0,.87,4.21A3.15,3.15,0,0,0,15,15a3.15,3.15,0,0,1,4.3-.84,3,3,0,0,1,.87,4.21,6.31,6.31,0,0,1-8.61,1.68,6,6,0,0,1-1.73-8.42"/></g><rect class="a" x="-6.29" y="2.86" width="42.57" height="24.27"/></g><g class="g"><rect class="a" x="-50" width="51.19" height="30"/></g></svg>