<svg xmlns="http://www.w3.org/2000/svg" xmlns:xlink="http://www.w3.org/1999/xlink" viewBox="0 0 30 30"><defs><style>.a{fill:none;}.b{clip-path:url(#a);}.c{clip-path:url(#b);}.d{fill:#fff;}.e{fill:#cf2f33;}.f{fill:#2d318d;}.g{fill:#f0b023;}.h{fill:#32784c;}</style><clipPath id="a"><circle class="a" cx="15" cy="15" r="15"/></clipPath><clipPath id="b"><rect class="a" x="-1.81" y="-0.02" width="51.71" height="30.04"/></clipPath></defs><title>South Africa</title><g class="b"><g class="c"><rect class="d" y="-0.02" width="30.04" height="30.04"/><polygon class="e" points="7.25 -0.02 22.34 9.99 49.9 9.99 49.9 -0.02 7.25 -0.02"/><polygon class="d" points="25.35 12 49.9 12 49.9 9.99 22.34 9.99 25.35 12"/><polygon class="d" points="22.34 20.01 49.9 20.01 49.9 18 25.35 18 22.34 20.01"/><polygon class="f" points="22.34 20.01 7.25 30.02 49.9 30.02 49.9 20.01 22.34 20.01"/><polygon points="-1.81 9.99 4.21 9.99 -1.81 6 -1.81 9.99"/><polygon points="-1.81 9.99 -1.81 20.01 4.21 20.01 11.75 15 4.21 9.99 -1.81 9.99"/><polygon points="-1.81 20.01 -1.81 24 4.21 20.01 -1.81 20.01"/><polygon class="g" points="-1.81 6 11.75 15 -1.81 24 -1.81 26.41 15.38 15 -1.81 3.59 -1.81 6"/><polygon class="h" points="-1.81 -0.02 -1.81 3.59 15.38 15 -1.81 26.41 -1.81 30.02 3.63 30.02 21.73 18 49.9 18 49.9 12 21.73 12 3.63 -0.02 -1.81 -0.02"/></g><rect class="a" x="-11.34" width="52.69" height="30"/></g></svg>