<svg xmlns="http://www.w3.org/2000/svg" xmlns:xlink="http://www.w3.org/1999/xlink" viewBox="0 0 30 30"><defs><style>.a{fill:none;}.b{clip-path:url(#a);}.c{fill:#d11f31;}.d{fill:#272a64;}.e{fill:#fff;}.f{clip-path:url(#b);}</style><clipPath id="a"><circle class="a" cx="15" cy="15" r="15"/></clipPath><clipPath id="b"><rect class="a" x="0.14" width="50.44" height="29.93"/></clipPath></defs><title>Tawain</title><g class="b"><rect class="c" x="0.14" width="50.44" height="29.93"/><rect class="d" x="-2.86" width="22.07" height="14.97"/><path class="e" d="M12.64,7.48,11.17,13.1,9.7,7.48l1.47-5.61m0,7.11,5.52-1.5L11.17,6,5.65,7.48"/><path class="e" d="M12.44,8.23l-4,4.11L9.9,6.74l4-4.12m-3.5,6.16L16,10.29l-4-4.1L6.39,4.68"/><path class="e" d="M11.91,8.78,6.39,10.29l4-4.1L16,4.68m-6,3.55,4,4.11-1.49-5.6-4-4.12"/><g class="f"><path class="d" d="M11.17,4.3A3.18,3.18,0,1,1,8,7.48,3.16,3.16,0,0,1,11.17,4.3"/><path class="e" d="M11.17,4.68a2.81,2.81,0,1,1-2.76,2.8,2.78,2.78,0,0,1,2.76-2.8"/></g></g></svg>