<svg xmlns="http://www.w3.org/2000/svg" xmlns:xlink="http://www.w3.org/1999/xlink" viewBox="0 0 30 30"><defs><style>.a{fill:none;}.b{clip-path:url(#a);}.c{fill:#ca2027;}.d{fill:#fff;}.e{fill:#2b3561;}</style><clipPath id="a"><circle class="a" cx="15" cy="15" r="15"/></clipPath></defs><title>United States</title><g class="b"><rect class="c" x="-0.15" y="27.69" width="50.55" height="2.31"/><rect class="d" x="-0.15" y="25.39" width="50.55" height="2.31"/><rect class="c" x="-0.15" y="23.08" width="50.55" height="2.31"/><rect class="d" x="-0.15" y="20.77" width="50.55" height="2.31"/><rect class="c" x="-0.15" y="18.46" width="50.55" height="2.31"/><rect class="d" x="-0.15" y="16.15" width="50.55" height="2.31"/><rect class="c" x="-0.15" y="13.85" width="50.55" height="2.31"/><rect class="d" x="-0.15" y="11.54" width="50.55" height="2.31"/><rect class="c" x="-0.15" y="9.23" width="50.55" height="2.31"/><rect class="d" x="-0.15" y="6.92" width="50.55" height="2.31"/><rect class="c" x="-0.15" y="4.62" width="50.55" height="2.31"/><rect class="d" x="-0.15" y="2.31" width="50.55" height="2.31"/><rect class="c" x="-0.15" width="50.55" height="2.31"/><rect class="e" x="-0.15" width="23.08" height="16.15"/><polygon class="d" points="1.94 1.78 2.13 2.39 2.76 2.39 2.25 2.77 2.45 3.38 1.94 3 1.43 3.38 1.62 2.77 1.11 2.39 1.74 2.39 1.94 1.78"/><polygon class="d" points="1.94 4.48 2.13 5.09 2.76 5.09 2.25 5.46 2.45 6.08 1.94 5.7 1.43 6.08 1.62 5.46 1.11 5.09 1.74 5.09 1.94 4.48"/><polygon class="d" points="1.94 7.17 2.13 7.78 2.76 7.78 2.25 8.16 2.45 8.77 1.94 8.39 1.43 8.77 1.62 8.16 1.11 7.78 1.74 7.78 1.94 7.17"/><polygon class="d" points="1.94 9.87 2.13 10.48 2.76 10.48 2.25 10.86 2.45 11.47 1.94 11.09 1.43 11.47 1.62 10.86 1.11 10.48 1.74 10.48 1.94 9.87"/><polygon class="d" points="1.94 12.57 2.13 13.18 2.76 13.18 2.25 13.55 2.45 14.16 1.94 13.79 1.43 14.16 1.62 13.55 1.11 13.18 1.74 13.18 1.94 12.57"/><polygon class="d" points="3.78 3.2 3.98 3.81 4.61 3.81 4.1 4.19 4.29 4.8 3.78 4.42 3.27 4.8 3.47 4.19 2.96 3.81 3.59 3.81 3.78 3.2"/><polygon class="d" points="3.78 5.9 3.98 6.51 4.61 6.51 4.1 6.88 4.29 7.5 3.78 7.12 3.27 7.5 3.47 6.88 2.96 6.51 3.59 6.51 3.78 5.9"/><polygon class="d" points="3.78 8.59 3.98 9.2 4.61 9.2 4.1 9.58 4.29 10.19 3.78 9.81 3.27 10.19 3.47 9.58 2.96 9.2 3.59 9.2 3.78 8.59"/><polygon class="d" points="3.78 11.29 3.98 11.9 4.61 11.9 4.1 12.28 4.29 12.89 3.78 12.51 3.27 12.89 3.47 12.28 2.96 11.9 3.59 11.9 3.78 11.29"/><polygon class="d" points="5.65 1.78 5.85 2.39 6.48 2.39 5.97 2.77 6.16 3.38 5.65 3 5.14 3.38 5.34 2.77 4.83 2.39 5.46 2.39 5.65 1.78"/><polygon class="d" points="5.65 4.48 5.85 5.09 6.48 5.09 5.97 5.46 6.16 6.08 5.65 5.7 5.14 6.08 5.34 5.46 4.83 5.09 5.46 5.09 5.65 4.48"/><polygon class="d" points="5.65 7.17 5.85 7.78 6.48 7.78 5.97 8.16 6.16 8.77 5.65 8.39 5.14 8.77 5.34 8.16 4.83 7.78 5.46 7.78 5.65 7.17"/><polygon class="d" points="5.65 9.87 5.85 10.48 6.48 10.48 5.97 10.86 6.16 11.47 5.65 11.09 5.14 11.47 5.34 10.86 4.83 10.48 5.46 10.48 5.65 9.87"/><polygon class="d" points="5.65 12.57 5.85 13.18 6.48 13.18 5.97 13.55 6.16 14.16 5.65 13.79 5.14 14.16 5.34 13.55 4.83 13.18 5.46 13.18 5.65 12.57"/><polygon class="d" points="7.5 3.2 7.69 3.81 8.32 3.81 7.81 4.19 8.01 4.8 7.5 4.42 6.99 4.8 7.18 4.19 6.67 3.81 7.3 3.81 7.5 3.2"/><polygon class="d" points="7.5 5.9 7.69 6.51 8.32 6.51 7.81 6.88 8.01 7.5 7.5 7.12 6.99 7.5 7.18 6.88 6.67 6.51 7.3 6.51 7.5 5.9"/><polygon class="d" points="7.5 8.59 7.69 9.2 8.32 9.2 7.81 9.58 8.01 10.19 7.5 9.81 6.99 10.19 7.18 9.58 6.67 9.2 7.3 9.2 7.5 8.59"/><polygon class="d" points="7.5 11.29 7.69 11.9 8.32 11.9 7.81 12.28 8.01 12.89 7.5 12.51 6.99 12.89 7.18 12.28 6.67 11.9 7.3 11.9 7.5 11.29"/><polygon class="d" points="9.37 1.78 9.56 2.39 10.19 2.39 9.68 2.77 9.88 3.38 9.37 3 8.86 3.38 9.05 2.77 8.54 2.39 9.17 2.39 9.37 1.78"/><polygon class="d" points="9.37 4.48 9.56 5.09 10.19 5.09 9.68 5.46 9.88 6.08 9.37 5.7 8.86 6.08 9.05 5.46 8.54 5.09 9.17 5.09 9.37 4.48"/><polygon class="d" points="9.37 7.17 9.56 7.78 10.19 7.78 9.68 8.16 9.88 8.77 9.37 8.39 8.86 8.77 9.05 8.16 8.54 7.78 9.17 7.78 9.37 7.17"/><polygon class="d" points="9.37 9.87 9.56 10.48 10.19 10.48 9.68 10.86 9.88 11.47 9.37 11.09 8.86 11.47 9.05 10.86 8.54 10.48 9.17 10.48 9.37 9.87"/><polygon class="d" points="9.37 12.57 9.56 13.18 10.19 13.18 9.68 13.55 9.88 14.16 9.37 13.79 8.86 14.16 9.05 13.55 8.54 13.18 9.17 13.18 9.37 12.57"/><polygon class="d" points="11.21 3.2 11.41 3.81 12.04 3.81 11.53 4.19 11.72 4.8 11.21 4.42 10.7 4.8 10.9 4.19 10.39 3.81 11.02 3.81 11.21 3.2"/><polygon class="d" points="11.21 5.9 11.41 6.51 12.04 6.51 11.53 6.88 11.72 7.5 11.21 7.12 10.7 7.5 10.9 6.88 10.39 6.51 11.02 6.51 11.21 5.9"/><polygon class="d" points="11.21 8.59 11.41 9.2 12.04 9.2 11.53 9.58 11.72 10.19 11.21 9.81 10.7 10.19 10.9 9.58 10.39 9.2 11.02 9.2 11.21 8.59"/><polygon class="d" points="11.21 11.29 11.41 11.9 12.04 11.9 11.53 12.28 11.72 12.89 11.21 12.51 10.7 12.89 10.9 12.28 10.39 11.9 11.02 11.9 11.21 11.29"/><polygon class="d" points="13.08 1.78 13.28 2.39 13.91 2.39 13.4 2.77 13.59 3.38 13.08 3 12.57 3.38 12.77 2.77 12.26 2.39 12.89 2.39 13.08 1.78"/><polygon class="d" points="13.08 4.48 13.28 5.09 13.91 5.09 13.4 5.46 13.59 6.08 13.08 5.7 12.57 6.08 12.77 5.46 12.26 5.09 12.89 5.09 13.08 4.48"/><polygon class="d" points="13.08 7.17 13.28 7.78 13.91 7.78 13.4 8.16 13.59 8.77 13.08 8.39 12.57 8.77 12.77 8.16 12.26 7.78 12.89 7.78 13.08 7.17"/><polygon class="d" points="13.08 9.87 13.28 10.48 13.91 10.48 13.4 10.86 13.59 11.47 13.08 11.09 12.57 11.47 12.77 10.86 12.26 10.48 12.89 10.48 13.08 9.87"/><polygon class="d" points="13.08 12.57 13.28 13.18 13.91 13.18 13.4 13.55 13.59 14.16 13.08 13.79 12.57 14.16 12.77 13.55 12.26 13.18 12.89 13.18 13.08 12.57"/><polygon class="d" points="14.93 3.2 15.13 3.81 15.76 3.81 15.24 4.19 15.44 4.8 14.93 4.42 14.42 4.8 14.61 4.19 14.1 3.81 14.73 3.81 14.93 3.2"/><polygon class="d" points="14.93 5.9 15.13 6.51 15.76 6.51 15.24 6.88 15.44 7.5 14.93 7.12 14.42 7.5 14.61 6.88 14.1 6.51 14.73 6.51 14.93 5.9"/><polygon class="d" points="14.93 8.59 15.13 9.2 15.76 9.2 15.24 9.58 15.44 10.19 14.93 9.81 14.42 10.19 14.61 9.58 14.1 9.2 14.73 9.2 14.93 8.59"/><polygon class="d" points="14.93 11.29 15.13 11.9 15.76 11.9 15.24 12.28 15.44 12.89 14.93 12.51 14.42 12.89 14.61 12.28 14.1 11.9 14.73 11.9 14.93 11.29"/><polygon class="d" points="16.8 1.78 17 2.39 17.63 2.39 17.11 2.77 17.31 3.38 16.8 3 16.29 3.38 16.48 2.77 15.97 2.39 16.6 2.39 16.8 1.78"/><polygon class="d" points="16.8 4.48 17 5.09 17.63 5.09 17.11 5.46 17.31 6.08 16.8 5.7 16.29 6.08 16.48 5.46 15.97 5.09 16.6 5.09 16.8 4.48"/><polygon class="d" points="16.8 7.17 17 7.78 17.63 7.78 17.11 8.16 17.31 8.77 16.8 8.39 16.29 8.77 16.48 8.16 15.97 7.78 16.6 7.78 16.8 7.17"/><polygon class="d" points="16.8 9.87 17 10.48 17.63 10.48 17.11 10.86 17.31 11.47 16.8 11.09 16.29 11.47 16.48 10.86 15.97 10.48 16.6 10.48 16.8 9.87"/><polygon class="d" points="16.8 12.57 17 13.18 17.63 13.18 17.11 13.55 17.31 14.16 16.8 13.79 16.29 14.16 16.48 13.55 15.97 13.18 16.6 13.18 16.8 12.57"/><polygon class="d" points="18.64 3.2 18.84 3.81 19.47 3.81 18.96 4.19 19.16 4.8 18.64 4.42 18.14 4.8 18.33 4.19 17.82 3.81 18.45 3.81 18.64 3.2"/><polygon class="d" points="18.64 5.9 18.84 6.51 19.47 6.51 18.96 6.88 19.16 7.5 18.64 7.12 18.14 7.5 18.33 6.88 17.82 6.51 18.45 6.51 18.64 5.9"/><polygon class="d" points="18.64 8.59 18.84 9.2 19.47 9.2 18.96 9.58 19.16 10.19 18.64 9.81 18.14 10.19 18.33 9.58 17.82 9.2 18.45 9.2 18.64 8.59"/><polygon class="d" points="18.64 11.29 18.84 11.9 19.47 11.9 18.96 12.28 19.16 12.89 18.64 12.51 18.14 12.89 18.33 12.28 17.82 11.9 18.45 11.9 18.64 11.29"/><polygon class="d" points="20.52 1.78 20.71 2.39 21.34 2.39 20.83 2.77 21.03 3.38 20.52 3 20 3.38 20.2 2.77 19.69 2.39 20.32 2.39 20.52 1.78"/><polygon class="d" points="20.52 4.48 20.71 5.09 21.34 5.09 20.83 5.46 21.03 6.08 20.52 5.7 20 6.08 20.2 5.46 19.69 5.09 20.32 5.09 20.52 4.48"/><polygon class="d" points="20.52 7.17 20.71 7.78 21.34 7.78 20.83 8.16 21.03 8.77 20.52 8.39 20 8.77 20.2 8.16 19.69 7.78 20.32 7.78 20.52 7.17"/><polygon class="d" points="20.52 9.87 20.71 10.48 21.34 10.48 20.83 10.86 21.03 11.47 20.52 11.09 20 11.47 20.2 10.86 19.69 10.48 20.32 10.48 20.52 9.87"/><polygon class="d" points="20.52 12.57 20.71 13.18 21.34 13.18 20.83 13.55 21.03 14.16 20.52 13.79 20 14.16 20.2 13.55 19.69 13.18 20.32 13.18 20.52 12.57"/></g></svg>