<svg width="59" height="22" viewBox="0 0 59 22" fill="none" xmlns="http://www.w3.org/2000/svg"><g clip-path="url(#clip0_1322_23796)"><path fill-rule="evenodd" clip-rule="evenodd" d="M10.594.68h.643a9.67 9.67 0 0 1 5.884 2.28A9.67 9.67 0 0 1 23.005.68h.661a9.67 9.67 0 0 1 5.884 2.28A9.67 9.67 0 0 1 35.434.68h.66a9.67 9.67 0 0 1 5.884 2.28A9.67 9.67 0 0 1 47.862.68h.661c2.6.09 5.06 1.243 6.852 3.21 1.793 1.966 2.773 4.589 2.73 7.303-.044 2.713-1.107 5.3-2.961 7.203-1.854 1.903-4.35 2.97-6.951 2.97-2.27 0-4.461-.813-6.215-2.285a9.658 9.658 0 0 1-6.214 2.285c-2.27 0-4.46-.813-6.214-2.285a9.658 9.658 0 0 1-6.215 2.285c-2.27 0-4.46-.813-6.214-2.285a9.658 9.658 0 0 1-6.214 2.285c-2.6 0-5.097-1.067-6.951-2.97-1.854-1.903-2.918-4.49-2.961-7.203-.043-2.714.937-5.337 2.73-7.303C5.515 1.923 7.976.77 10.575.68h.018zM18.6 17.544a7.63 7.63 0 0 0 4.735 1.66 7.63 7.63 0 0 0 4.734-1.66 10.623 10.623 0 0 1-2.218-6.351 10.634 10.634 0 0 1 2.218-6.697 7.64 7.64 0 0 0-4.456-1.655h-.557a7.64 7.64 0 0 0-4.456 1.655 10.634 10.634 0 0 1 2.218 6.697 10.623 10.623 0 0 1-2.218 6.351zM17.12 6.029a8.421 8.421 0 0 1 1.627 5.127 8.413 8.413 0 0 1-1.627 4.856 8.414 8.414 0 0 1-1.626-4.856 8.422 8.422 0 0 1 1.626-5.128zm-1.48-1.533a10.634 10.634 0 0 0-2.217 6.697 10.623 10.623 0 0 0 2.218 6.351 7.63 7.63 0 0 1-4.735 1.66c-2.057 0-4.032-.844-5.499-2.349-1.466-1.505-2.308-3.552-2.342-5.699-.034-2.146.741-4.22 2.159-5.776 1.414-1.552 3.354-2.463 5.404-2.539h.556a7.64 7.64 0 0 1 4.457 1.655zM29.55 6.028a8.421 8.421 0 0 0-1.627 5.128 8.413 8.413 0 0 0 1.627 4.856 8.413 8.413 0 0 0 1.626-4.856 8.421 8.421 0 0 0-1.626-5.128zm1.48 11.516a7.63 7.63 0 0 0 4.734 1.66 7.63 7.63 0 0 0 4.735-1.66 10.623 10.623 0 0 1-2.218-6.351 10.634 10.634 0 0 1 2.218-6.697 7.64 7.64 0 0 0-4.457-1.655h-.556a7.64 7.64 0 0 0-4.457 1.655 10.634 10.634 0 0 1 2.218 6.697 10.623 10.623 0 0 1-2.218 6.351zM41.977 6.029a8.421 8.421 0 0 0-1.626 5.127 8.412 8.412 0 0 0 1.626 4.856 8.413 8.413 0 0 0 1.627-4.856 8.422 8.422 0 0 0-1.627-5.128zm1.48 11.515a7.63 7.63 0 0 0 4.735 1.66c2.057 0 4.032-.844 5.498-2.349 1.467-1.505 2.308-3.552 2.342-5.699.035-2.146-.74-4.22-2.158-5.776C52.46 3.828 50.52 2.917 48.47 2.84h-.556a7.64 7.64 0 0 0-4.457 1.655 10.635 10.635 0 0 1 2.218 6.697 10.624 10.624 0 0 1-2.218 6.351z" fill="#212121"/></g><defs><clipPath id="clip0_1322_23796"><path fill="#fff" transform="translate(.55 .525)" d="M0 0h58v21H0z"/></clipPath></defs></svg>