<svg width="382" height="98" viewBox="0 0 382 98" fill="none" xmlns="http://www.w3.org/2000/svg"><path fill-rule="evenodd" clip-rule="evenodd" d="M73.575 30.927C65.726 19.46 56.6 14.783 42.078 14.783c-11.142 0-21.625 4.309-29.52 12.134C4.46 34.944 0 45.886 0 57.728c0 22.711 16.428 39.837 38.213 39.837 13.564 0 23.668-4.408 31.8-13.874a1.912 1.912 0 0 0-.273-2.743l-10.747-8.344a1.84 1.84 0 0 0-2.56.29c-4.42 5.355-10.358 8.068-17.651 8.068-11.586 0-19.995-9.723-19.995-23.119 0-7.234 2.265-13.903 6.376-18.778 4.177-4.952 10.023-7.679 16.46-7.679 7.478 0 13.087 3.068 17.149 9.38.27.419.683.708 1.164.815.49.108.99.017 1.41-.261l11.714-7.729a1.9 1.9 0 0 0 .812-1.221 1.924 1.924 0 0 0-.297-1.443zM182.846 54.678c14.438 0 22.804-6.539 22.804-21.009 0-12.383-7.422-17.113-20.375-17.113h-2.213a.91.91 0 0 0-.887.769l-6.16 36.264c-.096.568.328 1.09.887 1.09h5.944zm33.991 39.93h-17.392a.9.9 0 0 1-.797-.494l-11.613-22.62a.892.892 0 0 0-.865-.485c-1.155.086-2.326.086-3.594.086h-8.69a.91.91 0 0 0-.887.767l-3.784 21.98a.91.91 0 0 1-.888.767H151.67c-.56 0-.985-.522-.887-1.091L166.657.768a.909.909 0 0 1 .887-.768h19.619c23.614 0 37.512 12.381 37.512 33.67 0 13.606-6.065 26.547-19.965 32.187-.5.203-.729.8-.477 1.29l13.4 26.098c.318.619-.117 1.364-.796 1.364zM276.226 39.597c0 11.919-6.95 17.962-20.657 17.962h-5.582a.08.08 0 0 1-.064-.03.075.075 0 0 1-.017-.065l5.786-32.292a.082.082 0 0 1 .081-.067h2.078c12.537 0 18.375 4.605 18.375 14.492zm.107 29.462a.056.056 0 0 1-.003-.05.095.095 0 0 1 .057-.055c12.226-4.702 19.238-15.403 19.238-29.357 0-9.513-3.307-17.35-9.563-22.662-6.214-5.276-15.355-8.065-26.437-8.065h-18.429c-.782 0-1.449.546-1.585 1.3L224.699 92.76c-.082.46.047.928.353 1.285.307.358.756.563 1.233.563h15.647c.782 0 1.449-.546 1.585-1.3l3.554-19.571a.084.084 0 0 1 .082-.067h8.163c1.192 0 2.318 0 3.431-.08.015 0 .062 0 .083.038l10.909 20.143c.28.516.824.837 1.423.837h16.336c.57 0 1.086-.285 1.379-.762a1.528 1.528 0 0 0 .044-1.548l-12.588-23.24zM341.244 31.404c12.665 0 21.174 9.284 21.174 23.103 0 16.061-9.312 26.44-23.724 26.44-12.666 0-21.176-9.286-21.176-23.103 0-16.062 9.313-26.44 23.726-26.44zm28.683-5.353c-7.286-7.267-17.308-11.268-28.222-11.268-11.619 0-22.372 4.094-30.277 11.529-8.405 7.904-12.847 18.687-12.847 31.186 0 11.228 4.038 21.455 11.369 28.797 7.256 7.267 17.258 11.27 28.163 11.27 11.627 0 22.401-4.094 30.336-11.528 8.444-7.91 12.907-18.693 12.907-31.185 0-11.221-4.059-21.45-11.429-28.8zM103.624 70.033l14.435-30.971 4.866 30.97h-19.301zm44.139 22.823L127.91 10.028a1.523 1.523 0 0 0-1.488-1.158h-9.275c-.566 0-1.086.307-1.351.798l-44.643 82.83a1.375 1.375 0 0 0-.02 1.403c.25.437.723.708 1.233.708h15.57c.5 0 .962-.259 1.217-.68l5.459-9.02h32.193l2.227 8.649a1.413 1.413 0 0 0 1.374 1.05h15.93c.39 0 .78-.129 1.055-.4.368-.364.504-.87.372-1.352z" fill="#FF5722"/></svg>