<svg width="41" height="40" viewBox="0 0 41 40" fill="none" xmlns="http://www.w3.org/2000/svg"><path d="M29.778 29.229a4.337 4.337 0 0 0-4.257-3.431 4.361 4.361 0 0 0-4.256 3.392c1.69.852 1.973 2.438 4.334 2.438 2.347.013 2.618-1.548 4.18-2.399zm-.748-10.461h10.087c1.16 0 1.16 1.767 0 1.767H25.883l-10.049 2c-2.373.8-3.121 3.044-2.386 5.3.296.917.838 1.755 1.548 2.361 1.173-1.225 2.902-1.767 4.579-1.535a6.128 6.128 0 0 1 5.946-4.63 6.15 6.15 0 0 1 5.947 4.643c.27-.051.542-.064.825-.064 1.2 0 2.413.4 3.367 1.212.439.374.735.813 1.187 1.161l-1.058 1.406c-.516-.387-.813-.838-1.264-1.225a3.482 3.482 0 0 0-2.232-.8c-2.825 0-2.915 3.031-6.694 3.031-3.793-.013-3.909-3.03-6.785-3.03-1.87 0-2.141.812-3.225 1.753a5.398 5.398 0 0 1-3.508 1.277c-3.677 0-3.574-2.321-5.805-2.928a3.562 3.562 0 0 0-2.077.065l-.554-1.664a5.341 5.341 0 0 1 3.082-.103c2.503.683 2.683 2.863 5.354 2.863.528 0 1.044-.103 1.522-.322-.839-.787-1.47-1.819-1.832-2.928-1.045-3.2.232-6.45 3.573-7.546l9.236-1.845 1.741-.4 7.507-5.585c.916-.684 1.974-1.303 3.148-1.303 1.16 0 1.16 1.767 0 1.767-.736 0-1.522.53-2.09.942l-5.856 4.36z" fill="#fff"/><path d="M20.494 0c5.52 0 10.525 2.232 14.15 5.856 3.612 3.625 5.856 8.617 5.856 14.138 0 5.52-2.244 10.525-5.856 14.15C31.019 37.756 26.014 40 20.494 40c-5.521 0-10.513-2.244-14.138-5.856A19.946 19.946 0 0 1 .5 19.994C.5 14.473 2.732 9.48 6.356 5.856A19.915 19.915 0 0 1 20.494 0zM33.78 8.384 8.884 33.28a17.512 17.512 0 0 0 11.61 4.36c4.875 0 9.287-1.974 12.486-5.16a17.638 17.638 0 0 0 5.16-12.486c0-4.45-1.639-8.514-4.36-11.61zM7.22 31.616 32.116 6.72a17.582 17.582 0 0 0-11.622-4.372A17.588 17.588 0 0 0 8.02 7.52a17.588 17.588 0 0 0-5.172 12.474c0 4.45 1.65 8.513 4.372 11.622z" fill="#FFD4C2"/><path d="m24.568 18.987.955.181.787-.58-3.083-7.508c-.684-1.65-2.49-3.702-4.115-4.489-1.045-.503-1.806 1.084-.761 1.587 1.225.593 2.735 2.335 3.25 3.573l2.967 7.236zM8.34 9.16a6.117 6.117 0 0 1 4.335 2.115c.748.877-.594 2.025-1.342 1.148-1.625-1.896-4.553-2.012-6.307-.245-1.677 1.664-1.677 4.411 0 6.075 1.534 1.548 4.024 1.677 5.714.31a4.342 4.342 0 0 0 1.509-2.386c.116-.774 1.135-1.032 1.6-.375a1.86 1.86 0 0 0 1.56.826 1.894 1.894 0 0 0 1.896-1.91c0-.954-.67-1.805-1.638-1.921-.645-.077-1.006-.813-.632-1.367.387-.594.594-1.29.594-2a3.647 3.647 0 0 0-3.65-3.65A3.647 3.647 0 0 0 8.34 9.16zm-1.767.18c.052-2.954 2.451-5.327 5.405-5.327a5.417 5.417 0 0 1 5.418 5.417c0 .671-.13 1.329-.374 1.961 1.264.62 2.05 1.922 2.05 3.328a3.66 3.66 0 0 1-3.663 3.663c-.67 0-1.328-.18-1.909-.529a6.061 6.061 0 0 1-1.65 2.09c-2.4 1.935-5.896 1.741-8.076-.439-2.36-2.36-2.36-6.217 0-8.577a6.003 6.003 0 0 1 2.8-1.587z" fill="#fff"/></svg>