<svg width="14" height="12" viewBox="0 0 14 12" fill="none" xmlns="http://www.w3.org/2000/svg"><path fill-rule="evenodd" clip-rule="evenodd" d="M12.986 9.527h-.704a1.354 1.354 0 0 0-1.298-.976c-.617 0-1.133.414-1.297.976H4.68a1.354 1.354 0 0 0-1.298-.976c-.617 0-1.133.414-1.297.976H1.04v-1.62H12.07c.72 0 .916.313.916 1.454v.165zm-2 1.183a.813.813 0 0 1-.815-.81c0-.446.366-.809.815-.809.449 0 .814.363.814.81 0 .446-.365.81-.814.81zm-7.603 0a.813.813 0 0 1-.814-.81c0-.446.365-.809.814-.809.45 0 .815.363.815.81 0 .446-.366.81-.815.81zm.788-4.745a.546.546 0 0 1 .435-.216H5.93v1.62H3.112l1.06-1.404zm4.398 0 1.059 1.403H6.472V5.75h1.662c.17 0 .333.081.435.216zm3.503 1.404h-1.765L9.004 5.642a1.094 1.094 0 0 0-.87-.432H4.607c-.34 0-.666.162-.87.432L2.434 7.37H.771a.27.27 0 0 0-.271.27v2.158c0 .15.122.27.271.27h1.272a1.352 1.352 0 0 0 2.681 0h4.921a1.352 1.352 0 0 0 2.681 0h.933a.27.27 0 0 0 .272-.27V9.36c0-.745 0-1.992-1.46-1.992z" fill="#3B3B3B"/><path d="M12.986 9.527v.075h.075v-.075h-.075zm-.704 0-.072.02.016.054h.056v-.075zm-2.595 0v.075h.056l.016-.054-.072-.021zm-5.007 0-.072.02.016.054h.056v-.075zm-2.595 0v.075h.056l.016-.054-.072-.021zm-1.044 0H.966v.075h.075v-.075zm0-1.62v-.074H.966v.075h.075zm3.13-1.942.06.045-.06-.045zM5.93 5.75h.075v-.075H5.93v.075zm0 1.62v.074h.075v-.075H5.93zm-2.818 0-.06-.046-.09.12h.15v-.075zm6.516 0v.074h.15l-.09-.12-.06.045zm-3.156 0h-.075v.074h.075v-.075zm0-1.62v-.075h-.075v.075h.075zm3.835 1.62-.06.045.023.03h.037v-.075zM9.004 5.642l-.06.046.06-.046zm-5.267 0 .06.046-.06-.046zM2.433 7.37v.075h.038l.022-.03-.06-.045zm-.39 2.698.075-.01-.008-.065h-.067v.075zm2.681 0v-.075h-.066l-.008.065.074.01zm4.921 0 .075-.01-.009-.065h-.066v.075zm2.681 0v-.075h-.066l-.008.065.074.01zm.66-.616h-.704v.15h.704v-.15zm-.632.054a1.429 1.429 0 0 0-1.37-1.029v.15c.583 0 1.07.39 1.226.922l.144-.043zm-1.37-1.029c-.651 0-1.196.437-1.37 1.03l.145.042c.155-.531.643-.922 1.225-.922v-.15zm-1.297.975H4.68v.15h5.007v-.15zm-4.935.054a1.429 1.429 0 0 0-1.37-1.029v.15c.583 0 1.07.39 1.226.922l.144-.043zm-1.37-1.029c-.651 0-1.196.437-1.37 1.03l.145.042c.155-.531.643-.922 1.225-.922v-.15zm-1.297.975H1.04v.15h1.044v-.15zm-.969.075V7.909h-.15v1.619h.15zm-.075-1.543H2.4v-.15H1.04v.15zm1.358 0h.169v-.15h-.17v.15zm.169 0h7.601v-.15H2.568v.15zm7.601 0h.374v-.15h-.373v.15zm.374 0h1.527v-.15h-1.527v.15zm1.527 0c.35 0 .546.076.665.263a1.1 1.1 0 0 1 .135.418c.03.184.041.413.041.697h.15a4.78 4.78 0 0 0-.043-.72 1.245 1.245 0 0 0-.157-.475c-.16-.253-.422-.333-.79-.333v.15zm.841 1.378v.165h.15v-.165h-.15zm-1.925 1.274a.738.738 0 0 1-.74-.734h-.15c0 .488.4.884.89.884v-.15zm-.74-.734c0-.405.332-.735.74-.735v-.15c-.49 0-.89.396-.89.885h.15zm.74-.735c.408 0 .74.33.74.735h.15c0-.489-.4-.885-.89-.885v.15zm.74.735a.738.738 0 0 1-.74.734v.15c.49 0 .89-.396.89-.884h-.15zm-8.343.734a.738.738 0 0 1-.74-.734h-.15c0 .488.4.884.89.884v-.15zm-.74-.734c0-.405.332-.735.74-.735v-.15c-.49 0-.89.396-.89.885h.15zm.74-.735c.408 0 .74.33.74.735h.15c0-.489-.4-.885-.89-.885v.15zm.74.735a.738.738 0 0 1-.74.734v.15c.49 0 .89-.396.89-.884h-.15zm.108-3.89a.471.471 0 0 1 .375-.187v-.15a.621.621 0 0 0-.495.246l.12.09zm.375-.187H5.93v-.15H4.606v.15zm1.249-.075v1.62h.15v-1.62h-.15zm.075 1.544H3.112v.15H5.93v-.15zm-2.758.12 1.06-1.403-.12-.09-1.06 1.403.12.09zM8.509 6.01l1.059 1.403.12-.09-1.06-1.403-.12.09zm1.119 1.283H6.472v.15h3.156v-.15zm-3.081.075V5.75h-.15v1.62h.15zm-.075-1.544h1.662v-.15H6.472v.15zm1.662 0c.147 0 .287.07.375.186l.12-.09a.622.622 0 0 0-.495-.246v.15zm3.938 1.47h-1.527v.15h1.527v-.15zm-1.527 0h-.238v.15h.238v-.15zm-.178.03L9.064 5.597l-.12.09 1.303 1.727.12-.09zM9.064 5.597a1.169 1.169 0 0 0-.93-.462v.15c.317 0 .62.151.81.403l.12-.09zm-.93-.462H4.607v.15h3.529v-.15zm-3.528 0c-.364 0-.711.173-.93.462l.12.09c.19-.25.493-.402.81-.402v-.15zm-.929.462L2.374 7.324l.12.09 1.303-1.726-.12-.09zM2.433 7.294H2.4v.15h.033v-.15zm-.033 0H.771v.15h1.63v-.15zm-1.629 0a.346.346 0 0 0-.346.345h.15c0-.108.088-.195.196-.195v-.15zm-.346.345v2.158h.15V7.639h-.15zm0 2.158c0 .191.156.345.346.345v-.15a.196.196 0 0 1-.196-.195h-.15zm.346.345h1.272v-.15H.771v.15zm1.198-.066a1.427 1.427 0 0 0 1.415 1.25v-.15c-.653 0-1.188-.49-1.266-1.119l-.15.02zm1.415 1.25c.73 0 1.327-.548 1.415-1.25l-.149-.019a1.277 1.277 0 0 1-1.266 1.118v.15zm1.34-1.184h4.921v-.15h-4.92v.15zm4.847-.066a1.427 1.427 0 0 0 1.415 1.25v-.15c-.653 0-1.188-.49-1.266-1.119l-.15.02zm1.415 1.25c.73 0 1.327-.548 1.415-1.25l-.15-.019a1.277 1.277 0 0 1-1.265 1.118v.15zm1.34-1.184h.933v-.15h-.933v.15zm.933 0c.191 0 .347-.154.347-.345h-.15a.196.196 0 0 1-.197.195v.15zm.347-.345V9.36h-.15v.436h.15zm0-.436c0-.369.001-.884-.19-1.306a1.208 1.208 0 0 0-.46-.543c-.22-.138-.509-.218-.884-.218v.15c.354 0 .613.075.804.195.19.12.318.286.404.477.175.388.176.87.176 1.245h.15z" fill="#3B3B3B"/><path fill-rule="evenodd" clip-rule="evenodd" d="M1.714 1.28 9.825 3.35l-.351 1.094a.27.27 0 0 0 .19.343l1.74.453-.467.28a.269.269 0 0 0-.093.37.27.27 0 0 0 .373.091l1.125-.673a.269.269 0 0 0 .093-.37l-.658-1.085a.272.272 0 0 0-.372-.092.269.269 0 0 0-.093.37l.38.626-1.614-.42.352-1.096a.268.268 0 0 0-.191-.343L1.849.758a.27.27 0 1 0-.135.523z" fill="#3B3B3B"/><path d="M1.714 1.28 9.825 3.35l-.351 1.094a.27.27 0 0 0 .19.343l1.74.453-.467.28a.269.269 0 0 0-.093.37.27.27 0 0 0 .373.091l1.125-.673a.269.269 0 0 0 .093-.37l-.658-1.085a.272.272 0 0 0-.372-.092.269.269 0 0 0-.093.37l.38.626-1.614-.42.352-1.096a.268.268 0 0 0-.191-.343L1.849.758a.27.27 0 1 0-.135.523" stroke="#3B3B3B" stroke-width=".15"/></svg>