<svg width="20" height="20" viewBox="0 0 20 20" fill="none" xmlns="http://www.w3.org/2000/svg"><path d="M10.144 14.828c-.672 0-1.27-.093-1.792-.28-.523-.186-1.022-.494-1.498-.924a.803.803 0 0 1-.238-.266.868.868 0 0 1-.07-.336.68.68 0 0 1 .196-.476.668.668 0 0 1 .91-.056c.355.327.723.574 1.106.742.392.168.85.252 1.372.252.373 0 .714-.06 1.022-.182.317-.121.57-.284.756-.49.187-.205.28-.443.28-.714 0-.336-.098-.611-.294-.826-.187-.224-.462-.406-.826-.546a6.903 6.903 0 0 0-1.288-.378 6.485 6.485 0 0 1-1.26-.35 3.426 3.426 0 0 1-.938-.56 2.388 2.388 0 0 1-.602-.826 2.719 2.719 0 0 1-.21-1.106c0-.57.15-1.06.448-1.47.299-.41.705-.728 1.218-.952.513-.224 1.092-.336 1.736-.336.588 0 1.139.094 1.652.28.513.178.929.42 1.246.728.224.196.336.406.336.63 0 .168-.07.327-.21.476a.612.612 0 0 1-.462.21.521.521 0 0 1-.336-.112 2.018 2.018 0 0 0-.602-.42 4.462 4.462 0 0 0-.812-.322 2.821 2.821 0 0 0-.812-.126c-.42 0-.78.06-1.078.182-.299.112-.527.27-.686.476-.159.196-.238.43-.238.7 0 .318.089.579.266.784.187.206.443.374.77.504.327.122.7.234 1.12.336.513.112.97.238 1.372.378.41.14.756.322 1.036.546.28.215.495.486.644.812.15.327.224.733.224 1.218 0 .56-.159 1.05-.476 1.47-.317.42-.737.747-1.26.98a4.113 4.113 0 0 1-1.722.35zm.812 1.022c0 .196-.07.364-.21.504a.659.659 0 0 1-.504.21.642.642 0 0 1-.49-.21.713.713 0 0 1-.196-.504V4.118c0-.205.065-.373.196-.504.14-.14.313-.21.518-.21.196 0 .36.07.49.21.13.13.196.299.196.504V15.85z" fill="#FF4C00"/><circle cx="10" cy="10" r="9.25" stroke="#FF4C00" stroke-width="1.5"/></svg>