<svg width="41" height="33" viewBox="0 0 41 33" fill="none" xmlns="http://www.w3.org/2000/svg"><path d="M27.88 3.488h-5.859l-.367 2.06c.506-.118 1.11-.18 1.81-.18.963 0 1.837.2 2.607.589a4.27 4.27 0 0 1 1.796 1.692c.43.735.645 1.602.645 2.607 0 1.158-.291 2.191-.867 3.12-.582.923-1.394 1.644-2.434 2.157-1.047.52-2.226.777-3.537.777a9.13 9.13 0 0 1-4.916-1.408l.34-3.8h.478c.714.75 1.366 1.248 1.956 1.498.59.257 1.22.381 1.893.381 1.005 0 1.782-.25 2.316-.755.54-.5.811-1.186.811-2.053 0-.569-.16-1.033-.478-1.4-.312-.375-.735-.639-1.27-.805a6.008 6.008 0 0 0-1.76-.243c-.874 0-1.776.229-2.719.673h-.749L19.316 0h8.565v3.488zM14.336 24.513v-5.818h2.129c.534 0 .991.077 1.373.23.388.152.7.367.936.637.236.27.41.576.52.922.104.347.16.722.16 1.117 0 .582-.118 1.096-.347 1.532a2.466 2.466 0 0 1-1.026 1.02c-.451.236-.992.36-1.616.36h-2.13zm1.63-1.4h.18c.652 0 1.089-.16 1.303-.472a1.828 1.828 0 0 0 0-2.087c-.214-.312-.651-.465-1.303-.465h-.18v3.024zm4.015 1.4 2.066-5.818h1.983l2.06 5.818h-1.747l-.313-1.005h-1.983l-.319 1.005h-1.747zm3.058-4.48-.666 2.192h1.331l-.665-2.191zm5.263 4.48v-2.26l-2.01-3.558h1.92l.985 2.04.963-2.04h1.783l-2.011 3.558v2.26h-1.63z" fill="#fff"/><path fill-rule="evenodd" clip-rule="evenodd" d="M33.912 1.068a1.178 1.178 0 1 1 0 2.358 1.178 1.178 0 1 1 0-2.358zM7.187 14.12v.77a15.432 15.432 0 0 0 4.66 10.7 15.441 15.441 0 0 0 10.817 4.403c2.108 0 4.106-.416 5.922-1.172a15.65 15.65 0 0 0 5.028-3.363 15.62 15.62 0 0 0 3.363-5.02 15.547 15.547 0 0 0 1.165-5.923 1.178 1.178 0 1 1 2.358 0 17.7 17.7 0 0 1-1.352 6.81 17.896 17.896 0 0 1-3.87 5.797 17.97 17.97 0 0 1-5.797 3.87 17.708 17.708 0 0 1-6.817 1.352 17.8 17.8 0 0 1-12.454-5.07A17.807 17.807 0 0 1 4.843 14.93c-.007-.138-.007-.492-.007-.825l-2.323 2.323a1.18 1.18 0 0 1-1.665-1.67l4.32-4.321a1.18 1.18 0 0 1 1.665 0l4.327 4.32a1.189 1.189 0 0 1 0 1.671 1.18 1.18 0 0 1-1.664 0l-2.31-2.309zm29.7-9.466a1.178 1.178 0 1 1 0 2.358 1.178 1.178 0 1 1 0-2.358zm1.852 4.41a1.176 1.176 0 1 1 0 2.352 1.176 1.176 0 1 1 0-2.35z" fill="#FFD4C2"/></svg>