<svg width="34" height="40" viewBox="0 0 34 40" fill="none" xmlns="http://www.w3.org/2000/svg"><path d="M16.674 0c1.78 0 3.231 1.465 3.231 3.274v1.08h6.272c2.181 0 3.962 1.8 3.962 4.002V36c0 2.203-1.781 4.001-3.962 4.001H7.282C5.1 40 3.32 38.202 3.32 35.999V8.356c0-2.203 1.78-4.001 3.962-4.001h6.151V3.284c0-1.799 1.45-3.284 3.241-3.284zm6.532 6.537c0 1.203-.97 2.183-2.16 2.183h-8.633c-1.18 0-2.16-.98-2.16-2.183H7.281c-.99 0-1.801.819-1.801 1.82v27.642c0 1 .81 1.819 1.8 1.819h18.896c.99 0 1.8-.819 1.8-1.82V8.357c0-1-.81-1.819-1.8-1.819h-2.97zm-6.532-4.355c-.6 0-1.08.485-1.08 1.092 0 .596.49 1.08 1.08 1.08a1.085 1.085 0 0 0 0-2.172z" fill="#FFD4C2"/><path d="M2.72 28.14V16.844H.5v-3.365h5.982V28.14H2.72zm11.544-14.66h4.291l-3.54 5.132c.38-.131.78-.192 1.2-.192.91 0 1.69.212 2.35.657.65.434 1.15 1.03 1.48 1.768.341.738.501 1.536.501 2.395 0 1.04-.23 1.97-.69 2.778a4.8 4.8 0 0 1-2 1.87c-.861.444-1.841.676-2.952.676-1.03 0-1.96-.202-2.81-.616a4.668 4.668 0 0 1-2.011-1.808c-.49-.809-.73-1.769-.73-2.9 0-.87.12-1.688.36-2.446.24-.757.65-1.576 1.23-2.435l3.321-4.88zm.6 12.003c.65 0 1.16-.223 1.52-.657.35-.434.531-.95.531-1.546 0-.637-.19-1.162-.57-1.566-.38-.414-.88-.616-1.48-.616s-1.091.202-1.461.606c-.38.394-.57.92-.57 1.576 0 .667.19 1.202.57 1.596.38.405.86.607 1.46.607zm13.124 3.081c-1.55 0-2.73-.444-3.55-1.323a6.378 6.378 0 0 1-1.601-3.021 15.935 15.935 0 0 1 0-6.82 6.364 6.364 0 0 1 1.6-3.032c.82-.869 2-1.313 3.551-1.313 1.54 0 2.721.444 3.551 1.323.82.88 1.35 1.89 1.59 3.021.251 1.132.371 2.274.371 3.405 0 1.94-.36 3.719-1.09 5.336-.73 1.616-2.211 2.424-4.422 2.424zm0-3.081c.52 0 .92-.223 1.18-.647.26-.434.43-.98.52-1.637.08-.657.12-1.455.12-2.395 0-.93-.04-1.727-.12-2.384-.09-.657-.26-1.202-.52-1.637-.26-.434-.66-.647-1.18-.647-.53 0-.92.213-1.19.647-.26.435-.44.98-.52 1.637a20.17 20.17 0 0 0-.12 2.384c0 .94.04 1.738.12 2.395.08.657.26 1.203.52 1.637.27.424.66.647 1.19.647z" fill="#fff"/><path fill-rule="evenodd" clip-rule="evenodd" d="m16.041 34.148 4.033-3.97a.632.632 0 0 1 .888.01.57.57 0 0 1-.012.81l-4.903 4.835-2.994-2.926a.57.57 0 0 1-.018-.81.634.634 0 0 1 .894-.016l2.112 2.067z" fill="#FFD4C2"/></svg>