<svg width="56" height="31" viewBox="0 0 56 31" fill="none" xmlns="http://www.w3.org/2000/svg"><path d="M32.256 19.728c0 .107.033.168.094.168a.284.284 0 0 0 .134-.056L49.813 8.5a1.658 1.658 0 0 1 1-.303h3.809c.584 0 .978.392.978.98v7.333c0 .886-.194 1.402-.973 1.873l-4.62 2.803a.315.315 0 0 1-.155.056c-.056 0-.111-.045-.111-.208V12.48c0-.101-.028-.169-.095-.169a.26.26 0 0 0-.133.056l-12.665 8.297c-.289.196-.628.303-.973.297H27.48c-.589 0-.978-.392-.978-.986V9.407c0-.078-.033-.15-.1-.15a.27.27 0 0 0-.134.055l-8.355 5.057c-.084.056-.106.095-.106.134 0 .034.017.068.072.13l5.971 6.014c.078.079.133.14.133.208 0 .056-.088.1-.194.1h-5.393c-.422 0-.75-.06-.978-.29l-3.62-3.645a.155.155 0 0 0-.11-.056.238.238 0 0 0-.112.034l-6.048 3.666c-.367.224-.618.286-.979.286H.984c-.595.006-.984-.392-.984-.98v-7.193c0-.892.195-1.402.978-1.873L5.626 8.09a.238.238 0 0 1 .122-.04c.073 0 .112.074.112.236v9.631c0 .101.022.146.094.146a.33.33 0 0 0 .14-.056l15.7-9.525c.3-.207.666-.308 1.033-.291h8.45c.584 0 .979.392.979.981l-.006 10.556h.006z" fill="#212121"/></svg>