<svg width="38" height="29" viewBox="0 0 38 29" fill="none" xmlns="http://www.w3.org/2000/svg"><path fill-rule="evenodd" clip-rule="evenodd" d="M18.986 1.578c.582.016.52.437.424.583-1.72 2.751-5.781 7.597-8.74 12.913-.489.862-.853 1.495-.853 2.44 0 1.282.777 2.797 2.34 3.448 1.027.423 1.674.436 2.782.453 8.234.262 11.535.033 18.902-.224.425-.002.821-.297.963-.475 1.425-1.528 2.246-4.275 2.246-6.7 0-5.398-3.78-10.261-9.674-12.6l-.946 1.248c5.166 2.198 7.836 6.586 7.836 11.287a9.942 9.942 0 0 1-.49 3.06c-.233.682-.521 1.074-1.358 1.087-6.004.132-9.403.229-15.423.066-.777-.017-1.028-.308-1.154-.94-.096-.376-.016-.688.235-1.159 3.193-5.82 8.755-12.472 9.847-14.05.208-.291.11-.879-.602-1.073C23.237.308 20.899.05 18.528.05 7.795.095.224 6.307.05 14.017.48 23.27 8.3 28.05 18.528 28.05c6.259 0 11.992-2.277 15.346-5.887l-3.099.129C27.914 24.91 23.33 26.31 18.59 26.31c-8.642 0-15.678-4.422-15.678-12.36 0-6.828 7.035-12.39 15.678-12.39l.397.017z" fill="#212121"/></svg>