<svg width="41" height="20" viewBox="0 0 41 20" fill="none" xmlns="http://www.w3.org/2000/svg"><path fill-rule="evenodd" clip-rule="evenodd" d="M31.473 0h6.446a2.584 2.584 0 0 1 2.582 2.573v14.203a2.584 2.584 0 0 1-2.582 2.572h-6.446a2.584 2.584 0 0 1-2.582-2.572V2.573A2.578 2.578 0 0 1 31.473 0z" fill="#FFF2EB"/><path fill-rule="evenodd" clip-rule="evenodd" d="M31.485 0h2.309v1.546c0 .176.039.293.098.352a.422.422 0 0 0 .293.097h2.191V0h1.556c.361 0 .713.068 1.027.205v7.483a1.29 1.29 0 1 1-2.583 0v-3.11h-2.19a2.963 2.963 0 0 1-2.143-.89c-.509-.519-.831-1.252-.831-2.143V.01c.088-.01.176-.01.273-.01zm7.092 19.27c-.205.058-.42.078-.645.078h-1.937V18.4c0-.176-.03-.293-.088-.352-.059-.059-.167-.098-.303-.098H32.13a1.288 1.288 0 0 1-1.291-1.281v-4.412a1.29 1.29 0 0 1 1.291-1.29h5.155a1.29 1.29 0 1 1 0 2.582h-3.874v1.829h2.191c.822 0 1.585.303 2.143.88.518.528.831 1.252.831 2.142v.87z" fill="#FF4C00"/><path fill-rule="evenodd" clip-rule="evenodd" d="M3.082 0h6.456a2.584 2.584 0 0 1 2.583 2.573v14.203a2.584 2.584 0 0 1-2.583 2.572H3.082A2.584 2.584 0 0 1 .5 16.776V2.573A2.584 2.584 0 0 1 3.082 0z" fill="#FFF2EB"/><path d="M5.37 3.217h1.859c.811 0 1.545.332 2.083.87.03.03.059.06.088.098.48.519.773 1.213.773 1.976v7.023c0 .812-.333 1.546-.861 2.074a2.936 2.936 0 0 1-2.083.87H5.37a2.896 2.896 0 0 1-2.074-.87 2.896 2.896 0 0 1-.87-2.074V6.161c0-.802.332-1.536.87-2.074a2.896 2.896 0 0 1 2.074-.87zm1.859 2.582H5.37a.355.355 0 0 0-.254.108.355.355 0 0 0-.108.254v7.023c0 .098.04.186.108.255a.355.355 0 0 0 .254.107h1.859c.097 0 .185-.039.254-.107a.355.355 0 0 0 .107-.255V6.161a.349.349 0 0 0-.078-.225l-.03-.03A.355.355 0 0 0 7.23 5.8z" fill="#FF4C00"/><path fill-rule="evenodd" clip-rule="evenodd" d="M17.272 0h6.456a2.584 2.584 0 0 1 2.582 2.573v14.203a2.584 2.584 0 0 1-2.582 2.572h-6.456a2.576 2.576 0 0 1-2.573-2.572V2.573A2.576 2.576 0 0 1 17.272 0z" fill="#FFF2EB"/><path d="M19.573 3.217h1.859c.812 0 1.545.332 2.083.87.03.03.059.06.088.098.48.519.773 1.213.773 1.976v7.023c0 .812-.333 1.546-.86 2.074a2.936 2.936 0 0 1-2.084.87h-1.859a2.896 2.896 0 0 1-2.073-.87 2.896 2.896 0 0 1-.871-2.074V6.161c0-.802.332-1.536.87-2.074a2.896 2.896 0 0 1 2.074-.87zm1.859 2.582h-1.859a.355.355 0 0 0-.254.108.355.355 0 0 0-.108.254v7.023a.4.4 0 0 0 .108.255.355.355 0 0 0 .254.107h1.859c.098 0 .195-.039.254-.107a.355.355 0 0 0 .108-.255V6.161a.409.409 0 0 0-.069-.225l-.039-.03a.34.34 0 0 0-.254-.107z" fill="#FF4C00"/></svg>