<svg width="15" height="12" viewBox="0 0 15 12" fill="none" xmlns="http://www.w3.org/2000/svg"><path d="M7.333.5C3.29.5 0 3.79 0 7.833a7.253 7.253 0 0 0 .77 3.26c.125.25.38.407.657.407H13.24a.735.735 0 0 0 .657-.407 7.252 7.252 0 0 0 .77-3.26C14.667 3.79 11.377.5 7.334.5zm5.434 9.533H1.9a5.775 5.775 0 0 1-.432-2.2 5.874 5.874 0 0 1 5.866-5.866A5.873 5.873 0 0 1 13.2 7.833c0 .755-.146 1.502-.433 2.2z" fill="#545454"/><path d="M6.555 7.055a1.122 1.122 0 0 0 .845 2.04 1.122 1.122 0 0 0 .71-.485l2.906-4.427a.025.025 0 0 0 0-.026.024.024 0 0 0-.033-.007L6.555 7.055z" fill="#545454"/></svg>