<svg width="61" height="27" viewBox="0 0 61 27" fill="none" xmlns="http://www.w3.org/2000/svg"><g clip-path="url(#clip0_1322_23819)"><path d="M30.55.055c-2.21 0-4.384.55-6.322 1.6a13.093 13.093 0 0 0-4.765 4.405H.55l1.883 1.86H18.48c-.304.7-.546 1.425-.722 2.167H4.626l1.86 1.837h10.967c-.035.375-.055.75-.058 1.127.003.347.021.694.053 1.04H8.68l1.86 1.837h7.194c.166.741.399 1.466.693 2.167h-5.694l1.883 1.86h4.808a13.09 13.09 0 0 0 4.768 4.462 13.282 13.282 0 0 0 6.358 1.629 13.28 13.28 0 0 0 6.357-1.629 13.089 13.089 0 0 0 4.769-4.462h4.808l1.883-1.86h-5.695c.295-.7.527-1.426.694-2.167h7.194l1.86-1.837h-8.768c.032-.346.05-.693.053-1.04a12.848 12.848 0 0 0-.059-1.127h10.968l1.86-1.837H43.341a12.895 12.895 0 0 0-.722-2.167h16.047l1.883-1.86H41.637a13.092 13.092 0 0 0-4.766-4.405 13.282 13.282 0 0 0-6.321-1.6zm0 1.761c1.493 0 2.972.291 4.351.856a11.383 11.383 0 0 1 3.69 2.435 11.226 11.226 0 0 1 2.465 3.644 11.116 11.116 0 0 1 0 8.599 11.227 11.227 0 0 1-2.465 3.644 11.384 11.384 0 0 1-3.69 2.436c-1.38.564-2.858.855-4.351.855a11.443 11.443 0 0 1-8.041-3.29 11.166 11.166 0 0 1-3.331-7.944c0-2.98 1.198-5.837 3.33-7.944a11.443 11.443 0 0 1 8.042-3.29zm-9.047 8.323v5.823h1.23v-4.584l1.296 4.584h1.274l1.301-4.584v4.584h1.23v-5.823h-1.985l-1.176 3.972-1.19-3.972h-1.98zm7.614 0v5.823h1.323v-5.823h-1.323zm2.593 0v5.823h1.23v-3.797l2.642 3.797h1.328v-5.823h-1.23v3.889l-2.682-3.89H31.71zm6.563 0v5.823h1.323v-5.823h-1.323z" fill="#212121"/></g><defs><clipPath id="clip0_1322_23819"><path fill="#fff" transform="translate(.55 .05)" d="M0 0h60v26H0z"/></clipPath></defs></svg>