<svg width="20" height="20" viewBox="0 0 20 20" fill="none" xmlns="http://www.w3.org/2000/svg"><g clip-path="url(#clip0_780_15475)" fill="#FF4C00"><path d="M2.382 2.5v13.75h8.571V2.5H2.382zm-.715-1.25h10a.77.77 0 0 1 .505.183c.134.117.21.276.21.442v15a.588.588 0 0 1-.21.442.769.769 0 0 1-.505.183h-10a.769.769 0 0 1-.505-.183.588.588 0 0 1-.209-.442v-15c0-.166.075-.325.21-.442a.77.77 0 0 1 .504-.183z"/><path d="M3.81 5h5.713v1.25H3.81V5zm0 3.75h5.713V10H3.81V8.75zm0 3.75h5.713v1.25H3.81V12.5zm8.57-2.5h2.858v1.25H12.38V10zm0 2.5h2.858v1.25H12.38V12.5zM-.476 16.25h20v1.25h-20v-1.25z"/><path d="M12.382 7.5v8.75h4.285V7.5h-4.285zm-.715-1.25h5.715a.77.77 0 0 1 .505.183c.134.117.209.276.209.442v10a.588.588 0 0 1-.21.442.769.769 0 0 1-.504.183h-5.715a.769.769 0 0 1-.505-.183.588.588 0 0 1-.209-.442v-10c0-.166.075-.325.21-.442a.77.77 0 0 1 .504-.183z"/></g><defs><clipPath id="clip0_780_15475"><path fill="#fff" d="M0 0h20v20H0z"/></clipPath></defs></svg>