<svg width="35" height="35" viewBox="0 0 35 35" fill="none" xmlns="http://www.w3.org/2000/svg"><g clip-path="url(#clip0_1322_23768)"><path d="M17.07 32.387c-8.423 0-15.324-6.935-15.324-15.358 0-1.895.338-3.688.98-5.38l8.965 18.031c.102.237.27.44.542.44.27 0 .44-.203.54-.44l4.128-9.235c.034-.101.101-.203.203-.203.101 0 .135.102.203.203l4.127 9.235c.101.237.27.44.541.44.27 0 .44-.203.541-.44l8.965-18.03c.643 1.691.981 3.484.981 5.379-.068 8.423-6.969 15.358-15.392 15.358zm0-18.843c-.101 0-.135-.101-.203-.203L12.063 2.516a14.43 14.43 0 0 1 5.007-.88c1.76 0 3.45.305 5.007.88l-4.804 10.825c-.068.136-.101.203-.203.203zm-4.905 11.13c-.102 0-.135-.102-.203-.203L4.182 8.774C5.567 6.644 7.428 4.85 9.694 3.6l5.616 12.482c.068.203.237.271.406.271h2.706c.203 0 .339-.034.44-.27l5.616-12.483a15.854 15.854 0 0 1 5.514 5.175l-7.849 15.697c-.034.101-.101.203-.203.203-.101 0-.135-.102-.203-.203l-2.943-6.698c-.101-.237-.237-.27-.44-.27H15.65c-.203 0-.338.033-.44.27l-2.841 6.698c-.034.101-.102.203-.203.203zm4.905 9.269c9.37 0 16.914-7.544 16.914-16.914 0-9.37-7.543-16.915-16.914-16.915A16.877 16.877 0 0 0 .156 17.03c0 9.37 7.544 16.914 16.914 16.914z" fill="#212121"/></g><defs><clipPath id="clip0_1322_23768"><path fill="#fff" transform="translate(.05 .05)" d="M0 0h34v34H0z"/></clipPath></defs></svg>