<svg width="41" height="37" viewBox="0 0 41 37" fill="none" xmlns="http://www.w3.org/2000/svg"><path d="M.5 11.296a1.114 1.114 0 0 1 2.227 0v3.745H4.32v-5.015c0-.617.5-1.116 1.111-1.116H8.36V5.09c0-.612.5-1.111 1.116-1.111h6.566V2.227h-4.862c-.616 0-1.11-.5-1.11-1.116C10.068.5 10.562 0 11.178 0h11.945c.617 0 1.112.5 1.112 1.111 0 .617-.495 1.116-1.112 1.116h-4.86V3.98h6.485c.341 0 .65.154.855.401l4.702 4.852h2.237V6.523c0-.611.5-1.11 1.116-1.11h2.863c2.04 0 3.978 2.213 3.978 4.197v12.165c0 1.975-1.952 4.174-3.978 4.174h-2.863c-.616 0-1.116-.5-1.116-1.116v-2.862h-1.592v5.407c0 .616-.495 1.116-1.112 1.116H14.406a1.1 1.1 0 0 1-.854-.401l-4.544-4.694H5.431a1.111 1.111 0 0 1-1.111-1.11v-5.02H2.727v3.744c0 .617-.5 1.116-1.116 1.116C1 22.13.5 21.63.5 21.013v-9.717zm33.159.159h-3.82c-.29 0-.579-.113-.794-.337l-4.763-4.912H10.586v3.82c0 .611-.5 1.111-1.111 1.111H6.547v10.04h2.928c.29 0 .574.112.794.336l4.604 4.754h13.855v-5.412c0-.612.495-1.112 1.111-1.112h3.82c.612 0 1.111.5 1.111 1.112v2.867h1.752c.812 0 1.75-1.177 1.75-1.948V9.61c0-.77-.938-1.97-1.75-1.97H34.77v2.703c0 .617-.5 1.112-1.111 1.112z" fill="#FFD4C2"/><path d="M13.274 22.954v-9.526h-1.891v-2.844h5.09v12.37h-3.199zm13.864-2.722v2.722h-9.526l5.127-5.972c.584-.687.976-1.196 1.158-1.532a2.01 2.01 0 0 0 .285-1.013c0-.304-.06-.584-.191-.831a1.408 1.408 0 0 0-.532-.575 1.502 1.502 0 0 0-.776-.205c-.64 0-1.055.238-1.251.71a3.707 3.707 0 0 0-.285 1.391h-3.096c.019-.649.154-1.33.416-2.04.257-.706.737-1.327 1.438-1.859.7-.532 1.658-.799 2.867-.799 1.032 0 1.887.206 2.564.612.677.411 1.172.93 1.48 1.555.308.63.462 1.28.462 1.952 0 .621-.126 1.21-.383 1.756-.256.55-.64 1.125-1.144 1.714-.504.588-1.256 1.396-2.255 2.414h3.642zM5.258 36.136l.803-5.5h1.541l.967 3.352.966-3.352h1.537l.803 5.5h-1.48l-.407-3.189-.924 3.19h-.99l-.93-3.19-.406 3.19h-1.48zm9.769.154c-.598 0-1.121-.126-1.57-.378a2.583 2.583 0 0 1-1.027-1.036 3.096 3.096 0 0 1-.36-1.49c0-.556.122-1.05.36-1.49.239-.443.584-.789 1.028-1.041.448-.252.97-.374 1.569-.374.593 0 1.116.122 1.564.374.448.252.794.598 1.032 1.041.238.44.355.934.355 1.49 0 .42-.07.803-.2 1.158a2.61 2.61 0 0 1-1.522 1.532c-.37.144-.781.215-1.23.215zm0-1.316c.224 0 .443-.056.653-.168.206-.112.379-.285.51-.528.135-.238.2-.537.2-.892 0-.36-.065-.659-.196-.897a1.319 1.319 0 0 0-.514-.523 1.362 1.362 0 0 0-1.308 0 1.26 1.26 0 0 0-.513.523c-.135.239-.2.537-.2.897 0 .355.065.654.2.892.131.243.304.416.514.528.21.112.425.168.654.168zm3.535 1.162v-5.5h1.62l2.008 3.245v-3.245h1.485v5.5h-1.597l-2.031-3.301v3.301h-1.485zm7.023 0v-4.179h-1.21v-1.322h3.96v1.322h-1.21v4.18h-1.54zm3.45 0v-5.5h1.537v1.98h1.872v-1.98h1.537v5.5h-1.537v-2.199h-1.872v2.2h-1.537z" fill="#fff"/></svg>