<svg width="22" height="22" viewBox="0 0 22 22" fill="none" xmlns="http://www.w3.org/2000/svg"><path d="m19.395 10.185-.502-.558-.013.012-.013.013.528.533zM11.88 2.74l.528.533-.528-.533zm-1.44 5.28.529.531-.529-.532zm.298-.961-.743.102.743-.102zM1.716 18.115l-.528.533.528-.533zm-.002-1.42-.528-.531.528.532zM19.426 4.764l.528.533-.528-.533zm1.438.348.734-.15-.734.15zm-5.675-.258-.528-.532.528.532zm0 1.421.528-.533-.528.533zm-1.165 5.384-.53-.532.53.532zm3.384-9.004-.527-.532.527.532zm-.527-.532L14.66 4.32l1.056 1.065 2.22-2.199-1.056-1.065zm-2.22 4.685.652.646 1.056-1.066-.652-.646-1.056 1.066zm3.116.646 2.177-2.157-1.056-1.066-2.177 2.157 1.056 1.066zm2.352-2.192c.278 1.362.164 3.105-1.236 4.366l1.004 1.115c1.954-1.76 2.035-4.148 1.701-5.782l-1.47.3zm-1.262 4.391c-1.123 1.113-2.644 1.178-3.643.986l-.283 1.473c1.253.241 3.367.207 4.982-1.394l-1.056-1.065zm-5.372 1.474-8.693 8.642 1.058 1.064 8.692-8.642-1.057-1.064zM4.45 19.769l-2.206-2.187-1.056 1.066 2.206 2.186L4.45 19.77zm-2.207-2.542 8.727-8.676-1.058-1.064-8.726 8.677 1.057 1.063zm9.239-10.27c-.154-1.116-.043-2.723.927-3.684l-1.056-1.066c-1.488 1.475-1.53 3.705-1.357 4.954l1.486-.205zm.927-3.684c1.338-1.326 2.912-1.813 4.51-1.354l.415-1.441c-2.215-.637-4.332.095-5.98 1.73l1.055 1.065zM10.97 8.55c.446-.443.588-1.054.513-1.595l-1.486.205c.022.158-.028.271-.084.326l1.058 1.064zm-8.725 9.031a.25.25 0 0 1 0-.355l-1.058-1.063a1.75 1.75 0 0 0 .002 2.484l1.056-1.066zm2.558 2.186a.25.25 0 0 1-.352 0l-1.056 1.066a1.75 1.75 0 0 0 2.466-.002l-1.058-1.064zM19.954 5.296c.067-.067.133-.07.159-.063.011.002.012.005.008.002-.006-.006.002-.004.008.026l1.47-.3a1.508 1.508 0 0 0-1.158-1.192 1.677 1.677 0 0 0-1.543.461l1.056 1.066zm-4.64 2.157a1.75 1.75 0 0 0 2.463 0L16.72 6.387a.25.25 0 0 1-.352 0l-1.056 1.066zM14.66 4.32a1.75 1.75 0 0 0 0 2.486l1.056-1.066a.25.25 0 0 1 0-.355l-1.056-1.065zm.563 6.317c-.564-.108-1.24.002-1.73.488l1.058 1.064c.06-.06.194-.117.389-.079l.283-1.473zm2.712-7.45c.412-.408.581-.974.489-1.498A1.519 1.519 0 0 0 17.334.478l-.415 1.441c.023.007.025.013.021.009-.001-.002.004.003.007.021.007.04-.003.11-.066.173l1.055 1.065z" fill="#FF4C00"/></svg>